<?xml version="1.0" encoding="utf-8"?>
<!-- Generator: Adobe Illustrator 24.3.0, SVG Export Plug-In . SVG Version: 6.00 Build 0)  -->
<svg version="1.1" id="Capa_1" xmlns="http://www.w3.org/2000/svg" xmlns:xlink="http://www.w3.org/1999/xlink" x="0px" y="0px"
	 viewBox="0 0 100 100" style="enable-background:new 0 0 100 100;" xml:space="preserve">
<g transform="translate(0.000000,240.000000) scale(0.100000,-0.100000)">
	<path d="M400,2378.6c-132.6-29.6-241.3-103.1-316.1-214.4c-130.9-196.1-104.8-459.2,62.2-627c50-50.4,126.1-99.1,183.5-117.8
		c21.3-7,23.9-7,33.5-0.4c10.4,7,10.9,8.7,10.9,58.7v51.3l-38.3-2.2c-44.8-2.2-79.6,5.7-100.4,23.5c-7.4,6.1-21.7,27-31.7,46.1
		c-16.5,32.2-28.7,47-62.6,77c-11.3,10-11.7,10.4-3.9,16.1c18.7,13.9,56.5,0.4,80.4-28.3c41.7-50.9,57.8-64.4,81.7-69.6
		c21.3-4.3,40.9-2.6,70.4,6.1c3.9,1.3,9.1,10.4,11.7,20.9c2.6,10,9.6,25.2,15.2,33.5l10.4,15.2l-35.2,7
		c-73.9,15.2-119.6,41.7-149.6,87c-27.8,41.7-37,77.8-37.4,145.2c0,63.5,7,89.6,34.4,125.2c12.2,15.7,13.5,20.4,10,29.6
		c-6.5,15.7-4.8,81.7,2.2,101.8c5.7,14.8,8.7,17.4,20.4,18.7c19.6,2.2,56.1-10.4,93.1-31.3l31.7-18.3l27.8,6.5
		c39.6,9.1,158.3,8.7,193.9,0l27-7l25.2,15.2c33.5,20,76.1,35.7,97.4,35.7c17,0,17-0.4,23.9-22.6c7.4-25.7,8.7-72.2,2.2-94.4
		c-3.5-13-2.6-17,7-29.6c47.4-62.6,52.6-166.5,12.6-251.8c-27-56.1-83.9-95.2-160.5-109.6l-36.5-7l13.5-23.9l13.9-24.4l1.3-97
		l1.7-97l10.9-7c10-6.5,12.2-6.5,33,0.9c34.8,11.7,94.4,43.9,127,68.7c193.9,145.2,256.6,405.7,149.1,622.3
		c-63.1,127.4-182.2,225.2-318.7,261.8C568.7,2387.8,456.5,2391.2,400,2378.6z"/>
</g>
</svg>
