<svg xmlns="http://www.w3.org/2000/svg" xmlns:xlink="http://www.w3.org/1999/xlink" viewBox="0 0 460.31 460.32"><defs><style>.a{fill:url(#a);}.b{fill:url(#b);}.c{fill:url(#c);}.d{fill:url(#d);}</style><linearGradient id="a" x1="230.16" y1="460.32" x2="230.16" gradientUnits="userSpaceOnUse"><stop offset="0" stop-color="#7661ff"/><stop offset="1" stop-color="#9c75ff"/></linearGradient><linearGradient id="b" x1="128.65" y1="121.57" x2="128.65" y2="338.75" gradientUnits="userSpaceOnUse"><stop offset="0" stop-color="#e2deff"/><stop offset="1" stop-color="#fff"/></linearGradient><linearGradient id="c" x1="331.67" y1="121.57" x2="331.67" y2="338.75" xlink:href="#b"/><linearGradient id="d" x1="230.16" y1="194.58" x2="230.16" y2="338.75" xlink:href="#b"/></defs><path class="a" d="M235.71.07A230.14,230.14,0,0,0,49.83,373.16l-8.24,14.42h0l-20.2,35.33a25,25,0,0,0,21.7,37.41H228.27c128,0,233.45-104.76,232-232.78C458.92,103.49,359.39,3,235.71.07Z"/><rect class="b" x="96.35" y="121.57" width="64.6" height="217.18" rx="32.3"/><rect class="c" x="299.37" y="121.57" width="64.6" height="217.18" rx="32.3"/><rect class="d" x="197.86" y="194.58" width="64.6" height="144.17" rx="32.3"/></svg>