<svg width="453" height="133" viewBox="0 0 453 133" fill="none" xmlns="http://www.w3.org/2000/svg">
<path d="M67.5852 0.0190452C55.0463 -0.282202 42.6812 2.99568 31.9381 9.46876C21.195 15.9418 12.5187 25.3421 6.92563 36.5685C1.33251 47.7949 -0.945907 60.3826 0.357229 72.8572C1.66037 85.3319 6.4911 97.1769 14.2836 107.005L11.9208 111.143L6.12603 121.294C5.5028 122.384 5.1769 123.619 5.18096 124.875C5.18502 126.13 5.51889 127.363 6.14915 128.449C6.77941 129.535 7.68394 130.437 8.77217 131.063C9.86039 131.69 11.0941 132.019 12.3498 132.019H65.4534C102.163 132.019 132.397 101.982 131.995 65.2666C131.805 48.165 124.983 31.8049 112.968 19.6336C100.953 7.46226 84.683 0.430164 67.5852 0.0190452ZM46.1484 87.898C46.1484 90.3486 45.1749 92.6989 43.4421 94.4317C41.7093 96.1645 39.359 97.138 36.9084 97.138C34.4578 97.138 32.1076 96.1645 30.3748 94.4317C28.6419 92.6989 27.6684 90.3486 27.6684 87.898V44.14C27.6684 41.6894 28.6419 39.3392 30.3748 37.6064C32.1076 35.8735 34.4578 34.9 36.9084 34.9C39.359 34.9 41.7093 35.8735 43.4421 37.6064C45.1749 39.3392 46.1484 41.6894 46.1484 44.14V87.898ZM65.9946 97.138C63.544 97.138 61.1938 96.1645 59.461 94.4317C57.7281 92.6989 56.7546 90.3486 56.7546 87.898V62.6464C56.7546 60.1906 57.7302 57.8353 59.4668 56.0988C61.2033 54.3622 63.5586 53.3866 66.0144 53.3866C68.4703 53.3866 70.8256 54.3622 72.5621 56.0988C74.2987 57.8353 75.2742 60.1906 75.2742 62.6464V87.898C75.2769 89.1165 75.0385 90.3234 74.5728 91.4493C74.1072 92.5752 73.4234 93.5979 72.5609 94.4586C71.6985 95.3192 70.6743 96.0008 69.5474 96.464C68.4205 96.9273 67.213 97.1631 65.9946 97.1578V97.138ZM104.367 87.898C104.367 90.3486 103.394 92.6989 101.661 94.4317C99.9279 96.1645 97.5776 97.138 95.127 97.138C92.6764 97.138 90.3262 96.1645 88.5934 94.4317C86.8605 92.6989 85.887 90.3486 85.887 87.898V44.14C85.887 41.6894 86.8605 39.3392 88.5934 37.6064C90.3262 35.8735 92.6764 34.9 95.127 34.9C97.5776 34.9 99.9279 35.8735 101.661 37.6064C103.394 39.3392 104.367 41.6894 104.367 44.14V87.898Z" fill="#7152FF"/>
<path d="M219.054 87.7863L192.145 27.6901C191.445 26.1056 190.3 24.7581 188.85 23.8111C187.399 22.8641 185.705 22.3581 183.973 22.3545C182.792 22.3521 181.622 22.5835 180.53 23.0353C179.439 23.487 178.447 24.1502 177.613 24.9867C176.779 25.8232 176.119 26.8164 175.671 27.9092C175.222 29.0019 174.994 30.1726 175 31.3538V98.9377C175 100.751 175.721 102.491 177.003 103.773C178.286 105.056 180.025 105.776 181.839 105.776C183.652 105.776 185.392 105.056 186.674 103.773C187.957 102.491 188.677 100.751 188.677 98.9377V48.6766L212.349 101.463C212.925 102.751 213.861 103.844 215.044 104.611C216.228 105.378 217.608 105.786 219.019 105.785C220.43 105.784 221.81 105.374 222.994 104.606C224.177 103.837 225.113 102.743 225.688 101.454L249.165 48.6766V98.9466C249.165 99.8454 249.342 100.735 249.686 101.566C250.03 102.396 250.535 103.15 251.171 103.785C251.807 104.42 252.562 104.924 253.393 105.267C254.223 105.61 255.113 105.786 256.012 105.785C257.826 105.785 259.565 105.065 260.848 103.782C262.13 102.5 262.851 100.76 262.851 98.9466V31.2738C262.851 28.9153 261.914 26.6535 260.246 24.9858C258.578 23.3181 256.316 22.3812 253.958 22.3812C252.244 22.3846 250.567 22.8833 249.13 23.8173C247.693 24.7512 246.556 26.0807 245.857 27.6456L219.054 87.7863Z" fill="#7152FF"/>
<path d="M321.275 42.798C315.978 40.0348 310.092 38.5918 304.117 38.5918C298.142 38.5918 292.256 40.0348 286.959 42.798C281.868 45.5699 277.668 49.7298 274.847 54.7941C271.818 60.2571 270.284 66.4228 270.401 72.6683C270.269 78.9142 271.758 85.0877 274.722 90.5869C277.481 95.6219 281.597 99.7814 286.603 102.592C291.768 105.46 297.592 106.928 303.499 106.851C309.546 106.918 315.512 105.453 320.84 102.592C326.025 99.8256 330.337 95.6683 333.289 90.5869C336.394 85.1458 337.97 78.967 337.851 72.7038C337.968 66.4583 336.434 60.2926 333.405 54.8297C330.584 49.7504 326.378 45.5776 321.275 42.798ZM320.92 84.9045C319.185 88.0842 316.582 90.7055 313.414 92.4632C310.388 94.1492 306.981 95.0339 303.517 95.0332C300.944 95.0984 298.387 94.6124 296.017 93.6078C293.647 92.6032 291.52 91.1032 289.778 89.2085C286.144 85.3314 284.327 79.8328 284.327 72.7127C284.204 68.4974 285.12 64.3166 286.994 60.5388C288.583 57.3967 291.056 54.7879 294.108 53.0334C297.096 51.3612 300.467 50.494 303.89 50.5168C307.326 50.4869 310.712 51.338 313.726 52.9889C316.832 54.7406 319.371 57.3451 321.044 60.4943C322.989 64.25 323.942 68.4408 323.81 72.6683C323.939 76.9301 322.942 81.1506 320.92 84.9045Z" fill="#7152FF"/>
<path d="M359.069 23.8384C359.069 20.0617 356.008 17 352.231 17C348.454 17 345.393 20.0617 345.393 23.8384V98.9454C345.393 102.722 348.454 105.784 352.231 105.784C356.008 105.784 359.069 102.722 359.069 98.9454V23.8384Z" fill="#7152FF"/>
<path d="M384.743 23.8384C384.743 20.0617 381.682 17 377.905 17C374.128 17 371.066 20.0617 371.066 23.8384V98.9454C371.066 102.722 374.128 105.784 377.905 105.784C381.682 105.784 384.743 102.722 384.743 98.9454V23.8384Z" fill="#7152FF"/>
<path d="M439.653 46.0528L422.757 90.0713L406.67 46.4975C406.176 45.1595 405.284 44.005 404.114 43.1894C402.944 42.3738 401.552 41.9362 400.125 41.9355C398.993 41.9428 397.879 42.2255 396.88 42.7593C395.881 43.293 395.027 44.0618 394.392 44.9992C393.756 45.9366 393.359 47.0146 393.233 48.1401C393.107 49.2656 393.257 50.4049 393.669 51.4595L415.012 104.682L407.373 122.956C406.96 123.949 406.799 125.028 406.903 126.098C407.008 127.167 407.374 128.195 407.97 129.089C408.567 129.984 409.374 130.717 410.322 131.225C411.269 131.733 412.327 131.999 413.402 132C414.689 131.999 415.947 131.619 417.019 130.905C418.09 130.191 418.926 129.177 419.422 127.989L451.56 50.8282C451.966 49.8512 452.124 48.7893 452.02 47.7366C451.917 46.684 451.555 45.6731 450.968 44.7936C450.38 43.9141 449.585 43.1931 448.652 42.6946C447.719 42.196 446.678 41.9353 445.62 41.9355C444.327 41.9421 443.066 42.3385 442.001 43.073C440.937 43.8075 440.118 44.846 439.653 46.0528Z" fill="#7152FF"/>
</svg>
