<?xml version="1.0" encoding="utf-8"?>
<!-- Generator: Adobe Illustrator 24.3.0, SVG Export Plug-In . SVG Version: 6.00 Build 0)  -->
<svg version="1.1" id="Capa_1" xmlns="http://www.w3.org/2000/svg" xmlns:xlink="http://www.w3.org/1999/xlink" x="0px" y="0px"
	 viewBox="0 0 470 470" style="enable-background:new 0 0 470 470;" xml:space="preserve">
<style type="text/css">
	.st0{fill:none;}
	.st1{fill:url(#SVGID_1_);}
	.st2{fill:url(#SVGID_2_);}
	.st3{fill:url(#SVGID_3_);}
	.st4{fill:url(#SVGID_4_);}
	.st5{fill:url(#SVGID_5_);}
</style>
<rect class="st0" width="470" height="470"/>
<linearGradient id="SVGID_1_" gradientUnits="userSpaceOnUse" x1="235.0002" y1="2" x2="235.0002" y2="472" gradientTransform="matrix(1 0 0 -1 0 472)">
	<stop  offset="0" style="stop-color:#7661FF"/>
	<stop  offset="1" style="stop-color:#9C75FF"/>
</linearGradient>
<path class="st1" d="M240.7,0.1C196-1,152,10.7,113.7,33.7c-38.3,23-69.1,56.5-89.1,96.5c-19.9,40-28,84.8-23.4,129.2
	C5.9,303.8,23.1,346,50.9,381l-8.4,14.8l-20.6,36c-2.2,3.9-3.4,8.3-3.4,12.8c0,4.5,1.2,8.9,3.4,12.7c2.2,3.9,5.5,7.1,9.3,9.3
	c3.9,2.2,8.3,3.4,12.7,3.4h189.1c130.7,0,238.4-107,236.9-237.7c-0.7-60.9-25-119.1-67.8-162.4C359.4,26.6,301.5,1.5,240.7,0.1z"/>
<linearGradient id="SVGID_2_" gradientUnits="userSpaceOnUse" x1="369.2225" y1="-56.1823" x2="48.2087" y2="499.8315" gradientTransform="matrix(1 0 0 -1 0 472)">
	<stop  offset="0.13" style="stop-color:#553BFF"/>
	<stop  offset="0.86" style="stop-color:#9064FF"/>
</linearGradient>
<path class="st2" d="M240.7,0.1C196-1,152,10.7,113.7,33.7c-38.3,23-69.1,56.5-89.1,96.5c-19.9,40-28,84.8-23.4,129.2
	C5.9,303.8,23.1,346,50.9,381l-8.4,14.8l-20.6,36c-2.2,3.9-3.4,8.3-3.4,12.8c0,4.5,1.2,8.9,3.4,12.7c2.2,3.9,5.5,7.1,9.3,9.3
	c3.9,2.2,8.3,3.4,12.7,3.4h189.1c130.7,0,238.4-107,236.9-237.7c-0.7-60.9-25-119.1-67.8-162.4C359.4,26.6,301.5,1.5,240.7,0.1z"/>
<g>
	
		<linearGradient id="SVGID_3_" gradientUnits="userSpaceOnUse" x1="131.339" y1="126.133" x2="131.339" y2="347.879" gradientTransform="matrix(1 0 0 -1 0 472)">
		<stop  offset="0" style="stop-color:#E2DEFF"/>
		<stop  offset="1" style="stop-color:#FFFFFF"/>
	</linearGradient>
	<path class="st3" d="M131.3,124.1c-4.3,0-8.6,0.9-12.6,2.5c-4,1.7-7.6,4.1-10.7,7.2c-3.1,3.1-5.5,6.7-7.1,10.7
		c-1.7,4-2.5,8.3-2.5,12.6v155.8c0,8.7,3.5,17.1,9.7,23.3c6.2,6.2,14.6,9.7,23.3,9.7c8.7,0,17.1-3.5,23.3-9.7
		c6.2-6.2,9.7-14.6,9.7-23.3V157.1c0-4.3-0.8-8.6-2.5-12.6c-1.7-4-4.1-7.6-7.1-10.7c-3.1-3.1-6.7-5.5-10.7-7.2
		C140,125,135.7,124.1,131.3,124.1z"/>
</g>
<g>
	
		<linearGradient id="SVGID_4_" gradientUnits="userSpaceOnUse" x1="338.6495" y1="126.133" x2="338.6495" y2="347.879" gradientTransform="matrix(1 0 0 -1 0 472)">
		<stop  offset="0" style="stop-color:#E2DEFF"/>
		<stop  offset="1" style="stop-color:#FFFFFF"/>
	</linearGradient>
	<path class="st4" d="M371.6,157.1c0-18.2-14.8-33-33-33c-18.2,0-33,14.8-33,33v155.8c0,18.2,14.8,33,33,33c18.2,0,33-14.8,33-33
		V157.1z"/>
</g>
<g>
	
		<linearGradient id="SVGID_5_" gradientUnits="userSpaceOnUse" x1="234.991" y1="126.12" x2="234.991" y2="281.999" gradientTransform="matrix(1 0 0 -1 0 472)">
		<stop  offset="0" style="stop-color:#E2DEFF"/>
		<stop  offset="1" style="stop-color:#FFFFFF"/>
	</linearGradient>
	<path class="st5" d="M235,190c-8.7,0-17.1,3.5-23.3,9.7c-6.2,6.2-9.7,14.6-9.7,23.3v90c0,8.7,3.5,17.1,9.7,23.3
		c6.2,6.2,14.6,9.6,23.3,9.6c8.7,0,17.1-3.5,23.3-9.7c6.2-6.2,9.7-14.6,9.7-23.3v-90c0-8.7-3.5-17.1-9.7-23.3
		C252.1,193.5,243.7,190,235,190z"/>
</g>
</svg>
