<svg width="300" height="300" viewBox="0 0 300 300" fill="none" xmlns="http://www.w3.org/2000/svg">
<path d="M85.8997 85.9226C115.387 56.4179 160.377 51.614 194.952 71.4867C198.208 73.3869 202 74.1588 205.74 73.6825C209.479 73.2062 212.957 71.5083 215.633 68.8527L215.886 68.6055C217.734 66.7647 219.137 64.5246 219.985 62.0574C220.833 59.5902 221.104 56.9614 220.777 54.373C220.451 51.7846 219.535 49.3056 218.101 47.1262C216.667 44.9468 214.752 43.1252 212.504 41.8012C188.683 28.0155 160.975 22.4822 133.686 26.0606C106.397 29.639 81.0527 42.1289 61.591 61.5902C42.1293 81.0515 29.6391 106.395 26.0606 133.684C22.4821 160.973 28.0156 188.679 41.8015 212.5C43.1261 214.748 44.9482 216.662 47.1278 218.095C49.3075 219.529 51.7868 220.444 54.3751 220.77C56.9635 221.096 59.5922 220.824 62.0592 219.976C64.5262 219.127 66.766 217.725 68.6064 215.876L68.8536 215.629C71.4999 212.952 73.1898 209.477 73.6616 205.743C74.1334 202.009 73.3609 198.223 71.4635 194.972C51.5904 160.399 56.4005 115.409 85.8997 85.9226Z" fill="#10BDFA"/>
<path d="M228.518 105.123C237.179 120.292 241.298 137.63 240.386 155.073C240.313 156.417 239.941 157.728 239.297 158.909C238.652 160.091 237.752 161.114 236.663 161.903C235.573 162.693 234.32 163.229 232.997 163.473C231.673 163.717 230.312 163.662 229.012 163.313L154.348 143.278C152.815 142.867 151.201 142.867 149.668 143.278C148.135 143.689 146.738 144.496 145.615 145.618C144.493 146.74 143.686 148.138 143.275 149.67C142.865 151.203 142.864 152.817 143.275 154.35L163.311 229.013C163.659 230.31 163.713 231.668 163.471 232.989C163.228 234.309 162.694 235.559 161.908 236.648C161.122 237.737 160.103 238.636 158.926 239.282C157.748 239.928 156.442 240.303 155.101 240.381C137.659 241.294 120.323 237.174 105.156 228.513C101.864 226.61 98.0367 225.845 94.266 226.335C90.4952 226.825 86.9909 228.544 84.2946 231.225C82.4186 233.104 81.0013 235.391 80.153 237.908C79.3046 240.424 79.048 243.102 79.4032 245.734C79.7583 248.365 80.7156 250.88 82.2006 253.081C83.6856 255.283 85.6583 257.112 87.9654 258.427C103.755 267.486 121.333 272.986 139.47 274.543C157.607 276.099 175.865 273.675 192.967 267.438C197.011 265.961 200.355 263.023 202.341 259.203C204.327 255.384 204.81 250.959 203.696 246.8L190.622 198.019C190.348 196.997 190.348 195.921 190.621 194.898C190.895 193.876 191.433 192.944 192.182 192.195C192.93 191.447 193.862 190.909 194.885 190.635C195.907 190.361 196.984 190.361 198.006 190.636L246.8 203.697C250.959 204.814 255.386 204.331 259.207 202.343C263.028 200.356 265.965 197.009 267.438 192.962C273.674 175.861 276.098 157.605 274.542 139.469C272.985 121.334 267.485 103.757 258.427 87.9691C257.113 85.6623 255.285 83.6895 253.084 82.204C250.884 80.7186 248.37 79.7605 245.739 79.4042C243.108 79.048 240.431 79.3031 237.914 80.1498C235.398 80.9965 233.111 82.412 231.23 84.2863C228.553 86.9797 226.836 90.4796 226.346 94.2456C225.856 98.0117 226.619 101.834 228.518 105.123Z" fill="#10BDFA"/>
</svg>
