<?xml version="1.0" standalone="no"?>
<!DOCTYPE svg PUBLIC "-//W3C//DTD SVG 20010904//EN"
 "http://www.w3.org/TR/2001/REC-SVG-20010904/DTD/svg10.dtd">
<svg version="1.0" xmlns="http://www.w3.org/2000/svg"
 width="700.000000pt" height="700.000000pt" viewBox="0 0 700.000000 700.000000"
 preserveAspectRatio="xMidYMid meet">
<metadata>
Created by potrace 1.14, written by Peter Selinger 2001-2017
</metadata>
<g transform="translate(0.000000,700.000000) scale(0.100000,-0.100000)"
fill="#000000" stroke="none">
<path d="M1970 3787 c0 -674 -1 -691 -55 -783 -136 -232 -467 -252 -631 -37
-38 49 -72 136 -78 196 -2 23 -5 45 -5 50 -1 4 -87 7 -192 7 l-192 0 6 -80
c23 -318 250 -587 562 -666 103 -26 280 -27 386 -3 308 72 521 301 575 619 4
25 8 332 8 683 l1 637 -192 0 -193 0 0 -623z"/>
<path d="M3759 4398 c0 -7 -1 -284 -1 -614 0 -340 -4 -624 -10 -654 -25 -141
-137 -264 -272 -301 -117 -32 -252 -3 -347 76 -78 64 -135 182 -138 288 l-1
27 -193 0 -193 0 3 -52 c12 -196 92 -376 225 -504 151 -146 332 -214 558 -210
397 8 680 255 746 652 7 41 12 1257 5 1287 -3 15 -20 17 -192 17 -144 0 -189
-3 -190 -12z"/>
<path d="M5549 4398 c-1 -7 -2 -296 -3 -643 -2 -630 -2 -630 -25 -688 -105
-265 -433 -336 -631 -136 -52 53 -98 152 -106 228 l-7 61 -193 0 -192 0 4 -62
c18 -287 193 -537 454 -648 125 -53 325 -72 465 -45 298 58 500 244 588 540
20 67 21 96 25 738 l3 667 -190 0 c-146 0 -191 -3 -192 -12z"/>
</g>
</svg>
