<svg xmlns="http://www.w3.org/2000/svg" viewBox="0 0 574.54 198.31"><defs><style>.cls-1{fill:#3357a4}</style></defs><g id="Capa_2" data-name="Capa 2"><g id="Capa_1-2" data-name="Capa 1"><polygon class="cls-1" points="188.25 0 153.41 24.35 164.73 66.68 121.82 66.68 82.58 83.94 0 83.94 81.03 121.86 109.03 159.12 101.53 170.14 115.2 195.27 148.05 195.27 122.26 175.73 141.66 135.9 177.26 123.08 192.47 135.2 206.8 93.09 205.37 61.02 245.71 61.02 249.61 43.16 211.76 0 188.25 0"/><path class="cls-1" d="M273.75,13.39l20.4-7L332,41l-30,50.4-30,1.8ZM288.27,25l.48,51.36,24.48-30.72Z"/><path class="cls-1" d="M337.47,11.47l15.6-.48-.72,81.48-16.8.36Z"/><path class="cls-1" d="M423.27,7l-2.4,79.2-16.32,2.16L377.19,39.67,381,92.11l-17.52.72-4.44-77.52,19.44-3.24L407.19,63l-1-56.4Z"/><path class="cls-1" d="M484.23,30.43l1.2,41.76-15.12,20.4-23.64.6-18-18.36-2-44.76,15.6-18.6,25.2-1.2ZM470.67,67.87l-1-33.36L453.87,23.23,441.15,36.67l2.4,31.68,14.64,12Z"/><path class="cls-1" d="M518.07,18.79,508,32.11l37.92,30L533.79,92.83l-25.2,1.8L489,78.91,499.35,67l20,15.36,8-15.36-36.24-25.2-1-15.84L506,7l22.44-.84,19.8,17.4L536.79,35Z"/><path class="cls-1" d="M233.74,117.55l20.4-7,37.8,34.56-30,50.4-30,1.8Zm14.52,11.64.48,51.36,24.48-30.72Z"/><path class="cls-1" d="M297.46,115.63l15.6-.48-.72,81.48-16.8.36Z"/><path class="cls-1" d="M383.26,111.19l-2.4,79.2-16.32,2.16-27.36-48.72L341,196.27,323.5,197l-4.44-77.52,19.44-3.24,28.68,50.88-1-56.4Z"/><path class="cls-1" d="M451.06,111.19l-2.4,79.2-16.32,2.16L405,143.83l3.84,52.44L391.3,197l-4.44-77.52,19.44-3.24L435,167.11l-1-56.4Z"/><path class="cls-1" d="M480.34,130.15,474,147.79l19.44.84-.48,15-18.36-.48L480.7,180l25.92-7.8,4.32,13.68-39.12,12.48-17.16-46.44,19-40.56L510.34,124,505.06,138Z"/><path class="cls-1" d="M567.82,133.39,546.58,157l28,22.44-12.6,12.36-29-26.16,2.64,31.2-16.56,1-4.44-76.56,24.84-9.84Zm-39-8.52L531.46,152l15.6-16Z"/></g></g></svg>