<svg xmlns="http://www.w3.org/2000/svg" xmlns:xlink="http://www.w3.org/1999/xlink" viewBox="0 0 452.35 452.35"><defs><style>.a{fill:url(#a);}.b{fill:url(#b);}.c{fill:url(#c);}</style><linearGradient id="a" x1="226.18" y1="452.35" x2="226.18" gradientUnits="userSpaceOnUse"><stop offset="0" stop-color="#7661ff"/><stop offset="1" stop-color="#9c75ff"/></linearGradient><linearGradient id="b" x1="226.18" y1="265.16" x2="226.18" y2="341.29" gradientUnits="userSpaceOnUse"><stop offset="0" stop-color="#e2deff"/><stop offset="1" stop-color="#fff"/></linearGradient><linearGradient id="c" x1="226.18" y1="111.07" x2="226.18" y2="282.02" xlink:href="#b"/></defs><path class="a" d="M231.63.07A226.16,226.16,0,0,0,49,366.7l-8.1,14.17h0L21,415.59a24.56,24.56,0,0,0,21.33,36.76h182c125.81,0,229.42-102.94,228-228.74C451,101.7,353.17,2.94,231.63.07Z"/><path class="b" d="M321,265.16a14.37,14.37,0,0,0-14.35,14.36v23.7a9.37,9.37,0,0,1-9.35,9.36H155.05a9.37,9.37,0,0,1-9.35-9.36v-23.7a14.36,14.36,0,1,0-28.71,0v23.7a38.11,38.11,0,0,0,38.06,38.07H297.3a38.11,38.11,0,0,0,38.06-38.07v-23.7A14.37,14.37,0,0,0,321,265.16Z"/><path class="c" d="M216,277.78a14.3,14.3,0,0,0,2.24,1.83,5.83,5.83,0,0,0,.69.39l.16.08.16.1a14,14,0,0,0,1.46.75,8.91,8.91,0,0,0,1.05.34l.56.17a8.93,8.93,0,0,0,1.06.3,14.19,14.19,0,0,0,5.61,0c.42-.09.78-.21,1.07-.3l.56-.17a8.62,8.62,0,0,0,1-.35,11.11,11.11,0,0,0,1.47-.76l.3-.16a5.83,5.83,0,0,0,.69-.39,13.77,13.77,0,0,0,2.23-1.83l59.24-59.24a14.35,14.35,0,1,0-20.3-20.29L240.53,233V125.42a14.36,14.36,0,0,0-28.71,0V233l-34.76-34.76a14.35,14.35,0,1,0-20.3,20.29Z"/></svg>