<svg xmlns="http://www.w3.org/2000/svg" viewBox="0 0 200 200"><defs><style>.a{fill:#fff;}.b{fill:none;}.c{fill:#eb64a0;}.d{fill:#d0ebfb;}</style></defs><path class="a" d="M120,147.35v.1c0,.08-.07.59-.07.76,0-.1,0-.2.08-.31l-.07.37s0,0,0-.06v0l-.09.31-.12.29h0c.3-.49-.17.45,0,.11l0-.1c-.17.28-.33.56-.53.83-.06.09-.14.17-.2.26l0-.08a6.26,6.26,0,0,1-.52.51c-.23.21-.48.41-.73.6.37-.22-.55.42,0,0h0l-.62.37a33.17,33.17,0,0,1-3.66,1.75c-1.17.49-2.35,1-3.54,1.39l-.19.07-.2.07-.82.26c-.63.21-1.27.39-1.91.57-1.22.32-2.45.59-3.7.79-.62.09-1.24.16-1.86.22l-.1,0,.24,0c-.52.08-.39,0-.24,0H101l-1,0c-1.16,0-2.29-.14-3.44-.24.32,0,0,0-.14,0h0l-.43-.11c-.28-.08-.56-.17-.84-.28l-.18-.07.17.09-.27-.13.1,0-.14-.07c-.25-.14-.48-.3-.72-.46.33.38-.51-.36,0,0l0,0,0,0-.25-.26c-.08-.08-.14-.17-.21-.25h0c.28.53-.33-.39-.08-.09l.08.09-.17-.31-.05-.1c0,.07,0,.13,0,.14l-.12-.33h0c0-.05,0-.05,0,0s0,0,0-.08c-.07-.31,0-.22,0-.1,0-.13,0-.3,0-.43h0v0c0,.4-.05.2,0,0s0-.12,0-.19,0,.08,0,.16l.09-.24a1,1,0,0,1-.08.11s.24-.62.11-.22l0,.11c0-.1.09-.21.14-.29s.28-.42.43-.63l0,0c-.39.42.38-.53,0-.06h0l.18-.19c.18-.19.37-.38.57-.56.43-.39.88-.75,1.34-1.1s1-.78,1.56-1.15l0,0,0,0c-.35.24.54-.39,0,0l.39-.26.94-.61a49.73,49.73,0,0,1,8.15-4.18l1-.4.48-.18h0l-.22.08.22-.08.16,0c.71-.24,1.42-.47,2.14-.68,1.34-.38,2.69-.71,4-1a2.74,2.74,0,0,0,1.31.06h-.07l.26,0h0c.16,0,.17,0,0,0l.15,0c.33.07.16,0,0,0l.12,0,.3.1,0,0c-.48-.3.59.19,0,0h0l.61.4c-.36-.42.49.33,0,0l0,0,0,0c.08.1.18.18.27.28s.28.35.42.53l.06.08.11.13-.07-.08,0,0,.24.42c.17.3.33.62.48.94s.23.51.34.77l.07.18,0,.11v0c0-.05,0-.13-.08-.23a1.39,1.39,0,0,1,.08.23c0,.14,0,.15,0,0a.73.73,0,0,0,0,.08,9.28,9.28,0,0,1,.22.91c0,.12,0,.24.06.36v0C120,146.89,120.09,147.81,120,147.35Z"/><path class="a" d="M149,134.31c-.2.22-.39.45-.6.67a25.26,25.26,0,0,1-2.82,2.55l-.78.59-.27.19h0c-.54.35-1.08.7-1.63,1s-1.05.58-1.59.83c-.23.11-.47.2-.7.3l-.44.12a7.2,7.2,0,0,1-.78.16l-.26,0H139a2.19,2.19,0,0,1-.36,0s-.08,0-.2,0l-.21,0,.19,0h0c-.18-.05-.35-.12-.52-.18a2.19,2.19,0,0,0-.56-.14c-.14-.15-.27-.3-.4-.46a.18.18,0,0,1-.06-.08s0,0-.1-.12l0-.07s-.07-.08-.09-.08l.06,0c-.13-.25-.26-.49-.38-.75,0,0,0,.07,0,.1a1,1,0,0,0,0-.14l0,0a.37.37,0,0,1-.05-.17c-.07-.28-.11-.56-.16-.84,0-.12,0-.26,0-.29a7.73,7.73,0,0,1,.06-1c0-.12,0-.23,0-.34s.11-.47.18-.71c.15-.58.34-1.14.54-1.7.43-1.19.89-2.38,1.38-3.54l.31-.72,0,0,0,0,.17-.35a19.12,19.12,0,0,1,1-1.69,7.21,7.21,0,0,1,1.07-1.43l0,0,.09-.1.26-.3.69-.72c.93-1,1.91-1.9,2.88-2.83.46-.42.91-.85,1.38-1.25.27-.23.53-.45.8-.66s.41-.27.61-.41c0,0,0-.07.13-.14l.06,0,0,0,0,0c.15-.1.3-.2.46-.29l.51-.27.44.29.22.16a4.07,4.07,0,0,0,.43.4c.22.22.43.46.63.7l.22.3.25.38a11.51,11.51,0,0,1,.69,1.41l.09.23c.06.19.12.39.17.58a13.38,13.38,0,0,1,.33,1.65l0,.25v0c0,.05,0,.09,0,.13a.58.58,0,0,1,0,.19c0,.13,0,.26,0,.39a14.35,14.35,0,0,1-.09,1.61c0,.21-.06.42-.09.62l-.06.28a12.55,12.55,0,0,1-.49,1.58q-.12.33-.27.66h0a.62.62,0,0,0-.05.11l0,.05c0,.14-.07.15-.06.12a.61.61,0,0,1,0,.11,17.47,17.47,0,0,1-.88,1.51,16.41,16.41,0,0,1-1,1.35Z"/><path class="a" d="M46.64,98.89l-.13,0-1,.33a52,52,0,0,1-7,1.78c-1.08.2-2.18.35-3.27.47l-.82.08h-.14l-1,0-.74,0a37.86,37.86,0,0,1-6.47-.39l-.71-.11-.16,0-.08,0c-.57-.12-1.14-.24-1.7-.39a25.84,25.84,0,0,1-3.1-1l-.79-.32-.06,0-.18-.11a13.55,13.55,0,0,1-1.43-.94l-.07-.05-.14-.15c-.19-.18-.37-.36-.54-.55s-.38-.43-.57-.66l-.27-.35-.13-.17c-.14-.19-.08-.12.16.23-.16-.09-.34-.52-.44-.68s-.23-.4-.34-.61a16.33,16.33,0,0,1-.73-1.52c-.05-.13-.27-.86-.14-.35s-.11-.35-.14-.45c-.15-.51-.28-1-.38-1.54a14.66,14.66,0,0,1-.22-1.48v0a1.33,1.33,0,0,1,0-.17V89.8c0-.07,0-.12,0-.12l0,0c0-.24,0-.47,0-.71,0-.5,0-1,.09-1.48,0-.27,0-.53.09-.79a.13.13,0,0,0,0-.06s0-.06,0-.2a.69.69,0,0,0,0-.13s0,.06,0,.09A17.9,17.9,0,0,1,15,83.57l.1-.2c.12-.23.24-.46.37-.69.26-.45.54-.89.84-1.31.15-.22.31-.43.47-.63l.15-.18c.34-.37.68-.74,1.05-1.09a14.59,14.59,0,0,1,1.11-1l.18-.14.17-.14.14-.09.06,0-.05,0,.34-.21a19.58,19.58,0,0,1,3-1.44l.33-.11.77-.23c.62-.18,1.24-.35,1.87-.49s1.09-.25,1.65-.33l.88-.13h.14l.18,0h.11c1.17,0,2.33,0,3.5.09,2.57.15,5.13.26,7.69.44.57,0,1.14.09,1.7.16l.7.1a.45.45,0,0,0,.15.06l.43.07a22.71,22.71,0,0,1,3,1c1.31.53,2.59,1.13,3.89,1.71a35.42,35.42,0,0,0-1.05,3.85,13.26,13.26,0,0,0-.31,4,15.77,15.77,0,0,0,.69,3.1,46.55,46.55,0,0,0,2.55,7.06c-1.08.48-2.16,1-3.25,1.38l-1.64.62Z"/><path class="a" d="M41.32,48.1c0-.52.06-1,.11-1.55l.09-.72.06-.34c.28-1,.47-2,.83-3,.19-.51.39-1,.61-1.51l0-.07,0-.11.06-.11h0l.33-.67c.5-1,1-1.92,1.6-2.86.27-.47.55-.94.83-1.41.13-.22.27-.44.41-.65l.19-.28a7.63,7.63,0,0,0,.57-.57l.14-.1c.47-.29.94-.56,1.42-.83a25,25,0,0,1,3.08-1.5l.16-.07.13,0,.76-.22a13.54,13.54,0,0,1,1.54-.31c.19,0,.39,0,.59-.06h.23c.48,0,1,0,1.44,0l.76.08.52.09.22,0,.75.19c.46.13.92.29,1.37.46l.63.26.22.1A19.1,19.1,0,0,1,63.63,34c.23.16.45.34.67.51l.12.1c.39.35.78.72,1.15,1.1a23.91,23.91,0,0,1,2.06,2.42c.13.17.6,1,.14.18.13.22.28.42.42.63.3.47.59,1,.86,1.45s.51,1,.73,1.51c.09.19.17.39.25.59v0l0,.12a.41.41,0,0,1,0,.18.42.42,0,0,1,0,.1,12.86,12.86,0,0,1,.38,1.63l.09.66v-.05a.13.13,0,0,0,0,.06s0,.06,0,.09a.38.38,0,0,1,0,.15.68.68,0,0,1,0,.14,52.32,52.32,0,0,1-.48,6.6c-.18,1.85-.3,3.71-.38,5.57,0,.46,0,.93,0,1.39-.06,2,0,4.08,0,6.12a29,29,0,0,0-9.15,1.56c-1,.35-2,.73-3,1.16a2.6,2.6,0,0,0-1.11.94,13.8,13.8,0,0,0-3.77,3.77l-.31-.17c-.42-.24-.84-.5-1.24-.78s-.8-.56-1.19-.87l-.07,0c0-.12-.49-.43-.59-.52-.28-.27-.56-.54-.84-.83s-.81-.86-1.18-1.32-.54-.68-.8-1a1,1,0,0,1-.14-.19h0l-.14-.19.09.11-.45-.69a28.59,28.59,0,0,1-1.61-3.05c-.24-.52-.46-1-.67-1.59l-.16-.4s0-.09-.07-.23l-.15-.44c-.35-1.1-.65-2.21-.91-3.34s-.46-2.24-.62-3.36q-.12-.78-.21-1.56c0-.24-.05-.48-.07-.73a.57.57,0,0,1,0-.13c0,.09,0,.11,0-.11V51.1a.06.06,0,0,1,0,0v0A27.3,27.3,0,0,1,41.32,48.1Z"/><path class="a" d="M78.2,64c.42-1.08.87-2.16,1.35-3.22a7.22,7.22,0,0,1,.36-.8c-.39.7,0-.08.13-.27.27-.55.55-1.1.84-1.64a40,40,0,0,1,2.77-4.46c.38-.53.78-1,1.18-1.56a1.15,1.15,0,0,0,.14-.17,8.27,8.27,0,0,0,.55-.63q.66-.75,1.35-1.44c.82-.84,1.68-1.63,2.56-2.39s1.88-1.53,2.86-2.23a2.48,2.48,0,0,1,.26-.19l.6-.4c.55-.36,1.11-.71,1.67-1a40.76,40.76,0,0,1,6.32-3.12l.12,0h0c-.43.19,0,0,.11,0s.54-.18.81-.25a18,18,0,0,1,1.76-.42l.83-.13a2.56,2.56,0,0,0,.39,0,11.43,11.43,0,0,1,1.55,0l.74.08h0l.11,0a10.65,10.65,0,0,1,1.49.44l.69.26.18.08c.44.24.88.47,1.31.74s.83.55,1.22.85c.18.13.35.29.53.42l.23.2A23.07,23.07,0,0,1,115.39,45c.3.36.59.73.87,1.1l.31.44.21.33a15.18,15.18,0,0,1,1.38,2.69l0,.1c.07.23.14.46.19.7s.05.23.07.34,0,.18,0,.27a2.36,2.36,0,0,0,0,.28c0,.23,0,.46,0,.68s-.23.91,0,.1c-.07.2-.1.4-.16.6l-.12.36h0l0,0,0,0c-.12.34-.15.24-.07.09-.11.19-.21.46-.3.6s-.31.48-.47.71c-.35.51-.73,1-1.1,1.48-.75,1-1.51,2-2.28,3a11.35,11.35,0,0,0-1.13,1.38l-.23.27c-.2.22-.39.45-.6.67a35.85,35.85,0,0,1-2.59,2.64,16.82,16.82,0,0,1-2.9,2.36c.73-.41-.15.1-.3.2l-.81.51c-.58.35-1.16.69-1.75,1-4.65,2.63-9.38,5.1-14.07,7.65l-.64.34-.83.21c-.25-.62-.52-1.24-.82-1.84a13.91,13.91,0,0,0-4.83-5.38,20.75,20.75,0,0,0-5.22-2.46C77.6,65.58,77.89,64.81,78.2,64Z"/><path class="a" d="M83.75,101.59A23.38,23.38,0,0,0,89,94.28a15,15,0,0,0,1.38-6.58A33.25,33.25,0,0,0,90,82.34l1.27-.69.52-.13c2.5-.63,5-1.25,7.54-1.79,1.25-.26,2.5-.51,3.75-.73.55-.1,1.09-.2,1.64-.28l.84-.1.29,0h.06a11.62,11.62,0,0,1,1.56,0h.1l.13,0a7.32,7.32,0,0,1,.8.23c1,.31,1.87.73,2.81,1.07a14.09,14.09,0,0,0,1.44.44c1,.63,1.91,1.27,2.84,1.94.48.34,1,.69,1.43,1.05l.7.55.09.09s0,0,.14.11l.06,0,.05,0,0,0a24.3,24.3,0,0,1,2.47,2.5c.16.19.32.39.47.59l.12.15a.15.15,0,0,1,0,.06,16.26,16.26,0,0,1,.94,1.62,12.08,12.08,0,0,1,.59,1.25.63.63,0,0,0,0,.21c0,.14.09.29.14.44.1.33.19.66.27,1a22.23,22.23,0,0,1,.54,2.91c0,.11.07,1,0,.42s0,.2,0,.33c0,.51,0,1,0,1.55s0,1-.09,1.45c0,.21,0,.42-.08.62s-.15.73-.13.68a17.66,17.66,0,0,1-.68,2.36c-.07.19-.15.39-.23.58l-.06.14c-.23.42-.45.84-.71,1.24a13,13,0,0,1-.76,1.07l-.06.06c-.18.2-.36.39-.55.58a13.37,13.37,0,0,1-1.16,1l-.06,0-.15.1c-.27.17-.55.34-.83.49a13.94,13.94,0,0,1-1.56.74c-.09,0-.6.21-.57.21l-.49.15a24,24,0,0,1-3.45.7l-.89.11a4.26,4.26,0,0,0-.87.07l-.34,0-.89,0c-1.18,0-2.37,0-3.55,0s-2.45-.09-3.67-.21c-.56-.06-1.11-.12-1.66-.21-.17,0-1.12-.11-.32,0a7,7,0,0,1-.91-.2,31.76,31.76,0,0,1-6.21-2.17c-.11,0-.51-.26-.11,0l0,0-.14-.07-.74-.37c-.53-.27-1-.55-1.56-.83-1-.54-1.93-1.1-2.87-1.69C86.14,103.12,84.93,102.37,83.75,101.59Z"/><path class="a" d="M79.44,121.74c-.14,2.22-.31,4.44-.67,6.63a2.15,2.15,0,0,0-.09.44c0,.18-.07.37-.12.56-.11.52-.25,1-.4,1.54s-.3,1-.47,1.42c-.09.23-.18.46-.28.68l-.1.24a16.91,16.91,0,0,1-1.42,2.24s-.24.31-.35.42-.39.39-.59.58c-.48.44-1.08.78-1.55,1.22l-.32.21-.76.47c-.53.32-1.07.63-1.61.93a35.75,35.75,0,0,1-3.37,1.6l-.77.29-.3.1c-.59.19-1.18.36-1.78.5s-1.14.25-1.71.34c-.29,0-.57.09-.86.12l-.43,0h-.08a19.79,19.79,0,0,1-3.17-.13l-.61-.1-.25-.05c-.51-.12-1-.27-1.51-.43s-.88-.33-1.31-.51l-.17-.09c-.25-.13-.49-.26-.72-.4a14.16,14.16,0,0,1-1.21-.81l-.13-.1a7.08,7.08,0,0,0-.63-.59,10.77,10.77,0,0,1-1-1.13l-.15-.18a.59.59,0,0,0,0-.08c-.21-.32-.41-.64-.6-1a36.37,36.37,0,0,1-1.69-3.36c-.23-.51-.44-1-.64-1.56,0-.18-.11-.35-.16-.52-.1-.32-.19-.65-.27-1a15.07,15.07,0,0,1-.32-1.78v-.09a1.44,1.44,0,0,0,0-.24c0-.35,0-.69,0-1,0-1.21.11-2.43.24-3.63.07-.54.14-1.08.22-1.61,0-.27.09-.54.13-.81a2.09,2.09,0,0,0,0-.28,1,1,0,0,0,0-.14,42.57,42.57,0,0,1,1.86-6.46c.19-.51.39-1,.6-1.52.11-.28.24-.56.36-.84l.16-.36,0,.06,0-.06h0c.16-.37.12-.24,0,0,.54-1,1-2,1.59-3a60.54,60.54,0,0,1,4-5.93A19,19,0,0,0,66.92,107a24.71,24.71,0,0,0,11-1.82c.19.64.36,1.28.51,1.93.3,1.24.55,2.5.74,3.77.09.59.17,1.19.23,1.79l.09.89a3,3,0,0,0,0,.43h0A62.78,62.78,0,0,1,79.44,121.74Z"/><path class="a" d="M83.53,91.56a.79.79,0,0,1,0,.13l-.07.12v0c-.07.15-.15.29-.23.44-.22.4-.46.79-.71,1.18-.5.79-1,1.56-1.62,2.3l0,0-.15.18-.3.35a13.73,13.73,0,0,1-1,1l-.21.19-.29.24-.28.21h0c-.39.25-.79.49-1.2.71s-1.08.52-1.64.75c-.3.13-.6.25-.91.36l-.22.08L74,100l-.41.11-.94.24a21.62,21.62,0,0,1-2.75.46,2.65,2.65,0,0,0-.27,0l-.43,0c-.46,0-.93,0-1.39,0s-.92-.06-1.38-.12l-.58-.08h-.07a17.76,17.76,0,0,1-2.39-.71c-.18-.06-.36-.14-.54-.21l-.07,0c-.33-.19-.68-.35-1-.54l-.5-.31-.46-.31c-.18-.13-.36-.26-.53-.4l-.08-.06-.1-.09a16.7,16.7,0,0,1-1.61-1.75l-.07-.09a3.64,3.64,0,0,0-.43-.67c-.26-.43-.5-.88-.72-1.33l0,0c-.19-.41-.39-.82-.58-1.24a13.92,13.92,0,0,1-.55-1.48c0,.13.16.48.07.19,0-.12-.08-.23-.11-.34s-.15-.45-.22-.67c-.16-.49-.31-1-.46-1.47a23.78,23.78,0,0,1-.76-2.87s0-.15,0-.25,0-.38,0-.46,0-.41,0-.61l0-.25c.25-.82.41-1.68.65-2.51.14-.48.28-1,.43-1.44l0-.05c.13-.4.26-.8.4-1.2s.3-.81.47-1.2a5.45,5.45,0,0,0,.25-.55c0-.07.07-.13.1-.2a13,13,0,0,1,.71-1.2l.36-.52.18-.23c.16-.17.31-.34.48-.5s.21-.21.32-.31.32-.28.48-.41l.06,0,.07,0,.07,0-.07,0h0l.12-.08a10.88,10.88,0,0,1,1.07-.56l.06,0,.45-.11.2,0a3.17,3.17,0,0,0,1.62-.93l1.21-.32c.79-.2,1.59-.36,2.39-.48.37-.06.75-.11,1.12-.15l.53-.06h.07a23.44,23.44,0,0,1,4.81.22c.12,0,.24,0,.36.06l.13,0,.58.14.58.15h0a17.31,17.31,0,0,1,2.23.78l.37.16.09,0c.39.2.78.42,1.16.65s.72.46,1,.71l.3.23a3.83,3.83,0,0,1,.29.28,8.17,8.17,0,0,1,.78.88v0s0,0,0,0l.06.08c.11.13.12.17.1.16h0c.14.23.27.47.4.71s.36.73.52,1.1l.07.16c.09.21.17.42.26.64l.12.32a1.44,1.44,0,0,1,.06.17h0c0,.14.1.28.14.42s.14.43.2.65c.14.47.26.94.37,1.42.18.71.32,1.43.43,2.16,0,.24.08.48.11.72s.07.61.1.91l0,.23a1.48,1.48,0,0,0,0,.31l0,.79a17.12,17.12,0,0,1-.11,2.77s0,.06,0,.09a2.4,2.4,0,0,0-.13.59,12.24,12.24,0,0,1-.46,1.28Z"/><path class="b" d="M41.59,45.42h0C41.62,45.26,41.63,45.13,41.59,45.42Z"/><path class="b" d="M46.58,34.77l0,.07C46.65,34.74,46.8,34.45,46.58,34.77Z"/><path class="b" d="M17.91,98.49l-.09,0A.21.21,0,0,0,17.91,98.49Z"/><path class="b" d="M105.14,39.56H105C104.54,39.58,105,39.58,105.14,39.56Z"/><path class="b" d="M42.42,76a.47.47,0,0,0,.17,0h-.08Z"/><path class="b" d="M61,32.38c-.25-.13-.13-.07,0,0Z"/><path class="b" d="M85,51.84l0,0Z"/><path class="c" d="M104.66,127.88l-.11-.09,0,0C104.23,127.52,104.94,128.12,104.66,127.88Z"/><path class="c" d="M155.14,140.76Z"/><path class="c" d="M117.52,136.27c.15.08.65.29,0,0Z"/><path class="c" d="M94,155.26l0,0C93.51,154.9,94.35,155.64,94,155.26Z"/><path class="c" d="M95.05,155.88l-.17-.09-.1,0Z"/><path class="c" d="M95.06,155.86Z"/><path class="c" d="M93.23,154.11h0S93.22,154.06,93.23,154.11Z"/><path class="c" d="M93.54,154.71h0l-.08-.09C93.21,154.32,93.82,155.24,93.54,154.71Z"/><path class="c" d="M93.26,153.52v0h0c0-.08,0-.14,0-.16S93.27,153.46,93.26,153.52Z"/><path class="c" d="M116.47,142h0Z"/><path class="c" d="M117,142.14l0,0h0C117.63,142.33,116.56,141.84,117,142.14Z"/><path class="c" d="M119.72,148.82h0l0,.1C119.55,149.27,120,148.33,119.72,148.82Z"/><path class="c" d="M117.78,151h0C117.23,151.37,118.15,150.73,117.78,151Z"/><path class="c" d="M120,147.9c0,.11-.05.21-.08.31s0,0,0,.06Z"/><path class="c" d="M120,147.35c.09.46,0-.46,0,0Z"/><path class="c" d="M96.34,156.25h0Z"/><path class="c" d="M119.69,145.93v0C119.74,146.08,119.73,146.07,119.69,145.93Z"/><path class="c" d="M101.42,156.44l-.24,0C101,156.48,100.9,156.52,101.42,156.44Z"/><path class="c" d="M116.48,142h0C116.65,142,116.64,142,116.48,142Z"/><path class="c" d="M109.8,154.53h0Z"/><path class="c" d="M110.08,154.42h0Z"/><path class="c" d="M117.69,142.56l0,0C118.18,142.89,117.33,142.14,117.69,142.56Z"/><path class="c" d="M116.51,142h0Z"/><path class="c" d="M116.49,142h0l-.26,0h.1l.13,0Z"/><path class="c" d="M116.66,142c.16,0,.33.05,0,0l-.15,0h0Z"/><path class="c" d="M118.5,143.52l0-.05-.06-.08C118.31,143.3,118.27,143.27,118.5,143.52Z"/><path class="c" d="M116.53,142l.13,0-.17,0h0l-.13,0Z"/><path class="c" d="M119,149.84l0,0C119.19,149.67,119.33,149.39,119,149.84Z"/><path class="c" d="M93.28,153.36a1,1,0,0,0,.08-.11l0-.11C93.52,152.74,93.32,153.32,93.28,153.36Z"/><path class="c" d="M97.56,149.34l0,0C98.1,149,97.21,149.58,97.56,149.34Z"/><path class="c" d="M93.26,154.06s0,0,0,0l.05.14,0,.06a1.32,1.32,0,0,0-.06-.2Z"/><path class="c" d="M108.4,143.75l.22-.08Z"/><path class="c" d="M93.89,152.38l0,0h0C94.27,151.85,93.5,152.8,93.89,152.38Z"/><path class="c" d="M93.24,154.1h0l.12.33s0-.07,0-.14l0-.06Z"/><polygon class="c" points="93.24 154.1 93.23 154.09 93.23 154.1 93.23 154.11 93.24 154.1"/><path class="c" d="M93.25,153.92v.14A.71.71,0,0,0,93.25,153.92Z"/><path class="c" d="M136.23,138.61h0c0,.06.05.13.07.2l0,0C136.27,138.59,136.23,138.55,136.23,138.61Z"/><path class="c" d="M151.22,130.81a1.31,1.31,0,0,0-.12.27l.09-.17Z"/><path class="c" d="M152.2,125.67c0-.11,0-.21,0-.32v0C152.17,125.64,152.18,125.7,152.2,125.67Z"/><path class="c" d="M138.45,140.73l.2,0-.22,0Z"/><path class="c" d="M136.7,139.61l0,.06.13.19A.4.4,0,0,0,136.7,139.61Z"/><path class="c" d="M147.72,119.54h0a1.66,1.66,0,0,1-.19.18A.61.61,0,0,0,147.72,119.54Z"/><path class="c" d="M192.28,136c-.32-1.29-1.78-2.61-3.23-2.13a139.65,139.65,0,0,1-23.7,5.71h-.12q-3,.45-5.93.76l-2.94.28-.78.06-.39,0H155l-.39,0-.79,0c-1.28.08-2.57.14-3.86.18.38-.33.76-.67,1.13-1,3.9-3.67,6.85-8.78,6.57-14.28a15,15,0,0,0-2.25-7.54c-1.66-2.5-4.55-5.43-7.86-4.61a12.77,12.77,0,0,0-4.67,2.77c-1.16,1-2.24,2-3.33,3.06a26.31,26.31,0,0,0-5.57,7.07c-.76,1.55-1.39,3.15-2,4.76a22.46,22.46,0,0,0-1.28,4.62,9.44,9.44,0,0,0,.36,4.43c-.61-.08-1.22-.17-1.82-.27-.24,0-.48-.07-.7-.12l-.31-.07c-.48-.09-.95-.2-1.42-.31-.85-.2-1.7-.43-2.53-.67a48.46,48.46,0,0,1-4.82-1.72l-1.15-.49-.61-.28-.22-.1h0c-.75-.36-1.49-.74-2.23-1.14-1.52-.82-3-1.72-4.46-2.67s-2.87-2-4.25-3.05c-.68-.53-1.34-1.07-2-1.62l.11.09c.28.24-.43-.36-.15-.13l0,0-.08-.07-.52-.45-1-.9a108.19,108.19,0,0,1-12.88-14,35.63,35.63,0,0,0,12,3.33,57.81,57.81,0,0,0,7.56.12,29.91,29.91,0,0,0,8-1.29,16.37,16.37,0,0,0,11.05-10.44A23,23,0,0,0,129,90.55a20.48,20.48,0,0,0-4-7.93,30.87,30.87,0,0,0-6-5.34l-1.38-1a3,3,0,0,0-2.58-1.76l-.65,0-.31-.08c-.51-.15-1-.33-1.49-.52a24.34,24.34,0,0,0-3.1-1.11,15,15,0,0,0-1.61-.27c.5-.3,1-.6,1.47-.93a35.93,35.93,0,0,0,6.48-5.52c1.94-2.1,3.7-4.36,5.43-6.64s3.24-4.48,3.38-7.37a9.19,9.19,0,0,0,0-1.05,14.35,14.35,0,0,0-1.94-6.21,25.35,25.35,0,0,0-4.35-5.69A21.83,21.83,0,0,0,112,34.68a15.31,15.31,0,0,0-7.44-1.23,23.91,23.91,0,0,0-8.09,2.31,46,46,0,0,0-6.67,3.75A44.14,44.14,0,0,0,78,51c-.61.88-1.18,1.79-1.71,2.72.11-1.42.24-2.83.38-4.25a20.9,20.9,0,0,0-.4-7.56,24.09,24.09,0,0,0-3.78-7.48A22.56,22.56,0,0,0,61,25.8a18.56,18.56,0,0,0-7.37-.7,19.65,19.65,0,0,0-7.3,2.48,20.91,20.91,0,0,0-3.5,2.22,12.33,12.33,0,0,0-2.51,3.31,52.51,52.51,0,0,0-3.48,6.7c-1.9,4.63-2,9.67-1.33,14.57A37.67,37.67,0,0,0,40.36,69l.36.57c-1.86-.17-3.75-.21-5.61-.31a42.87,42.87,0,0,0-8.4,0C21.57,69.93,16.27,72,12.77,76a19.26,19.26,0,0,0-5.08,14c.34,5.42,2.75,11,7.4,14.11a21.46,21.46,0,0,0,7.27,2.8,39.63,39.63,0,0,0,7.51,1c.91,0,1.82,0,2.74,0a49.75,49.75,0,0,0,12.36-2l1.81-.55c-.82,1.42-1.57,2.89-2.25,4.39a45.16,45.16,0,0,0-3.78,14.71,21.53,21.53,0,0,0,.76,8.56,31.07,31.07,0,0,0,3.69,7.84,16.13,16.13,0,0,0,5.86,5.39,20.18,20.18,0,0,0,7.48,2.22c5.45.52,11-1.32,15.65-4a22.4,22.4,0,0,0,6.88-5.57,18.69,18.69,0,0,0,3.09-6.51A41.4,41.4,0,0,0,85.38,125c.24-2.67.41-5.36.4-8,0-.42,0-.83,0-1.24A112.36,112.36,0,0,0,97.19,128.5,76,76,0,0,0,109,137.81a51.15,51.15,0,0,0-12.15,5.48,28.65,28.65,0,0,0-7.34,5.83,7.89,7.89,0,0,0-1.74,4,7.13,7.13,0,0,0,1.69,5.22c2,2.58,5.5,3.39,8.62,3.55a31.33,31.33,0,0,0,8.74-.87,55.78,55.78,0,0,0,8.63-2.91c3-1.26,6-2.65,8.12-5.28a8.69,8.69,0,0,0,1.87-4.84,9.92,9.92,0,0,0-.45-3.34l.11,0a71.61,71.61,0,0,0,13,1.66,143.3,143.3,0,0,0,24.06-.83l1-.12a139.73,139.73,0,0,0,24.1-5.22c1-.3,1.94-.62,2.91-.94a3,3,0,0,0,1.75-1.21A2.78,2.78,0,0,0,192.28,136ZM113,60.09l-.07.07C113,60,113.32,59.69,113,60.09Zm-8-20.53h.12C105,39.58,104.54,39.58,105,39.56ZM85,51.84l0,0ZM78.2,64c.42-1.08.87-2.16,1.35-3.22a7.22,7.22,0,0,1,.36-.8c-.39.7,0-.08.13-.27.27-.55.55-1.1.84-1.64a40,40,0,0,1,2.77-4.46c.38-.53.78-1,1.18-1.56a1.15,1.15,0,0,0,.14-.17,8.27,8.27,0,0,0,.55-.63q.66-.75,1.35-1.44c.82-.84,1.68-1.63,2.56-2.39s1.88-1.53,2.86-2.23a2.48,2.48,0,0,1,.26-.19l.6-.4c.55-.36,1.11-.71,1.67-1a40.76,40.76,0,0,1,6.32-3.12l.12,0h0c-.43.19,0,0,.11,0s.54-.18.81-.25a18,18,0,0,1,1.76-.42l.83-.13a2.56,2.56,0,0,0,.39,0,11.43,11.43,0,0,1,1.55,0l.74.08h0l.11,0a10.65,10.65,0,0,1,1.49.44l.69.26.18.08c.44.24.88.47,1.31.74s.83.55,1.22.85c.18.13.35.29.53.42l.23.2A23.07,23.07,0,0,1,115.39,45c.3.36.59.73.87,1.1l.31.44.21.33a15.18,15.18,0,0,1,1.38,2.69l0,.1c.07.23.14.46.19.7s.05.23.07.34,0,.18,0,.27a2.36,2.36,0,0,0,0,.28c0,.23,0,.46,0,.68s-.23.91,0,.1c-.07.2-.1.4-.16.6l-.12.36h0l0,0,0,0c-.12.34-.15.24-.07.09-.11.19-.21.46-.3.6s-.31.48-.47.71c-.35.51-.73,1-1.1,1.48-.75,1-1.51,2-2.28,3a11.35,11.35,0,0,0-1.13,1.38l-.23.27c-.2.22-.39.45-.6.67a35.85,35.85,0,0,1-2.59,2.64,16.82,16.82,0,0,1-2.9,2.36c.73-.41-.15.1-.3.2l-.81.51c-.58.35-1.16.69-1.75,1-4.65,2.63-9.38,5.1-14.07,7.65l-.64.34-.83.21c-.25-.62-.52-1.24-.82-1.84a13.91,13.91,0,0,0-4.83-5.38,20.75,20.75,0,0,0-5.22-2.46C77.6,65.58,77.89,64.81,78.2,64ZM61,32.38h0C60.86,32.31,60.74,32.25,61,32.38ZM46.58,34.77c.22-.32.07,0,0,.07Zm-5,10.65c0-.29,0-.16,0,0Zm-.27,2.68c0-.52.06-1,.11-1.55l.09-.72.06-.34c.28-1,.47-2,.83-3,.19-.51.39-1,.61-1.51l0-.07,0-.11.06-.11h0l.33-.67c.5-1,1-1.92,1.6-2.86.27-.47.55-.94.83-1.41.13-.22.27-.44.41-.65l.19-.28a7.63,7.63,0,0,0,.57-.57l.14-.1c.47-.29.94-.56,1.42-.83a25,25,0,0,1,3.08-1.5l.16-.07.13,0,.76-.22a13.54,13.54,0,0,1,1.54-.31c.19,0,.39,0,.59-.06h.23c.48,0,1,0,1.44,0l.76.08.52.09.22,0,.75.19c.46.13.92.29,1.37.46l.63.26.22.1A19.1,19.1,0,0,1,63.63,34c.23.16.45.34.67.51l.12.1c.39.35.78.72,1.15,1.1a23.91,23.91,0,0,1,2.06,2.42c.13.17.6,1,.14.18.13.22.28.42.42.63.3.47.59,1,.86,1.45s.51,1,.73,1.51c.09.19.17.39.25.59v0l0,.12a.41.41,0,0,1,0,.18.42.42,0,0,1,0,.1,12.86,12.86,0,0,1,.38,1.63l.09.66v-.05a.13.13,0,0,0,0,.06s0,.06,0,.09a.38.38,0,0,1,0,.15.68.68,0,0,1,0,.14,52.32,52.32,0,0,1-.48,6.6c-.18,1.85-.3,3.71-.38,5.57,0,.46,0,.93,0,1.39-.06,2,0,4.08,0,6.12a29,29,0,0,0-9.15,1.56c-1,.35-2,.73-3,1.16a2.6,2.6,0,0,0-1.11.94,13.8,13.8,0,0,0-3.77,3.77l-.31-.17c-.42-.24-.84-.5-1.24-.78s-.8-.56-1.19-.87l-.07,0c0-.12-.49-.43-.59-.52-.28-.27-.56-.54-.84-.83s-.81-.86-1.18-1.32-.54-.68-.8-1a1,1,0,0,1-.14-.19h0l-.14-.19.09.11-.45-.69a28.59,28.59,0,0,1-1.61-3.05c-.24-.52-.46-1-.67-1.59l-.16-.4s0-.09-.07-.23l-.15-.44c-.35-1.1-.65-2.21-.91-3.34s-.46-2.24-.62-3.36q-.12-.78-.21-1.56c0-.24-.05-.48-.07-.73a.57.57,0,0,1,0-.13c0,.09,0,.11,0-.11V51.1a.06.06,0,0,1,0,0v0A27.3,27.3,0,0,1,41.32,48.1Zm8.56,22.71-.14-.11C49.35,70.39,49.78,70.72,49.88,70.81ZM42.59,76a.47.47,0,0,1-.17,0l.09,0h.08C42.88,76,42.74,76,42.59,76Zm4,22.89-.13,0-1,.33a52,52,0,0,1-7,1.78c-1.08.2-2.18.35-3.27.47l-.82.08h-.14l-1,0-.74,0a37.86,37.86,0,0,1-6.47-.39l-.71-.11-.16,0-.08,0c-.57-.12-1.14-.24-1.7-.39a25.84,25.84,0,0,1-3.1-1l-.79-.32-.06,0-.18-.11a13.55,13.55,0,0,1-1.43-.94l-.07-.05-.14-.15c-.19-.18-.37-.36-.54-.55s-.38-.43-.57-.66l-.27-.35-.13-.17c-.14-.19-.08-.12.16.23-.16-.09-.34-.52-.44-.68s-.23-.4-.34-.61a16.33,16.33,0,0,1-.73-1.52c-.05-.13-.27-.86-.14-.35s-.11-.35-.14-.45c-.15-.51-.28-1-.38-1.54a14.66,14.66,0,0,1-.22-1.48v0a1.33,1.33,0,0,1,0-.17V89.8c0-.07,0-.12,0-.12l0,0c0-.24,0-.47,0-.71,0-.5,0-1,.09-1.48,0-.27,0-.53.09-.79a.13.13,0,0,0,0-.06s0-.06,0-.2a.69.69,0,0,0,0-.13s0,.06,0,.09A17.9,17.9,0,0,1,15,83.57l.1-.2c.12-.23.24-.46.37-.69.26-.45.54-.89.84-1.31.15-.22.31-.43.47-.63l.15-.18c.34-.37.68-.74,1.05-1.09a14.59,14.59,0,0,1,1.11-1l.18-.14.17-.14.14-.09.06,0-.05,0,.34-.21a19.58,19.58,0,0,1,3-1.44l.33-.11.77-.23c.62-.18,1.24-.35,1.87-.49s1.09-.25,1.65-.33l.88-.13h.14l.18,0h.11c1.17,0,2.33,0,3.5.09,2.57.15,5.13.26,7.69.44.57,0,1.14.09,1.7.16l.7.1a.45.45,0,0,0,.15.06l.43.07a22.71,22.71,0,0,1,3,1c1.31.53,2.59,1.13,3.89,1.71a35.42,35.42,0,0,0-1.05,3.85,13.26,13.26,0,0,0-.31,4,15.77,15.77,0,0,0,.69,3.1,46.55,46.55,0,0,0,2.55,7.06c-1.08.48-2.16,1-3.25,1.38l-1.64.62Zm26.94,38.7Zm5.14-9,0,.12C78.73,128.56,78.81,128.22,78.72,128.62Zm.72-6.88c-.14,2.22-.31,4.44-.67,6.63a2.15,2.15,0,0,0-.09.44c0,.18-.07.37-.12.56-.11.52-.25,1-.4,1.54s-.3,1-.47,1.42c-.09.23-.18.46-.28.68l-.1.24a16.91,16.91,0,0,1-1.42,2.24s-.24.31-.35.42-.39.39-.59.58c-.48.44-1.08.78-1.55,1.22l-.32.21-.76.47c-.53.32-1.07.63-1.61.93a35.75,35.75,0,0,1-3.37,1.6l-.77.29-.3.1c-.59.19-1.18.36-1.78.5s-1.14.25-1.71.34c-.29,0-.57.09-.86.12l-.43,0h-.08a19.79,19.79,0,0,1-3.17-.13l-.61-.1-.25-.05c-.51-.12-1-.27-1.51-.43s-.88-.33-1.31-.51l-.17-.09c-.25-.13-.49-.26-.72-.4a14.16,14.16,0,0,1-1.21-.81l-.13-.1a7.08,7.08,0,0,0-.63-.59,10.77,10.77,0,0,1-1-1.13l-.15-.18a.59.59,0,0,0,0-.08c-.21-.32-.41-.64-.6-1a36.37,36.37,0,0,1-1.69-3.36c-.23-.51-.44-1-.64-1.56,0-.18-.11-.35-.16-.52-.1-.32-.19-.65-.27-1a15.07,15.07,0,0,1-.32-1.78v-.09a1.44,1.44,0,0,0,0-.24c0-.35,0-.69,0-1,0-1.21.11-2.43.24-3.63.07-.54.14-1.08.22-1.61,0-.27.09-.54.13-.81a2.09,2.09,0,0,0,0-.28,1,1,0,0,0,0-.14,42.57,42.57,0,0,1,1.86-6.46c.19-.51.39-1,.6-1.52.11-.28.24-.56.36-.84l.16-.36,0,.06,0-.06h0c.16-.37.12-.24,0,0,.54-1,1-2,1.59-3a60.54,60.54,0,0,1,4-5.93A19,19,0,0,0,66.92,107a24.71,24.71,0,0,0,11-1.82c.19.64.36,1.28.51,1.93.3,1.24.55,2.5.74,3.77.09.59.17,1.19.23,1.79l.09.89a3,3,0,0,0,0,.43h0A62.78,62.78,0,0,1,79.44,121.74Zm4.09-30.18a.79.79,0,0,1,0,.13l-.07.12v0c-.07.15-.15.29-.23.44-.22.4-.46.79-.71,1.18-.5.79-1,1.56-1.62,2.3l0,0-.15.18-.3.35a13.73,13.73,0,0,1-1,1l-.21.19-.29.24-.28.21h0c-.39.25-.79.49-1.2.71s-1.08.52-1.64.75c-.3.13-.6.25-.91.36l-.22.08L74,100l-.41.11-.94.24a21.62,21.62,0,0,1-2.75.46,2.65,2.65,0,0,0-.27,0l-.43,0c-.46,0-.93,0-1.39,0s-.92-.06-1.38-.12l-.58-.08h-.07a17.76,17.76,0,0,1-2.39-.71c-.18-.06-.36-.14-.54-.21l-.07,0c-.33-.19-.68-.35-1-.54l-.5-.31-.46-.31c-.18-.13-.36-.26-.53-.4l-.08-.06-.1-.09a16.7,16.7,0,0,1-1.61-1.75l-.07-.09a3.64,3.64,0,0,0-.43-.67c-.26-.43-.5-.88-.72-1.33l0,0c-.19-.41-.39-.82-.58-1.24a13.92,13.92,0,0,1-.55-1.48c0,.13.16.48.07.19,0-.12-.08-.23-.11-.34s-.15-.45-.22-.67c-.16-.49-.31-1-.46-1.47a23.78,23.78,0,0,1-.76-2.87s0-.15,0-.25,0-.38,0-.46,0-.41,0-.61l0-.25c.25-.82.41-1.68.65-2.51.14-.48.28-1,.43-1.44l0-.05c.13-.4.26-.8.4-1.2s.3-.81.47-1.2a5.45,5.45,0,0,0,.25-.55c0-.07.07-.13.1-.2a13,13,0,0,1,.71-1.2l.36-.52.18-.23c.16-.17.31-.34.48-.5s.21-.21.32-.31.32-.28.48-.41l.06,0,.07,0,.07,0-.07,0h0l.12-.08a10.88,10.88,0,0,1,1.07-.56l.06,0,.45-.11.2,0a3.17,3.17,0,0,0,1.62-.93l1.21-.32c.79-.2,1.59-.36,2.39-.48.37-.06.75-.11,1.12-.15l.53-.06h.07a23.44,23.44,0,0,1,4.81.22c.12,0,.24,0,.36.06l.13,0,.58.14.58.15h0a17.31,17.31,0,0,1,2.23.78l.37.16.09,0c.39.2.78.42,1.16.65s.72.46,1,.71l.3.23a3.83,3.83,0,0,1,.29.28,8.17,8.17,0,0,1,.78.88v0s0,0,0,0l.06.08c.11.13.12.17.1.16h0c.14.23.27.47.4.71s.36.73.52,1.1l.07.16c.09.21.17.42.26.64l.12.32a1.44,1.44,0,0,1,.06.17h0c0,.14.1.28.14.42s.14.43.2.65c.14.47.26.94.37,1.42.18.71.32,1.43.43,2.16,0,.24.08.48.11.72s.07.61.1.91l0,.23a1.48,1.48,0,0,0,0,.31l0,.79a17.12,17.12,0,0,1-.11,2.77s0,.06,0,.09a2.4,2.4,0,0,0-.13.59,12.24,12.24,0,0,1-.46,1.28Zm.22,10A23.38,23.38,0,0,0,89,94.28a15,15,0,0,0,1.38-6.58A33.25,33.25,0,0,0,90,82.34l1.27-.69.52-.13c2.5-.63,5-1.25,7.54-1.79,1.25-.26,2.5-.51,3.75-.73.55-.1,1.09-.2,1.64-.28l.84-.1.29,0h.06a11.62,11.62,0,0,1,1.56,0h.1l.13,0a7.32,7.32,0,0,1,.8.23c1,.31,1.87.73,2.81,1.07a14.09,14.09,0,0,0,1.44.44c1,.63,1.91,1.27,2.84,1.94.48.34,1,.69,1.43,1.05l.7.55.09.09s0,0,.14.11l.06,0,.05,0,0,0a24.3,24.3,0,0,1,2.47,2.5c.16.19.32.39.47.59l.12.15a.15.15,0,0,1,0,.06,16.26,16.26,0,0,1,.94,1.62,12.08,12.08,0,0,1,.59,1.25.63.63,0,0,0,0,.21c0,.14.09.29.14.44.1.33.19.66.27,1a22.23,22.23,0,0,1,.54,2.91c0,.11.07,1,0,.42s0,.2,0,.33c0,.51,0,1,0,1.55s0,1-.09,1.45c0,.21,0,.42-.08.62s-.15.73-.13.68a17.66,17.66,0,0,1-.68,2.36c-.07.19-.15.39-.23.58l-.06.14c-.23.42-.45.84-.71,1.24a13,13,0,0,1-.76,1.07l-.06.06c-.18.2-.36.39-.55.58a13.37,13.37,0,0,1-1.16,1l-.06,0-.15.1c-.27.17-.55.34-.83.49a13.94,13.94,0,0,1-1.56.74c-.09,0-.6.21-.57.21l-.49.15a24,24,0,0,1-3.45.7l-.89.11a4.26,4.26,0,0,0-.87.07l-.34,0-.89,0c-1.18,0-2.37,0-3.55,0s-2.45-.09-3.67-.21c-.56-.06-1.11-.12-1.66-.21-.17,0-1.12-.11-.32,0a7,7,0,0,1-.91-.2,31.76,31.76,0,0,1-6.21-2.17c-.11,0-.51-.26-.11,0l0,0-.14-.07-.74-.37c-.53-.27-1-.55-1.56-.83-1-.54-1.93-1.1-2.87-1.69C86.14,103.12,84.93,102.37,83.75,101.59ZM120,147.35v.1c0,.08-.07.59-.07.76,0-.1,0-.2.08-.31l-.07.37s0,0,0-.06v0l-.09.31-.12.29h0c.3-.49-.17.45,0,.11l0-.1c-.17.28-.33.56-.53.83-.06.09-.14.17-.2.26l0-.08a6.26,6.26,0,0,1-.52.51c-.23.21-.48.41-.73.6.37-.22-.55.42,0,0h0l-.62.37a33.17,33.17,0,0,1-3.66,1.75c-1.17.49-2.35,1-3.54,1.39l-.19.07-.2.07-.82.26c-.63.21-1.27.39-1.91.57-1.22.32-2.45.59-3.7.79-.62.09-1.24.16-1.86.22l-.1,0,.24,0c-.52.08-.39,0-.24,0H101l-1,0c-1.16,0-2.29-.14-3.44-.24.32,0,0,0-.14,0h0l-.43-.11c-.28-.08-.56-.17-.84-.28l-.18-.07.17.09-.27-.13.1,0-.14-.07c-.25-.14-.48-.3-.72-.46.33.38-.51-.36,0,0l0,0,0,0-.25-.26c-.08-.08-.14-.17-.21-.25h0c.28.53-.33-.39-.08-.09l.08.09-.17-.31-.05-.1c0,.07,0,.13,0,.14l-.12-.33h0c0-.05,0-.05,0,0s0,0,0-.08c-.07-.31,0-.22,0-.1,0-.13,0-.3,0-.43h0v0c0,.4-.05.2,0,0s0-.12,0-.19,0,.08,0,.16l.09-.24a1,1,0,0,1-.08.11s.24-.62.11-.22l0,.11c0-.1.09-.21.14-.29s.28-.42.43-.63l0,0c-.39.42.38-.53,0-.06h0l.18-.19c.18-.19.37-.38.57-.56.43-.39.88-.75,1.34-1.1s1-.78,1.56-1.15l0,0,0,0c-.35.24.54-.39,0,0l.39-.26.94-.61a49.73,49.73,0,0,1,8.15-4.18l1-.4.48-.18h0l-.22.08.22-.08.16,0c.71-.24,1.42-.47,2.14-.68,1.34-.38,2.69-.71,4-1a2.74,2.74,0,0,0,1.31.06h-.07l.26,0h0c.16,0,.17,0,0,0l.15,0c.33.07.16,0,0,0l.12,0,.3.1,0,0c-.48-.3.59.19,0,0h0l.61.4c-.36-.42.49.33,0,0l0,0,0,0c.08.1.18.18.27.28s.28.35.42.53l.06.08.11.13-.07-.08,0,0,.24.42c.17.3.33.62.48.94s.23.51.34.77l.07.18,0,.11v0c0-.05,0-.13-.08-.23a1.39,1.39,0,0,1,.08.23c0,.14,0,.15,0,0a.73.73,0,0,0,0,.08,9.28,9.28,0,0,1,.22.91c0,.12,0,.24.06.36v0C120,146.89,120.09,147.81,120,147.35Zm28.88-28.45c.14,0,.37,0,0,0Zm-.32,0h0s-.09,0-.1,0Zm-12.5,18.8c-.05-.25,0-.14,0,0Zm0,.22v-.12C136.07,137.86,136.08,137.91,136.07,137.92ZM149,134.31c-.2.22-.39.45-.6.67a25.26,25.26,0,0,1-2.82,2.55l-.78.59-.27.19h0c-.54.35-1.08.7-1.63,1s-1.05.58-1.59.83c-.23.11-.47.2-.7.3l-.44.12a7.2,7.2,0,0,1-.78.16l-.26,0H139a2.19,2.19,0,0,1-.36,0s-.08,0-.2,0l-.21,0,.19,0h0c-.18-.05-.35-.12-.52-.18a2.19,2.19,0,0,0-.56-.14c-.14-.15-.27-.3-.4-.46a.18.18,0,0,1-.06-.08s0,0-.1-.12l0-.07s-.07-.08-.09-.08l.06,0c-.13-.25-.26-.49-.38-.75,0,0,0,.07,0,.1a1,1,0,0,0,0-.14l0,0a.37.37,0,0,1-.05-.17c-.07-.28-.11-.56-.16-.84,0-.12,0-.26,0-.29a7.73,7.73,0,0,1,.06-1c0-.12,0-.23,0-.34s.11-.47.18-.71c.15-.58.34-1.14.54-1.7.43-1.19.89-2.38,1.38-3.54l.31-.72,0,0,0,0,.17-.35a19.12,19.12,0,0,1,1-1.69,7.21,7.21,0,0,1,1.07-1.43l0,0,.09-.1.26-.3.69-.72c.93-1,1.91-1.9,2.88-2.83.46-.42.91-.85,1.38-1.25.27-.23.53-.45.8-.66s.41-.27.61-.41c0,0,0-.07.13-.14l.06,0,0,0,0,0c.15-.1.3-.2.46-.29l.51-.27.44.29.22.16a4.07,4.07,0,0,0,.43.4c.22.22.43.46.63.7l.22.3.25.38a11.51,11.51,0,0,1,.69,1.41l.09.23c.06.19.12.39.17.58a13.38,13.38,0,0,1,.33,1.65l0,.25v0c0,.05,0,.09,0,.13a.58.58,0,0,1,0,.19c0,.13,0,.26,0,.39a14.35,14.35,0,0,1-.09,1.61c0,.21-.06.42-.09.62l-.06.28a12.55,12.55,0,0,1-.49,1.58q-.12.33-.27.66h0a.62.62,0,0,0-.05.11l0,.05c0,.14-.07.15-.06.12a.61.61,0,0,1,0,.11,17.47,17.47,0,0,1-.88,1.51,16.41,16.41,0,0,1-1,1.35Z"/><path class="d" d="M138.09,146.39a71.61,71.61,0,0,1-13-1.66l-.11,0a9.92,9.92,0,0,1,.45,3.34,8.69,8.69,0,0,1-1.87,4.84c-2.09,2.63-5.09,4-8.12,5.28a55.78,55.78,0,0,1-8.63,2.91,31.33,31.33,0,0,1-8.74.87c-3.12-.16-6.58-1-8.62-3.55a7.13,7.13,0,0,1-1.69-5.22,7.89,7.89,0,0,1,1.74-4,28.65,28.65,0,0,1,7.34-5.83A51.15,51.15,0,0,1,109,137.81a76,76,0,0,1-11.83-9.31,112.36,112.36,0,0,1-11.43-12.75c0,.41,0,.82,0,1.24,0,2.68-.16,5.37-.4,8a41.4,41.4,0,0,1-1.22,7.33,18.69,18.69,0,0,1-3.09,6.51,22.4,22.4,0,0,1-6.88,5.57c-4.69,2.67-10.2,4.51-15.65,4a20.18,20.18,0,0,1-7.48-2.22,16.13,16.13,0,0,1-5.86-5.39A31.07,31.07,0,0,1,41.51,133a21.53,21.53,0,0,1-.76-8.56,45.16,45.16,0,0,1,3.78-14.71c.68-1.5,1.43-3,2.25-4.39l-1.81.55a49.75,49.75,0,0,1-12.36,2c-.34,4.86-.37,9.76-.33,14.64.07,6.53.28,13.16,2.24,19.4a62.89,62.89,0,0,0,7,14.08,40.12,40.12,0,0,0,7.13,9.17C53.12,169.07,59,171,64.8,172.32a107.45,107.45,0,0,0,63.61-4.95,165,165,0,0,0,18-8.72c4.67-2.57,9.37-5.3,12.92-9.27a28.66,28.66,0,0,0,2.87-3.82A143.3,143.3,0,0,1,138.09,146.39Z"/><path class="b" d="M117.52,136.27c.15.08.65.29,0,0Z"/><path class="d" d="M155.15,140.76Z"/><path class="d" d="M173,106.7a140.61,140.61,0,0,0-12.35-34.62,20,20,0,0,0-2.46-3.94c-1.19-1.39-2.73-2.44-4-3.75s-2.34-2.9-3.62-4.25c-3.27-3.48-7.92-5.3-12.54-6.46-3.73-.93-7.56-1.5-11.27-2.5L124.69,51a9.19,9.19,0,0,1,0,1.05c-.14,2.89-1.69,5.15-3.38,7.37s-3.49,4.54-5.43,6.64a35.93,35.93,0,0,1-6.48,5.52c-.49.33-1,.63-1.47.93a15,15,0,0,1,1.61.27,24.34,24.34,0,0,1,3.1,1.11c.49.19,1,.37,1.49.52l.31.08.65,0a3,3,0,0,1,2.58,1.76l1.38,1a30.87,30.87,0,0,1,6,5.34,20.48,20.48,0,0,1,4,7.93,23,23,0,0,1-.42,13.53,16.37,16.37,0,0,1-11.05,10.44,29.91,29.91,0,0,1-8,1.29,57.81,57.81,0,0,1-7.56-.12,35.63,35.63,0,0,1-12-3.33,108.19,108.19,0,0,0,12.88,14l1,.9.52.45.08.07c.67.55,1.33,1.09,2,1.62,1.38,1.07,2.79,2.09,4.25,3.05s2.94,1.85,4.46,2.67c.74.4,1.48.78,2.23,1.14h0c.65.29.15.08,0,0h0l.22.1.61.28,1.15.49a48.46,48.46,0,0,0,4.82,1.72c.83.24,1.68.47,2.53.67.47.11.94.22,1.42.31l.31.07c.22,0,.46.08.7.12.6.1,1.21.19,1.82.27a9.44,9.44,0,0,1-.36-4.43,22.46,22.46,0,0,1,1.28-4.62c.62-1.61,1.25-3.21,2-4.76a26.31,26.31,0,0,1,5.57-7.07c1.09-1,2.17-2.1,3.33-3.06a12.77,12.77,0,0,1,4.67-2.77c3.31-.82,6.2,2.11,7.86,4.61a15,15,0,0,1,2.25,7.54c.28,5.5-2.67,10.61-6.57,14.28-.37.35-.75.69-1.13,1,1.29,0,2.58-.1,3.86-.18l.79,0,.39,0h.18l.39,0,.78-.06,2.94-.28q3-.31,5.93-.76c.73-1.67,1.39-3.39,2-5.1,3.25-8.86,5.9-18.11,5.93-27.53Z"/></svg>