<svg xmlns="http://www.w3.org/2000/svg" viewBox="0 0 300 200"><defs><style>.a{fill:#ec64a1;}.b{fill:none;}.c{fill:#d1ecfb;}</style></defs><path class="a" d="M184.74,95H177.2V92.26h-.09c-1.27,2.46-4.4,3.59-7.35,3.59-8,0-12.67-6.26-12.67-13.48,0-8.26,5.95-13.44,12.67-13.44,4.12,0,6.44,2,7.35,3.54h.09V69.79h7.54Zm-13.85-6.18a6.43,6.43,0,0,0,0-12.85c-4.32,0-6.22,3.64-6.22,6.5a6.29,6.29,0,0,0,6.27,6.35Z"/><path class="a" d="M190.46,61.39H198v10.4a9.78,9.78,0,0,1,7.31-2.86c5.27,0,12.4,3.77,12.4,13.3,0,9.08-6.31,13.62-12.71,13.62-3.54,0-6.27-1.72-7.23-3.54h-.09V95h-7.23Zm13.39,27.42A6.43,6.43,0,0,0,204,76a6.21,6.21,0,0,0-6.27,6.37C197.72,85.82,200.08,88.81,203.85,88.81Z"/><path class="a" d="M244.8,95h-7.13V92.31h-.09C236,95.53,233,95.8,231.05,95.8c-1.55,0-5.18-.36-7.4-3.17-2-2.5-2.27-4.32-2.27-7.77V69.79h7.54V83.72c0,1.72,0,5,4,5,2.18,0,4.31-1.13,4.31-5.13V69.79h7.53Z"/><path class="a" d="M191.31,106.21h10.63c5.9,0,8.17.73,10.35,2.41a11.64,11.64,0,0,1,4.13,9.17c0,3.86-2,9.53-8.36,10.57l9.12,11.45h-9.81L199.61,129h-.09v10.85h-8.21Zm8.22,16.89h3c5,0,5.63-3.18,5.63-4.82,0-3-2.22-4.54-5.54-4.54h-3.13Z"/><path class="a" d="M233,113.79c9.17,0,13.57,7.23,13.57,13.39s-4.4,13.4-13.57,13.4-13.58-7.23-13.58-13.4A13.17,13.17,0,0,1,233,113.79Zm0,19.75a6.37,6.37,0,1,0-6-6.37A6.14,6.14,0,0,0,233,133.54Z"/><path class="a" d="M261.59,121.69c0-.54-.13-1.91-2.36-1.91-1.59,0-2.13,1-2.13,1.68,0,1.37,1.86,2.14,3.86,2.73,4.26,1.18,8.8,2.45,8.8,7.9s-4.67,8.58-10.26,8.58c-3.81,0-9.58-1.72-10.26-8.36h7.49a2.69,2.69,0,0,0,2.86,2.32c1.28,0,2.64-.73,2.64-1.95,0-2-1.86-2.18-6.68-4-3.26-1-6-3.18-6-6.59,0-5,4.54-8.31,9.76-8.31,3.32,0,9,1.32,9.67,8Z"/><path class="a" d="M300,139.8h-7.54v-2.72h-.09c-1.27,2.45-4.4,3.59-7.35,3.59-8,0-12.67-6.27-12.67-13.49,0-8.25,5.95-13.44,12.67-13.44,4.13,0,6.44,2,7.35,3.55h.09v-2.68H300Zm-13.85-6.17c4.72,0,6.31-4,6.31-6.45a6.19,6.19,0,0,0-6.36-6.4c-4.31,0-6.22,3.63-6.22,6.49A6.3,6.3,0,0,0,286.15,133.63Z"/><path class="b" d="M28.69,53.85h0C28.71,53.72,28.72,53.61,28.69,53.85Z"/><path class="b" d="M32.91,44.85l0,.06C33,44.83,33.09,44.58,32.91,44.85Z"/><path class="b" d="M82.42,48.9h-.1C81.91,48.92,82.28,48.92,82.42,48.9Z"/><path class="b" d="M29.39,79.68l.14,0h-.14Z"/><path class="b" d="M45.09,42.83c-.21-.11-.11-.06,0,0Z"/><path class="b" d="M65.43,59.28l0,0C65.48,59.22,65.68,59,65.43,59.28Z"/><path class="a" d="M82,123.57l-.1-.07,0,0C81.65,123.27,82.24,123.77,82,123.57Z"/><path class="a" d="M73,146.71h0C72.58,146.41,73.29,147,73,146.71Z"/><path class="a" d="M73.89,147.24l-.15-.07-.08,0Z"/><path class="a" d="M72.35,145.74h0S72.34,145.71,72.35,145.74Z"/><path class="a" d="M72.61,146.25h0l-.06-.07C72.33,145.93,72.84,146.7,72.61,146.25Z"/><path class="a" d="M72.38,145.25v0h0v-.14A1,1,0,0,1,72.38,145.25Z"/><path class="a" d="M92,135.49Z"/><path class="a" d="M92.48,135.63l0,0h0C93,135.79,92.07,135.37,92.48,135.63Z"/><path class="a" d="M94.75,141.27h0l0,.08C94.6,141.66,95,140.86,94.75,141.27Z"/><path class="a" d="M93.1,143.07h0C92.64,143.43,93.41,142.89,93.1,143.07Z"/><path class="a" d="M95,140.5a2.5,2.5,0,0,1-.07.26.11.11,0,0,0,0,.05Z"/><path class="a" d="M75,147.55l.12,0-.12,0Z"/><path class="a" d="M94.72,138.83a.09.09,0,0,0,0,0C94.76,139,94.76,138.94,94.72,138.83Z"/><path class="a" d="M79.28,147.71l-.2,0C79,147.75,78.83,147.79,79.28,147.71Z"/><path class="a" d="M92,135.49h0Q92.21,135.47,92,135.49Z"/><path class="a" d="M86.35,146.1h0Z"/><path class="a" d="M86.6,146h0Z"/><path class="a" d="M93,136l0,0C93.44,136.26,92.72,135.63,93,136Z"/><path class="a" d="M92,135.5h0Z"/><path class="a" d="M92,135.5h0l-.22,0a.11.11,0,0,0,.08,0l.11,0Z"/><path class="a" d="M92.16,135.54c.13,0,.28,0,0,0l-.12,0h0Z"/><path class="a" d="M93.71,136.79l0,0-.05-.07C93.55,136.6,93.52,136.59,93.71,136.79Z"/><path class="a" d="M92,135.52l.12,0-.14,0h0l-.11,0Z"/><path class="a" d="M94.16,142.14l0,0C94.3,142,94.41,141.76,94.16,142.14Z"/><path class="a" d="M72.39,145.11a.33.33,0,0,0,.06-.1.2.2,0,0,0,0-.08C72.59,144.59,72.42,145.08,72.39,145.11Z"/><path class="a" d="M76,141.71l0,0C76.47,141.39,75.71,141.91,76,141.71Z"/><path class="a" d="M72.37,145.71s0,0,0,0l0,.12,0,0c0-.08-.05-.16-.05-.16Z"/><path class="a" d="M85.17,137l.19-.07Z"/><path class="a" d="M72.91,144.28l0,0h0C73.23,143.83,72.57,144.64,72.91,144.28Z"/><path class="a" d="M72.36,145.74h0s0,.14.09.28a.5.5,0,0,0,0-.12l0-.05Z"/><path class="a" d="M72.37,145.59a.19.19,0,0,1,0,.08v0A.24.24,0,0,0,72.37,145.59Z"/><path class="a" d="M108.71,132.64h0a1.09,1.09,0,0,0,.05.17l0,0C108.74,132.63,108.71,132.59,108.71,132.64Z"/><path class="a" d="M121.38,126.05a.88.88,0,0,0-.1.22s0-.09.07-.14Z"/><path class="a" d="M122.2,121.7c0-.09,0-.18,0-.27v0C122.18,121.67,122.19,121.73,122.2,121.7Z"/><path class="a" d="M110.58,134.44l.17,0-.18,0Z"/><path class="a" d="M109.1,133.49l0,0a.91.91,0,0,1,.11.16A.3.3,0,0,0,109.1,133.49Z"/><path class="a" d="M118.41,116.52h0a1.17,1.17,0,0,1-.16.15S118.33,116.63,118.41,116.52Z"/><path class="a" d="M156.09,130.47a2.34,2.34,0,0,0-2.73-1.8,117.94,117.94,0,0,1-20,4.82l-.1,0c-.14.32-.29.65-.44,1,.15-.32.3-.65.44-1-1.67.25-3.34.46-5,.64l-2.49.23-.66.06-.33,0h-.15l-.34,0-.66,0q-1.64.1-3.27.15c.33-.28.65-.56,1-.85,3.3-3.11,5.79-7.43,5.55-12.08a12.61,12.61,0,0,0-1.9-6.38c-1.4-2.11-3.85-4.58-6.64-3.89a10.74,10.74,0,0,0-4,2.34c-1,.81-1.9,1.7-2.81,2.59a22,22,0,0,0-4.71,6,42.81,42.81,0,0,0-1.7,4,19.47,19.47,0,0,0-1.09,3.9,8.21,8.21,0,0,0,.3,3.75c-.51-.07-1-.14-1.54-.23l-.58-.1-.26-.06-1.21-.26c-.71-.17-1.43-.36-2.13-.57a39.39,39.39,0,0,1-4.07-1.45c-.33-.13-.65-.27-1-.42l-.51-.23-.2-.09,0,0h0c-.64-.31-1.27-.63-1.89-1-1.29-.69-2.55-1.45-3.77-2.26s-2.42-1.66-3.59-2.57c-.58-.45-1.14-.91-1.7-1.37l.09.07c.23.2-.36-.3-.13-.1l0,0-.07-.07-.44-.37-.87-.76a91.21,91.21,0,0,1-10.89-11.85,29.86,29.86,0,0,0,10.14,2.81,47,47,0,0,0,6.39.1,25.72,25.72,0,0,0,6.75-1.08,13.89,13.89,0,0,0,9.34-8.83A19.48,19.48,0,0,0,102.63,92a17.39,17.39,0,0,0-3.37-6.7,26,26,0,0,0-5.08-4.52L93,80a2.52,2.52,0,0,0-2.18-1.49l-.54,0L90,78.37c-.43-.13-.86-.27-1.27-.44A21,21,0,0,0,86.13,77a10.41,10.41,0,0,0-1.36-.22L86,76a30,30,0,0,0,5.47-4.66c1.65-1.78,3.15-3.7,4.61-5.62s2.74-3.79,2.86-6.23a8.81,8.81,0,0,0,0-.89,12.31,12.31,0,0,0-1.63-5.25,21.6,21.6,0,0,0-3.69-4.81,18.65,18.65,0,0,0-5.42-3.75,12.91,12.91,0,0,0-6.29-1,20,20,0,0,0-6.84,1.95,38.47,38.47,0,0,0-5.64,3.17,37.52,37.52,0,0,0-10,9.68c-.5.75-1,1.51-1.43,2.3.09-1.2.2-2.4.32-3.6A17.54,17.54,0,0,0,58,50.86a20.4,20.4,0,0,0-3.19-6.33,19.11,19.11,0,0,0-9.71-7.26,16,16,0,0,0-6.23-.6,16.85,16.85,0,0,0-6.18,2.1,18.19,18.19,0,0,0-3,1.88,10.2,10.2,0,0,0-2.12,2.8,44.71,44.71,0,0,0-2.95,5.66,23.8,23.8,0,0,0-1.12,12.32,31.7,31.7,0,0,0,4.09,12.34l.3.49c-1.57-.15-3.17-.18-4.74-.27a36.62,36.62,0,0,0-7.1,0c-4.35.61-8.82,2.38-11.79,5.72A16.27,16.27,0,0,0,0,91.49c.28,4.58,2.33,9.31,6.26,11.93a18.45,18.45,0,0,0,6.14,2.37,34.84,34.84,0,0,0,6.35.83c.77,0,1.54,0,2.32,0A41.6,41.6,0,0,0,31.55,105c.51-.14,1-.3,1.53-.46-.69,1.21-1.33,2.44-1.9,3.72A38,38,0,0,0,28,120.64a18.24,18.24,0,0,0,.64,7.24,26.59,26.59,0,0,0,3.13,6.62,13.71,13.71,0,0,0,5,4.56A16.87,16.87,0,0,0,43,140.93c4.61.44,9.27-1.11,13.23-3.37a18.85,18.85,0,0,0,5.82-4.71,15.78,15.78,0,0,0,2.62-5.5,36,36,0,0,0,1-6.2c.2-2.26.34-4.53.33-6.8,0-.35,0-.69,0-1a95,95,0,0,0,9.66,10.78,65,65,0,0,0,10,7.87h0c.66.42,1.34.82,2,1.21-.69-.39-1.36-.79-2-1.21a43.06,43.06,0,0,0-10.28,4.64,24.3,24.3,0,0,0-6.2,4.92A6.78,6.78,0,0,0,67.75,145a6,6,0,0,0,1.43,4.41c1.72,2.18,4.65,2.87,7.29,3a26.63,26.63,0,0,0,7.39-.73,47.71,47.71,0,0,0,7.29-2.46c2.57-1.07,5.1-2.24,6.87-4.47a7.37,7.37,0,0,0,1.58-4.09,8.15,8.15,0,0,0-.38-2.82l.09,0a61.34,61.34,0,0,0,11,1.41,120.21,120.21,0,0,0,20.34-.71l.84-.1A117.34,117.34,0,0,0,151.84,134c.82-.25,1.64-.52,2.46-.79a2.58,2.58,0,0,0,1.48-1A2.36,2.36,0,0,0,156.09,130.47ZM89,66.25l-.05.07C89.06,66.22,89.33,65.92,89,66.25ZM82.32,48.9h.1c-.14,0-.51,0-.1,0ZM65.43,59.28l0,0ZM59.64,69.6q.54-1.38,1.14-2.73c.1-.22.19-.46.31-.67-.34.59,0-.07.11-.23.23-.47.46-.93.71-1.39a32.53,32.53,0,0,1,2.35-3.77c.32-.45.65-.88,1-1.31l.12-.15a6.28,6.28,0,0,0,.47-.54c.36-.41.74-.82,1.13-1.21.7-.71,1.42-1.38,2.17-2s1.58-1.29,2.42-1.89l.21-.15.51-.34c.47-.31.94-.6,1.42-.89A34.41,34.41,0,0,1,79,49.67l.1,0h0c-.36.16,0,0,.1,0s.45-.15.68-.21c.49-.14,1-.26,1.49-.35l.7-.11a1.84,1.84,0,0,0,.33,0,11.42,11.42,0,0,1,1.31,0l.62.08h0l.1,0a9.11,9.11,0,0,1,1.26.37l.58.22.15.07c.38.2.75.4,1.11.62s.7.47,1,.72l.44.35.2.18a19.2,19.2,0,0,1,1.82,1.9c.25.31.5.62.74.94,0,0,.18.26.26.36l.18.28a13.31,13.31,0,0,1,1.16,2.29s0,0,0,.08c.06.2.12.39.16.59l.06.29a1.85,1.85,0,0,1,0,.23l0,.24c0,.19,0,.38,0,.57s-.19.77,0,.08c0,.17-.08.34-.13.51s-.07.21-.1.3h0v0c-.11.28-.13.19-.06.07-.1.16-.18.39-.26.51s-.26.4-.4.6c-.3.43-.61.84-.93,1.25q-.95,1.26-1.92,2.49a9,9,0,0,0-1,1.18l-.2.22-.5.57a30.87,30.87,0,0,1-2.2,2.23,13.62,13.62,0,0,1-2.44,2c.61-.34-.13.09-.26.17s-.45.29-.68.43c-.49.3-1,.59-1.48.87C77.3,75,73.3,77.12,69.33,79.27l-.54.29-.7.18a16.66,16.66,0,0,0-.7-1.55,11.72,11.72,0,0,0-4.08-4.56,17.59,17.59,0,0,0-4.41-2.07C59.14,70.9,59.38,70.25,59.64,69.6ZM45.09,42.83h0C45,42.77,44.88,42.72,45.09,42.83Zm-12.18,2c.18-.27.06,0,0,.06Zm-4.22,9c0-.24,0-.13,0,0Zm-.23,2.27c0-.44.05-.87.1-1.31,0-.2,0-.41.07-.61s0-.2.05-.29c.23-.84.4-1.68.7-2.51.16-.43.33-.86.52-1.27l0-.06A.36.36,0,0,1,30,50l0-.09h0l.29-.57c.42-.82.87-1.62,1.34-2.42.24-.39.47-.79.71-1.19.11-.18.22-.37.34-.55l.17-.24c.13-.08.4-.41.48-.47l.12-.09c.39-.24.79-.48,1.19-.7a21,21,0,0,1,2.61-1.27l.14-.06.1,0,.65-.19a11.5,11.5,0,0,1,1.3-.26c.16,0,.33,0,.5-.05h.19c.41,0,.81,0,1.22,0l.65.07.43.07.19,0a5.8,5.8,0,0,1,.63.16,11.28,11.28,0,0,1,1.16.39l.53.22.19.08a18.94,18.94,0,0,1,2.19,1.35l.56.44.1.08c.33.3.65.61,1,.93a20,20,0,0,1,1.74,2.05c.11.14.51.81.12.15.11.18.24.36.36.54.25.39.5.8.72,1.22a12.41,12.41,0,0,1,.62,1.27c.08.17.14.34.21.51v0l0,.11a.23.23,0,0,1,0,.14.46.46,0,0,0,0,.09,9.38,9.38,0,0,1,.32,1.37c0,.19.06.37.08.56a.06.06,0,0,1,0,0,.09.09,0,0,0,0,0s0,0,0,.08a.24.24,0,0,1,0,.12s0,.08,0,.12a41.76,41.76,0,0,1-.4,5.58c-.15,1.56-.26,3.13-.32,4.71,0,.39,0,.78,0,1.18,0,1.73,0,3.45,0,5.17A24.81,24.81,0,0,0,44.79,72c-.87.3-1.73.61-2.58,1a2.27,2.27,0,0,0-.94.8,11.74,11.74,0,0,0-3.18,3.18l-.26-.14c-.36-.21-.71-.42-1-.66s-.68-.47-1-.73l-.06,0c0-.1-.41-.36-.49-.44-.25-.22-.48-.46-.71-.69s-.69-.74-1-1.12-.45-.58-.67-.88l-.12-.15h0l-.11-.16a.86.86,0,0,0,.07.1l-.38-.59a24.45,24.45,0,0,1-1.37-2.58c-.2-.44-.38-.89-.56-1.34,0-.11-.09-.23-.14-.34a1.38,1.38,0,0,0-.06-.19L30,66.58c-.3-.93-.56-1.88-.77-2.83s-.39-1.89-.53-2.84c-.07-.44-.12-.88-.17-1.32,0-.2-.05-.41-.07-.61v-.12c0,.08,0,.09,0-.09v-.11a.08.08,0,0,0,0,0v0c0-.85-.06-1.69,0-2.54ZM39.75,86.88C39.76,86.78,39.76,86.81,39.75,86.88Zm-4-11.56-.12-.09C35.25,75,35.61,75.24,35.7,75.32Zm-6.17,4.39-.14,0h.15C29.78,79.74,29.66,79.73,29.53,79.71ZM8.6,98.68l.06,0-.06,0ZM33,99.06l-.11,0-.85.28a45.23,45.23,0,0,1-6,1.51q-1.37.24-2.76.39l-.7.06h-.11l-.85.05-.63,0a33.35,33.35,0,0,1-5.47-.33l-.6-.1-.14,0h-.06c-.49-.1-1-.21-1.45-.33a23.81,23.81,0,0,1-2.61-.8L10,99.55l-.05,0-.15-.09a11.06,11.06,0,0,1-1.22-.79l-.06-.05a1.29,1.29,0,0,0-.12-.12L7.94,98c-.16-.19-.33-.37-.48-.56l-.23-.3L7.12,97c-.12-.16-.07-.1.14.2-.14-.08-.29-.44-.37-.58l-.3-.51c-.22-.42-.43-.85-.61-1.29,0-.11-.23-.72-.12-.29s-.1-.29-.12-.39a11.21,11.21,0,0,1-.32-1.3c-.08-.41-.15-.83-.19-1.24-.07-.63,0,0,0,0a.29.29,0,0,1,0-.13v-.07a.3.3,0,0,0,0-.1,0,0,0,0,1,0,0c0-.19,0-.4,0-.59,0-.42,0-.84.07-1.26,0-.22.05-.44.09-.66v0a1.16,1.16,0,0,1,0-.18s0-.07,0-.11a.19.19,0,0,1,0,.08,15.79,15.79,0,0,1,.79-2.41.89.89,0,0,0,.08-.17l.32-.58c.22-.38.46-.75.71-1.11l.39-.53.13-.15c.29-.32.57-.63.88-.92a12.14,12.14,0,0,1,.94-.81l.15-.11a.53.53,0,0,1,.14-.12l.12-.08,0,0,0,0,.29-.18a17.26,17.26,0,0,1,2.53-1.21l.27-.09.66-.2c.52-.15,1-.29,1.58-.41s.92-.21,1.39-.28l.75-.11h.11s0,0,.16,0h.09c1,0,2,0,3,.08,2.17.12,4.34.22,6.5.37.48,0,1,.08,1.44.14l.59.08a.33.33,0,0,0,.13,0l.36.07a19.65,19.65,0,0,1,2.49.83c1.12.45,2.2,1,3.29,1.45a30.12,30.12,0,0,0-.88,3.26,11.38,11.38,0,0,0-.27,3.39,13.07,13.07,0,0,0,.59,2.62,40.13,40.13,0,0,0,2.15,6c-.9.41-1.82.8-2.74,1.17L33.11,99ZM60.09,124.2l0,.09c0-.15.1-.43,0-.09Zm.6-5.82a55.51,55.51,0,0,1-.57,5.61c0,.12,0,.24-.07.37s-.06.31-.1.47c-.09.44-.21.88-.34,1.31s-.25.8-.4,1.19c-.07.2-.15.39-.23.58l-.09.2A16.31,16.31,0,0,1,57.7,130s-.21.26-.3.35-.33.33-.5.49c-.41.37-.91.66-1.31,1l-.27.18-.64.39c-.45.28-.91.54-1.37.79a28.58,28.58,0,0,1-2.85,1.35l-.65.25-.25.08c-.5.16-1,.31-1.51.43s-.95.21-1.44.28c-.24,0-.49.08-.73.1l-.36,0h-.06a16.1,16.1,0,0,1-2.69-.11l-.51-.08-.22-.05c-.43-.1-.85-.22-1.27-.36s-.74-.28-1.11-.43l-.15-.08c-.2-.11-.41-.22-.6-.34a10.18,10.18,0,0,1-1-.68l-.1-.08a6.39,6.39,0,0,0-.54-.5,9.62,9.62,0,0,1-.84-1l-.13-.15,0-.06c-.18-.28-.35-.55-.51-.83-.52-.92-1-1.87-1.43-2.84-.2-.44-.37-.88-.54-1.33,0-.14-.1-.29-.14-.43s-.16-.55-.22-.83a13.12,13.12,0,0,1-.27-1.5s0,0,0-.08a2.06,2.06,0,0,1,0-.21c0-.29,0-.58,0-.87,0-1,.09-2,.21-3.07.05-.45.11-.91.18-1.36,0-.23.07-.46.11-.69,0-.06,0-.15,0-.23l0-.13A37,37,0,0,1,35.22,112c.16-.43.33-.85.51-1.28.1-.24.2-.47.31-.71s.09-.2.14-.3l0,0,0,0h0c.14-.32.1-.2,0,0,.45-.84.85-1.71,1.34-2.54a48.47,48.47,0,0,1,3.4-5,16.2,16.2,0,0,0,9.19,3.71,21,21,0,0,0,9.32-1.54c.15.54.3,1.09.43,1.63.25,1.06.46,2.12.62,3.19.08.5.14,1,.19,1.51,0,.25.06.51.08.76a2.19,2.19,0,0,0,0,.36h0a55.35,55.35,0,0,1-.09,6.57Zm3.46-25.52a.54.54,0,0,1-.05.11.47.47,0,0,1,0,.1v0l-.19.37c-.19.34-.39.67-.6,1-.43.67-.89,1.32-1.38,1.94l0,0a1.62,1.62,0,0,0-.12.16l-.26.29c-.27.29-.56.58-.86.85l-.18.15-.25.21a2,2,0,0,0-.23.18h0c-.33.21-.67.41-1,.59s-.92.45-1.39.64l-.77.31-.19.06-.52.16-.34.1-.8.2a18.12,18.12,0,0,1-2.32.39,2,2,0,0,0-.23,0H52c-.39,0-.78,0-1.17,0s-.78,0-1.18-.1l-.48-.07h-.07a16.16,16.16,0,0,1-2-.61l-.45-.18-.07,0c-.27-.16-.57-.3-.84-.45L45.32,99l-.39-.26-.45-.34-.06,0-.09-.09A13.53,13.53,0,0,1,43,96.81l-.06-.08a3.33,3.33,0,0,0-.36-.56c-.22-.37-.42-.74-.61-1.13l0,0c-.17-.34-.34-.69-.49-1A10.45,10.45,0,0,1,41,92.67s.16.48.07.19c0-.1-.06-.19-.1-.29L40.74,92c-.13-.42-.26-.83-.38-1.24a18.66,18.66,0,0,1-.65-2.44,1.69,1.69,0,0,1,0-.21c0-.07,0-.32,0-.38s0-.35,0-.52l0-.21c.21-.7.34-1.42.54-2.12.12-.41.24-.82.37-1.22a.05.05,0,0,1,0,0c.1-.34.21-.68.33-1s.26-.69.39-1a4.69,4.69,0,0,0,.21-.46l.09-.18c.19-.34.39-.68.6-1,.1-.15.2-.3.31-.44l.15-.2.4-.42.27-.26.41-.35.05,0,.06,0,.05,0-.05,0h0l.11-.07h0a9.59,9.59,0,0,1,.9-.47l.06,0,.37-.1.18,0a2.54,2.54,0,0,0,1.36-.78l1-.28c.67-.16,1.35-.29,2-.4l.94-.13.45,0h.06a21.31,21.31,0,0,1,4.07.18l.3.05.11,0,.49.11.49.13h0a15.66,15.66,0,0,1,1.89.66l.31.13.08,0c.33.17.66.36,1,.55s.6.39.89.6l.26.2a2.55,2.55,0,0,1,.24.23,9.4,9.4,0,0,1,.66.74h0a0,0,0,0,0,0,0l0,.07c.09.11.1.14.08.13v0c.12.19.24.39.34.59s.31.62.44.93l.06.14.22.54.1.27s0,.09.05.15h0l.12.36c.06.18.11.36.17.54.11.4.22.8.31,1.2.15.61.27,1.22.37,1.83l.09.61.09.77,0,.2a1.18,1.18,0,0,0,0,.26l0,.66a15.35,15.35,0,0,1-.09,2.35s0,0,0,.07a3,3,0,0,0-.12.5,8.13,8.13,0,0,1-.38,1.08v0Zm.58,13.73a2.29,2.29,0,0,1,.78-.14A2.29,2.29,0,0,0,64.73,106.59Zm-.4-5.24a19.85,19.85,0,0,0,4.46-6.19A12.67,12.67,0,0,0,70,89.6a28.66,28.66,0,0,0-.39-4.53l1.07-.59.43-.11c2.12-.53,4.25-1.05,6.38-1.51,1.06-.22,2.11-.43,3.17-.62L82,82l.7-.09.25,0h0a11.65,11.65,0,0,1,1.32,0h.2c.23.06.45.12.67.2.81.26,1.58.62,2.38.91.4.14.8.27,1.21.37.81.54,1.62,1.08,2.41,1.64.41.29.81.59,1.21.89l.58.47.09.07.11.09,0,0,0,0,0,0a19.92,19.92,0,0,1,2.09,2.12c.14.16.27.33.4.5l.1.12,0,.06a14.15,14.15,0,0,1,.79,1.36,8.61,8.61,0,0,1,.5,1.06l0,.17.12.38c.09.27.16.56.24.84A20.27,20.27,0,0,1,98,95.72c0,.09.06.81,0,.35s0,.17,0,.28c0,.43,0,.87,0,1.3s0,.82-.08,1.23l-.06.53c0,.21-.22,1,0,.25a19.1,19.1,0,0,1-.66,2.32c-.06.16-.12.32-.19.49l-.06.12c-.19.36-.37.71-.59,1s-.41.61-.64.9l-.06.06c-.15.16-.3.33-.47.49a11.14,11.14,0,0,1-1,.83l-.05,0-.13.08c-.23.15-.46.29-.7.42a13.2,13.2,0,0,1-1.32.62c-.08,0-.51.18-.48.18l-.42.12a20.72,20.72,0,0,1-2.92.6l-.75.09a3.54,3.54,0,0,0-.73.06l-.29,0-.75,0c-1,0-2,0-3,0s-2.07-.07-3.1-.18c-.47,0-.94-.1-1.4-.17-.15,0-.95-.1-.27,0a6.57,6.57,0,0,1-.77-.16,27.7,27.7,0,0,1-5.25-1.84c-.09,0-.43-.22-.1,0h0l-.12-.06-.63-.31-1.32-.7c-.82-.46-1.63-.94-2.43-1.43-1-.62-2-1.25-3-1.91Zm5.32,9.09-.4-.18Zm22.08,24.75-1.13-.52Zm-2.32-1.11,1.14.57Zm2-3.15h0a4.43,4.43,0,0,0-.51.06,2.26,2.26,0,0,0-.37.11,2.26,2.26,0,0,1,.37-.11C91.07,131,91.24,130.94,91.41,130.93Zm-2.35,2.56a1.48,1.48,0,0,1,0-.21,1.77,1.77,0,0,1,0-.23,1.77,1.77,0,0,0,0,.23,1.7,1.7,0,0,0,0,.22Zm0,.24a.44.44,0,0,0,0,.1.44.44,0,0,1,0-.1.78.78,0,0,1,0-.21,1.52,1.52,0,0,0,0,.21Zm1.12-2.48.18-.1Zm.46-.44a2.38,2.38,0,0,0-.46,0c-.73.14-1.45.3-2.17.47.72-.17,1.44-.33,2.17-.47a2.32,2.32,0,0,1,.46,0ZM89.17,134h0a2.87,2.87,0,0,0,.18.4,2.87,2.87,0,0,1-.18-.4l-.31-.17ZM95,140v.09c0,.06-.06.49-.06.64a2.5,2.5,0,0,0,.07-.26l-.06.3a.06.06,0,0,1,0,0h0a2.76,2.76,0,0,1-.08.27,2.44,2.44,0,0,1-.1.24h0c.24-.41-.15.39,0,.1l0-.09c-.15.24-.28.48-.45.71-.05.07-.12.14-.17.22l0-.07c-.14.15-.29.29-.44.43s-.41.34-.62.5c.31-.18-.46.36,0,0h0c-.17.11-.34.22-.52.32a26.56,26.56,0,0,1-3.09,1.48c-1,.42-2,.81-3,1.18l-.15.06h0l.24-.09a1.17,1.17,0,0,1-.24.09h0l-.18,0-.68.23c-.54.17-1.08.33-1.62.47a30,30,0,0,1-3.13.67c-.52.08-1,.14-1.58.19l-.08,0,.21,0c-.45.07-.33,0-.21,0h-.19l-.87,0c-1,0-1.94-.12-2.91-.2.26,0,0,0-.12,0h0l-.36-.09c-.24-.07-.48-.14-.71-.23l-.16-.06.15.07-.23-.11,0,0,0,0,.08,0-.12-.07a5.58,5.58,0,0,1-.6-.39c.27.33-.44-.3,0,0l0,0,0,0c-.07-.07-.15-.14-.21-.21l-.18-.22h0c.23.44-.28-.33-.06-.08l.06.08c0-.09-.1-.17-.14-.26l0-.09a.5.5,0,0,1,0,.12l-.1-.28h0s0,0,0,0a.15.15,0,0,1,0-.06c-.06-.26,0-.19,0-.08,0-.12,0-.26,0-.37h0c0,.34,0,.17,0,0s0-.1,0-.16v.14c0-.07,0-.14.07-.21a.33.33,0,0,1-.06.1s.2-.52.09-.18l0,.08c.05-.08.09-.17.13-.24s.24-.35.36-.53l0,0c-.33.36.33-.45,0,0h0l.15-.16c.16-.16.32-.32.49-.47.36-.33.74-.64,1.13-.94s.88-.65,1.32-1h0l0,0c-.29.2.46-.33,0,0l.32-.22c.26-.18.53-.35.8-.52a41.45,41.45,0,0,1,6.89-3.53l.89-.35.4-.14h0l-.19.06c.28-.1.35-.12.19-.06l.14-.05c.6-.2,1.2-.4,1.81-.57q1.7-.49,3.42-.84a2.26,2.26,0,0,1-.39-.15,2.26,2.26,0,0,0,.39.15l.44-.08-.44.08a2.32,2.32,0,0,0,1.11.06h-.06l.22,0h0c.13,0,.14,0,0,0l.12,0c.28.05.13,0,0,0l.1,0a2.67,2.67,0,0,1,.26.09l0,0c-.41-.25.5.16,0,0h0q.25.15.51.33c-.3-.36.42.28,0,0l0,0,0,0c.07.08.15.15.23.23s.23.3.35.45l.06.07.09.11-.06-.07,0,0a4,4,0,0,1,.2.35c.15.26.28.53.41.79l.29.66,0,.15,0,.09a.08.08,0,0,0,0,0l-.07-.19a.44.44,0,0,1,.07.19c0,.11,0,.13,0,0l0,.07c.07.25.14.51.19.77,0,.09,0,.2,0,.31h0c0-.4.07.38,0,0Zm-4.91-4.88a1.28,1.28,0,0,0,.25.15,1.28,1.28,0,0,1-.25-.15ZM119.39,116C119.51,116,119.71,116,119.39,116Zm-.27,0h0s-.07,0-.08,0Zm-11.63,22.38a8.16,8.16,0,0,1-1.29-1.13,8.16,8.16,0,0,0,1.29,1.13l.23.14-.23-.13Zm1.06-6.49C108.51,131.65,108.53,131.75,108.55,131.87Zm0,.18V132c0,.06,0,.11,0,.11Zm4.57,6.76a12.45,12.45,0,0,0,2.53-1,12,12,0,0,1-2.53,1ZM119.5,129l-.51.57a21.28,21.28,0,0,1-2.39,2.16l-.66.5-.22.16h0c-.46.3-.91.59-1.38.87s-.89.49-1.34.71l-.6.24-.37.11a5.13,5.13,0,0,1-.66.13l-.22,0h-.1l-.3,0-.16,0-.19,0,.17,0h0l-.44-.16a2.47,2.47,0,0,0-.47-.11,4.32,4.32,0,0,1-.34-.39l-.05-.07s0,0-.08-.1l0-.06a.23.23,0,0,0-.06-.07l0,0c-.11-.21-.22-.42-.32-.63a.37.37,0,0,0,0,.09.5.5,0,0,0,0-.13v0a.28.28,0,0,1,0-.15,5.78,5.78,0,0,1-.14-.7c0-.1,0-.23,0-.25a7.34,7.34,0,0,1,0-.81c0-.1,0-.19,0-.29s.09-.4.15-.6c.13-.49.29-1,.46-1.44.36-1,.74-2,1.16-3l.27-.61v0a0,0,0,0,0,0,0l.15-.29a13.85,13.85,0,0,1,.84-1.44,6.34,6.34,0,0,1,.9-1.21l0,0,.08-.08.23-.25.57-.62c.79-.82,1.62-1.61,2.45-2.39.38-.36.77-.72,1.17-1.06l.68-.56c.13-.11.34-.22.51-.35,0,0,0,0,.11-.11l0,0s0,0,0,0l0,0,.4-.24.43-.22a3.87,3.87,0,0,1,.37.24l.19.13a2.9,2.9,0,0,0,.36.34,7.23,7.23,0,0,1,.53.59s.12.16.2.25.17.28.2.32a11.11,11.11,0,0,1,.59,1.2l.07.19.15.49a10.82,10.82,0,0,1,.27,1.4,1.36,1.36,0,0,1,0,.2v0a.43.43,0,0,0,0,.11.81.81,0,0,1,0,.16c0,.11,0,.23,0,.33a10.39,10.39,0,0,1-.08,1.37c0,.18,0,.35-.07.53s0,.15,0,.23a12,12,0,0,1-.41,1.33c-.07.19-.15.38-.23.57h0a.22.22,0,0,0,0,.08s0,0,0,0-.06.13,0,.1l-.05.09a12.51,12.51,0,0,1-.74,1.28c-.25.39-.53.77-.82,1.14l-.18.23Z"/><path class="c" d="M110.27,139.22a60.21,60.21,0,0,1-11-1.4l-.1,0a8.18,8.18,0,0,1,.38,2.82A7.2,7.2,0,0,1,98,144.7c-1.76,2.23-4.3,3.4-6.86,4.47a46.76,46.76,0,0,1-7.3,2.46,26.19,26.19,0,0,1-7.38.73c-2.64-.13-5.58-.81-7.3-3A6.07,6.07,0,0,1,67.74,145a6.74,6.74,0,0,1,1.47-3.42,24.17,24.17,0,0,1,6.21-4.93A43,43,0,0,1,85.69,132a65,65,0,0,1-10-7.87A95.82,95.82,0,0,1,66,113.32c0,.34,0,.69,0,1,0,2.27-.14,4.54-.34,6.8a36.15,36.15,0,0,1-1,6.2,15.78,15.78,0,0,1-2.62,5.5,18.74,18.74,0,0,1-5.82,4.71c-4,2.26-8.62,3.81-13.22,3.37a16.92,16.92,0,0,1-6.33-1.87,13.71,13.71,0,0,1-4.95-4.56,26.66,26.66,0,0,1-3.13-6.63,18.39,18.39,0,0,1-.64-7.23,38.32,38.32,0,0,1,3.2-12.44c.58-1.27,1.21-2.51,1.9-3.71l-1.53.46a41.6,41.6,0,0,1-10.45,1.67c-.29,4.11-.31,8.26-.27,12.38.05,5.52.23,11.13,1.88,16.4a52.67,52.67,0,0,0,5.92,11.9,33.76,33.76,0,0,0,6,7.76c3.78,3.33,8.75,5,13.66,6.08A90.93,90.93,0,0,0,102.09,157a140.51,140.51,0,0,0,15.17-7.37c3.95-2.17,7.92-4.48,10.93-7.83a24.6,24.6,0,0,0,2.42-3.24A120.2,120.2,0,0,1,110.27,139.22Z"/><path class="c" d="M139.79,105.67a118.51,118.51,0,0,0-10.44-29.28,16.53,16.53,0,0,0-2.08-3.32c-1-1.17-2.31-2.07-3.39-3.17s-2-2.45-3.06-3.6c-2.76-2.93-6.69-4.48-10.61-5.46-3.15-.79-6.39-1.27-9.52-2.11L99,58.58c0,.3,0,.59,0,.89-.12,2.44-1.43,4.35-2.86,6.23s-3,3.84-4.6,5.62A30.5,30.5,0,0,1,86,76c-.41.27-.82.53-1.24.78a10.44,10.44,0,0,1,1.36.23,19,19,0,0,1,2.62.93,11.2,11.2,0,0,0,1.27.44l.26.07a4.9,4.9,0,0,0,.54,0A2.55,2.55,0,0,1,93,80l1.17.82a26.32,26.32,0,0,1,5.08,4.52,17.39,17.39,0,0,1,3.37,6.7,19.48,19.48,0,0,1-.36,11.44A14.6,14.6,0,0,1,99,108.67a14.79,14.79,0,0,1-6.1,3.61,24.79,24.79,0,0,1-6.74,1.08,47.13,47.13,0,0,1-6.4-.1,29.86,29.86,0,0,1-10.14-2.81,89.72,89.72,0,0,0,10.88,11.84l.87.77.44.37.07.07c.56.46,1.12.92,1.7,1.36q1.74,1.36,3.59,2.58c1.24.82,2.49,1.57,3.77,2.26.63.34,1.26.66,1.89,1h0c.55.24.13.06,0,0l0,0,.19.09.52.23c.32.15.65.29,1,.42a38.57,38.57,0,0,0,4.07,1.45q1,.32,2.13.57c.4.1.8.18,1.21.27.11,0,.84.19.26,0a5.86,5.86,0,0,0,.58.1c.51.09,1,.17,1.54.23a8.17,8.17,0,0,1-.3-3.74,18.91,18.91,0,0,1,1.09-3.91c.51-1.37,1-2.71,1.69-4a22.17,22.17,0,0,1,4.71-6c.92-.88,1.83-1.78,2.82-2.59a10.87,10.87,0,0,1,4-2.34c2.79-.69,5.24,1.78,6.64,3.89a12.71,12.71,0,0,1,1.9,6.38c.24,4.65-2.25,9-5.55,12.08-.31.29-.63.58-1,.86q1.64-.06,3.27-.15l.66,0,.34,0h.15l.33,0,.66-.06,2.49-.23c1.67-.18,3.34-.39,5-.64.61-1.42,1.17-2.87,1.7-4.31,2.76-7.49,5-15.32,5-23.28l-.48-.39Z"/></svg>