<svg xmlns="http://www.w3.org/2000/svg" viewBox="0 0 350 200"><defs><style>.a{fill:#3d1800;}.b{fill:#ff6300;}</style></defs><path class="a" d="M270.24,99.37a15.66,15.66,0,0,0-2.77-4.49,14.67,14.67,0,0,0-4.22-3.33,15.65,15.65,0,0,0-5.74-1.72,17.58,17.58,0,0,0-6.26.33,16,16,0,0,0-5.14,2.27,16.37,16.37,0,0,0-3.93,3.77A20.39,20.39,0,0,0,239.5,101a21.51,21.51,0,0,0-1.34,5.42,22.57,22.57,0,0,0,.05,5.57,19.43,19.43,0,0,0,1.48,5.27,15.86,15.86,0,0,0,7.61,7.88,17.9,17.9,0,0,0,6.21,1.71,15.11,15.11,0,0,0,5.87-.44,14.68,14.68,0,0,0,4.81-2.32,16.51,16.51,0,0,0,3.68-3.78,20.72,20.72,0,0,0,2.51-4.8,24,24,0,0,0,1.27-5.4,23.33,23.33,0,0,0,0-5.54A20.2,20.2,0,0,0,270.24,99.37Zm-7.55,9.69a11.92,11.92,0,0,1-.81,3.43,9.32,9.32,0,0,1-1.78,2.88,7.48,7.48,0,0,1-2.74,1.87,7.24,7.24,0,0,1-3.6.41,7.39,7.39,0,0,1-5.72-3.52,9.33,9.33,0,0,1-1.2-3.09,11.47,11.47,0,0,1-.15-3.41,11.65,11.65,0,0,1,.84-3.28,9.67,9.67,0,0,1,1.75-2.82,7.87,7.87,0,0,1,2.62-1.91,7.34,7.34,0,0,1,3.46-.58,7.21,7.21,0,0,1,3.5,1,7.51,7.51,0,0,1,2.34,2.32,9.31,9.31,0,0,1,1.26,3.16A12.85,12.85,0,0,1,262.69,109.06Z"/><polygon class="a" points="274.53 127.16 284.33 127.46 285.56 77.29 276.22 77 274.53 127.16"/><path class="a" d="M348.89,114.93a14.9,14.9,0,0,0-2.4-4.07,17.25,17.25,0,0,0-3.57-3.25,21.79,21.79,0,0,0-4.35-2.36c-.29-.13-.66-.31-1.1-.55s-.87-.45-1.34-.71a13.14,13.14,0,0,1-1.33-.86,7.15,7.15,0,0,1-1.1-.95,2.75,2.75,0,0,1-.62-1,1.23,1.23,0,0,1,.11-1,2.06,2.06,0,0,1,1.76-1,7.25,7.25,0,0,1,2.85.36,13.35,13.35,0,0,1,3.29,1.54,15.9,15.9,0,0,1,3,2.48l5.41-6.39A10.79,10.79,0,0,0,347,94.61a24.91,24.91,0,0,0-3.55-2.19,26.88,26.88,0,0,0-4.11-1.64,23.58,23.58,0,0,0-4.15-.88,12.45,12.45,0,0,0-7.7,1.72A12.3,12.3,0,0,0,324.62,94a10.18,10.18,0,0,0-1.85,3.06,8.42,8.42,0,0,0-.59,3.4,7.79,7.79,0,0,0,.94,3.47,11.87,11.87,0,0,0,2.56,3.29,34.1,34.1,0,0,0,3.51,2.82q1.88,1.32,3.8,2.49c1.29.78,2.43,1.51,3.43,2.19a13.61,13.61,0,0,1,2.36,1.91,1.86,1.86,0,0,1,.62,1.77,2.34,2.34,0,0,1-1,1.42,3.6,3.6,0,0,1-1.81.5,8.49,8.49,0,0,1-2.35-.27,13.62,13.62,0,0,1-2.55-.92,19.31,19.31,0,0,1-2.5-1.44,14.82,14.82,0,0,1-1.27-1L323,124a14.91,14.91,0,0,0,1.76,1.51,20,20,0,0,0,4,2.25,23.51,23.51,0,0,0,4.58,1.39,22.47,22.47,0,0,0,4.7.43,17.88,17.88,0,0,0,4.43-.63,11.16,11.16,0,0,0,3.71-1.78,8.88,8.88,0,0,0,2.56-3,9.82,9.82,0,0,0,1-4.42A12.44,12.44,0,0,0,348.89,114.93Z"/><path class="a" d="M311.64,104.17l3.49-2.54,2.8-2,1.91-1.37-5-7.67-.35-.55-.23.17-13.79,10.23a.28.28,0,0,1-.37,0,.34.34,0,0,1-.05-.17l.11-21.32-9.39.51c0,.07-.05,2.54-.06,4.09s-.05,3.29-.07,5.23,0,4-.07,6.19-.05,4.38-.09,6.68-.06,4.54-.09,6.76-.05,4.38-.07,6.42-.05,4-.08,5.66,0,3.21-.07,4.48,0,2.22-.05,2.87l9.81.11.07-14.64,3.93,3.13c1.32,1.07,2.63,2.11,3.91,3.13l3.66,2.94,3.22,2.59,2.51,2,5.43-8.22-15-11.76Q309.76,105.55,311.64,104.17Z"/><path class="a" d="M207.09,74.21A15.19,15.19,0,0,0,195.74,70a20.67,20.67,0,0,0-3.68.44A29.76,29.76,0,0,0,178.13,78a.27.27,0,0,1-.38,0,.24.24,0,0,1-.06-.08,29.61,29.61,0,0,0-9.86-12.4,19.24,19.24,0,0,0-7.05-3.14,15.07,15.07,0,0,0-3.49-.32,13.86,13.86,0,0,0-4.72,1,14.47,14.47,0,0,0-6.34,5,19,19,0,0,0-3.08,7.27,30.25,30.25,0,0,0,1.81,17,33.53,33.53,0,0,0,4.12,7.49.28.28,0,0,1,0,.28,21.68,21.68,0,0,0-2.46,11.58,15.75,15.75,0,0,0,1.82,6.22,12.61,12.61,0,0,0,11.65,6.67,17,17,0,0,0,8.3-2.62l.34-.22a.26.26,0,0,1,.37.08h0a18.54,18.54,0,0,0,2,2.45,14.15,14.15,0,0,0,10.69,4.78,12.44,12.44,0,0,0,7.5-2.77,15.5,15.5,0,0,0,4.1-5,21.75,21.75,0,0,0,2.31-11.62.24.24,0,0,1,.13-.24,34.12,34.12,0,0,0,6.72-5.24,30.3,30.3,0,0,0,8.39-15,19.29,19.29,0,0,0,0-7.9A14.33,14.33,0,0,0,207.09,74.21Zm-3.55,13.52a22.59,22.59,0,0,1-6.35,11.13,24.31,24.31,0,0,1-8,5.48l-1.22.5-.75.3.19.79.33,1.28c.14.6.26,1.21.34,1.82a14.53,14.53,0,0,1-1.32,8.73,6.53,6.53,0,0,1-4.68,3.75,4.38,4.38,0,0,1-.51,0h-.14c-3.59,0-7.12-4-8.26-9.18l-.72-3.38-.45-2.08-1.23,1.73-2,2.83c-2.39,3.36-5.78,5.51-8.87,5.6h-.18a5.28,5.28,0,0,1-2.74-.72,6.49,6.49,0,0,1-2.83-5.29,14.59,14.59,0,0,1,2.25-8.55,18,18,0,0,1,1-1.54l.8-1,.46-.63-.54-.55-.93-.94A24.34,24.34,0,0,1,152,89.62a22.63,22.63,0,0,1-1.45-12.73c.73-3.46,2.45-5.9,4.84-6.85a6.57,6.57,0,0,1,2.19-.44h.2a8.1,8.1,0,0,1,1.56.17,11.53,11.53,0,0,1,4.29,2A22.61,22.61,0,0,1,171.27,82a25.37,25.37,0,0,1,1.78,8l.29,5.93.18,3.65,1.59-3.29,2.61-5.34a25.43,25.43,0,0,1,4.79-6.66,22.66,22.66,0,0,1,11.1-6.4,13.7,13.7,0,0,1,2.38-.29h.34a7.51,7.51,0,0,1,5.48,2C203.61,81.35,204.24,84.26,203.54,87.73Z"/><path class="a" d="M221.47,98.41l-.22-10.92L241,87.14l-.16-9.47-26.3.46a17.21,17.21,0,0,1,.84,2.7,21.19,21.19,0,0,1,0,8.83A29.34,29.34,0,0,1,212,98.43v.12l.07,5,.36,24.25,9.63-.63-.36-18.89,12.8-.09,1.76-9.8-14.49.3a.27.27,0,0,1-.3-.22Z"/><path class="a" d="M39.35,118.12l-1.65-5q-.91-2.82-1.94-5.92t-2.13-6.39c-.73-2.19-1.46-4.34-2.19-6.47l-2.09-6.13q-1-3-1.86-5.38c-.58-1.64-1.1-3-1.54-4.23s-.8-2.09-1.06-2.68L15.58,76l-.92,2.74c-.41,1.23-.88,2.62-1.43,4.24s-1.15,3.4-1.8,5.35-1.31,4-2,6.07S8,98.6,7.27,100.77,5.86,105,5.19,107.08s-1.33,4-1.95,5.85-1.16,3.51-1.64,5-.9,2.7-1.23,3.69-.55,1.64-.65,2L8.41,127l3.87-11.9,16.43.16,3.84,12,8.71-3.41c-.11-.35-.33-1-.66-2S39.83,119.61,39.35,118.12ZM15.74,105.79l4.79-15.1,4.72,15.17Z"/><path class="a" d="M62,88.73l-7.5.4-.67-11.5-9.31.49h0c0,.27,0,.78.07,1.52s.06,1.64.11,2.66.09,2.19.15,3.46.13,2.57.2,3.89h0L37.65,90l.5,9.54,7.34-.38c.09,1.76.19,3.58.29,5.44s.19,3.72.29,5.55.19,3.59.27,5.31.16,3.29.24,4.72.13,2.69.18,3.76.09,1.89.12,2.44l9.79-.51L55,98.67l7.42-.39Z"/><polygon class="a" points="64.75 126.12 74.54 126.63 76.84 76.5 67.52 76.01 64.75 126.12"/><path class="a" d="M104.34,88.56a5.36,5.36,0,0,1,0,.78,5.32,5.32,0,0,0,0,.69h0a.28.28,0,0,1-.27.26l-.12,0a15.08,15.08,0,0,0-3-1.24,17.23,17.23,0,0,0-4-.65,17.83,17.83,0,0,0-5.44.55,16.29,16.29,0,0,0-4.51,2A16,16,0,0,0,83.36,94a18.4,18.4,0,0,0-2.58,4,21.42,21.42,0,0,0-1.54,4.53,22.06,22.06,0,0,0-.55,4.79,23.67,23.67,0,0,0,.4,4.52,22.51,22.51,0,0,0,1.27,4.34A18.16,18.16,0,0,0,82.55,120a15,15,0,0,0,3.14,3.18,15.8,15.8,0,0,0,4.14,2.19,17.38,17.38,0,0,0,5.16.91,13.57,13.57,0,0,0,7.52-2l-.09,2.19,9.11.39L113,88.68l-8.45-.35A.26.26,0,0,0,104.34,88.56Zm-1,18.52a12.76,12.76,0,0,1-.7,3.67,11.32,11.32,0,0,1-1.75,3.29,8.17,8.17,0,0,1-2.72,2.23,6.81,6.81,0,0,1-3.6.76,5.4,5.4,0,0,1-2.19-.54,6.48,6.48,0,0,1-1.73-1.25,8,8,0,0,1-1.29-1.71,11.56,11.56,0,0,1-.89-2,12.33,12.33,0,0,1-.55-2.15,14.14,14.14,0,0,1-.15-2,13.09,13.09,0,0,1,.55-3.88,9.82,9.82,0,0,1,1.55-3.06,6.93,6.93,0,0,1,2.36-2,6.46,6.46,0,0,1,3.08-.72,7.3,7.3,0,0,1,3.55.79,7.68,7.68,0,0,1,2.54,2.13,8.89,8.89,0,0,1,1.51,3,11,11,0,0,1,.41,3.48Z"/><path class="a" d="M142.54,111.89a14.63,14.63,0,0,0-1.93-2.92,18.08,18.08,0,0,0-3.59-3.23,21.89,21.89,0,0,0-4.39-2.31c-.29-.13-.65-.3-1.09-.52s-.88-.45-1.35-.7a13.35,13.35,0,0,1-1.35-.85,7.09,7.09,0,0,1-1.1-.94,2.74,2.74,0,0,1-.63-1,1.24,1.24,0,0,1,.09-1,2.13,2.13,0,0,1,1.77-1.1,7.29,7.29,0,0,1,2.86.34,14,14,0,0,1,3.29,1.51,15.57,15.57,0,0,1,3,2.45l4.27-5.11c-.48-1-.92-1.93-1.32-2.92-.15-.37-.28-.73-.41-1.1a23.89,23.89,0,0,0-3.29-1.91,25.1,25.1,0,0,0-4.12-1.6,22.62,22.62,0,0,0-4.15-.84,12.39,12.39,0,0,0-7.7,1.78,11.66,11.66,0,0,0-2.85,2.43,10.28,10.28,0,0,0-1.82,3.14,8.63,8.63,0,0,0-.54,3.41,7.74,7.74,0,0,0,1,3.45,11.94,11.94,0,0,0,2.59,3.24,34.28,34.28,0,0,0,3.54,2.8c1.26.87,2.53,1.68,3.83,2.45s2.44,1.5,3.45,2.19a14.48,14.48,0,0,1,2.37,1.91,1.86,1.86,0,0,1,.63,1.76,2.41,2.41,0,0,1-1,1.43,3.62,3.62,0,0,1-1.81.55,8.36,8.36,0,0,1-2.34-.25,13.53,13.53,0,0,1-2.57-.91,18.14,18.14,0,0,1-2.51-1.41,13.06,13.06,0,0,1-2.19-1.79l-5.24,6.62a13.52,13.52,0,0,0,3.06,3,19.86,19.86,0,0,0,4.06,2.19,23.7,23.7,0,0,0,4.59,1.35,22.52,22.52,0,0,0,4.71.38,17.83,17.83,0,0,0,4.42-.66,11.26,11.26,0,0,0,3.69-1.82,8.81,8.81,0,0,0,2.54-3.08,9.71,9.71,0,0,0,.94-4.38h0a12.67,12.67,0,0,0-.88-4.75A9.52,9.52,0,0,0,142.54,111.89Z"/><path class="b" d="M203.54,87.73a22.59,22.59,0,0,1-6.35,11.13,24.31,24.31,0,0,1-8,5.48l-1.22.5-.75.3.19.79.33,1.28c.14.6.26,1.21.34,1.82a14.53,14.53,0,0,1-1.32,8.73,6.53,6.53,0,0,1-4.68,3.75,4.38,4.38,0,0,1-.51,0h-.14c-3.59,0-7.12-4-8.26-9.18l-.72-3.38-.45-2.08-1.23,1.73-2,2.83c-2.39,3.36-5.78,5.51-8.87,5.6h-.18a5.28,5.28,0,0,1-2.74-.72,6.49,6.49,0,0,1-2.83-5.29,14.59,14.59,0,0,1,2.25-8.55,18,18,0,0,1,1-1.54l.8-1,.46-.63-.54-.55-.93-.94A24.34,24.34,0,0,1,152,89.62a22.63,22.63,0,0,1-1.45-12.73c.73-3.46,2.45-5.9,4.84-6.85a6.57,6.57,0,0,1,2.19-.44h.2a8.1,8.1,0,0,1,1.56.17,11.53,11.53,0,0,1,4.29,2A22.61,22.61,0,0,1,171.27,82a25.37,25.37,0,0,1,1.78,8l.29,5.93.18,3.65,1.59-3.29,2.61-5.34a25.43,25.43,0,0,1,4.79-6.66,22.66,22.66,0,0,1,11.1-6.4,13.7,13.7,0,0,1,2.38-.29h.34a7.51,7.51,0,0,1,5.48,2C203.61,81.35,204.24,84.26,203.54,87.73Z"/></svg>