<svg xmlns="http://www.w3.org/2000/svg" viewBox="0 0 200 200"><defs><style>.a{fill:#0080ff;fill-rule:evenodd;}</style></defs><path class="a" d="M90,95.51h0V90H83.74V79.12H77.17V90h-13l1.94,5.5h11v25.66c0,4.75,1.52,8.33,7.93,8.33.73,0,2.52-.3,4.9-.45v-5.22H87.77c-1.35,0-4,0-4-3V95.51Zm13.13,33.54H96.57V90h6.56Zm34.3-25.94h0c-.75-5.22-3.73-8.35-9.25-8.35-8.21,0-10.74,7.76-10.74,14.77,0,6.71,1.66,14.9,10.74,14.9,4.32,0,8.2-3.26,9.25-9.23h6.41c-.74,6.27-4.47,14.9-16,14.9-11,0-17.46-8.21-17.46-19.53,0-12.08,5.84-21.61,18.8-21.61,10.15,0,14,7.44,14.62,14.15Zm36.68,12.39h0c0,5.22-6,9.23-12.09,9.23-4.92,0-7-2.52-7-6.84,0-4.93,5.07-5.84,8.36-6.27,8-1.05,9.69-1.64,10.74-2.54Zm8.8,9.08h0a2.08,2.08,0,0,1-2.24-2.37V99.83c0-10-11.34-10.87-14.47-10.87-9.53,0-15.81,3.56-16.11,13v1.19h6.12v-1.19c.46-3,1.49-7.61,8.95-7.61,6.11,0,9.1,2.24,9.1,6.42,0,3.88-1.79,4.47-3.43,4.62l-10.75,1.35c-10.87,1.34-11.91,8.93-11.91,12.23,0,6.69,5.05,11.17,12.21,11.17a18.14,18.14,0,0,0,14.18-6.27c.14,3,1,6,6.86,6a11.56,11.56,0,0,0,3.58-.75V124.3A13.58,13.58,0,0,1,182.91,124.58Z"/><polygon class="a" points="49.31 72.85 44.45 81.27 44.69 81.93 52.55 103.71 32.95 103.71 40.81 81.93 41.05 81.27 36.19 72.85 35.57 74.48 15 129.05 23.8 129.05 30.26 111.17 55.24 111.17 61.7 129.05 70.5 129.05 49.31 72.85"/><polygon class="a" points="52.55 55.9 42.75 72.88 32.95 55.9 52.55 55.9"/></svg>