<svg xmlns="http://www.w3.org/2000/svg" viewBox="0 0 300 300"><defs><style>.a{fill:#fff;}.b{fill:none;}.c{fill:#d4daff;}.d{fill:#1b2a85;}.e{fill:#3a4698;}.f{fill:#db1f2d;}</style></defs><polygon class="a" points="88.82 66.93 88.82 154.16 191.74 66.93 88.82 66.93"/><polygon class="a" points="225.91 195.61 204.22 210.63 182.53 225.65 160.84 240.68 149.84 248.3 139.16 240.87 117.47 225.79 95.78 210.7 74.09 195.62 74.09 195.62 74.09 195.62 95.78 177.23 117.47 158.85 139.16 140.47 160.84 122.08 182.53 103.7 204.22 85.31 225.91 66.93 225.91 195.61"/><polygon class="b" points="74.09 195.62 74.09 195.62 74.09 195.62 95.78 210.7 95.78 177.23 74.09 195.62"/><polygon class="b" points="117.47 158.85 117.47 225.79 139.16 240.87 139.16 140.47 117.47 158.85"/><polygon class="b" points="117.47 129.88 124.36 124.04 124.36 124.04 106.57 139.12 117.47 129.88"/><polygon class="b" points="160.84 122.08 160.84 240.68 149.84 248.3 144.5 244.59 149.84 248.3 160.84 240.68 182.53 225.65 182.53 103.7 160.84 122.08"/><path class="b" d="M107,91.1c-7.12-.7-12.57-4.58-12.57-9.27,0-5.18,6.65-9.38,14.86-9.38s14.86,4.2,14.86,9.38c0,4.69-5.45,8.57-12.57,9.27v5.78l1.25,1.24v2.56l.77.78h1.58l0-4.59-2-2.82,1.8-2.19,1.76,1.62,1.68-.08.75.86h1.84l.67.81,0,.9-1,.83v3.46L126,111.47v2.09l-1.4,2.11,1,2.27h5.94l7.6-6.44,21.68-18.39,21.69-18.38,9.21-7.8H88.82v51H107Z"/><polygon class="b" points="204.22 210.63 225.91 195.61 225.91 66.93 204.22 85.31 204.22 210.63"/><polygon class="b" points="113.48 107.85 111.57 104.07 111.57 117.94 118.58 117.94 116.44 115.67 117.09 114.11 115.14 111.27 115.14 107.85 113.48 107.85"/><polygon class="c" points="106.57 139.12 124.36 124.04 88.82 124.04 88.82 154.16 95.78 148.26 106.57 139.12"/><polygon class="b" points="160.84 240.68 160.84 122.08 139.16 140.47 139.16 240.87 144.5 244.59 149.84 248.3 160.84 240.68"/><polygon class="b" points="95.78 177.23 95.78 210.7 117.47 225.79 117.47 158.85 95.78 177.23"/><polygon class="b" points="182.53 103.7 182.53 225.65 204.22 210.63 204.22 85.31 182.53 103.7"/><path class="d" d="M223.61,40H76.39a14.51,14.51,0,0,0-14.5,14.49V194.42a14.52,14.52,0,0,0,6.22,11.9L70.52,208l71,49.41a14.48,14.48,0,0,0,16.53,0l30-20.78,43.78-30.32a14.52,14.52,0,0,0,6.24-11.91V54.49A14.51,14.51,0,0,0,223.61,40ZM88.82,66.93H191.74l-9.21,7.8L160.84,93.11,139.16,111.5l-7.6,6.44h-5.94l-1-2.27,1.4-2.11v-2.09l-5.41-11.21V96.8l1-.83,0-.9-.67-.81h-1.84l-.75-.86-1.68.08-1.76-1.62-1.8,2.19,2,2.82,0,4.59h-1.58l-.77-.78V98.12l-1.25-1.24V91.1c7.12-.7,12.57-4.58,12.57-9.27,0-5.18-6.65-9.38-14.86-9.38s-14.86,4.2-14.86,9.38c0,4.69,5.45,8.57,12.57,9.27v26.84H88.82Zm28.27,47.18-.65,1.56,2.14,2.27h-7V104.07l1.91,3.78h1.66v3.42ZM88.82,124h35.54l-6.89,5.84-10.9,9.24-17.75,15Zm137.09,71.57-21.69,15-21.69,15h0l-21.69,15-11,7.62-5.34-3.71-5.34-3.72h0l-21.69-15.08L95.78,210.7,74.09,195.62h0l21.69-18.39,21.69-18.38,21.69-18.38,21.68-18.39,21.69-18.38,21.69-18.39,21.69-18.38Z"/><polygon class="e" points="95.78 148.26 88.82 154.16 106.57 139.12 95.78 148.26"/><polygon class="e" points="139.16 240.87 144.5 244.59 139.16 240.87 139.16 240.87"/><polygon class="e" points="182.53 225.65 204.22 210.63 182.53 225.65 182.53 225.65"/><path class="a" d="M77.77,60.65l-3.41,1.79a.72.72,0,0,1-1-.76l.65-3.8L71.2,55.19A.72.72,0,0,1,71.61,54l3.81-.56L77.12,50a.72.72,0,0,1,1.3,0l1.71,3.45,3.81.56a.72.72,0,0,1,.4,1.23l-2.76,2.69.65,3.8a.72.72,0,0,1-1,.76Z"/><path class="a" d="M215.07,60.65l-3.41,1.79a.72.72,0,0,1-1-.76l.65-3.8-2.76-2.69a.72.72,0,0,1,.4-1.23l3.81-.56L214.42,50a.72.72,0,0,1,1.3,0l1.7,3.45,3.81.56a.72.72,0,0,1,.4,1.23l-2.75,2.69.65,3.8a.72.72,0,0,1-1.05.76Z"/><path class="a" d="M150,60.65l-3.41,1.79a.72.72,0,0,1-1.05-.76l.65-3.8-2.76-2.69a.72.72,0,0,1,.4-1.23l3.82-.56,1.7-3.45a.72.72,0,0,1,1.3,0l1.7,3.45,3.82.56a.72.72,0,0,1,.4,1.23l-2.76,2.69.65,3.8a.72.72,0,0,1-1.05.76Z"/><path class="a" d="M77.77,118.42l-3.41,1.79a.72.72,0,0,1-1-.76l.65-3.8L71.2,113a.73.73,0,0,1,.41-1.24l3.81-.55,1.7-3.46a.72.72,0,0,1,1.3,0l1.71,3.46,3.81.55a.73.73,0,0,1,.4,1.24l-2.76,2.68.65,3.8a.72.72,0,0,1-1,.76Z"/><path class="a" d="M77.77,181.78l-3.41,1.79a.73.73,0,0,1-1-.77L74,179l-2.76-2.69a.73.73,0,0,1,.41-1.24l3.81-.55,1.7-3.45a.72.72,0,0,1,1.3,0l1.71,3.45,3.81.55a.73.73,0,0,1,.4,1.24L81.58,179l.65,3.79a.73.73,0,0,1-1,.77Z"/><path class="a" d="M128.31,140l-3.41,1.79a.73.73,0,0,1-1.05-.77l.65-3.79-2.76-2.69a.73.73,0,0,1,.4-1.24l3.82-.55,1.7-3.46a.73.73,0,0,1,1.3,0l1.71,3.46,3.81.55a.73.73,0,0,1,.4,1.24l-2.76,2.69.65,3.79a.73.73,0,0,1-1.05.77Z"/><path class="a" d="M171.69,103.07l-3.41,1.79a.72.72,0,0,1-1.05-.76l.65-3.8-2.76-2.69a.72.72,0,0,1,.4-1.23l3.81-.56L171,92.37a.72.72,0,0,1,1.3,0l1.7,3.45,3.82.56a.72.72,0,0,1,.4,1.23l-2.76,2.69.65,3.8a.72.72,0,0,1-1.05.76Z"/><polygon class="f" points="74.09 195.62 74.09 195.62 95.78 210.7 95.78 177.23 74.09 195.62"/><polygon class="f" points="117.47 158.85 117.47 225.79 139.16 240.87 139.16 140.47 117.47 158.85"/><polygon class="f" points="225.91 195.61 225.91 66.93 204.22 85.31 204.22 210.63 225.91 195.61"/><polygon class="f" points="182.53 103.7 160.84 122.08 160.84 240.68 182.53 225.65 182.53 103.7"/></svg>