<svg xmlns="http://www.w3.org/2000/svg" viewBox="0 0 200 200"><defs><style>.a{fill:#166ade;}.b{fill:#f43b25;}.c{fill:#34ba27;}</style></defs><path class="a" d="M50.19,100.45A14.91,14.91,0,0,0,64.7,85,15.12,15.12,0,0,0,49.48,70.64h-22A7.46,7.46,0,0,0,20,78.1v44.71a7.46,7.46,0,0,0,7.45,7.45h22c7.92,0,15-6.46,15.22-14.37a14.89,14.89,0,0,0-14.51-15.43S50.18,100.45,50.19,100.45Z"/><path class="b" d="M77.84,77.88l-5.18,9a28.94,28.94,0,0,0,25.06,43.41h7.36a16.2,16.2,0,0,0,14-24.31L102.9,77.88A14.47,14.47,0,0,0,77.84,77.88Z"/><path class="c" d="M151.23,69.76a29.79,29.79,0,0,0-26.87,14.91,18.43,18.43,0,0,0,.12,18.4l9.8,17a18.41,18.41,0,0,0,15.78,9.29h.13a29.81,29.81,0,0,0,1-59.6Z"/></svg>