<svg xmlns="http://www.w3.org/2000/svg" viewBox="0 0 200 200"><defs><style>.a{fill:#166ade;}.b{fill:#f43b25;}.c{fill:#14ba40;}.d{fill:#333;}</style></defs><path class="a" d="M50.6,73.45A14.79,14.79,0,0,0,65,58.29a.76.76,0,0,1,0-.15,15,15,0,0,0-15.1-14.25H28.05a7.39,7.39,0,0,0-7.39,7.39h0V95.63A7.39,7.39,0,0,0,28.05,103H49.9c7.85,0,14.82-6.41,15.09-14.25a14.78,14.78,0,0,0-14.25-15.3H50.6S50.59,73.45,50.6,73.45Z"/><path class="b" d="M78,51.07,72.89,60A28.7,28.7,0,0,0,97.75,103H105A16.08,16.08,0,0,0,119,78.91L102.88,51.07A14.35,14.35,0,0,0,78,51.07Z"/><path class="c" d="M150.81,43a29.57,29.57,0,0,0-26.66,14.8,18.28,18.28,0,0,0,.12,18.24L134,92.9a18.24,18.24,0,0,0,15.65,9.22h.12a29.56,29.56,0,0,0,29.57-29.55v-.12A29.7,29.7,0,0,0,150.81,43Z"/><path class="d" d="M51.92,126.62c-1.58-7.36-7.7-8.69-11.72-8.69-7.59,0-13.71,5.6-13.71,16.62,0,9.86,3.5,17.44,13.88,17.44,3.68,0,10-1.75,12-11.49H57.8C55.47,156.31,42.64,157,39.5,157c-9.51,0-18.84-6.18-18.84-22.27,0-12.89,7.36-21.82,19.54-21.82,10.79,0,16.38,6.71,17.2,13.71Z"/><path class="d" d="M71,155.9H65.33V114H84.69c6.88,0,13.77,2.4,13.77,11.26,0,6.18-3.15,8.45-5.84,10,2.4,1,4.79,2,5,7.87l.34,7.58c.06,2.33.35,3.21,2.1,4.2v.94H93.15c-.81-2.57-1-8.93-1-10.5,0-3.44-.7-7.47-7.46-7.47H71Zm0-22.81H84.11c4.14,0,8.51-1,8.51-7.23,0-6.47-4.72-7-7.52-7H71Z"/><path class="d" d="M138.23,155.9H107.32V114h30.5v5H113v12.83H135.9v5H113v14h25.26Z"/><path class="d" d="M152.22,143.71l-4.37,12.19H142L157.76,114h6.42l15.16,41.88h-6.18L169,143.71Zm14.76-5-6.19-18.43h-.11L154,138.69Z"/></svg>