<svg xmlns="http://www.w3.org/2000/svg" viewBox="0 0 300 200"><defs><style>.a{fill:#0d0d0d;}</style></defs><path class="a" d="M29.66,70.17A29.83,29.83,0,1,0,59.48,100h0A29.85,29.85,0,0,0,29.66,70.17Zm2,55.37v-13.6h6.61A5.76,5.76,0,0,0,44,106.18V88.77A5.75,5.75,0,0,0,38.25,83H20.86a5.77,5.77,0,0,0-5.76,5.76v17.38a5.77,5.77,0,0,0,5.76,5.79h6.58v13.58a25.62,25.62,0,1,1,4.25,0Zm8.16-26v6.58a1.56,1.56,0,0,1-1.55,1.55H20.86a1.56,1.56,0,0,1-1.54-1.55V99.57ZM19.32,95.32V88.77a1.54,1.54,0,0,1,1.54-1.54H38.24a1.54,1.54,0,0,1,1.55,1.53h0v6.58Z"/><path class="a" d="M113.93,102.53a14.57,14.57,0,0,1,2.72,9.12,15.51,15.51,0,0,1-1.08,5.87,13.45,13.45,0,0,1-7.75,7.68,16.83,16.83,0,0,1-6.12,1.07,48.25,48.25,0,0,1-7.87-.59,38.45,38.45,0,0,0-6.51-.6,23.1,23.1,0,0,0-3.72.24,17.45,17.45,0,0,1-2.28.24c-1,0-1.52-.43-1.52-1.28s.64-1.2,1.92-1.2a2.79,2.79,0,0,0,2.48-.92,4.4,4.4,0,0,0,.64-2.52,3.52,3.52,0,0,1,0-.56,7.74,7.74,0,0,0,0-1V81.44c0-2.08-.71-3.13-2.16-3.13a5.29,5.29,0,0,0-1.48.21,4.91,4.91,0,0,1-1.32.2c-.64,0-1-.38-1-1.12q0-2.49,15-2.48Q104,75.12,109,78t5,9.39a10.65,10.65,0,0,1-1.88,6.51,12.66,12.66,0,0,1-5.95,4A12.6,12.6,0,0,1,113.93,102.53ZM92,96.3a1.12,1.12,0,0,0,.28.71,1.29,1.29,0,0,0,.76.32,9.59,9.59,0,0,0,1.42.09h1c3.46,0,6.13-.83,8-2.48a8.85,8.85,0,0,0,2.83-7q0-5-2.48-7.55c-1.65-1.74-4.07-2.6-7.27-2.6q-3,0-3.84.84a4.37,4.37,0,0,0-.8,3V95c0,.58,0,1,0,1.35ZM92,101V117.4a6.3,6.3,0,0,0,1.42,4.52c.95,1,2.64,1.48,5,1.48a9.38,9.38,0,0,0,7.52-3.16c1.81-2.1,2.71-5.11,2.7-9a11.93,11.93,0,0,0-2.71-8.2c-1.81-2-4.47-3.07-8-3.06H93a.92.92,0,0,0-1,.78,1.13,1.13,0,0,0,0,.26Z"/><path class="a" d="M143.66,116.6a17,17,0,0,0,.32,3.84,1.56,1.56,0,0,0,1.69,1.28,2.12,2.12,0,0,0,1.6-.8,2.06,2.06,0,0,1,1.42-.8q1,0,1,1.2a2.71,2.71,0,0,1-.71,1.55,12.87,12.87,0,0,1-1.72,1.82,12.46,12.46,0,0,1-2.15,1.52,4.48,4.48,0,0,1-2.13.64,4.69,4.69,0,0,1-3.45-1.36,10.18,10.18,0,0,1-2.24-4.07h-.48l-1.69,1.41a47.42,47.42,0,0,1-3.93,3,7.16,7.16,0,0,1-4.09,1.24,5.33,5.33,0,0,1-4.13-1.72,6.8,6.8,0,0,1-1.57-4.75,10.88,10.88,0,0,1,3.46-8.28,22.43,22.43,0,0,1,4.05-3.08c1.57-1,3.32-1.91,5.25-2.88l2-1a1.43,1.43,0,0,0,.77-.7,4.35,4.35,0,0,0,.12-1.24V97.71a16.33,16.33,0,0,0-.53-4.87c-.34-1-1.21-1.52-2.6-1.52a4.12,4.12,0,0,0-3.29,1.42,16,16,0,0,0-2.32,4,16.46,16.46,0,0,1-2,3.4,4.12,4.12,0,0,1-3.49,1.42,1.57,1.57,0,0,1-1.09-.4,1.35,1.35,0,0,1-.44-1,8,8,0,0,1,1.09-3.75,12.39,12.39,0,0,1,3-3.64A17.35,17.35,0,0,1,130.1,90a15.4,15.4,0,0,1,5.81-1.08,11.68,11.68,0,0,1,4.14.6,4.91,4.91,0,0,1,2.36,1.76,6.47,6.47,0,0,1,1,2.87,29.14,29.14,0,0,1,.24,4Zm-7-9a2.14,2.14,0,0,0-.8.32l-2.64,1.28a8.28,8.28,0,0,0-4.71,8,6.1,6.1,0,0,0,.84,3.54,2.57,2.57,0,0,0,2.19,1.16,4,4,0,0,0,1.92-.52,6.59,6.59,0,0,0,1.77-1.42,7.78,7.78,0,0,0,1.31-2.2,7.41,7.41,0,0,0,.52-2.87v-6.32c0-.64-.13-1-.4-1Z"/><path class="a" d="M152.53,100.13a17,17,0,0,1,3.45-6,15.46,15.46,0,0,1,5.35-3.83,17.15,17.15,0,0,1,7-1.36A16,16,0,0,1,175,90.36a14.77,14.77,0,0,1,5.15,3.88,18.12,18.12,0,0,1,3.28,6,24.83,24.83,0,0,1,1.18,7.85,24,24,0,0,1-1.2,7.79,17.27,17.27,0,0,1-3.4,6,14.93,14.93,0,0,1-5.39,3.84,18.12,18.12,0,0,1-7.2,1.36,15.29,15.29,0,0,1-6.55-1.41,15,15,0,0,1-5.07-3.93,17.9,17.9,0,0,1-3.28-6,24.81,24.81,0,0,1-1.16-7.79A24.38,24.38,0,0,1,152.53,100.13Zm8.4-4.87q-2.49,4.08-2.48,11.59,0,8.5,2.68,13.23c1.78,3.15,4.12,4.74,7,4.76a7.77,7.77,0,0,0,6.92-4.12q2.52-4.11,2.49-11.55c0-5.67-.89-10.07-2.67-13.23s-4.09-4.74-6.92-4.75A7.79,7.79,0,0,0,160.93,95.26Z"/><path class="a" d="M198.18,89.34a.93.93,0,0,0,.78,1,1.13,1.13,0,0,0,.26,0h6a1.42,1.42,0,0,1,.88.16,1,1,0,0,1,.16.64v1.6a1.73,1.73,0,0,1-.16.87c-.11.17-.4.24-.88.24h-6.08c-.63,0-.95.35-.95,1v20.21a16.11,16.11,0,0,0,.71,5.48,2.51,2.51,0,0,0,2.51,1.72A3.64,3.64,0,0,0,203,122a6.54,6.54,0,0,0,1.24-.76c.37-.3.71-.54,1-.76a1.37,1.37,0,0,1,.84-.32c.53,0,.8.37.8,1.12a3,3,0,0,1-.71,1.52,10.79,10.79,0,0,1-2,1.92,12.22,12.22,0,0,1-2.88,1.63,8.76,8.76,0,0,1-3.47.71q-6.24,0-6.24-10.15v-3.39l.28-17.19a9,9,0,0,0-.16-1.8.87.87,0,0,0-1-.71h-1.41c-1,0-1.42-.35-1.42-1a1.26,1.26,0,0,1,.41-.88,6.65,6.65,0,0,1,1.11-.87,18.72,18.72,0,0,0,1.64-1.21,15.77,15.77,0,0,0,2-1.92,26.16,26.16,0,0,0,2.78-3.83c.59-1.07,1.12-1.6,1.6-1.6a.62.62,0,0,1,.66.52,6.76,6.76,0,0,1,.12,1.42Z"/><path class="a" d="M217.28,103c-.43,0-.71.07-.8.24a2.17,2.17,0,0,0-.16,1v1.91q0,7.42,3.16,11.75a9.71,9.71,0,0,0,8.19,4.32,9.55,9.55,0,0,0,3.88-.71,12.19,12.19,0,0,0,4.39-3.19c.41-.48.71-.71.84-.71.43,0,.64.29.64.88a4.67,4.67,0,0,1-.95,2.32,12.4,12.4,0,0,1-2.77,2.83,18.87,18.87,0,0,1-4.24,2.45,14.49,14.49,0,0,1-5.6,1,13.28,13.28,0,0,1-6-1.35,13,13,0,0,1-4.6-3.79,18.19,18.19,0,0,1-3-6,28.18,28.18,0,0,1-1-7.91,25.77,25.77,0,0,1,1.16-7.95,17.94,17.94,0,0,1,3.24-6,14.59,14.59,0,0,1,4.91-3.83A14.08,14.08,0,0,1,224.79,89a13.65,13.65,0,0,1,5.28,1,12.52,12.52,0,0,1,4.1,2.67,11.88,11.88,0,0,1,2.6,3.92,12.5,12.5,0,0,1,.92,4.8,1.36,1.36,0,0,1-.64,1.36A5.07,5.07,0,0,1,235,103Zm11.55-3.36c1.2-.59,1.79-1.76,1.79-3.54A5.12,5.12,0,0,0,229,92.45a5.57,5.57,0,0,0-4.2-1.68,6.53,6.53,0,0,0-4.87,2.12,10.54,10.54,0,0,0-2.74,5.49l-.24,1.28v.16c0,.47.32.7,1,.7h5.19A13.7,13.7,0,0,0,228.83,99.66Z"/><path class="a" d="M261.64,89.38a12.16,12.16,0,0,1,2.92,1.12,7.2,7.2,0,0,1,2,1.56,2.82,2.82,0,0,1,.76,1.92,15,15,0,0,1-.59,4.76c-.41,1.15-.92,1.72-1.56,1.72s-1.47-.77-2.12-2.32c-.49-1-.91-2-1.29-2.83a10.88,10.88,0,0,0-1.19-2.2,5.76,5.76,0,0,0-1.42-1.41,3.27,3.27,0,0,0-1.87-.52,5.19,5.19,0,0,0-3,1.07,9.79,9.79,0,0,0-2.72,3.11,19,19,0,0,0-2,4.89,25.56,25.56,0,0,0-.76,6.52,24.22,24.22,0,0,0,.84,6.67,15.64,15.64,0,0,0,2.32,5,10.35,10.35,0,0,0,3.48,3.1,9.21,9.21,0,0,0,4.4,1.08,7.19,7.19,0,0,0,2.75-.52,9.63,9.63,0,0,0,2.08-1.16,12.37,12.37,0,0,0,1.33-1.17c.35-.35.61-.52.77-.52a.92.92,0,0,1,1,.79,1.13,1.13,0,0,1,0,.26,3.62,3.62,0,0,1-.83,1.87,10.71,10.71,0,0,1-2.32,2.24,14.81,14.81,0,0,1-3.54,1.87,12,12,0,0,1-4.47.8,13.43,13.43,0,0,1-5.92-1.31,13.92,13.92,0,0,1-4.72-3.76,17.75,17.75,0,0,1-3.11-5.91,25.41,25.41,0,0,1-1.12-7.79,24.39,24.39,0,0,1,1.24-8,18.85,18.85,0,0,1,3.4-6.07,14.72,14.72,0,0,1,5.11-3.87,15.2,15.2,0,0,1,6.48-1.36A14.38,14.38,0,0,1,261.64,89.38Z"/><path class="a" d="M294,116.6a17,17,0,0,0,.34,3.84,1.55,1.55,0,0,0,1.68,1.28,2.14,2.14,0,0,0,1.6-.8,2,2,0,0,1,1.41-.8q1,0,1,1.2a2.65,2.65,0,0,1-.71,1.55,12.87,12.87,0,0,1-1.72,1.82,12.54,12.54,0,0,1-2.16,1.52,4.41,4.41,0,0,1-2.12.64,4.67,4.67,0,0,1-3.45-1.36,10.18,10.18,0,0,1-2.24-4.07h-.49l-1.68,1.41a47.42,47.42,0,0,1-3.93,3,7.19,7.19,0,0,1-4.09,1.24,5.35,5.35,0,0,1-4.14-1.72,6.84,6.84,0,0,1-1.58-4.75,11.38,11.38,0,0,1,.89-4.64,11.59,11.59,0,0,1,2.57-3.63,22.43,22.43,0,0,1,4.05-3.08c1.57-1,3.33-1.92,5.25-2.88l2-1a1.39,1.39,0,0,0,.76-.71,4.29,4.29,0,0,0,.12-1.24V97.72a16.39,16.39,0,0,0-.52-4.88c-.35-1-1.22-1.51-2.61-1.51a4.14,4.14,0,0,0-3.29,1.41,16.07,16.07,0,0,0-2.32,4,16.46,16.46,0,0,1-2,3.4,4.13,4.13,0,0,1-3.49,1.42,1.53,1.53,0,0,1-1.08-.4,1.31,1.31,0,0,1-.44-1,7.87,7.87,0,0,1,1.08-3.75,12.42,12.42,0,0,1,3-3.64A17.46,17.46,0,0,1,280.4,90a15.45,15.45,0,0,1,5.82-1.08,11.82,11.82,0,0,1,4.13.6,4.93,4.93,0,0,1,2.36,1.76,6.61,6.61,0,0,1,1.05,2.87,29.23,29.23,0,0,1,.24,4Zm-7-9a2.07,2.07,0,0,0-.8.32l-2.64,1.28a8.29,8.29,0,0,0-4.72,8,6.11,6.11,0,0,0,.85,3.54,2.56,2.56,0,0,0,2.19,1.2,4.06,4.06,0,0,0,1.92-.52,6.33,6.33,0,0,0,1.76-1.41,8,8,0,0,0,1.32-2.21,7.6,7.6,0,0,0,.52-2.87v-6.36C287.38,107.89,287.27,107.57,287,107.57Z"/></svg>