<svg xmlns="http://www.w3.org/2000/svg" viewBox="0 0 200 200"><defs><style>.a{fill:#1a1a1a;}</style></defs><path class="a" d="M100,35a65,65,0,1,0,65,65A65.08,65.08,0,0,0,100,35Zm4.3,120.65V125.94h14.4a12.57,12.57,0,0,0,12.56-12.55V75.53A12.57,12.57,0,0,0,118.7,63H80.84A12.57,12.57,0,0,0,68.28,75.53v37.86a12.57,12.57,0,0,0,12.56,12.55H95.11V155.6a55.8,55.8,0,1,1,9.19.05Zm17.77-56.6v14.34a3.37,3.37,0,0,1-3.37,3.36H80.84a3.36,3.36,0,0,1-3.37-3.36V99.05Zm-44.6-9.19V75.53a3.37,3.37,0,0,1,3.37-3.37H118.7a3.37,3.37,0,0,1,3.37,3.37V89.86Z"/></svg>