<svg xmlns="http://www.w3.org/2000/svg" viewBox="0 0 300 300"><defs><style>.a{fill:none;}.b{fill:#0b2585;}.c{fill:#ffc402;}.d{fill:#b50e2f;}.e{fill:#fff;}.f{fill:#0e32b5;}</style></defs><path class="a" d="M71.84,221.29l-1.14-1.23Z"/><path class="a" d="M70.57,219.91c-.35-.39-.69-.78-1-1.18C69.88,219.13,70.22,219.52,70.57,219.91Z"/><path class="a" d="M69.31,218.46l-.85-1Z"/><path class="a" d="M66.84,215.36l-.28-.39Z"/><path class="a" d="M68.06,217c-.2-.25-.39-.51-.59-.77Z"/><path class="a" d="M77.08,226.2l-.49-.41Z"/><path class="a" d="M217.57,229.59l-.42.29Z"/><path class="a" d="M236.75,209.11l0,.06Z"/><path class="a" d="M75.75,225.05c-.29-.25-.57-.51-.85-.77C75.18,224.54,75.46,224.8,75.75,225.05Z"/><path class="a" d="M73.13,222.6c-.39-.39-.77-.78-1.15-1.18C72.36,221.82,72.74,222.21,73.13,222.6Z"/><path class="a" d="M74.44,223.86c-.36-.34-.72-.68-1.07-1C73.72,223.18,74.07,223.52,74.44,223.86Z"/><path class="a" d="M219.6,228.09c-.37.29-.75.57-1.13.85C218.85,228.66,219.23,228.38,219.6,228.09Z"/><path class="a" d="M219.77,228a68.14,68.14,0,0,0,15.15-16A69.23,69.23,0,0,1,219.77,228Z"/><path class="a" d="M235.79,210.64l-.48.75Z"/><path class="b" d="M258.66,149l-.11-.12c-27.82-30.32-31-60.25-9.57-88.95l.08-.1L239.83,47l-.07-.11-.13,0C221,54,199,51.26,183.52,40.08l-.11-.08-.1.08C161.07,56,138.77,56,117,40.08l-.1-.08-.11.08c-10,7.58-22.72,10.73-34.4,10.73a54.62,54.62,0,0,1-21.55-4.1l-.13-.05-9.6,13-.08.1.08.11c21.7,29.28,18.54,58.35-9.68,88.87l-.11.12L52,159.69c-.86,26.36,5.78,47.14,19.73,61.75,13.73,14.38,34.59,22.88,62,25.25l16.28,13.22.11.09,16.5-13.51c11.81-.66,34.36-3.93,53.13-18.32,19.91-15.26,29.49-38.36,28.48-68.66Zm-92.31,93-1.43.08L150.14,254.1l-14.58-11.84-1.34-.12C81,237.55,54.93,209.83,56.6,159.77l.06-1.9-9-9.13c26.12-30,29.17-59.86,9.09-88.91l5.62-7.63a60.8,60.8,0,0,0,20,3.16c12.88,0,25-3.44,34.64-9.76,10.85,7.34,22,11.06,33.06,11.06s22.36-3.73,33.45-11.11a64.51,64.51,0,0,0,34.67,9.86A65.37,65.37,0,0,0,238,52.32l5.38,7.48c-19.84,28.54-16.75,59.19,9,89l-8.76,8.89.06,1.89c1,28.77-8,50.62-26.68,64.95C199.18,238.21,177.62,241.3,166.35,241.93Zm53.42-14a69.23,69.23,0,0,0,15.15-16A68.14,68.14,0,0,1,219.77,228Z"/><path class="c" d="M243.69,159.59l-.06-1.89,8.76-8.89c-25.72-29.82-28.81-60.47-9-89L238,52.32a65.37,65.37,0,0,1-19.94,3.09,64.51,64.51,0,0,1-34.67-9.86C172.34,52.93,161.1,56.66,150,56.66s-22.21-3.72-33.06-11.06c-9.59,6.32-21.76,9.76-34.64,9.76a60.8,60.8,0,0,1-20-3.16l-5.62,7.63c20.08,29.05,17,58.93-9.09,88.91l9,9.13-.06,1.9c-1.67,50.06,24.44,77.78,77.62,82.37l1.34.12,14.58,11.84L164.92,242l1.43-.08c11.27-.63,32.83-3.72,50.66-17.39C235.69,210.21,244.67,188.36,243.69,159.59ZM227.55,193.3a53.76,53.76,0,0,1-17.23,22.51c-15.49,11.87-34.58,14.58-44.58,15.14l-5,.28-10.61,8.68-10.25-8.32-4.71-.41c-23.69-2.05-41.29-9-52.31-20.72C72,199,66.86,182,67.59,160.14l.08-2.27h165l.07,2.1C233.13,172.72,231.4,183.93,227.55,193.3ZM64.74,144.67c18.12-26.14,20.93-53,8.25-78.84a78.25,78.25,0,0,0,9.29.53,76.65,76.65,0,0,0,34.43-8c10.85,6.14,22,9.25,33.27,9.25s22.6-3.14,33.66-9.34a77.06,77.06,0,0,0,34.46,8.09,77.3,77.3,0,0,0,9-.53c-12.33,25.53-9.49,52.78,8.23,78.79Z"/><path class="c" d="M227.12,65.88a77.3,77.3,0,0,1-9,.53,77.06,77.06,0,0,1-34.46-8.09c-11,6.17-22.25,9.31-33.5,9.34v77h85.21C217.63,118.66,214.79,91.41,227.12,65.88Z"/><rect class="d" x="161.93" y="67.66" width="11.58" height="77.01"/><rect class="d" x="185.43" y="67.66" width="11.58" height="77.01"/><rect class="d" x="209.06" y="67.66" width="11.58" height="77.01"/><path class="e" d="M125.13,144.67H105.49v-29.6H78.65a90.66,90.66,0,0,1-13.92,29.6h85.41v-29.6h-25Z"/><path class="e" d="M105.49,65.83V62.91a79,79,0,0,1-23.21,3.45A78.25,78.25,0,0,1,73,65.83a73.23,73.23,0,0,1,7.75,29.6h24.75Z"/><path class="e" d="M150,67.66a64.32,64.32,0,0,1-24.85-5.12V95.43h25V67.66Z"/><path class="d" d="M125.13,95.43V62.54a78.8,78.8,0,0,1-8.42-4.13,69.88,69.88,0,0,1-11.22,4.5V95.43H80.74a69.75,69.75,0,0,1-.26,9,71.52,71.52,0,0,1-1.83,10.62h26.84v29.6h19.64v-29.6h25V95.43Z"/><path class="f" d="M232.7,160l-.07-2.1V169Q232.86,164.65,232.7,160Z"/><path class="f" d="M67.59,160.14q-.16,5,.08,9.65V157.87Z"/><path class="b" d="M91.23,217.61V157.87H67.67v11.92c.89,17.26,6,30.91,15.18,40.67A51.6,51.6,0,0,0,91.23,217.61Z"/><path class="d" d="M114.8,227.84v-70H91.23v59.74A74,74,0,0,0,114.8,227.84Z"/><path class="b" d="M135.16,231.18l3.21.28V157.87H114.8v70A125.6,125.6,0,0,0,135.16,231.18Z"/><polygon class="d" points="139.87 231.59 150.12 239.91 160.73 231.23 161.93 231.16 161.93 157.87 138.37 157.87 138.37 231.46 139.87 231.59"/><path class="b" d="M165.74,231a96.7,96.7,0,0,0,19.76-3.2V157.87H161.93v73.29Z"/><path class="d" d="M209.06,216.74V157.87H185.5v69.88A72.77,72.77,0,0,0,209.06,216.74Z"/><path class="b" d="M210.32,215.81a53.76,53.76,0,0,0,17.23-22.51A73.74,73.74,0,0,0,232.63,169V157.87H209.06v58.87Z"/><path class="c" d="M160.87,198.93c-1-3.4-2.45-5.57-4.28-6.3-1.38-.55-3.06-.3-5,.74-.94,2.12-3.36,6.62-7.4,8a7.62,7.62,0,0,1-6.53-.88c-.22-.12-.43-.26-.65-.41-2.79,3.69-5.47,4.77-9.35,5.14A25.44,25.44,0,0,0,132,211c.58.58,1.22,1.15,1.89,1.71C148.48,211.18,157.3,206.67,160.87,198.93Z"/><path class="c" d="M134.56,198c-5.57-5.7-4.77-14.6-2.79-23a25.7,25.7,0,0,0-5.54,27.11C130,201.89,132.12,201.32,134.56,198Z"/><path class="c" d="M139.33,197.74a4.36,4.36,0,0,0,3.86.59c2.39-.81,4.16-3.63,5-5.23-3.2-2.86-7.57-7.16-1-15.72-2.48-3.58-2.91-6.87-1.29-9.81a25.59,25.59,0,0,0-9.92,3.94C132.47,184.38,131.83,193.26,139.33,197.74Z"/><path class="c" d="M153.21,175.19c8.75,0,16.82,6.56,22.29,13.9a25.55,25.55,0,0,0-25.26-21.88c-2.63,2.45-2.77,5-.43,8.32A17.2,17.2,0,0,1,153.21,175.19Z"/><path class="c" d="M168.22,200.57a6.34,6.34,0,0,0-4.39-.43c-3.71,8.22-12.19,13.24-25.87,15.28a25.67,25.67,0,0,0,34.58-10.07A8.5,8.5,0,0,0,168.22,200.57Z"/><path class="c" d="M150.2,178.72c-5.35,6.59-3,9.22-.08,11.81,2.75-1.48,5.39-1.78,7.66-.88,2.57,1,4.52,3.46,5.81,7.26a8.87,8.87,0,0,1,1.85-.19,9.73,9.73,0,0,1,4.14.95,11.77,11.77,0,0,1,4.65,4,25.29,25.29,0,0,0,1.44-6.5C171.75,188.28,161.52,176.25,150.2,178.72Z"/><path class="b" d="M150.15,164.26h0a28.6,28.6,0,1,0,28.6,28.57A28.62,28.62,0,0,0,150.14,164.26Zm25.35,24.83c-5.47-7.34-13.54-13.9-22.29-13.9a17.2,17.2,0,0,0-3.4.34c-2.34-3.35-2.2-5.87.43-8.32A25.55,25.55,0,0,1,175.5,189.09Zm-27.31,4c-.84,1.6-2.61,4.42-5,5.23a4.36,4.36,0,0,1-3.86-.59c-7.5-4.48-6.86-13.36-3.36-26.23a25.59,25.59,0,0,1,9.92-3.94c-1.62,2.94-1.19,6.23,1.29,9.81C140.62,185.94,145,190.24,148.19,193.1ZM134.56,198c-2.44,3.28-4.53,3.85-8.33,4.08A25.7,25.7,0,0,1,131.77,175C129.79,183.44,129,192.34,134.56,198Zm2.48,2c.22.15.43.29.65.41a7.62,7.62,0,0,0,6.53.88c4-1.38,6.46-5.88,7.4-8,1.91-1,3.59-1.29,5-.74,1.83.73,3.3,2.9,4.28,6.3-3.57,7.74-12.39,12.25-27,13.78-.67-.56-1.31-1.13-1.89-1.71a25.44,25.44,0,0,1-4.34-5.78C131.57,204.85,134.25,203.77,137,200.08Zm.92,15.34c13.68-2,22.16-7.06,25.87-15.28a6.34,6.34,0,0,1,4.39.43,8.5,8.5,0,0,1,4.32,4.78A25.64,25.64,0,0,1,138,215.42Zm36.27-13.77a11.77,11.77,0,0,0-4.65-4,9.73,9.73,0,0,0-4.14-.95,8.87,8.87,0,0,0-1.85.19c-1.29-3.8-3.24-6.24-5.81-7.26-2.27-.9-4.91-.6-7.66.88-2.88-2.59-5.27-5.22.08-11.81,11.32-2.47,21.55,9.56,25.47,16.43A25.29,25.29,0,0,1,174.23,201.65Z"/></svg>