<svg xmlns="http://www.w3.org/2000/svg" viewBox="0 0 300 300"><defs><style>.a{fill:#002c99;}</style></defs><path class="a" d="M152.06,156.29a26.69,26.69,0,0,0-8.13-9,33.63,33.63,0,0,0-6.36-3.56,36.9,36.9,0,0,0,4.2-2.67q7.74-6.09,7.75-14.54T141.77,112q-8-6.35-19.44-6.35H89.43v88.8h34.42a33.39,33.39,0,0,0,20.08-6.35,26.69,26.69,0,0,0,8.13-9,23.6,23.6,0,0,0,0-22.74Zm-13.22,21.6a20.89,20.89,0,0,1-7.94,7.43,22.57,22.57,0,0,1-11,2.73H102.64V112h18.29a15.63,15.63,0,0,1,13.28,7.24,13.25,13.25,0,0,1,2.09,7.24,13.7,13.7,0,0,1-4.51,10.36A15.22,15.22,0,0,1,120.93,141h-2.72a3.12,3.12,0,1,0,0,6.23h1.71a21.85,21.85,0,0,1,15.43,6,19.37,19.37,0,0,1,3.49,24.65Z"/><path class="a" d="M78.75,156.29a26.49,26.49,0,0,0-8.13-9,33.55,33.55,0,0,0-6.35-3.56A36.74,36.74,0,0,0,68.46,141q7.76-6.09,7.75-14.54T68.46,112q-8-6.35-19.43-6.35H16.12v88.8H50.55a33.34,33.34,0,0,0,20.07-6.35,26.49,26.49,0,0,0,8.13-9,23.53,23.53,0,0,0,0-22.74Zm-13.21,21.6a21,21,0,0,1-7.94,7.43,22.61,22.61,0,0,1-11,2.73H29.34V112H47.63a15.44,15.44,0,0,1,7.69,2,15.63,15.63,0,0,1,5.59,5.27A13.33,13.33,0,0,1,63,126.43a13.7,13.7,0,0,1-4.51,10.36A15.25,15.25,0,0,1,47.63,141H44.9a3.12,3.12,0,0,0,0,6.23h1.71a21.86,21.86,0,0,1,15.44,6,19.41,19.41,0,0,1,3.49,24.65Z"/><polygon class="a" points="216.3 105.85 210.02 123 210.02 123 191.79 172.8 190.43 177.25 190.3 176.85 168.57 105.85 154.85 105.85 181.96 194.4 183.88 194.4 191.78 194.4 191.78 194.4 217.93 123 224.3 105.6 216.39 105.6 216.3 105.85"/><path class="a" d="M251.36,105.6H240.92L208.4,194.4h7.9l6.08-16.51h40.13l6.08,16.51h15.29ZM256,171.66H224.66L242.44,123l17.79,48.66Z"/></svg>