<svg xmlns="http://www.w3.org/2000/svg" xmlns:xlink="http://www.w3.org/1999/xlink" viewBox="0 0 200 200"><defs><style>.a{fill:url(#a);}.b{fill:#fff;}</style><linearGradient id="a" x1="46.27" y1="46.27" x2="153.73" y2="153.73" gradientUnits="userSpaceOnUse"><stop offset="0" stop-color="#00b9fa"/><stop offset="1" stop-color="#0097fb"/></linearGradient></defs><circle class="a" cx="100" cy="100" r="75.99"/><path class="b" d="M72.76,73.24a38.59,38.59,0,0,1,46.45-6.15A7.29,7.29,0,0,0,128,66l.11-.1a7.27,7.27,0,0,0-1.44-11.42A53.23,53.23,0,0,0,54,127.17a7.28,7.28,0,0,0,10,2.58,7.35,7.35,0,0,0,1.46-1.14l.11-.11a7.28,7.28,0,0,0,1.12-8.81A38.59,38.59,0,0,1,72.76,73.24Z"/><path class="b" d="M133.39,81.3a38.75,38.75,0,0,1,4.93,23,2.56,2.56,0,0,1-2.8,2.3,3.1,3.1,0,0,1-.42-.08l-33.31-8.92a3.85,3.85,0,0,0-4.71,2.72,3.77,3.77,0,0,0,0,2l8.92,33.3a2.57,2.57,0,0,1-1.81,3.15,2.7,2.7,0,0,1-.41.08,38.83,38.83,0,0,1-23-4.94A7.39,7.39,0,0,0,71.93,135h0a7.37,7.37,0,0,0,0,10.41,7.66,7.66,0,0,0,1.55,1.18,53.25,53.25,0,0,0,44.74,3.83l3-1.09a3.85,3.85,0,0,0,2.4-4.61l-7.53-28.16,28.16,7.55a3.86,3.86,0,0,0,4.62-2.4l1.08-3A53.25,53.25,0,0,0,146.14,74a7.35,7.35,0,0,0-10-2.75,7.14,7.14,0,0,0-1.55,1.18h0A7.37,7.37,0,0,0,133.39,81.3Z"/></svg>