<svg xmlns="http://www.w3.org/2000/svg" viewBox="0 0 300 300"><defs><style>.a{fill:#4423ff;}.b{fill:#a191ff;}</style></defs><path class="a" d="M239.39,71.15a8.34,8.34,0,0,0-8.13,1.52L149.83,141a2.82,2.82,0,0,1-2.76.49l-35.7-13a6.9,6.9,0,0,0-8.51,3.33l-.09.16a6.92,6.92,0,0,0,3.79,9.67L143.8,155.2a14.06,14.06,0,0,0,13.8-2.43l75.23-63.13,15.65,88.75-10.61-3.86a7,7,0,1,0-4.79,13.16l19.73,7.19a8.33,8.33,0,0,0,8.46-1.62,8.58,8.58,0,0,0,2.67-7.91L245,77.86A8.61,8.61,0,0,0,239.39,71.15Z"/><path class="a" d="M75.66,203.23l-8.5,7.13L51.52,121.61l16.5,6a7,7,0,0,0,8.75-3.78l0-.13a6.92,6.92,0,0,0-4-9.25l-25.64-9.34A8.31,8.31,0,0,0,39,106.48a8.6,8.6,0,0,0-3,8.21L55,222.14a8.63,8.63,0,0,0,5.6,6.71,8.32,8.32,0,0,0,8.12-1.52l16.09-13.49a7,7,0,0,0,.64-10.13A7.14,7.14,0,0,0,75.66,203.23Z"/><path class="b" d="M214.42,138.64a7,7,0,0,0-5.78,7.2c0,.68.05,1.36.06,2,0,1.34,0,2.68-.14,4q-.1,1.32-.27,2.64A48.75,48.75,0,0,1,207,161c-.15.57-.32,1.13-.49,1.7s-.35,1.09-.53,1.63c-.44,1.25-.92,2.49-1.44,3.7-.24.55-.48,1.09-.73,1.63-.6,1.26-1.25,2.49-1.94,3.71-.39.66-.79,1.33-1.2,2l-.12.2c-.46.72-.93,1.43-1.43,2.13v0a61.64,61.64,0,0,1-39.86,24.76c-20.47,3.61-40.2-2.86-53.08-15.59a52.57,52.57,0,0,1-4.4-4.92,49.18,49.18,0,0,1-8.08-15.12A47.75,47.75,0,0,1,92,160.22,49.65,49.65,0,0,1,91.3,151c0-1,.08-2.1.17-3.14s.18-1.89.31-2.82c.11-.77.23-1.53.38-2.29.08-.46.18-.91.28-1.37a45.54,45.54,0,0,1,1.18-4.45c.46-1.47,1-2.92,1.6-4.35.15-.37.31-.73.47-1.1.34-.76.69-1.51,1.07-2.26a54.5,54.5,0,0,1,2.87-5c.49-.77,1-1.53,1.56-2.29s1.1-1.5,1.68-2.24a60.83,60.83,0,0,1,18.72-15.52,61,61,0,0,1,6-2.82q1-.42,2.1-.81a65.16,65.16,0,0,1,11.06-3,64,64,0,0,1,21.87-.1c1,.18,2.07.38,3.08.61A7.12,7.12,0,0,0,174,93.7a7,7,0,0,0-4.88-9.2c-1-.25-1.81-.45-2.27-.54a78.87,78.87,0,0,0-55.2,9.74,75.4,75.4,0,0,0-9,6.33A72.5,72.5,0,0,0,97.22,105c-.83.84-1.65,1.69-2.44,2.56-.61.67-1.2,1.35-1.78,2s-1.14,1.39-1.69,2.11a70.28,70.28,0,0,0-5.14,7.63h0a65.8,65.8,0,0,0-3.92,7.89c-.68,1.62-1.29,3.27-1.83,4.93q-.54,1.67-1,3.36c-.12.43-.23.87-.34,1.3a63.38,63.38,0,0,0-1.41,7.89c-.05.44-.09.88-.14,1.32s-.08,1-.11,1.55c-.06.87-.11,1.74-.13,2.61,0,.69,0,1.39,0,2.08a62,62,0,0,0,1,10.41,63.82,63.82,0,0,0,1.54,6.63c.36,1.24.76,2.47,1.2,3.68,0,.13.09.26.14.38.26.71.53,1.41.81,2.11A63.54,63.54,0,0,0,85.59,183q1.06,1.84,2.25,3.63c.26.4.53.79.81,1.19a65,65,0,0,0,5.52,6.86c.49.52,1,1,1.47,1.55a68.65,68.65,0,0,0,11,9.05c.43.28.87.57,1.31.84a71.66,71.66,0,0,0,11.15,5.75A75.47,75.47,0,0,0,133.18,216a77.05,77.05,0,0,0,13.88,1.41c.69,0,1.39,0,2.08,0,1.19,0,2.38-.07,3.58-.14l1.79-.13c2.39-.2,4.78-.52,7.17-.94a79,79,0,0,0,12.19-3.15l1.68-.61a76.49,76.49,0,0,0,12.83-6.18,73,73,0,0,0,20.3-18c.17-.21.33-.43.49-.64l.45-.6c.32-.43.63-.86.94-1.3,1.23-1.75,2.38-3.54,3.43-5.37.53-.91,1-1.84,1.51-2.77q1.08-2.1,2-4.26t1.69-4.38c.52-1.48,1-3,1.38-4.49.24-.92.47-1.85.67-2.78s.39-1.86.55-2.79c.08-.45.15-.89.22-1.34a63.15,63.15,0,0,0,.64-12.36,7,7,0,0,0-8.23-6.6Z"/></svg>