<svg xmlns="http://www.w3.org/2000/svg" viewBox="0 0 350 200"><defs><style>.a{fill:#00a4e0;}.b,.c{fill:#002745;}.b{opacity:0.5;isolation:isolate;}</style></defs><path class="a" d="M124.83,75.55A13.16,13.16,0,0,1,130,70.27a15,15,0,0,1,7.59-1.89,14.59,14.59,0,0,1,8.89,2.72,13.46,13.46,0,0,1,4.93,7.49h-7.8a6.49,6.49,0,0,0-2.49-2.8,7.21,7.21,0,0,0-8.81,1.33,8.81,8.81,0,0,0-2,6.12,8.65,8.65,0,0,0,2,6.09,6.72,6.72,0,0,0,5.31,2.28,7,7,0,0,0,3.5-1,6.34,6.34,0,0,0,2.49-2.76h7.8a13.28,13.28,0,0,1-4.93,7.45A14.8,14.8,0,0,1,137.6,98,15,15,0,0,1,130,96.15a13.25,13.25,0,0,1-5.18-5.24,16.55,16.55,0,0,1,0-15.36Z"/><path class="a" d="M155.72,79.92a10.53,10.53,0,0,1,3.67-4.16,9.76,9.76,0,0,1,5-1.44,8.94,8.94,0,0,1,4.31,1,7.38,7.38,0,0,1,2.83,2.63V74.64h7V97.8h-7V94.55a7.91,7.91,0,0,1-2.87,2.58,8.83,8.83,0,0,1-4.3,1,9.45,9.45,0,0,1-5-1.61,10.36,10.36,0,0,1-3.67-4.2,14,14,0,0,1-1.36-6.3A13.65,13.65,0,0,1,155.72,79.92Zm14.52,2.14a4.67,4.67,0,0,0-3.5-1.54,4.75,4.75,0,0,0-3.5,1.5,5.77,5.77,0,0,0-1.64,4,6,6,0,0,0,1.47,4.24,4.93,4.93,0,0,0,7,0l0,0a5.82,5.82,0,0,0,1.46-4.2A5.68,5.68,0,0,0,170.24,82.06Z"/><path class="a" d="M188,97.1a9.77,9.77,0,0,1-3.75-2.83,7.5,7.5,0,0,1-1.5-4.06h7a2.66,2.66,0,0,0,1.12,2,4,4,0,0,0,2.45.73,3.72,3.72,0,0,0,2.06-.49,1.59,1.59,0,0,0,.73-1.36,1.52,1.52,0,0,0-1-1.47,21.65,21.65,0,0,0-3.5-1,33.26,33.26,0,0,1-4.17-1.23,7.53,7.53,0,0,1-2.87-2.06,5.45,5.45,0,0,1-1.18-3.74,6.39,6.39,0,0,1,1.08-3.5,7.36,7.36,0,0,1,3.25-2.59,12.47,12.47,0,0,1,5.08-1,10.14,10.14,0,0,1,7,2.17,8.41,8.41,0,0,1,2.87,5.71h-6.51A2.88,2.88,0,0,0,195,80.45a3.45,3.45,0,0,0-2.34-.7,3.18,3.18,0,0,0-1.89.45,1.6,1.6,0,0,0,.38,2.8,16.47,16.47,0,0,0,3.29,1,35.8,35.8,0,0,1,4.2,1.3,7.08,7.08,0,0,1,2.83,2.06,5.87,5.87,0,0,1,1.3,3.85,6,6,0,0,1-1.16,3.5,7.79,7.79,0,0,1-3.29,2.52,12.76,12.76,0,0,1-5,.91A13.29,13.29,0,0,1,188,97.1Z"/><path class="a" d="M207.05,79.92a10.44,10.44,0,0,1,3.49-4.16,10,10,0,0,1,5.22-1.44,8.93,8.93,0,0,1,4.27,1,7.24,7.24,0,0,1,2.86,2.63V74.64h7V97.8h-7V94.55a8,8,0,0,1-2.9,2.58,8.85,8.85,0,0,1-4.3,1,9.55,9.55,0,0,1-5-1.61,10.36,10.36,0,0,1-3.5-4.2,14.35,14.35,0,0,1-1.5-6.3A14,14,0,0,1,207.05,79.92Zm14.55,2.14a5,5,0,0,0-7.12-.09l-.09.09a5.78,5.78,0,0,0-1.47,4,6,6,0,0,0,1.47,4.24,4.89,4.89,0,0,0,3.5,1.54,5,5,0,0,0,3.5-1.54,6.88,6.88,0,0,0,.21-8.22Z"/><path class="b" d="M245.81,80.24a10.3,10.3,0,0,1,9.59-5.53,9.88,9.88,0,0,1,4.93,1.22,8.75,8.75,0,0,1,3.5,3.22V67.08h3.81V97.8h-4V93.53a8.73,8.73,0,0,1-3.5,3.5A9.83,9.83,0,0,1,255,98.32a10.16,10.16,0,0,1-5.32-1.78,10.5,10.5,0,0,1-3.88-4.16,13.06,13.06,0,0,1-1.43-6.16A12.56,12.56,0,0,1,245.81,80.24Zm16.79,1.68A7.4,7.4,0,0,0,259.8,79a7.83,7.83,0,0,0-7.73,0,7.23,7.23,0,0,0-2.8,2.9,9.48,9.48,0,0,0-.87,4.48,9.86,9.86,0,0,0,1,4.55,7.4,7.4,0,0,0,2.8,2.94,7.88,7.88,0,0,0,7.73,0,7,7,0,0,0,2.8-2.94,9.25,9.25,0,0,0,1.05-4.52A9,9,0,0,0,262.6,81.92Z"/><path class="b" d="M294.47,87.86H276.39a7,7,0,0,0,7,7h.4a7,7,0,0,0,4.09-1.15,6.25,6.25,0,0,0,2.31-3h4.06a9.91,9.91,0,0,1-3.5,5.32,11.16,11.16,0,0,1-7,2.06,11.76,11.76,0,0,1-5.8-1.43,10.44,10.44,0,0,1-4-4.16,12.63,12.63,0,0,1-1.47-6.2,13.06,13.06,0,0,1,1.43-6.19,10.12,10.12,0,0,1,4-4.09,11.89,11.89,0,0,1,5.87-1.4,11.38,11.38,0,0,1,5.74,1.4,9.7,9.7,0,0,1,3.82,3.88,11.36,11.36,0,0,1,1.36,5.56A16.73,16.73,0,0,1,294.47,87.86Zm-4.72-6.78a6,6,0,0,0-2.59-2.38,8.27,8.27,0,0,0-3.5-.81,7,7,0,0,0-4.86,1.82,7.27,7.27,0,0,0-2.41,5.07h14.34A6.89,6.89,0,0,0,289.75,81.08Z"/><path class="b" d="M303.36,67.08V97.8h-3.78V67.08Z"/><path class="c" d="M131.23,116.24v5.87h9.52v5.5h-9.52V134H142v5.67H124.16V110.53H142v5.71Z"/><path class="c" d="M150.61,139a9.37,9.37,0,0,1-3.67-2.84,7.49,7.49,0,0,1-1.54-4.06h7a2.81,2.81,0,0,0,1.12,2,4,4,0,0,0,2.45.74,3.5,3.5,0,0,0,2.06-.53,1.56,1.56,0,0,0,.46-2.17,1.47,1.47,0,0,0-.77-.62,18,18,0,0,0-3.5-1.09,28.85,28.85,0,0,1-4.17-1.22,7.08,7.08,0,0,1-2.83-2,5.49,5.49,0,0,1-1.22-3.75,6.45,6.45,0,0,1,1.11-3.5,7.33,7.33,0,0,1,3.22-2.58,12.47,12.47,0,0,1,5.08-1,10.15,10.15,0,0,1,7,2.14,8.33,8.33,0,0,1,2.87,5.73h-6.54a2.87,2.87,0,0,0-1-1.92,3.78,3.78,0,0,0-2.34-.7,3.44,3.44,0,0,0-1.93.49,1.47,1.47,0,0,0-.66,1.29,1.62,1.62,0,0,0,1.05,1.51,17.35,17.35,0,0,0,3.32,1,35.92,35.92,0,0,1,4.16,1.33,7.28,7.28,0,0,1,2.87,2.06,6,6,0,0,1,1.26,3.85,6.1,6.1,0,0,1-1.15,3.5,7.6,7.6,0,0,1-3.26,2.48,12.24,12.24,0,0,1-5,.95A13.51,13.51,0,0,1,150.61,139Z"/><path class="c" d="M182.66,133.66v6h-3.5a8.9,8.9,0,0,1-6-1.89,7.85,7.85,0,0,1-2.27-6.26v-9.1h-2.94v-5.91h2.8v-5.64h7v5.64h4.9v5.91H178v9.27a1.9,1.9,0,0,0,.53,1.5,2.31,2.31,0,0,0,1.64.46Z"/><path class="c" d="M209.49,116.52v23.16h-7v-3.15a7.76,7.76,0,0,1-2.94,2.45,8.8,8.8,0,0,1-4.09.94,8.93,8.93,0,0,1-4.69-1.19,8.14,8.14,0,0,1-3.15-3.5,11.75,11.75,0,0,1-1.12-5.28V116.52h7v12.59a5.09,5.09,0,0,0,1.19,3.5A4.3,4.3,0,0,0,198,133.9a4.22,4.22,0,0,0,3.25-1.29,5.14,5.14,0,0,0,1.23-3.5V116.52Z"/><path class="c" d="M214.53,121.8a10.18,10.18,0,0,1,3.5-4.16,9.47,9.47,0,0,1,5.18-1.44,9.09,9.09,0,0,1,4.16,1,7.57,7.57,0,0,1,3,2.55V109h7v30.72h-7v-3.33a7.26,7.26,0,0,1-2.84,2.66,8.8,8.8,0,0,1-4.3,1,9.23,9.23,0,0,1-5-1.51,10.39,10.39,0,0,1-3.5-4.16,14,14,0,0,1-1.37-6.3A13.75,13.75,0,0,1,214.53,121.8Zm14.52,2.1a4.93,4.93,0,0,0-7,0l0,0a6.34,6.34,0,0,0-.17,8.32,4.72,4.72,0,0,0,3.5,1.58,4.81,4.81,0,0,0,3.5-1.54,6.73,6.73,0,0,0,0-8.4Z"/><path class="c" d="M243.29,113a3.78,3.78,0,0,1-.15-5.34l.15-.16a4.36,4.36,0,0,1,3-1.08,4.21,4.21,0,0,1,3,1.08,3.78,3.78,0,0,1,.15,5.35,1.06,1.06,0,0,1-.15.15,4.21,4.21,0,0,1-3,1.08A4.31,4.31,0,0,1,243.29,113Zm6.58,3.5v23.16h-7V116.52Z"/><path class="c" d="M254.94,121.8a10.18,10.18,0,0,1,3.5-4.16,9.57,9.57,0,0,1,5.21-1.44,8.93,8.93,0,0,1,4.27,1,7.25,7.25,0,0,1,2.87,2.62v-3.28h7v23.16h-7v-3.29a7.77,7.77,0,0,1-2.9,2.62,9,9,0,0,1-4.27,1,9.37,9.37,0,0,1-5-1.51,10.44,10.44,0,0,1-3.49-4.16,14.28,14.28,0,0,1-1.33-6.3A13.87,13.87,0,0,1,254.94,121.8Zm14.55,2.1a5,5,0,0,0-7.07-.13,1.59,1.59,0,0,0-.13.13,6.62,6.62,0,0,0,0,8.32,4.72,4.72,0,0,0,3.5,1.58,4.86,4.86,0,0,0,3.5-1.54,6.73,6.73,0,0,0,0-8.4Z"/><path class="c" d="M303.82,118.9a10.52,10.52,0,0,1,2.41,7.24v13.54h-7V127.12a5.12,5.12,0,0,0-1.19-3.5,4.78,4.78,0,0,0-6.47,0,5.12,5.12,0,0,0-1.19,3.5v12.56h-7V116.52h7v3.07a7.41,7.41,0,0,1,2.91-2.44,9,9,0,0,1,4.09-.88A8.47,8.47,0,0,1,303.82,118.9Z"/><path class="c" d="M324.07,133.66v6h-3.5a8.86,8.86,0,0,1-6-1.89,7.82,7.82,0,0,1-2.28-6.26v-9.1h-2.8v-5.91h2.8v-5.64h7v5.64h4.65v5.91h-4.55v9.27a2,2,0,0,0,.49,1.5,2.48,2.48,0,0,0,1.68.46Z"/><path class="c" d="M349.86,129.81h-16.2a4.85,4.85,0,0,0,1.4,3.29,4.19,4.19,0,0,0,3,1.15,3.77,3.77,0,0,0,3.71-2.24h7.55a10.81,10.81,0,0,1-2.1,4.1,10.55,10.55,0,0,1-3.81,2.87,12,12,0,0,1-5.11,1.05,12.38,12.38,0,0,1-5.95-1.51,10.47,10.47,0,0,1-4.16-4.16,14.24,14.24,0,0,1,0-12.6,10.1,10.1,0,0,1,4.16-4.23,13.56,13.56,0,0,1,12.07,0,10.11,10.11,0,0,1,4.1,4,12.32,12.32,0,0,1,1.47,6.09A15.71,15.71,0,0,1,349.86,129.81Zm-7-4a3.51,3.51,0,0,0-1.22-2.91,4.61,4.61,0,0,0-3.12-1.08,4.42,4.42,0,0,0-3,1,4.64,4.64,0,0,0-1.54,2.94Z"/><path class="c" d="M36.7,88h0a5,5,0,0,1,0,7h0a5,5,0,0,1-7,0h0a5,5,0,0,1,0-7h0A5,5,0,0,1,36.7,88Z"/><path class="c" d="M8.05,80.66a5,5,0,0,0,0,7l7-7A5,5,0,0,0,8.05,80.66Z"/><path class="c" d="M28.3,108.57a39.51,39.51,0,0,1-18.36,6.76v8a47.26,47.26,0,0,0,22.88-8.18,4,4,0,0,0,1-5.55,4.51,4.51,0,0,0-.44-.54h0A4,4,0,0,0,28.3,108.57Z"/><polygon class="a" points="48.17 61.59 48.17 47.56 41.14 54.59 0 95.73 0 142.44 38.87 142.44 48.17 142.44 48.17 132.54 38.87 132.54 9.94 132.54 9.94 99.83 48.17 61.59"/><polygon class="c" points="58.11 97.17 58.11 91.36 80.85 114.14 89.32 122.6 96.35 115.57 87.88 107.11 58.11 77.33 58.11 71.53 80.85 94.27 80.85 94.27 89.32 102.77 96.35 95.73 87.88 87.27 87.88 87.27 58.11 57.49 48.17 47.56 48.17 61.59 48.17 67.4 48.17 81.46 48.17 87.27 48.17 101.3 58.11 111.23 80.85 133.97 89.32 142.44 96.35 135.44 87.88 126.98 58.11 97.17"/></svg>