<svg xmlns="http://www.w3.org/2000/svg" viewBox="0 0 200 200"><defs><style>.a{fill:#002745;}.b{fill:#00a4e0;}</style></defs><rect class="a" x="70.57" y="83.46" width="14.64" height="14.64" rx="7.32" transform="translate(-41.38 81.67) rotate(-45)"/><path class="a" d="M40.81,74.84a7.32,7.32,0,0,0,0,10.35L51.16,74.84A7.32,7.32,0,0,0,40.81,74.84Z"/><path class="a" d="M70.68,116a57.83,57.83,0,0,1-27.11,10v11.76a69.44,69.44,0,0,0,33.77-12,5.87,5.87,0,0,0,.81-9h0A5.87,5.87,0,0,0,70.68,116Z"/><polygon class="b" points="100 46.71 100 26 89.65 36.35 28.93 97.07 28.93 166 86.29 166 100 166 100 151.36 86.29 151.36 43.57 151.36 43.57 103.14 100 46.71"/><polygon class="a" points="114.64 99.22 114.64 90.64 148.22 124.21 160.72 136.71 171.07 126.36 158.57 113.86 114.64 69.93 114.64 61.35 148.22 94.93 148.22 94.93 160.72 107.43 171.07 97.07 158.57 84.57 158.57 84.57 114.64 40.64 100 26 100 46.71 100 55.29 100 76 100 84.57 100 105.28 114.64 119.93 148.22 153.5 160.72 166 171.07 155.65 158.57 143.15 114.64 99.22"/></svg>