<svg xmlns="http://www.w3.org/2000/svg" viewBox="0 0 200 200"><defs><style>.a{fill:#075b5c;}</style></defs><polygon class="a" points="144 116.5 144 105.5 133 105.5 133 94.5 133 83.5 122 83.5 122 72.5 122 61.5 111 61.5 111 72.5 111 83.5 111 94.5 111 105.5 111 116.5 111 127.5 122 127.5 133 127.5 144 127.5 155 127.5 155 116.5 144 116.5"/><polygon class="a" points="122 138.5 111 138.5 100 138.5 89 138.5 78 138.5 67 138.5 56 138.5 56 149.5 67 149.5 67 160.5 78 160.5 89 160.5 100 160.5 111 160.5 122 160.5 133 160.5 133 149.5 144 149.5 144 138.5 133 138.5 122 138.5"/><polygon class="a" points="78 83.5 78 72.5 67 72.5 67 83.5 67 94.5 78 94.5 78 83.5"/><polygon class="a" points="67 127.5 78 127.5 89 127.5 100 127.5 100 116.5 100 105.5 100 94.5 100 83.5 100 72.5 100 61.5 100 50.5 100 39.5 89 39.5 89 50.5 89 61.5 78 61.5 78 72.5 89 72.5 89 83.5 89 94.5 89 105.5 89 116.5 78 116.5 67 116.5 67 105.5 67 94.5 56 94.5 56 105.5 56 116.5 45 116.5 45 127.5 56 127.5 67 127.5"/></svg>