<svg xmlns="http://www.w3.org/2000/svg" viewBox="0 0 200 200"><defs><style>.a{fill:#00d18a;}</style></defs><path class="a" d="M117.91,157.3c23.36,0,42.38-18.81,42.39-41.93a42,42,0,0,0-42-42H87.89A11.42,11.42,0,0,0,76.4,84.31a11.27,11.27,0,0,0,11.25,11.6H118a19.44,19.44,0,1,1,.33,38.88H87.89A11.41,11.41,0,0,0,76.4,145.71,11.26,11.26,0,0,0,87.65,157.3Z"/><path class="a" d="M118.35,104.09H88a19.44,19.44,0,1,1-.33-38.88h30.7a11.27,11.27,0,0,0,11.25-11.6A11.41,11.41,0,0,0,118.11,42.7H65.78A20.08,20.08,0,0,0,45.7,62.78v83a11.4,11.4,0,0,0,10.77,11.47,11.27,11.27,0,0,0,11.74-11.38c-.13-10.62,8.89-19.3,19.51-19.3h30.39a11.42,11.42,0,0,0,11.49-10.92A11.27,11.27,0,0,0,118.35,104.09Z"/></svg>