<svg xmlns="http://www.w3.org/2000/svg" viewBox="0 0 200 200"><defs><style>.a{fill:#a4b5db;}</style></defs><path class="a" d="M172.59,52.79a27.78,27.78,0,0,0-53-11.65,68.92,68.92,0,0,0-39.92-1.51,27.78,27.78,0,1,0-43,33.82,68.81,68.81,0,1,0,122.59,3.08A27.78,27.78,0,0,0,172.59,52.79Zm-139.72,0A22.32,22.32,0,0,1,74.32,41.28,69.2,69.2,0,0,0,39.51,68.65,22.27,22.27,0,0,1,32.87,52.79Zm127.62,53.4A63.34,63.34,0,1,1,41.09,76.72C42,75.1,42.86,73.53,43.85,72a63.65,63.65,0,0,1,32.7-25.71q2.57-.88,5.24-1.56a63.56,63.56,0,0,1,36,1.57c1.75.61,3.46,1.28,5.14,2a22.11,22.11,0,0,1,1.75-5.2A22.3,22.3,0,1,1,151.7,74c.93,1.58,1.81,3.21,2.61,4.88A63,63,0,0,1,160.49,106.19Z"/><circle class="a" cx="75.1" cy="73.5" r="7.57"/><circle class="a" cx="119.86" cy="73.5" r="7.57"/><path class="a" d="M97.25,81.66a40.56,40.56,0,1,0,40.56,40.56A40.6,40.6,0,0,0,97.25,81.66Zm0,75.65a35.1,35.1,0,1,1,35.09-35.09A35.14,35.14,0,0,1,97.25,157.31Z"/><path class="a" d="M99.83,141.66V116c7-1,12.23-5.69,12.23-11.4,0-6.39-6.63-11.58-14.81-11.58s-14.81,5.19-14.81,11.58c0,5.71,5.28,10.45,12.23,11.4v25.64A23.24,23.24,0,0,1,74,118.6H68.88a28.37,28.37,0,0,0,56.74,0h-5.17A23.24,23.24,0,0,1,99.83,141.66Z"/></svg>