<svg xmlns="http://www.w3.org/2000/svg" viewBox="0 0 200 200"><defs><style>.a{fill:#1a1a1a;}</style></defs><path class="a" d="M58.83,71.24H70.11v35c0,13-9.59,22.56-22.56,22.56S25,119.17,25,106.2H36.28C36.28,113,41.13,118,47.55,118S58.83,113,58.83,106.2Z"/><path class="a" d="M111.28,71.24h11.27v35c0,13-9.58,22.56-22.55,22.56s-22.55-9.59-22.55-22.56H88.72C88.72,113,93.57,118,100,118s11.28-5.07,11.28-11.84Z"/><path class="a" d="M163.72,71.24H175v35c0,13-9.59,22.56-22.55,22.56s-22.56-9.59-22.56-22.56h11.28C141.17,113,146,118,152.45,118s11.27-5.07,11.27-11.84Z"/></svg>