<svg xmlns="http://www.w3.org/2000/svg" viewBox="0 0 300 300"><defs><style>.a{fill:#c41230;}</style></defs><path class="a" d="M139.66,130v63.4h0A23.43,23.43,0,0,0,163.08,170V106.58h0A23.42,23.42,0,0,0,139.66,130Z"/><path class="a" d="M104.59,152h0l11.13-11.13h0a23.41,23.41,0,0,0-.47-32.63h0l-.15.16L99.17,124.3h0L88,135.43h0L63.2,160.27V106.58A23.42,23.42,0,0,0,39.78,130v46.83a16.57,16.57,0,0,0,16.56,16.56h0a16.6,16.6,0,0,0,11.71-4.85l20-20,24.87,24.87,4-4a17.77,17.77,0,0,0,0-25.15Z"/><path class="a" d="M243.66,106.6a16.56,16.56,0,0,1,16.56,16.56V170a23.42,23.42,0,0,1-23.42,23.42v-53.7l-37.13,37.14-16.56,16.56a23.41,23.41,0,0,1,0-33.12h0l37.13-37.13L232,111.45a16.55,16.55,0,0,1,11.71-4.85Z"/></svg>