<svg xmlns="http://www.w3.org/2000/svg" viewBox="0 0 300 300"><defs><style>.a{fill:#1a1a1a;}.b{fill:#fff;}.c{fill:#b3b3b3;}</style></defs><path class="a" d="M212,111.45l7.29-3.55c.64-.32,1.27-.65,1.85-1l27.28-15.75L251,89.71l-2.52-1.45L164.77,39.94a30,30,0,0,0-30.06,0L107.43,55.69l-2.51,1.45.1.06L87.89,67.07l-.85.49v1l.5,43.31L80.8,107.2c-.67-.46-1.34-.88-2-1.25L51.55,90.2,49,88.74v2.91l0,96.64a30.17,30.17,0,0,0,15,26l33.29,19.22.11.08q.84.56,1.68,1L111,241.5l.85.49.84-.5,37.14-22-.58,8.09c-.05.71-.07,1.41-.07,2.08l0,31.53v2.91l2.52-1.46,83.71-48.32a30.13,30.13,0,0,0,15-26l0-40.17v-.47h0V133l-.85-.49Z"/><path class="b" d="M217.09,99.84l17.56-10.13-74-42.7a21.86,21.86,0,0,0-21.9,0L121.23,57.15l28.88,16.67.7.4,44.38,25.62a21.86,21.86,0,0,0,21.9,0Z"/><path class="b" d="M74.73,113,57.19,102.88l0,85.41a22,22,0,0,0,10.95,19l17.52,10.12V132A22,22,0,0,0,74.73,113Z"/><path class="b" d="M124.88,116.62c6-7,17-10.75,25.82-7,5.3,2.11,5.62,3.46,5.25,8.9H156c-.42,2.45.16,5.46-.86,7.63a89.83,89.83,0,0,0-17.31,9.35c-4.32-.66-8.7-3.66-13.28-4.44C122.86,126.9,123.88,121.15,124.88,116.62Z"/><path class="b" d="M120.32,179.21c-9.68,1.09-15.82-21-16.06-28.88,2.39,0,5.19-.61,7.39.09a62.94,62.94,0,0,0,7,12.12,4.46,4.46,0,0,1,.89,3A67.05,67.05,0,0,0,120.32,179.21Z"/><path class="b" d="M120.65,131.17a1.15,1.15,0,0,1-.34,1.11,35.71,35.71,0,0,0-8.77,13.94c-.09.25-.17.42-.5.43-2.26,0-4.51.18-6.77.06.13-8.48,6.35-31,16.86-29.93A41.45,41.45,0,0,0,120.65,131.17Z"/><path class="b" d="M139.16,188.37a45.14,45.14,0,0,1-14.47-7.65c-2.11-4.38-1.48-10-1.61-14.81,0-1.17,0-1.15,1.18-1.52q5.71-1.83,11.42-3.69c.88-.32,1.6-.93,2.44-.12a89.34,89.34,0,0,0,16.81,9.59c1.47,1.49.4,4.55.87,6.58h-.06c-.36,2.08.78,5-.59,6.61C150.45,186.35,144.76,188.55,139.16,188.37Z"/><path class="c" d="M172.32,187.87c-8.84,5.58-20.18,7.08-30.44,5.31-.65-.12-.65-.12-.72-1.16,5.9-.88,11.62-2.6,16.51-6.14,4.83.11,9.79.49,14.67-.4C172.34,186.31,172.35,187.09,172.32,187.87Z"/><path class="b" d="M172.47,158c-3.56,4.05-9.55,6.41-14.37,9.07-6.54-.86-12.59-6-18.24-9.5-1-5.93.09-12.72-.58-18.27,4.49-4.46,11.41-7.24,17.33-9.92,5.27,1,10,5.25,14.85,7.77C172.87,143.78,172.36,151.1,172.47,158Z"/><path class="c" d="M194.37,157.6a47.37,47.37,0,0,1-10.27,9.1c-11.59-12.45-7.38-4.76-8.36-22.83-1.27-10.42,1.43-5.39,7.89-14C195.77,137.44,197.77,143.86,194.37,157.6Z"/><path class="b" d="M212.62,185.08l-44.36,25.63a22,22,0,0,0-10.95,18.95l0,20.28,74-42.7a22,22,0,0,0,10.95-19V168l-28.92,16.7Z"/><path class="c" d="M143.29,77.49l-17.6-10.16a21.89,21.89,0,0,0-21.9,0l-8.54,4.93L95.63,105Z"/><path class="c" d="M242.25,147.64V137.8l-28.56-16.06v55L231.3,166.6A22,22,0,0,0,242.25,147.64Z"/><path class="c" d="M92.29,188.31v20.33a22,22,0,0,0,10.94,19l8.54,4.93L140,215.83Z"/></svg>