<svg xmlns="http://www.w3.org/2000/svg" xmlns:xlink="http://www.w3.org/1999/xlink" viewBox="0 0 339.75 339.75"><defs><style>.a{fill:url(#a);}.b{fill:#fff;}</style><linearGradient id="a" x1="49.76" y1="-816.81" x2="289.99" y2="-1057.05" gradientTransform="matrix(-0.71, -0.71, -0.71, 0.71, -372.52, 952.51)" gradientUnits="userSpaceOnUse"><stop offset="0" stop-color="#f60"/><stop offset="1" stop-color="#ffa100"/></linearGradient></defs><circle class="a" cx="169.87" cy="169.87" r="169.87"/><path class="b" d="M170.63,255.23a86.24,86.24,0,0,1-83.14-63.7,16.29,16.29,0,0,0-15.62-12.17l-.33,0a16.25,16.25,0,0,0-15.78,20.33,119,119,0,0,0,229.78,0,16.28,16.28,0,0,0-11.63-19.86l-.1,0a16.34,16.34,0,0,0-4.11-.5h-.35a16.28,16.28,0,0,0-15.7,12.15A86.25,86.25,0,0,1,170.63,255.23Z"/><path class="b" d="M87.53,146.65A86.67,86.67,0,0,1,116.1,102.5a5.72,5.72,0,0,1,8.05.79h0a7.9,7.9,0,0,1,.54.79l38.55,66.76A8.61,8.61,0,0,0,175,174a8.41,8.41,0,0,0,3.16-3.16l38.54-66.74a5.75,5.75,0,0,1,7.84-2.11,5,5,0,0,1,.77.52,86.79,86.79,0,0,1,28.55,44.16,16.51,16.51,0,0,0,15.71,12.27h0A16.48,16.48,0,0,0,286,142.46a17,17,0,0,0-.59-4.31,119.05,119.05,0,0,0-64.67-76.78l-6.46-3a8.61,8.61,0,0,0-11.08,3.5l-32.61,56.41L138,61.82a8.62,8.62,0,0,0-11.1-3.51l-6.45,3A119.07,119.07,0,0,0,55.84,138,16.42,16.42,0,0,0,67.3,158.19a16.19,16.19,0,0,0,4.32.59h0A16.47,16.47,0,0,0,87.53,146.65Z"/></svg>