<svg xmlns="http://www.w3.org/2000/svg" viewBox="0 0 301.13 301.13"><defs><style>.a{fill:none;}.b{fill:#cd201f;}</style></defs><rect class="a" width="301.13" height="301.13"/><path class="b" d="M249.22,125.34,97.27,37.56a29.09,29.09,0,0,0-14.53-3.94h0A29.2,29.2,0,0,0,53.58,62.77l0,175.57a28.81,28.81,0,0,0,8.89,21,29.61,29.61,0,0,0,20.27,8.19,29.19,29.19,0,0,0,14.53-3.94l152-87.8a29.11,29.11,0,0,0,0-50.43Zm-19.63,33.89L213,168.87l-26.41,15.25a10.14,10.14,0,0,1-10.11,0l-15.33-8.85a10.12,10.12,0,0,1,10.12-17.53l10.15,5.87,22.7-13L149,118.62v49.64l0,30.8A11.45,11.45,0,0,1,126.82,203L97.76,123.21l.1,106.21a10.12,10.12,0,0,1-5.29,8.9c-6.73,3.66-14.92-1.59-14.92-9.26l0-154.95a11.63,11.63,0,0,1,22.58-3.93l13.25,36.89,15,40.7-.18-32,.18-14.88a10.09,10.09,0,0,1,15.13-8.63c28,16.17,65.37,37.69,85.89,49.51A10.1,10.1,0,0,1,229.59,159.23Z"/></svg>