<svg xmlns="http://www.w3.org/2000/svg" viewBox="0 0 300 300"><defs><style>.a,.d{fill:#fff;}.b{fill:#ed3136;}.c{fill:#013cb3;}.d{opacity:0.5;}</style></defs><path class="a" d="M150,53.88a96.48,96.48,0,0,1,82.66,47,28.91,28.91,0,0,0,24.78,14.24h7a3.43,3.43,0,0,1,3.43,3.44v62.12a3.43,3.43,0,0,1-3.43,3.44h-6.86a28.15,28.15,0,0,0-24.32,14.07,96.26,96.26,0,0,1-166.46,0A28.15,28.15,0,0,0,42.45,184.1H35.59a3.43,3.43,0,0,1-3.43-3.44V118.54a3.43,3.43,0,0,1,3.43-3.44h7a28.91,28.91,0,0,0,24.78-14.24,96.48,96.48,0,0,1,82.66-47"/><path d="M150,53.88a96.48,96.48,0,0,1,82.66,47,28.91,28.91,0,0,0,24.78,14.24h7a3.43,3.43,0,0,1,3.43,3.44v62.12a3.43,3.43,0,0,1-3.43,3.44h-6.86a28.15,28.15,0,0,0-24.32,14.07,96.26,96.26,0,0,1-166.46,0A28.15,28.15,0,0,0,42.45,184.1H35.59a3.43,3.43,0,0,1-3.43-3.44V118.54a3.43,3.43,0,0,1,3.43-3.44h7a28.91,28.91,0,0,0,24.78-14.24,96.48,96.48,0,0,1,82.66-47m0-2.15A97.63,97.63,0,0,0,80.51,80.51a99.14,99.14,0,0,0-15,19.24A26.91,26.91,0,0,1,42.56,113h-7A5.59,5.59,0,0,0,30,118.54v62.12a5.6,5.6,0,0,0,5.59,5.59h6.86a26.06,26.06,0,0,1,22.45,13,98.87,98.87,0,0,0,15.61,20.24,98.26,98.26,0,0,0,139,0,98.87,98.87,0,0,0,15.61-20.24,26.06,26.06,0,0,1,22.45-13h6.86a5.6,5.6,0,0,0,5.59-5.59V118.54a5.59,5.59,0,0,0-5.59-5.59h-7a26.91,26.91,0,0,1-22.93-13.2,99.14,99.14,0,0,0-15-19.24A97.63,97.63,0,0,0,150,51.73Z"/><polygon points="108.23 155.46 128.83 155.46 128.83 143.57 108.23 143.57 108.23 137.3 134.02 137.29 134.02 125.4 91.82 125.4 91.82 173.8 134.49 173.8 134.49 161.87 108.23 161.87 108.23 155.46"/><path d="M228.74,148.16c-4.39-2.53-13.25-4.08-17.12-4.91-1.45-.31-6.13-1-6.13-3.75,0-2.05,2.93-3.18,6.85-3.18,7.76,0,9,5.24,9,5.24l13.68-5c-2.15-9.6-13.38-12.28-22.68-12.28-15.14,0-23.07,6.41-23.07,16.24a12.71,12.71,0,0,0,5.23,9.76c5.73,3.71,10.53,4.27,17.12,5.87,3.78.92,7.89,2,7.89,4.4,0,2-2,3.5-7.42,3.5-10.63,0-12.73-5.61-12.73-5.61l-13.62,5c2.89,9.17,17,12.32,26.35,12.32,10,0,15.78-2.14,19.45-5.64C235.6,166.24,236,162.5,236,159,236,155.8,234.77,151.65,228.74,148.16Z"/><path d="M42.45,173.8V125.4H65.78c13.91,0,20.63,6.39,20.63,16.33,0,10.42-6.18,17-20.09,17h-8V173.8ZM64.9,147.45c3.7,0,6.39-1.48,6.39-5.65,0-4.5-5.11-5.11-8.47-5.11h-4.5v10.76Z"/><path d="M141.6,173.8V125.4h23.32c13.92,0,20.64,6.39,20.64,16.33,0,10.42-6.19,17-20.1,17h-8V173.8Zm22.45-26.35c3.69,0,6.38-1.48,6.38-5.65,0-4.5-5.11-5.11-8.47-5.11h-4.5v10.76Z"/><polygon points="241.13 130.52 241.13 130.52 241.13 130.52 241.13 173.8 257.55 173.8 257.55 125.05 241.13 125.05 241.13 130.52"/><polygon class="b" points="223.78 106.38 222.22 103.82 220.56 101.27 218.78 98.83 217.01 96.5 212.96 91.78 211 89.7 208.78 87.6 204.28 83.54 201.87 81.68 199.4 79.89 196.97 78.23 191.82 75.09 189.02 73.64 186.37 72.31 180.78 69.85 177.9 68.86 174.91 67.86 168.97 66.29 165.91 65.64 159.6 64.73 156.54 64.41 150.07 64.18 144.24 64.41 141.48 64.63 138.6 64.96 135.84 65.4 130.31 66.53 127.55 67.19 124.93 67.96 122.35 68.86 119.61 69.77 117.11 70.75 114.7 71.84 109.72 74.33 107.31 75.65 104.99 77.08 102.75 78.54 98.25 81.69 96.17 83.33 94.04 85.12 92.03 86.91 90.02 88.81 88.16 90.67 84.55 94.73 82.76 96.86 81.11 98.94 77.99 103.41 77.25 104.6 78.78 105.37 80.6 106.22 81.86 106.68 82.57 107.03 84.73 107.77 85.62 108.16 88.39 109.09 89.76 109.39 90.59 109.67 91.86 109.94 92.86 110.24 97.17 111.1 98.49 111.25 99.49 111.45 100.75 111.58 101.89 111.79 104 111.99 105.43 112 106.55 112.11 107.86 112.12 108.98 112.22 111.22 112.22 112.65 112.11 113.75 112.11 115.08 111.99 116.07 111.99 119.21 111.68 120.49 111.43 122.53 111.22 124.78 110.74 125.64 110.64 128.9 109.93 129.67 109.84 137.88 107.96 138.68 107.87 141.92 107.15 142.78 107.05 143.82 106.83 156.24 104.71 157.39 104.6 161.6 103.89 162.82 103.79 164.26 103.55 166.77 103.33 168.31 103.08 178.21 102.26 179.46 102.26 180.99 102.14 182.25 102.14 183.89 102.03 190.91 102.04 196.44 102.55 197.55 102.75 199.05 102.89 201.98 103.41 203.24 103.72 204.76 103.98 207.33 104.65 208.81 104.9 210.37 105.42 213.21 106.17 214.35 106.59 215.76 106.99 219.69 108.41 224.71 110.45 225.62 110.96 226.49 111.35 225.35 109.07 223.78 106.38"/><polygon class="c" points="221.42 194.67 220.23 194.14 219.38 193.71 218.5 193.32 217.48 192.93 216.59 192.53 212.62 191.21 210.57 190.57 209.21 190.27 208.37 189.99 201.81 188.68 200.36 188.53 199.37 188.33 196.01 188.01 194.7 188 193.58 187.9 192.15 187.88 191.03 187.78 188.79 187.78 187.36 187.9 186.36 187.9 184.93 188.01 183.94 188.01 180.84 188.32 179.6 188.57 177.62 188.78 175.23 189.27 174.37 189.36 171.18 190.08 170.32 190.17 162.19 192.04 161.42 192.14 159.18 192.62 158.41 192.72 156.3 193.18 143.86 195.3 142.61 195.4 138.44 196.11 137.3 196.21 135.78 196.46 133.23 196.68 131.72 196.92 121.92 197.74 120.67 197.74 119.14 197.86 117.88 197.86 116.24 197.97 109.21 197.96 103.69 197.46 102.58 197.25 101.08 197.12 97.96 196.58 96.85 196.28 95.36 196.02 87 193.86 85.7 193.43 84.25 193.02 81.6 192.05 80.5 191.61 79.17 191.13 76.73 190.15 75.55 189.62 73.51 188.6 76.24 193.64 77.77 196.16 81.22 201.17 85.03 205.87 87.02 208.08 89.16 210.33 91.26 212.44 93.45 214.4 98.17 218.23 100.62 220.01 103.17 221.78 108.33 224.93 110.97 226.35 113.73 227.68 116.53 228.91 119.37 230.04 122.21 231.14 128.18 232.94 131.1 233.7 137.4 234.82 140.53 235.27 143.59 235.6 150.06 235.82 155.88 235.6 158.65 235.38 161.53 235.04 164.28 234.6 169.8 233.48 172.45 232.81 175.1 232.04 177.82 231.13 180.38 230.24 182.93 229.25 185.45 228.15 190.38 225.69 192.68 224.37 197.41 221.44 199.61 219.9 203.96 216.67 207.98 213.09 209.99 211.19 211.89 209.29 213.79 207.28 215.54 205.31 218.89 201.07 222.03 196.59 222.8 195.34 222.21 194.97 221.42 194.67"/><path d="M150,51.73a97.63,97.63,0,0,1,69.49,28.78,99.14,99.14,0,0,1,15,19.24A26.91,26.91,0,0,0,257.44,113h7a5.59,5.59,0,0,1,5.59,5.59v62.12a5.6,5.6,0,0,1-5.59,5.59h-6.86a26.06,26.06,0,0,0-22.45,13,98.87,98.87,0,0,1-15.61,20.24,98.26,98.26,0,0,1-139,0A98.87,98.87,0,0,1,64.9,199.25a26.06,26.06,0,0,0-22.45-13H35.59A5.6,5.6,0,0,1,30,180.66V118.54A5.59,5.59,0,0,1,35.59,113h7a26.91,26.91,0,0,0,22.93-13.2,99.14,99.14,0,0,1,15-19.24A97.63,97.63,0,0,1,150,51.73m0-5A102.59,102.59,0,0,0,77,77,104,104,0,0,0,61.19,97.19,21.86,21.86,0,0,1,42.56,108h-7A10.6,10.6,0,0,0,25,118.54v62.12a10.6,10.6,0,0,0,10.59,10.59h6.86a21.07,21.07,0,0,1,18.13,10.51A104,104,0,0,0,77,223,103.28,103.28,0,0,0,223,223a103.69,103.69,0,0,0,16.39-21.27,21.07,21.07,0,0,1,18.13-10.51h6.86A10.6,10.6,0,0,0,275,180.66V118.54A10.6,10.6,0,0,0,264.41,108h-7a21.86,21.86,0,0,1-18.63-10.76A104,104,0,0,0,223,77a102.59,102.59,0,0,0-73-30.25Z"/><path class="d" d="M150,46.73A102.59,102.59,0,0,1,223,77a104,104,0,0,1,15.78,20.21A21.86,21.86,0,0,0,257.44,108h7A10.6,10.6,0,0,1,275,118.54v62.12a10.6,10.6,0,0,1-10.59,10.59h-6.86a21.07,21.07,0,0,0-18.13,10.51A103.69,103.69,0,0,1,223,223,103.28,103.28,0,0,1,77,223a104,104,0,0,1-16.39-21.27,21.07,21.07,0,0,0-18.13-10.51H35.59A10.6,10.6,0,0,1,25,180.66V118.54A10.6,10.6,0,0,1,35.59,108h7A21.86,21.86,0,0,0,61.19,97.19,104,104,0,0,1,77,77a102.59,102.59,0,0,1,73-30.25m0-5A107.56,107.56,0,0,0,73.44,73.44,109.06,109.06,0,0,0,56.9,94.63,16.86,16.86,0,0,1,42.56,103h-7A15.6,15.6,0,0,0,20,118.54v62.12a15.6,15.6,0,0,0,15.59,15.59h6.86a16,16,0,0,1,13.8,8,108.45,108.45,0,0,0,187.5,0,16,16,0,0,1,13.8-8h6.86A15.6,15.6,0,0,0,280,180.66V118.54A15.6,15.6,0,0,0,264.41,103h-7a16.86,16.86,0,0,1-14.34-8.32,109.06,109.06,0,0,0-16.54-21.19A107.56,107.56,0,0,0,150,41.73Z"/></svg>