<svg xmlns="http://www.w3.org/2000/svg" viewBox="0 0 300 300"><defs><style>.a{fill:none;}.b{fill:#fb0;}.c{fill:#4e4ab0;}</style></defs><path class="a" d="M138.84,215.5v-8.13L111.27,179.8c0,.32,0,.64,0,1C110.88,198.16,122.51,210.21,138.84,215.5Z"/><path class="a" d="M187.52,132.92,177.31,143c5.22,3.8,9.38,7.6,12.88,12.94l-7.78,6.47a36.91,36.91,0,0,0-12.17-12.28L156.64,164l47.12,47.12c5.51-8.24,8.87-17.32,8.87-30C212.63,163.19,203,143.25,187.52,132.92Z"/><path class="a" d="M150,104.78c-44,0-79.9,34.61-79.9,77.18s36,77.17,79.9,77.17A81.7,81.7,0,0,0,183.47,252l-25.69-25.7a56.32,56.32,0,0,1-9.21.83v10.75H138.9V226c-22-5.28-38-23.92-37.7-46.18a40.74,40.74,0,0,1,1.11-9L90.83,159.35A62.4,62.4,0,0,0,86.36,181c-.53,17.75,9,32,15,38l-6.94,6.82c-10.75-12.11-17.1-27.07-17.1-44.11,0-25.88,14.78-48.67,36.57-60.84l17.21,17.33a52,52,0,0,1,37.22,0l.54-.53,17-16.92c22,12.17,36.74,35,36.74,61a67.69,67.69,0,0,1-11,37.12l5.34,5.34A74.63,74.63,0,0,0,230,182C230,139.39,194,104.78,150,104.78Z"/><path class="a" d="M160.75,145.92a52.5,52.5,0,0,0-11.4-1.78c-3.68-.18-7.42.66-11,1.43L149.94,157Z"/><path class="b" d="M122,143.13,111.71,132.8C102,140.49,95,149.2,90.83,159.35l11.48,11.48C105,159.61,112.3,150.22,122,143.13Z"/><path class="b" d="M205.8,226.41l-7.9-7.66a86.57,86.57,0,0,0,5.86-7.66L156.64,164l-6.7,6.83-21.07-21c-10.65,7.18-17,17.34-17.6,30l27.57,27.57V180.59h24.93v7.19H148.52v9.32H163.6v8.19H148.52V217c11.16.54,23.09-5.69,30.33-13.41l7.48,7.29a48.93,48.93,0,0,1-28.55,15.38L183.47,252a80,80,0,0,0,33.37-27.83l-5.34-5.34A69.81,69.81,0,0,1,205.8,226.41Z"/><path class="b" d="M197.9,218.75l7.9,7.66a69.81,69.81,0,0,0,5.7-7.58l-7.74-7.74A86.57,86.57,0,0,1,197.9,218.75Z"/><path class="c" d="M150,96.35c-48.85,0-88.63,38.47-88.63,85.61S101.15,267.5,150,267.5a90.42,90.42,0,0,0,39.82-9.16,88.44,88.44,0,0,0,33.19-28A82.91,82.91,0,0,0,238.63,182C238.63,134.76,198.85,96.3,150,96.35Zm66.84,127.82A80,80,0,0,1,183.47,252,81.7,81.7,0,0,1,150,259.13c-43.93,0-79.9-34.73-79.9-77.17S106,104.78,150,104.78s80,34.61,80,77.18A74.63,74.63,0,0,1,216.84,224.17Z"/><path class="c" d="M185.8,120.69l-17,16.92-.54.53a52,52,0,0,0-37.22,0l-17.21-17.33c-21.79,12.17-36.57,35-36.57,60.84,0,17,6.35,32,17.1,44.11l6.94-6.82c-6-6-15.49-20.24-15-38a62.4,62.4,0,0,1,4.47-21.6C95,149.2,102,140.49,111.71,132.8L122,143.13c-9.74,7.09-17.06,16.48-19.73,27.7a40.74,40.74,0,0,0-1.11,9c-.29,22.26,15.67,40.9,37.7,46.18v11.88h9.67V227.13a56.32,56.32,0,0,0,9.21-.83,48.93,48.93,0,0,0,28.55-15.38l-7.48-7.29c-7.24,7.72-19.17,14-30.33,13.41V205.29H163.6V197.1H148.52v-9.32h15.25v-7.19H138.84V215.5c-16.33-5.29-28-17.34-27.61-34.73,0-.33,0-.65,0-1,.59-12.62,7-22.78,17.6-30l21.07,21,6.71-6.83,13.59-13.83a36.91,36.91,0,0,1,12.17,12.28l7.78-6.47c-3.5-5.34-7.66-9.14-12.88-12.94l10.21-10.09c15.43,10.33,25.11,30.27,25.11,48.14,0,12.71-3.36,21.79-8.87,30l7.74,7.74a67.69,67.69,0,0,0,11-37.12C222.54,155.65,207.76,132.86,185.8,120.69ZM149.94,157l-11.57-11.39c3.56-.77,7.3-1.61,11-1.43a52.5,52.5,0,0,1,11.4,1.78Z"/><path class="c" d="M201.31,79.2c1.76.92,3.14.52,4.83-.06-2.81-1.38-4.31-2.61-3-5.81a4.42,4.42,0,0,1,2.87-3c-1-12.47-4.57-18.42-16.33-24.1l-.85.26c0,.13.07.26.07.46,0,1.7-1,2.55-2.29,3.46,2.09.39,4,1.38,4,3.79,0,2-1.44,3.14-3.27,3.66a4,4,0,0,1,.59,2.88c2.42,1.11,2.94,2.54,2.29,5-.92,3.39-3,3.72-6.34,2.87A4.64,4.64,0,0,0,192.23,72a4.16,4.16,0,0,1,.13-.92,3.88,3.88,0,0,1,4.71-2.68,3.62,3.62,0,0,1,2.74,4.51,3.72,3.72,0,0,1-1,1.63,4.91,4.91,0,0,0,2.49,4.64ZM146.7,33.54c0-.27.06-.53.06-.85-15.35-1.11-26.4,9-27.9,23.25a3.85,3.85,0,0,1,2.49,2.42c2.68-.13,3.85.92,4.5,3.26.92,3.34-.78,4.64-4.11,5.49,1,2.16,3,3.66,5.61,3a4.45,4.45,0,0,0,3.47-4.37,3.42,3.42,0,0,1-.59-2,3.85,3.85,0,0,1,7.7,0,3.64,3.64,0,0,1-.19,1.18,4.6,4.6,0,0,0,4.51,3.33c2.68,0,4.24-1.9,4.63-4.25-3.39,0-5.36-.85-5.36-4.31,0-2.49.92-3.72,3.53-4.25.59-3.07,2.22-3.26,4.83-3.66,2.68.46,4.25.59,4.84,3.66,2.61.52,3.52,1.76,3.52,4.25,0,3.46-2,4.31-5.36,4.31.39,2.35,2,4.25,4.64,4.25A4.72,4.72,0,0,0,162,65a3.66,3.66,0,0,1-.2-1.18,3.79,3.79,0,0,1,3.85-3.72,3.75,3.75,0,0,1,3.86,3.72,3.5,3.5,0,0,1-.59,2,4.52,4.52,0,0,0,3.46,4.37c2.61.66,4.64-.84,5.62-3-3.33-.85-5-2.16-4.12-5.49.65-2.35,1.83-3.39,4.51-3.26a4,4,0,0,1,2.48-2.42C179.4,41.71,168.43,31.58,153,32.69a3.44,3.44,0,0,1,.06.85,3.32,3.32,0,0,1-.65,1.89V39a3.09,3.09,0,0,1,0,3.79l.06,3.72a3.31,3.31,0,0,1,.59,1.76c0,2.16-1.63,2.74-3.26,3.46-1.63-.72-3.27-1.37-3.27-3.46a3.33,3.33,0,0,1,.66-1.89V42.88a3.05,3.05,0,0,1,0-3.79V35.43a3.71,3.71,0,0,1-.52-1.89ZM96.79,73.31c1.24,3.2-.2,4.45-3,5.82,1.7.59,3.07,1,4.83.06A4.4,4.4,0,0,0,101,74.68a3.74,3.74,0,0,1-1-1.63,3.87,3.87,0,0,1,7.52-1.83,4.05,4.05,0,0,1,.12.85A4.64,4.64,0,0,0,116,68.61c-3.33.78-5.42.46-6.34-2.88-.65-2.35-.13-3.85,2.29-5a4.25,4.25,0,0,1,.59-2.87c-1.83-.52-3.27-1.64-3.27-3.66,0-2.49,1.9-3.4,4-3.79C112,49.47,111,48.68,111,47c0-.13,0-.32-.85-.59-12,5.69-15.29,11.44-16.33,24a4.1,4.1,0,0,1,2.94,2.88ZM198.44,85.14a117.75,117.75,0,0,0-96.88-.07A1.94,1.94,0,0,1,99,84.15c-.46-1,0-1.7.46-2.48-3,.91-5.23.91-7.84-1-4.83,3.14-10.39-3.33-6.73-6.27-1.7-2.16-1.7-4.51.79-6.07A3.81,3.81,0,0,1,85,66.05c0-2.41,1.9-3.39,4-3.79-1.24-.91-2.22-1.76-2.22-3.46,0-2.49,2-3.53,4.18-3.72a4.58,4.58,0,0,1-1-2.68,3.74,3.74,0,0,1,3.85-3.66,6.07,6.07,0,0,1,1.9.39,5.47,5.47,0,0,1-.72-2.42,3.74,3.74,0,0,1,3.85-3.66,5.73,5.73,0,0,1,2.55.79A5.91,5.91,0,0,1,101,42.4a3.8,3.8,0,0,1,3.86-3.72,4.6,4.6,0,0,1,2.74,1c.46-2,1.57-3.53,3.85-3.53A4.08,4.08,0,0,1,115,38.36a4.07,4.07,0,0,1,3.2-1.63,7.7,7.7,0,0,1,1.7.26,4.75,4.75,0,0,1-.59-2.09,3.73,3.73,0,0,1,3.79-3.66A5,5,0,0,1,126,32.36a12.24,12.24,0,0,1-.26-1.57,3.74,3.74,0,0,1,3.85-3.66,4.31,4.31,0,0,1,2.81,1.11c.46-2,1.57-3.53,3.93-3.53a4,4,0,0,1,3.13,1.5c.73-1.57,1.77-2.68,3.73-2.68a4.35,4.35,0,0,1,1.5.33,6.69,6.69,0,0,1,3.92-2.29V17.66h-3.2V15.31h3.2V12.5h2.55v2.81h3.2V17.6h-3.2v3.92a6.93,6.93,0,0,1,3.92,2.28,4,4,0,0,1,1.5-.32c2,0,3,1.17,3.72,2.68a4.1,4.1,0,0,1,3.14-1.5c2.35,0,3.46,1.63,3.85,3.52a4.51,4.51,0,0,1,2.87-1.11A3.79,3.79,0,0,1,174,30.73a12.45,12.45,0,0,1-.2,1.57,5,5,0,0,1,2.88-1,3.78,3.78,0,0,1,3.85,3.66,4.77,4.77,0,0,1-.59,2.09,6.48,6.48,0,0,1,1.7-.26,4.08,4.08,0,0,1,3.2,1.63,4,4,0,0,1,3.53-2.16c2.35,0,3.46,1.63,3.92,3.53A4.6,4.6,0,0,1,195,38.69a3.79,3.79,0,0,1,3.85,3.72,11.83,11.83,0,0,1-.19,1.44,4.82,4.82,0,0,1,2.49-.79A3.78,3.78,0,0,1,205,46.72a4.94,4.94,0,0,1-.72,2.35,6.69,6.69,0,0,1,1.95-.39,3.79,3.79,0,0,1,3.86,3.66A4.55,4.55,0,0,1,209.06,55c2.22.2,4.25,1.24,4.25,3.72,0,1.7-1,2.55-2.22,3.47,2.09.46,4,1.37,4,3.79a3.75,3.75,0,0,1-.72,2.22c2.55,1.57,2.48,3.85.78,6,2.23,1.76,1.05,4.51-.78,5.94a4.72,4.72,0,0,1-5.94.33c-2.61,2-4.83,2-7.84,1l.46.91a2.06,2.06,0,0,1-2.61,2.68Z"/><path class="c" d="M106.59,93.46l-3.14-1.11-.26-.45a3.39,3.39,0,0,1-.65.19.57.57,0,0,1-.39-1,116.37,116.37,0,0,1,95.51,0,.57.57,0,0,1-.39,1,1.42,1.42,0,0,1-.65-.19l-.27.45-3.14,1.11.92,3.47-.26.59c1.63.72.52,1.89-.2,1.57a106.78,106.78,0,0,0-87.66,0,.72.72,0,0,1-.92-.39c-.2-.39,0-.66.26-.92a1.41,1.41,0,0,1,.52-.26l-.26-.59Z"/></svg>