<svg xmlns="http://www.w3.org/2000/svg" viewBox="0 0 300 300"><defs><style>.a,.c{fill:#fff;}.b{fill:#3a76f0;}.c{opacity:0.5;}</style></defs><path class="a" d="M100.12,150.12c-.3-.46-.6-.94-.89-1.42-.58-1-1.13-2-1.65-3a40.68,40.68,0,0,1,1.7-40.53,42.68,42.68,0,0,1,36.6-20.59l68.46.36-16.68,32.44a59.83,59.83,0,0,0-22.51-4.32,60.8,60.8,0,0,0-54.33,33.06l-5.43,10.55A41.89,41.89,0,0,1,100.12,150.12Z"/><path class="b" d="M200.71,194.8a42.63,42.63,0,0,1-36.6,20.58L95.66,215l31.18-60.65a42.86,42.86,0,0,1,38.31-23.27,41.92,41.92,0,0,1,16.28,3.22,39.87,39.87,0,0,1,11.26,7.13,42,42,0,0,1,7.19,8.42c.3.46.6.94.89,1.42.58,1,1.14,2,1.65,3a40.66,40.66,0,0,1-1.71,40.53Z"/><path d="M216.21,142c-.39-.66-.8-1.3-1.21-1.94a59.71,59.71,0,0,0-11.84-13.41l20.29-39.48A13.87,13.87,0,0,0,211.19,67l-75-.38h-.31a60.54,60.54,0,0,0-52,29.2,59.08,59.08,0,0,0-2.38,58.13c.7,1.37,1.46,2.73,2.25,4,.39.65.8,1.3,1.21,1.94a59.71,59.71,0,0,0,11.84,13.41L76.55,212.81A13.87,13.87,0,0,0,88.81,233l75,.38h.33a60.55,60.55,0,0,0,52-29.19,59.1,59.1,0,0,0,2.38-58.14C217.76,144.7,217,143.34,216.21,142Zm-116.09,8.1c-.3-.46-.6-.94-.89-1.42-.58-1-1.13-2-1.65-3a40.68,40.68,0,0,1,1.7-40.53,42.68,42.68,0,0,1,36.6-20.59l68.46.36-16.68,32.44a59.83,59.83,0,0,0-22.51-4.32,60.8,60.8,0,0,0-54.33,33.06l-5.43,10.55A41.89,41.89,0,0,1,100.12,150.12ZM200.71,194.8a42.63,42.63,0,0,1-36.6,20.58L95.66,215l31.18-60.65a42.86,42.86,0,0,1,38.31-23.27,41.92,41.92,0,0,1,16.28,3.22,39.87,39.87,0,0,1,11.26,7.13,42,42,0,0,1,7.19,8.42c.3.46.6.94.89,1.42.58,1,1.14,2,1.65,3a40.66,40.66,0,0,1-1.71,40.53Z"/><path class="c" d="M136.2,66.6l75,.38a13.87,13.87,0,0,1,12.26,20.21l-20.29,39.48A59.71,59.71,0,0,1,215,140.08c.41.64.82,1.28,1.21,1.94.8,1.32,1.55,2.68,2.25,4a59.08,59.08,0,0,1-2.38,58.13,60.54,60.54,0,0,1-52,29.2h-.33l-75-.38a13.87,13.87,0,0,1-12.26-20.21l20.29-39.48A59.71,59.71,0,0,1,85,159.92c-.41-.64-.82-1.29-1.21-1.94-.79-1.32-1.55-2.68-2.25-4A59.08,59.08,0,0,1,83.92,95.8a60.54,60.54,0,0,1,52-29.2h.31m0-5h-.32A65.52,65.52,0,0,0,79.65,93.19a64.05,64.05,0,0,0-2.56,63c.75,1.48,1.56,2.94,2.41,4.36.42.68.85,1.38,1.3,2.07a65.15,65.15,0,0,0,9.82,11.86l-18.52,36A18.87,18.87,0,0,0,88.78,238l75,.38h.34a65.54,65.54,0,0,0,56.25-31.58,64.07,64.07,0,0,0,2.56-63c-.75-1.47-1.56-2.94-2.41-4.36-.43-.71-.87-1.41-1.3-2.08a65.42,65.42,0,0,0-9.82-11.85l18.52-36A18.87,18.87,0,0,0,211.21,62l-75-.38Z"/></svg>