<svg xmlns="http://www.w3.org/2000/svg" viewBox="0 0 200 200"><path d="M100,20h0C73.49,20,52,41.9,52,68.92v62.16c0,27,21.49,48.92,48,48.92h0c26.51,0,48-21.9,48-48.92V68.92C148,41.9,126.51,20,100,20Zm26.67,128H73.33v-.76l.08.13c.09.19.3.23.47.28s.25-.09.37-.15.2-.31.28-.47c-.1-.12-.07-.3-.21-.43s-.3-.11-.43-.21c-.1.11-.25.07-.37.16a.61.61,0,0,0-.19.27V145a.45.45,0,0,0,.22.27c.12.06.27.16.37.13a.82.82,0,0,0,.45-.25c.1-.12,0-.27.16-.37-.08-.14-.1-.32-.24-.45s-.3-.07-.39-.19c-.17.1-.39.1-.49.29l-.08.14V142.8a.6.6,0,0,1,.06.11.72.72,0,0,0,.47.29.75.75,0,0,0,.38-.13.67.67,0,0,0,.28-.47c0-.11-.08-.25-.14-.37s-.32-.19-.48-.3c-.12.06-.24.1-.36.17a.43.43,0,0,0-.21.25V140.5a.53.53,0,0,1,.06.1.68.68,0,0,0,.47.29c.11,0,.26-.07.38-.13a.65.65,0,0,0,.28-.47c0-.1-.08-.25-.14-.37s-.32-.18-.48-.29l-.36.16a.46.46,0,0,0-.21.25v-.72l.08-.08.12,0H74s.07-.08.06-.1a.47.47,0,0,0-.37-.23l1.75-1.7v.06a.46.46,0,0,0,.51.48.48.48,0,0,0,.49-.51.47.47,0,0,0-.52-.48h0L77.8,135a.43.43,0,0,0,.43.4.42.42,0,0,0,.39-.41.42.42,0,0,0-.39-.41l1.94-1.88a.13.13,0,0,0,0,.06.34.34,0,0,0,.31.3.36.36,0,0,0,.27-.31.35.35,0,0,0-.23-.26H93.82a.3.3,0,0,0-.13.3.34.34,0,0,0,.67,0,.3.3,0,0,0-.12-.28H96a.3.3,0,0,0-.15.3.46.46,0,0,0,.91,0,.28.28,0,0,0-.15-.26H98.1c-.17.08-.21.26-.1.49a.58.58,0,0,0,.54.34.59.59,0,0,0,.49-.42c.06-.19,0-.34-.11-.41h1.33a.3.3,0,0,0-.08.18.65.65,0,1,0,1.3.1.33.33,0,0,0-.09-.28h1a.35.35,0,0,0-.07.12.75.75,0,0,0,.29.77.73.73,0,0,0,.82.08.79.79,0,0,0,.44-.7.27.27,0,0,0-.11-.27h.73a.23.23,0,0,0-.06.13.91.91,0,0,0,.77,1,.89.89,0,0,0,1-.87c0-.16,0-.24-.05-.29h.55a.23.23,0,0,0-.05.16,1,1,0,0,0,.43,1,1.07,1.07,0,0,0,1.09,0,1,1,0,0,0,.43-1,.21.21,0,0,0,0-.15h.41a.26.26,0,0,0-.06.15,1,1,0,0,0,.46.94.87.87,0,0,0,1,0,1,1,0,0,0,.47-.94.26.26,0,0,0-.06-.15h.53c-.07,0-.09.13-.09.27a.93.93,0,0,0,.89.89.91.91,0,0,0,.88-.89c0-.14,0-.23-.08-.27h.75a.32.32,0,0,0-.11.29.8.8,0,0,0,1.59,0c0-.14,0-.24-.12-.29H116a.3.3,0,0,0-.06.16.66.66,0,1,0,1.31,0,.3.3,0,0,0-.07-.18h1.23a.28.28,0,0,0-.12.26.55.55,0,0,0,.51.55.56.56,0,0,0,.57-.53.29.29,0,0,0-.13-.28h.33l7.06,6.85ZM80.39,132.47Zm27.12-52.84a1.26,1.26,0,0,0,1.26-1.24,1.18,1.18,0,0,0-1.23-1.21h10.19v50h-3.82a1,1,0,0,0-1.14-1,1,1,0,0,0-.9,1H102.8c-.07-.49-.35-.73-.77-.7a.64.64,0,0,0-.61.7H99.87c-.09-.34-.26-.49-.55-.46a.42.42,0,0,0-.4.46H88.83a.36.36,0,0,0,0-.11.32.32,0,0,0-.63,0,.36.36,0,0,0,0,.11h-6v-50h25a1.21,1.21,0,0,0-1,1.19A1.25,1.25,0,0,0,107.51,79.63Zm19.16-14.41-6.86,6.66H80.19L78.28,70h.07c.06,0,.06-.07.06-.14a.19.19,0,0,0-.24-.17c-.06,0-.11.06-.08.11l0,0-4.42-4.29a.38.38,0,0,0,.16.1c.12,0,.13-.1.15-.18s-.13-.31-.34-.31-.2,0-.2.12a.44.44,0,0,0,.11.15l-.24-.23V52H84v7.46H94.67V52h10.66v7.46h.75l.1,0a.08.08,0,0,0,.08,0h1.95s.09.07.15.08a.24.24,0,0,0,.24-.08h1.71c0,.06.07.09.12.11a.42.42,0,0,0,.16,0c.15,0,.37,0,.37-.14h1.5c0,.13.16.18.29.22a.5.5,0,0,0,.27,0c.12,0,.29-.07.27-.21h1.38c0,.06,0,.11.08.16a.69.69,0,0,0,.87,0c0-.05.11-.09.1-.17H116V52h1a.39.39,0,0,0-.31.44.81.81,0,0,0,.75.75.8.8,0,0,0,.78-.74.39.39,0,0,0-.3-.45h1.2c-.19,0-.27.17-.27.42a.86.86,0,0,0,.85.86.88.88,0,0,0,.85-.87c0-.25-.09-.37-.28-.41h1a.3.3,0,0,0-.19.25,1,1,0,0,0,.41,1,.95.95,0,0,0,1.45-1,.32.32,0,0,0-.19-.25h.64c-.09,0-.13.12-.16.23a1,1,0,0,0,2,.67c.1-.17.18-.18.25,0s.06.09.08.14c.11.21.43.29.44.48s-.33.31-.45.52-.19.3-.39,0l0-.07a1.06,1.06,0,0,0-1.53-.11,1,1,0,0,0,0,1.52,1.06,1.06,0,0,0,1.53-.11c.08-.1.11-.3.23-.3s.16.21.24.32.39.25.41.42-.28.28-.4.45-.1.34-.23.34-.17-.21-.27-.32a1.06,1.06,0,0,0-1.44-.15,1,1,0,0,0-.21,1.42,1.1,1.1,0,0,0,1.43.28c.23-.14.3-.57.52-.49s.27.42.5.58l0,0s.07,0,.08.08V58a.22.22,0,0,1-.08.09,1.19,1.19,0,0,0-.34.33c-.07.11-.14.31-.21.31s-.18-.2-.27-.31a1.08,1.08,0,0,0-1.27-.28,1.06,1.06,0,0,0-.55,1.21,1,1,0,0,0,1,.75,1,1,0,0,0,.94-.55c.1-.17.17-.19.25,0l.1.17c.09.15.31.25.43.34v.32c-.12.11-.34.2-.44.36-.2.31-.21.31-.43,0l0,0a1.06,1.06,0,0,0-1.53-.12A1,1,0,1,0,125,62.07c.08-.1.11-.3.24-.3s.15.22.24.33.38.25.4.42-.28.27-.4.45-.1.33-.23.34-.17-.22-.27-.32a1,1,0,0,0-1.81.95,1,1,0,0,0,1,.74,1,1,0,0,0,.93-.57c.07-.13.14-.2.23,0a1.13,1.13,0,0,0,.4.49c.08.05.13.09.14.14v.06a.24.24,0,0,1-.14.14c-.05,0-.17.14-.05.17l.19,0h.74Z"/><path d="M122,55.59a.93.93,0,1,0-1-.93A.91.91,0,0,0,122,55.59Z"/><path d="M122,62.36a.91.91,0,0,0,1-.91.92.92,0,0,0-.9-1,.93.93,0,0,0-1,.93A.92.92,0,0,0,122,62.36Z"/><path d="M122,64.59a.94.94,0,0,0,0-1.87.94.94,0,1,0,0,1.87Z"/><path d="M122,60.05a.94.94,0,0,0,0-1.87.94.94,0,0,0-.94.93A.92.92,0,0,0,122,60.05Z"/><path d="M122,57.82a.91.91,0,0,0,.92-.93.94.94,0,1,0-1.88,0A.91.91,0,0,0,122,57.82Z"/><path d="M120.52,61.46a.87.87,0,0,0-.84-.88.85.85,0,1,0,0,1.69A.88.88,0,0,0,120.52,61.46Z"/><path d="M119.67,55.51a.85.85,0,1,0,0-1.7.85.85,0,0,0,0,1.7Z"/><path d="M119.66,64.5a.85.85,0,1,0,0-1.69.85.85,0,1,0,0,1.69Z"/><path d="M119.65,58.27a.85.85,0,0,0,0,1.7.85.85,0,1,0,0-1.7Z"/><path d="M119.67,57.74a.85.85,0,1,0,0-1.7.85.85,0,0,0,0,1.7Z"/><path d="M117.43,55.42a.76.76,0,0,0,0-1.52.76.76,0,1,0,0,1.52Z"/><path d="M118.19,63.66a.81.81,0,0,0-.77-.77.77.77,0,1,0,0,1.53A.81.81,0,0,0,118.19,63.66Z"/><path d="M117.43,59.88a.8.8,0,0,0,.76-.77.81.81,0,0,0-.78-.76.83.83,0,0,0-.75.76A.82.82,0,0,0,117.43,59.88Z"/><path d="M117.43,60.66a.83.83,0,0,0-.77.73.82.82,0,0,0,.75.8.8.8,0,0,0,.78-.75A.81.81,0,0,0,117.43,60.66Z"/><path d="M117.43,57.65a.76.76,0,1,0,0-1.52.76.76,0,1,0,0,1.52Z"/><path d="M115.21,63a.67.67,0,1,0,.65.67A.68.68,0,0,0,115.21,63Z"/><path d="M115.2,62.09a.68.68,0,0,0,.66-.66.69.69,0,0,0-.65-.67.67.67,0,1,0,0,1.33Z"/><path d="M112.89,63.08a.58.58,0,1,0,0,1.15.59.59,0,0,0,.57-.59A.58.58,0,0,0,112.89,63.08Z"/><path d="M112.86,62a.58.58,0,0,0,0-1.15.58.58,0,1,0,0,1.15Z"/><path d="M110.59,64.15a.5.5,0,1,0,.08-1,.5.5,0,0,0-.08,1Z"/><path d="M110.63,61.92a.5.5,0,0,0,.51-.49.5.5,0,1,0-.51.49Z"/><path d="M108.4,61.85a.45.45,0,0,0,.43-.43.47.47,0,0,0-.4-.42.46.46,0,0,0-.45.41A.45.45,0,0,0,108.4,61.85Z"/><path d="M108.38,64.08a.46.46,0,0,0,.45-.41.45.45,0,0,0-.42-.44.46.46,0,0,0-.43.39A.45.45,0,0,0,108.38,64.08Z"/><path d="M106.15,61.79a.42.42,0,0,0,.38-.34.39.39,0,0,0-.32-.38.4.4,0,0,0-.41.35A.42.42,0,0,0,106.15,61.79Z"/><path d="M106.17,63.29a.42.42,0,0,0-.37.35.43.43,0,0,0,.35.38.4.4,0,0,0,.38-.37A.4.4,0,0,0,106.17,63.29Z"/><path d="M74.57,55a.37.37,0,0,0,.32-.35.39.39,0,0,0-.36-.35.35.35,0,1,0,0,.7Z"/><path d="M74.54,56.54a.36.36,0,0,0-.35.32.39.39,0,0,0,.33.38.39.39,0,0,0,.37-.34A.39.39,0,0,0,74.54,56.54Z"/><path d="M74.53,59.47a.39.39,0,0,0,.36-.35.37.37,0,0,0-.32-.35.4.4,0,0,0-.39.33A.41.41,0,0,0,74.53,59.47Z"/><path d="M74.53,63.3a.38.38,0,0,0-.34.34c0,.16.17.36.34.37a.4.4,0,0,0,.36-.36A.39.39,0,0,0,74.53,63.3Z"/><path d="M74.54,52a.37.37,0,0,0-.35.32.35.35,0,1,0,.35-.32Z"/><path d="M74.53,61.08a.36.36,0,0,0-.34.32.39.39,0,0,0,.34.38.39.39,0,0,0,.36-.35A.38.38,0,0,0,74.53,61.08Z"/><path d="M124.7,65a1.13,1.13,0,0,0-.77-.07c-.11,0-.3.06-.29.17s.19.06.3.08a2.43,2.43,0,0,0,.27,0h.44c.06,0,.15,0,.15-.07S124.74,65,124.7,65Z"/><path d="M76.79,58.84a.28.28,0,0,0-.3.26.29.29,0,0,0,.29.3.29.29,0,0,0,.28-.28C77,59,77,58.84,76.79,58.84Z"/><path d="M103.87,58.84a.27.27,0,0,0-.3.25.28.28,0,0,0,.28.31.29.29,0,0,0,.29-.27C104.12,59,104,58.85,103.87,58.84Z"/><path d="M76.78,61.15a.27.27,0,0,0-.29.26.28.28,0,0,0,.3.3.29.29,0,0,0,.27-.29A.27.27,0,0,0,76.78,61.15Z"/><path d="M103.85,61.14a.29.29,0,0,0-.28.32.28.28,0,0,0,.31.25.29.29,0,0,0,.26-.3A.3.3,0,0,0,103.85,61.14Z"/><path d="M103.87,54.38a.27.27,0,0,0-.3.25.28.28,0,0,0,.28.31.29.29,0,0,0,.29-.27C104.12,54.5,104,54.39,103.87,54.38Z"/><path d="M103.88,63.37a.3.3,0,0,0-.31.27.27.27,0,0,0,.25.3.29.29,0,0,0,.31-.29A.28.28,0,0,0,103.88,63.37Z"/><path d="M76.8,54.94a.28.28,0,0,0,0-.56.28.28,0,0,0-.28.32A.28.28,0,0,0,76.8,54.94Z"/><path d="M103.82,52.63a.27.27,0,0,0,.31-.27.28.28,0,1,0-.56,0A.27.27,0,0,0,103.82,52.63Z"/><path d="M76.75,52.64a.31.31,0,0,0,.31-.28.29.29,0,0,0-.3-.29.28.28,0,0,0-.27.29A.3.3,0,0,0,76.75,52.64Z"/><path d="M103.89,57.17a.27.27,0,0,0,.24-.31.29.29,0,0,0-.3-.26.3.3,0,0,0-.26.29A.29.29,0,0,0,103.89,57.17Z"/><path d="M76.81,63.38a.28.28,0,0,0-.32.27.29.29,0,0,0,.25.29.32.32,0,0,0,.32-.26A.28.28,0,0,0,76.81,63.38Z"/><path d="M76.8,57.17a.28.28,0,0,0,0-.56.28.28,0,0,0-.28.31A.27.27,0,0,0,76.8,57.17Z"/><path d="M122,65c-.14,0-.39,0-.38.12s.25,0,.38.08.4.07.42-.08S122.12,65,122,65Z"/><path d="M101.6,54.87c.14,0,.22-.06.22-.21a.18.18,0,0,0-.19-.21.19.19,0,0,0-.22.21C101.4,54.79,101.47,54.85,101.6,54.87Z"/><path d="M101.6,56.68a.18.18,0,0,0-.19.21.19.19,0,0,0,.22.21.2.2,0,0,0,.2-.21A.2.2,0,0,0,101.6,56.68Z"/><path d="M101.82,59.11a.18.18,0,0,0-.2-.2.21.21,0,0,0,0,.42C101.75,59.32,101.83,59.25,101.82,59.11Z"/><path d="M101.61,52.56a.19.19,0,0,0,.21-.18c0-.14-.06-.23-.22-.24a.18.18,0,0,0-.19.19C101.4,52.47,101.46,52.56,101.61,52.56Z"/><path d="M101.62,63.44c-.13,0-.21.07-.21.2a.18.18,0,0,0,.21.22.17.17,0,0,0,.2-.19A.19.19,0,0,0,101.62,63.44Z"/><path d="M101.63,61.22a.18.18,0,0,0-.22.21.17.17,0,0,0,.19.2.19.19,0,0,0,.23-.2C101.82,61.3,101.76,61.22,101.63,61.22Z"/><path d="M79,54.85c.12,0,.18-.07.21-.19a.2.2,0,0,0-.2-.19.18.18,0,0,0-.19.17A.18.18,0,0,0,79,54.85Z"/><path d="M79,58.93a.17.17,0,0,0-.17.21.19.19,0,0,0,.19.17c.12,0,.18-.08.2-.2S79.11,58.91,79,58.93Z"/><path d="M79,61.62a.19.19,0,0,0,.21-.18c0-.12-.07-.19-.19-.21a.21.21,0,0,0-.19.2A.19.19,0,0,0,79,61.62Z"/><path d="M79,52.16a.19.19,0,0,0,0,.38c.12,0,.19-.07.22-.18A.22.22,0,0,0,79,52.16Z"/><path d="M79,57.08c.13,0,.19-.07.23-.17A.2.2,0,0,0,79,56.7a.19.19,0,0,0-.2.15A.19.19,0,0,0,79,57.08Z"/><path d="M79,63.46c-.1,0-.19.1-.17.22a.19.19,0,0,0,.38,0C79.19,63.53,79.12,63.47,79,63.46Z"/><path d="M99.39,61.55c.07,0,.12,0,.11-.13a.11.11,0,0,0-.11-.12.13.13,0,0,0-.14.15A.11.11,0,0,0,99.39,61.55Z"/><path d="M99.25,59.1c0,.09,0,.15.14.14a.11.11,0,0,0,.11-.13q0-.11-.12-.12A.12.12,0,0,0,99.25,59.1Z"/><path d="M99.38,63.53a.12.12,0,0,0-.13.12.12.12,0,0,0,.15.13.13.13,0,0,0,.11-.14A.13.13,0,0,0,99.38,63.53Z"/><path d="M99.39,52.48a.12.12,0,0,0,.11-.13.11.11,0,0,0-.11-.12c-.1,0-.14.05-.14.14A.13.13,0,0,0,99.39,52.48Z"/><path d="M99.41,54.54a.11.11,0,0,0-.15.08c0,.09,0,.16.11.17a.13.13,0,0,0,.14-.11A.12.12,0,0,0,99.41,54.54Z"/><path d="M99.38,56.76a.12.12,0,0,0-.13.12.11.11,0,0,0,.11.13c.08,0,.15,0,.14-.13S99.46,56.77,99.38,56.76Z"/><path d="M119.66,65c-.08,0-.21,0-.2.06s.12,0,.19,0,.2,0,.21-.06S119.73,65,119.66,65Z"/><path d="M97.17,54.67a.12.12,0,0,0-.09-.12.1.1,0,0,0-.12.08c0,.08,0,.13.11.14A.12.12,0,0,0,97.17,54.67Z"/><path d="M81.22,54.74s.09,0,.11-.06,0-.1-.07-.1-.07,0-.09,0A.08.08,0,0,0,81.22,54.74Z"/><path d="M97.08,52.25c-.06,0-.1,0-.12.07a.11.11,0,0,0,.1.14c.06,0,.09,0,.11-.1A.1.1,0,0,0,97.08,52.25Z"/><path d="M81.23,52.27s-.06,0-.07.07a.08.08,0,0,0,.09.1s.08,0,.09-.1S81.29,52.25,81.23,52.27Z"/><path d="M97.08,59a.1.1,0,0,0-.12.08c0,.08,0,.13.11.13a.11.11,0,0,0,.1-.1A.11.11,0,0,0,97.08,59Z"/><path d="M81.24,59.2a.07.07,0,0,0,.09-.08c0-.06,0-.09-.09-.09a.09.09,0,0,0-.08.1A.11.11,0,0,0,81.24,59.2Z"/><path d="M81.25,61.34a.08.08,0,0,0-.09.09c0,.06,0,.09.1.08s.07,0,.07-.07A.08.08,0,0,0,81.25,61.34Z"/><path d="M81.26,63.57a.12.12,0,0,0-.09,0,.08.08,0,0,0,0,.12s.09,0,.11-.06S81.31,63.57,81.26,63.57Z"/><path d="M97.08,63.55c-.06,0-.1,0-.12.08s0,.12.1.13.09,0,.11-.09A.1.1,0,0,0,97.08,63.55Z"/><path d="M97.07,61.53a.11.11,0,0,0,.1-.1.11.11,0,0,0-.09-.11.1.1,0,0,0-.12.08C96.94,61.48,97,61.53,97.07,61.53Z"/><path d="M97,57c.08,0,.13,0,.13-.11s0-.09-.1-.1-.11,0-.11.1A.09.09,0,0,0,97,57Z"/><path d="M81.25,56.8a.09.09,0,0,0-.09.09c0,.06,0,.09.1.09s.09-.06.07-.11A.14.14,0,0,0,81.25,56.8Z"/><path d="M94.84,52.38s0,0,0,0,0,0,0,0,0,0,0,.05Z"/><path d="M94.83,59.09s0,0,0,0h0s0,0,0,0Z"/><path d="M92.6,61.4h0s0,0,0,0,0,0,.05,0Z"/><path d="M94.81,56.87s0,.05,0,.05,0,0,0,0a0,0,0,0,0,0,0Z"/><path d="M92.56,63.66s0,0,0,0h0s0,0,0,0S92.57,63.62,92.56,63.66Z"/><path d="M94.82,63.63l0,0s0,0,0,0v0Z"/><path d="M94.8,61.43l0,0h0v0S94.8,61.39,94.8,61.43Z"/><path d="M94.84,54.68s0,0,0,0l0,0s0,0,0,0Z"/><polygon points="117.44 65.13 117.42 65.12 117.41 65.14 117.44 65.13"/><path d="M107.52,120.51a1.25,1.25,0,1,0,0,2.49,1.25,1.25,0,1,0,0-2.49Z"/><path d="M107.54,90.63a1.25,1.25,0,1,0,1.23,1.26A1.25,1.25,0,0,0,107.54,90.63Z"/><path d="M107.51,109.64a1.28,1.28,0,0,0-1.24,1.26,1.25,1.25,0,1,0,1.24-1.26Z"/><path d="M107.51,82.56a1.25,1.25,0,0,0,0,2.5,1.25,1.25,0,1,0,0-2.5Z"/><path d="M107.53,106.93a1.25,1.25,0,1,0,1.24,1.26A1.26,1.26,0,0,0,107.53,106.93Z"/><path d="M107.51,117.79a1.25,1.25,0,0,0,0,2.5,1.25,1.25,0,1,0,0-2.5Z"/><path d="M107.51,88a1.25,1.25,0,1,0,0,2.5,1.25,1.25,0,0,0,0-2.5Z"/><path d="M107.54,115.08a1.25,1.25,0,1,0,1.23,1.26A1.25,1.25,0,0,0,107.54,115.08Z"/><path d="M107.51,101.49a1.28,1.28,0,0,0-1.24,1.27,1.25,1.25,0,1,0,1.24-1.27Z"/><path d="M107.51,98.78a1.25,1.25,0,1,0,1.26,1.24A1.27,1.27,0,0,0,107.51,98.78Z"/><path d="M107.51,82.34a1.25,1.25,0,1,0-1.24-1.25A1.26,1.26,0,0,0,107.51,82.34Z"/><path d="M107.53,104.21a1.25,1.25,0,1,0,1.24,1.26A1.27,1.27,0,0,0,107.53,104.21Z"/><path d="M107.51,96.06a1.28,1.28,0,0,0-1.24,1.27,1.25,1.25,0,1,0,1.24-1.27Z"/><path d="M107.52,85.28a1.25,1.25,0,1,0,1.25,1.24A1.25,1.25,0,0,0,107.52,85.28Z"/><path d="M107.54,123.22a1.25,1.25,0,1,0,0,2.5,1.25,1.25,0,0,0,0-2.5Z"/><path d="M107.51,93.35a1.25,1.25,0,1,0,0,2.49,1.25,1.25,0,1,0,0-2.49Z"/><path d="M107.53,112.36a1.25,1.25,0,1,0,1.24,1.26A1.26,1.26,0,0,0,107.53,112.36Z"/><path d="M110.25,79.58a1.2,1.2,0,1,0-1.22-1.2A1.19,1.19,0,0,0,110.25,79.58Z"/><path d="M110.24,109.38a1.21,1.21,0,0,0,0-2.41,1.21,1.21,0,1,0,0,2.41Z"/><path d="M110.22,106.67a1.21,1.21,0,1,0-1.19-1.24A1.19,1.19,0,0,0,110.22,106.67Z"/><path d="M110.22,90.45A1.21,1.21,0,1,0,109,89.22,1.2,1.2,0,0,0,110.22,90.45Z"/><path d="M110.14,125.68a1.2,1.2,0,0,0,1.23-1.19,1.21,1.21,0,0,0-2.42,0A1.19,1.19,0,0,0,110.14,125.68Z"/><path d="M110.22,82.3a1.21,1.21,0,0,0,.06-2.41,1.21,1.21,0,1,0-.06,2.41Z"/><path d="M110.23,98.52a1.2,1.2,0,0,0,1.21-1.21,1.21,1.21,0,1,0-2.41,0A1.2,1.2,0,0,0,110.23,98.52Z"/><path d="M110.23,104a1.21,1.21,0,0,0,0-2.41,1.21,1.21,0,1,0,0,2.41Z"/><path d="M110.18,123a1.21,1.21,0,0,0,0-2.42,1.19,1.19,0,0,0-1.19,1.23A1.2,1.2,0,0,0,110.18,123Z"/><path d="M110.21,101.23A1.21,1.21,0,1,0,109,100,1.18,1.18,0,0,0,110.21,101.23Z"/><path d="M110.23,114.81a1.21,1.21,0,0,0,0-2.41,1.21,1.21,0,1,0,0,2.41Z"/><path d="M110.23,93.08a1.17,1.17,0,0,0,1.21-1.21,1.21,1.21,0,1,0-1.21,1.21Z"/><path d="M110.17,117.53a1.21,1.21,0,1,0-1.22-1.2A1.19,1.19,0,0,0,110.17,117.53Z"/><path d="M110.24,87.73a1.21,1.21,0,1,0,0-2.41,1.21,1.21,0,0,0,0,2.41Z"/><path d="M110.24,85a1.21,1.21,0,1,0,0-2.42,1.21,1.21,0,0,0,0,2.42Z"/><path d="M110.25,93.39a1.21,1.21,0,0,0,0,2.41,1.21,1.21,0,1,0,0-2.41Z"/><path d="M110.14,120.25A1.21,1.21,0,1,0,109,119,1.2,1.2,0,0,0,110.14,120.25Z"/><path d="M110.25,112.1a1.2,1.2,0,0,0,1.19-1.24,1.21,1.21,0,0,0-2.41,0A1.2,1.2,0,0,0,110.25,112.1Z"/><path d="M112.87,98.37a1.05,1.05,0,0,0,1.06-1.07,1.06,1.06,0,1,0-1.06,1.07Z"/><path d="M112.85,101.08a1,1,0,0,0,1.08-1,1.06,1.06,0,1,0-1.08,1Z"/><path d="M112.88,103.8a1,1,0,0,0,1.05-1.08,1.06,1.06,0,1,0-1.05,1.08Z"/><path d="M112.86,106.51a1.05,1.05,0,1,0-1-1.08A1,1,0,0,0,112.86,106.51Z"/><path d="M112.91,107.12a1.06,1.06,0,1,0,1,1.06A1,1,0,0,0,112.91,107.12Z"/><path d="M112.84,112a1.06,1.06,0,1,0,0-2.11,1,1,0,0,0-1.06,1A1,1,0,0,0,112.84,112Z"/><path d="M112.88,112.55a1.06,1.06,0,1,0,1.05,1.08A1,1,0,0,0,112.88,112.55Z"/><path d="M111.82,116.31a1,1,0,0,0,1.05,1.07,1.06,1.06,0,1,0,0-2.11A1,1,0,0,0,111.82,116.31Z"/><path d="M112.86,120.09a1.05,1.05,0,1,0-1-1.07A1,1,0,0,0,112.86,120.09Z"/><path d="M112.87,122.81a1.06,1.06,0,1,0-1.05-1.06A1,1,0,0,0,112.87,122.81Z"/><path d="M112.87,123.42a1.06,1.06,0,0,0,0,2.11,1,1,0,0,0,1.07-1A1,1,0,0,0,112.87,123.42Z"/><path d="M112.93,84.86a1.05,1.05,0,1,0,0-2.1,1.05,1.05,0,0,0,0,2.1Z"/><path d="M113,79.43a1.05,1.05,0,1,0-1.06-1.06A1,1,0,0,0,113,79.43Z"/><path d="M112.94,82.14a1,1,0,0,0,1.06-1,1.05,1.05,0,0,0-2.1,0A1,1,0,0,0,112.94,82.14Z"/><path d="M113,90.29a1.05,1.05,0,1,0-1-1.06A1,1,0,0,0,113,90.29Z"/><path d="M113,95.64a1,1,0,1,0-1-1A1,1,0,0,0,113,95.64Z"/><path d="M112.94,93a1.05,1.05,0,1,0-1-1A1,1,0,0,0,112.94,93Z"/><path d="M111.9,86.52a1,1,0,0,0,1,1.06,1.05,1.05,0,1,0-1-1.06Z"/><path d="M104.82,106.48a1,1,0,0,0,0-2,1,1,0,0,0-1,1A1,1,0,0,0,104.82,106.48Z"/><path d="M104.81,118a1,1,0,1,0,1,1A1,1,0,0,0,104.81,118Z"/><path d="M104.81,115.3a1,1,0,1,0,1,1A1,1,0,0,0,104.81,115.3Z"/><path d="M104.83,112.59a1,1,0,1,0,1,1A1,1,0,0,0,104.83,112.59Z"/><path d="M104.81,90.27a1,1,0,0,0,0-2,1,1,0,1,0,0,2Z"/><path d="M104.78,82.12a1,1,0,1,0-1-1A1,1,0,0,0,104.78,82.12Z"/><path d="M105.83,94.6a1,1,0,1,0-1.06,1A1,1,0,0,0,105.83,94.6Z"/><path d="M104.82,101.05a1,1,0,1,0-1-1A1,1,0,0,0,104.82,101.05Z"/><path d="M104.81,123.45a1,1,0,1,0,1,1A1,1,0,0,0,104.81,123.45Z"/><path d="M104.81,98.33a1,1,0,1,0-1-1A1,1,0,0,0,104.81,98.33Z"/><path d="M103.79,83.77a1,1,0,1,0,2,.06,1,1,0,0,0-1-1A1,1,0,0,0,103.79,83.77Z"/><path d="M104.81,79.4a1,1,0,1,0-1-1.05A1,1,0,0,0,104.81,79.4Z"/><path d="M104.82,109.87a1,1,0,1,0,1,1A1,1,0,0,0,104.82,109.87Z"/><path d="M104.81,90.86a1,1,0,1,0,0,2,1,1,0,0,0,0-2Z"/><path d="M104.83,107.15a1,1,0,1,0,1,1A1.05,1.05,0,0,0,104.83,107.15Z"/><path d="M103.79,102.75a1,1,0,1,0,1-1A1,1,0,0,0,103.79,102.75Z"/><path d="M104.8,87.55a1,1,0,1,0,0-2,1,1,0,0,0,0,2Z"/><path d="M104.84,120.73a1,1,0,1,0,0,2,1,1,0,0,0,0-2Z"/><path d="M107.52,125.94a1.23,1.23,0,0,0-1.22,1.23h2.45A1.23,1.23,0,0,0,107.52,125.94Z"/><path d="M110.15,126a1.14,1.14,0,0,0-1.17,1.19h2.36A1.15,1.15,0,0,0,110.15,126Z"/><path d="M115.58,79.17a.79.79,0,0,0,.8-.8.8.8,0,0,0-.78-.79.81.81,0,0,0-.81.81A.8.8,0,0,0,115.58,79.17Z"/><path d="M115.56,98.11a.81.81,0,0,0,.82-.79.79.79,0,0,0-.76-.8.8.8,0,0,0-.83.78A.82.82,0,0,0,115.56,98.11Z"/><path d="M115.59,122.55a.8.8,0,0,0,.79-.78.8.8,0,1,0-.79.78Z"/><path d="M115.55,125.27a.8.8,0,0,0,.83-.78.8.8,0,0,0-.76-.81.8.8,0,0,0-.07,1.59Z"/><path d="M115.55,90a.8.8,0,1,0-.76-.81A.8.8,0,0,0,115.55,90Z"/><path d="M115.55,109a.8.8,0,0,0,.08-1.59.81.81,0,0,0-.84.78A.8.8,0,0,0,115.55,109Z"/><path d="M115.62,80.3a.8.8,0,1,0-.06,1.59.8.8,0,0,0,.06-1.59Z"/><path d="M115.6,91.16a.81.81,0,0,0-.81.81.8.8,0,1,0,.81-.81Z"/><path d="M116.38,94.6a.79.79,0,0,0-.8-.8.8.8,0,1,0,0,1.59A.8.8,0,0,0,116.38,94.6Z"/><path d="M115.59,85.73a.8.8,0,1,0,.79.78A.8.8,0,0,0,115.59,85.73Z"/><path d="M115.56,103.54a.8.8,0,0,0,.06-1.59.8.8,0,1,0-.06,1.59Z"/><path d="M115.57,84.61a.8.8,0,0,0,.81-.8.79.79,0,0,0-.78-.79.8.8,0,0,0,0,1.59Z"/><path d="M115.55,106.26a.82.82,0,0,0,.83-.79.8.8,0,0,0-.76-.81.8.8,0,0,0-.07,1.6Z"/><path d="M115.61,99.23a.8.8,0,0,0,0,1.59.8.8,0,0,0,0-1.59Z"/><path d="M115.6,112.81a.81.81,0,0,0-.81.81.8.8,0,1,0,.81-.81Z"/><path d="M115.6,111.69a.8.8,0,0,0,.78-.79.8.8,0,0,0-1.59,0A.81.81,0,0,0,115.6,111.69Z"/><path d="M116.38,116.36a.8.8,0,1,0-.81.76A.8.8,0,0,0,116.38,116.36Z"/><path d="M115.57,119.84a.8.8,0,1,0-.78-.84A.81.81,0,0,0,115.57,119.84Z"/><path d="M83.12,79.12a.72.72,0,0,0,.71-.75.74.74,0,1,0-1.48,0A.72.72,0,0,0,83.12,79.12Z"/><path d="M83.11,107.43a.75.75,0,1,0,.72.75A.72.72,0,0,0,83.11,107.43Z"/><path d="M83.11,100.77a.75.75,0,0,0,0-1.49.75.75,0,0,0,0,1.49Z"/><path d="M83.1,80.35a.73.73,0,0,0-.75.76.74.74,0,1,0,.75-.76Z"/><path d="M83.11,114.35a.75.75,0,1,0-.76-.74A.73.73,0,0,0,83.11,114.35Z"/><path d="M83.09,119.78a.72.72,0,0,0,.74-.72.74.74,0,1,0-.74.72Z"/><path d="M83.06,111.64a.73.73,0,0,0,.77-.7.74.74,0,0,0-1.48-.1A.73.73,0,0,0,83.06,111.64Z"/><path d="M83.1,83.07a.74.74,0,1,0,.73.73A.72.72,0,0,0,83.1,83.07Z"/><path d="M82.35,116.3a.74.74,0,1,0,.75-.72A.73.73,0,0,0,82.35,116.3Z"/><path d="M83.07,88.42a.75.75,0,1,0,.76.75A.72.72,0,0,0,83.07,88.42Z"/><path d="M83.1,123.73a.72.72,0,0,0-.75.71.74.74,0,1,0,1.48.06A.72.72,0,0,0,83.1,123.73Z"/><path d="M83.83,86.54a.74.74,0,1,0-.78.73A.73.73,0,0,0,83.83,86.54Z"/><path d="M83.12,121a.75.75,0,1,0,.71.76A.73.73,0,0,0,83.12,121Z"/><path d="M83.12,92.62a.72.72,0,0,0,.71-.75.74.74,0,1,0-1.48,0A.72.72,0,0,0,83.12,92.62Z"/><path d="M83.12,103.49a.73.73,0,0,0,.71-.76.74.74,0,0,0-1.48,0A.73.73,0,0,0,83.12,103.49Z"/><path d="M82.35,105.44a.74.74,0,1,0,.77-.72A.72.72,0,0,0,82.35,105.44Z"/><path d="M83.12,98.06a.72.72,0,0,0,.71-.76.74.74,0,0,0-1.48,0A.73.73,0,0,0,83.12,98.06Z"/><path d="M83.12,93.85a.73.73,0,0,0-.77.74.74.74,0,1,0,.77-.74Z"/><path d="M104.82,126.17a1,1,0,0,0-1,1h2A1,1,0,0,0,104.82,126.17Z"/><path d="M102.09,79.1a.72.72,0,1,0,0-1.44.72.72,0,0,0,0,1.44Z"/><path d="M102.08,110.17a.72.72,0,0,0-.71.71.73.73,0,1,0,.71-.71Z"/><path d="M102.1,81.82a.73.73,0,1,0,0-1.45.73.73,0,0,0,0,1.45Z"/><path d="M102.11,85.8a.72.72,0,0,0-.74.72.71.71,0,0,0,.72.73.72.72,0,0,0,.73-.73A.73.73,0,0,0,102.11,85.8Z"/><path d="M102.08,83.09a.72.72,0,1,0,.74.72A.72.72,0,0,0,102.08,83.09Z"/><path d="M102.13,99.3a.73.73,0,1,0,0,1.45.73.73,0,0,0,0-1.45Z"/><path d="M102.11,93.87a.73.73,0,1,0,.71.72A.72.72,0,0,0,102.11,93.87Z"/><path d="M102.1,115.6a.73.73,0,1,0,.72.74A.72.72,0,0,0,102.1,115.6Z"/><path d="M102.07,112.88a.73.73,0,1,0,.75.71A.73.73,0,0,0,102.07,112.88Z"/><path d="M102.07,118.32a.72.72,0,1,0,.75.71A.72.72,0,0,0,102.07,118.32Z"/><path d="M102.05,98a.72.72,0,1,0-.68-.77A.72.72,0,0,0,102.05,98Z"/><path d="M102.08,104.74a.72.72,0,1,0,.74.71A.71.71,0,0,0,102.08,104.74Z"/><path d="M102.1,91.16a.72.72,0,0,0,0,1.44.72.72,0,0,0,.75-.71A.71.71,0,0,0,102.1,91.16Z"/><path d="M102.1,121a.73.73,0,1,0,.72.75A.73.73,0,0,0,102.1,121Z"/><path d="M102.08,88.52a.73.73,0,1,0,.74.72A.73.73,0,0,0,102.08,88.52Z"/><path d="M102.08,107.45a.73.73,0,0,0-.71.71.73.73,0,1,0,.71-.71Z"/><path d="M102.1,123.75a.73.73,0,1,0,.72.74A.72.72,0,0,0,102.1,123.75Z"/><path d="M102.09,102a.71.71,0,0,0-.72.69.73.73,0,1,0,1.45,0A.72.72,0,0,0,102.09,102Z"/><path d="M115.59,126.39c-.41,0-.69.26-.79.77h1.56C116.28,126.66,116,126.4,115.59,126.39Z"/><path d="M85.82,111.43a.54.54,0,1,0-.56-.55A.56.56,0,0,0,85.82,111.43Z"/><path d="M85.79,97.85a.54.54,0,1,0,0-1.08.54.54,0,0,0,0,1.08Z"/><path d="M85.82,115.78a.56.56,0,0,0-.56.52.57.57,0,0,0,.55.57.55.55,0,0,0,0-1.09Z"/><path d="M86.35,86.52a.57.57,0,0,0-.54-.54.57.57,0,0,0-.55.53.56.56,0,0,0,.56.56A.57.57,0,0,0,86.35,86.52Z"/><path d="M86.35,105.48a.55.55,0,1,0-1.09,0,.55.55,0,0,0,1.09,0Z"/><path d="M85.82,100.57a.54.54,0,0,0,0-1.08.56.56,0,0,0-.55.56A.56.56,0,0,0,85.82,100.57Z"/><path d="M85.8,91.34a.55.55,0,0,0-.54.54.55.55,0,1,0,1.09,0A.56.56,0,0,0,85.8,91.34Z"/><path d="M85.8,121.21a.58.58,0,0,0-.54.54.57.57,0,0,0,.53.55.56.56,0,0,0,.56-.56A.57.57,0,0,0,85.8,121.21Z"/><path d="M85.82,88.62a.55.55,0,1,0,0,1.09.58.58,0,0,0,.54-.54A.57.57,0,0,0,85.82,88.62Z"/><path d="M85.8,113.07a.55.55,0,0,0-.54.53.57.57,0,0,0,.57.55.57.57,0,0,0,.52-.56A.56.56,0,0,0,85.8,113.07Z"/><path d="M85.26,94.6a.55.55,0,0,0,1.09,0,.57.57,0,0,0-.56-.56A.57.57,0,0,0,85.26,94.6Z"/><path d="M85.77,81.64a.57.57,0,0,0,.58-.54.57.57,0,0,0-.53-.55.55.55,0,0,0,0,1.09Z"/><path d="M85.82,102.2a.56.56,0,0,0-.56.52.55.55,0,1,0,1.09,0A.57.57,0,0,0,85.82,102.2Z"/><path d="M85.82,123.93a.57.57,0,0,0-.56.51.57.57,0,0,0,.51.57.56.56,0,0,0,.58-.53A.57.57,0,0,0,85.82,123.93Z"/><path d="M85.8,83.27a.54.54,0,1,0,.55.53A.57.57,0,0,0,85.8,83.27Z"/><path d="M85.82,118.5a.54.54,0,1,0,.53.55A.56.56,0,0,0,85.82,118.5Z"/><path d="M85.82,108.72a.57.57,0,0,0,.53-.55.58.58,0,0,0-.54-.54.57.57,0,0,0-.55.53A.56.56,0,0,0,85.82,108.72Z"/><path d="M85.83,77.84a.54.54,0,1,0,0,1.08.54.54,0,0,0,0-1.08Z"/><path d="M83.1,126.44a.69.69,0,0,0-.72.73h1.41A.67.67,0,0,0,83.1,126.44Z"/><path d="M99.37,80.61c-.29,0-.47.19-.47.48a.44.44,0,0,0,.47.48.46.46,0,0,0,.49-.49A.47.47,0,0,0,99.37,80.61Z"/><path d="M99.38,83.32c-.29,0-.48.19-.48.48a.45.45,0,0,0,.46.49.47.47,0,0,0,.5-.49A.48.48,0,0,0,99.38,83.32Z"/><path d="M98.9,116.34a.48.48,0,0,0,1,0,.46.46,0,0,0-.47-.48A.47.47,0,0,0,98.9,116.34Z"/><path d="M99.37,121.28a.44.44,0,0,0-.47.47.48.48,0,0,0,.51.49.49.49,0,0,0,.46-.51A.47.47,0,0,0,99.37,121.28Z"/><path d="M99.32,87a.48.48,0,0,0,.54-.46.48.48,0,1,0-1,0A.47.47,0,0,0,99.32,87Z"/><path d="M99.38,88.77a.44.44,0,0,0-.48.46.46.46,0,0,0,.5.49.47.47,0,0,0,.47-.49C99.83,89,99.68,88.76,99.38,88.77Z"/><path d="M99.42,91.39c-.3,0-.49.15-.52.45a.46.46,0,0,0,.43.52.47.47,0,0,0,.53-.46A.48.48,0,0,0,99.42,91.39Z"/><path d="M99.39,107.7a.46.46,0,0,0-.49.5.45.45,0,0,0,.44.46.49.49,0,0,0,.52-.48A.45.45,0,0,0,99.39,107.7Z"/><path d="M99.38,105a.45.45,0,0,0-.48.47.46.46,0,0,0,.5.49.47.47,0,0,0,.47-.49A.47.47,0,0,0,99.38,105Z"/><path d="M99.38,100.51a.48.48,0,0,0,.49-.48.47.47,0,0,0-.48-.48.45.45,0,0,0-.49.45A.46.46,0,0,0,99.38,100.51Z"/><path d="M99.4,124a.48.48,0,0,0-.51.44.47.47,0,0,0,.45.52.46.46,0,0,0,.52-.43A.48.48,0,0,0,99.4,124Z"/><path d="M99.86,113.63a.48.48,0,1,0-1,0,.48.48,0,0,0,1,0Z"/><path d="M99.39,118.55c-.29,0-.48.17-.49.47a.45.45,0,0,0,.45.5.46.46,0,0,0,.51-.48A.47.47,0,0,0,99.39,118.55Z"/><path d="M99.36,97.79a.47.47,0,0,0,.5-.49.46.46,0,0,0-.44-.47.48.48,0,0,0-.52.47A.45.45,0,0,0,99.36,97.79Z"/><path d="M99.86,94.59a.47.47,0,0,0-.48-.48c-.29,0-.47.17-.48.47a.44.44,0,0,0,.46.49A.46.46,0,0,0,99.86,94.59Z"/><path d="M99.86,102.77a.48.48,0,0,0-.44-.51.47.47,0,0,0-.52.44.45.45,0,0,0,.43.52A.46.46,0,0,0,99.86,102.77Z"/><path d="M99.37,78.87a.48.48,0,0,0,.49-.48.48.48,0,1,0-1,0A.48.48,0,0,0,99.37,78.87Z"/><path d="M99.39,110.41a.45.45,0,0,0-.49.46.46.46,0,0,0,.49.5c.3,0,.44-.19.48-.48S99.69,110.42,99.39,110.41Z"/><path d="M85.83,126.65c-.32,0-.51.17-.56.52h1.06A.49.49,0,0,0,85.83,126.65Z"/><path d="M96.93,121.79c0-.11-.14-.21-.23-.32-.11.09-.27.17-.3.28s.12.22.24.41C96.78,122,96.93,121.89,96.93,121.79Z"/><path d="M96.69,89.53c.09-.1.24-.2.24-.3s-.14-.21-.28-.39c-.12.18-.28.31-.25.39S96.59,89.43,96.69,89.53Z"/><path d="M96.93,86.53c0-.12-.19-.19-.3-.29-.08.1-.23.21-.24.31s.15.2.29.38C96.81,86.74,97,86.61,96.93,86.53Z"/><path d="M96.93,100c0-.12-.19-.2-.29-.3-.09.1-.24.2-.25.3s.15.21.28.39C96.8,100.25,97,100.12,96.93,100Z"/><path d="M96.69,84.08c.1,0,.2-.15.38-.29-.19-.12-.32-.27-.41-.25s-.19.2-.28.3C96.48,83.93,96.58,84.08,96.69,84.08Z"/><path d="M96.39,81.08c0,.11.16.2.25.3.11-.1.26-.18.29-.3s-.13-.21-.27-.39C96.53,80.87,96.39,81,96.39,81.08Z"/><path d="M96.4,119c0,.11.19.19.3.29.08-.11.23-.21.23-.32s-.15-.2-.29-.37C96.52,118.83,96.37,119,96.4,119Z"/><path d="M96.66,78.65c.08,0,.22-.12.4-.24-.17-.15-.27-.3-.37-.3s-.21.15-.31.23C96.47,78.45,96.55,78.61,96.66,78.65Z"/><path d="M96.93,108.19c0-.11-.15-.2-.24-.3-.11.1-.26.18-.29.3s.13.21.26.39C96.79,108.4,96.94,108.29,96.93,108.19Z"/><path d="M96.4,124.47c0,.12.19.19.3.29.08-.11.23-.21.23-.31s-.15-.21-.29-.38C96.52,124.26,96.37,124.39,96.4,124.47Z"/><path d="M96.64,105.75c.11-.1.26-.19.29-.3s-.13-.21-.27-.39c-.13.18-.27.29-.27.39S96.55,105.65,96.64,105.75Z"/><path d="M96.39,116.31c0,.1.16.2.25.3.1-.09.26-.18.29-.29s-.13-.21-.25-.4C96.54,116.1,96.39,116.21,96.39,116.31Z"/><path d="M96.38,110.87c.09.1.18.26.3.29s.2-.13.39-.26c-.18-.14-.29-.28-.39-.28S96.48,110.78,96.38,110.87Z"/><path d="M96.39,113.59c0,.1.16.2.24.3.11-.09.27-.17.3-.29s-.13-.21-.25-.39C96.54,113.38,96.39,113.49,96.39,113.59Z"/><path d="M96.69,97c-.11,0-.21.16-.31.24.09.11.17.27.29.3s.21-.13.4-.25C96.89,97.19,96.79,97,96.69,97Z"/><path d="M96.4,102.74c0,.12.19.2.3.29.08-.1.23-.21.23-.31s-.15-.2-.29-.38C96.52,102.53,96.37,102.66,96.4,102.74Z"/><path d="M96.68,92.28c.13-.19.28-.32.25-.4s-.19-.19-.3-.29c-.08.11-.23.21-.24.31S96.54,92.11,96.68,92.28Z"/><path d="M96.67,94.86c.08,0,.21-.13.4-.25-.18-.14-.29-.29-.39-.28s-.2.15-.3.24C96.47,94.67,96.55,94.83,96.67,94.86Z"/><circle cx="88.53" cy="78.38" r="0.31"/><circle cx="88.53" cy="81.09" r="0.31"/><path d="M88.53,83.5a.31.31,0,1,0,.32.31A.31.31,0,0,0,88.53,83.5Z"/><path d="M88.53,86.22a.31.31,0,1,0,.32.31A.31.31,0,0,0,88.53,86.22Z"/><path d="M88.53,88.85a.32.32,0,0,0,0,.63.32.32,0,1,0,0-.63Z"/><circle cx="88.53" cy="91.88" r="0.31"/><path d="M88.53,94.28a.32.32,0,1,0,.32.32A.31.31,0,0,0,88.53,94.28Z"/><path d="M88.53,97a.32.32,0,0,0,0,.63.32.32,0,1,0,0-.63Z"/><path d="M88.53,99.64a.32.32,0,1,0,.32.32A.31.31,0,0,0,88.53,99.64Z"/><circle cx="88.53" cy="102.67" r="0.31"/><path d="M88.53,105.08a.31.31,0,1,0,.32.31A.31.31,0,0,0,88.53,105.08Z"/><path d="M88.53,107.79a.32.32,0,1,0,.32.32A.31.31,0,0,0,88.53,107.79Z"/><path d="M88.53,110.43a.31.31,0,0,0-.31.31.32.32,0,0,0,.63,0A.31.31,0,0,0,88.53,110.43Z"/><circle cx="88.53" cy="113.46" r="0.31"/><circle cx="88.53" cy="116.18" r="0.31"/><path d="M88.53,118.58a.31.31,0,1,0,.32.31A.31.31,0,0,0,88.53,118.58Z"/><path d="M88.53,121.47a.32.32,0,0,0,0,.63.32.32,0,1,0,0-.63Z"/><path d="M88.53,124.19a.31.31,0,1,0,.32.31A.31.31,0,0,0,88.53,124.19Z"/><path d="M112.47,66.46a1.1,1.1,0,0,0,.63-.67c.15-.47.06-.61-.43-.61h-3.51c-.18,0-.37.11-.5.07a5.49,5.49,0,0,0-1-.06c-.31,0-.55,0-.79,0s-.44.1-.39.46a1.16,1.16,0,0,0,.2.47,1.41,1.41,0,0,0,.39.34c.15.09.15.17,0,.26l-.2.13a1.09,1.09,0,0,0,0,1.7c.32.26.31.26,0,.53a1,1,0,0,0-.36,1.14,1.1,1.1,0,0,0,2,.29c.06-.08.09-.18.15-.28s0-.08.07-.08.07.06.09.11a1.19,1.19,0,0,0,.69.73c.13,0,.13.11,0,.17a1.17,1.17,0,0,0-.57.48c-.08.13-.08.23.11.23.57,0,1.14,0,1.72,0,.15,0,.18-.09.11-.21a1,1,0,0,0-.45-.43c-.27-.15-.27-.16,0-.3a1.28,1.28,0,0,0,.44-.39c.2-.29.2-.29.4,0,0,.06.09.11.13.16a1.09,1.09,0,0,0,1.36.13,1.06,1.06,0,0,0,.4-1.26,1,1,0,0,0-.59-.61s-.14,0-.15-.12.1-.1.16-.14l.14-.08a1.05,1.05,0,0,0,0-1.81.56.56,0,0,0-.17-.09C112.27,66.6,112.3,66.53,112.47,66.46Zm-4.46,0a1.38,1.38,0,0,0,.58-.68.35.35,0,0,1,.07-.09c.08,0,.08.06.1.1a1.14,1.14,0,0,0,.5.64s.11.07.11.15a.19.19,0,0,1-.09.12,1.22,1.22,0,0,0-.53.67s0,.09-.06.09-.08,0-.1-.1a1.38,1.38,0,0,0-.59-.67C107.86,66.61,107.89,66.52,108,66.46Zm1.27,2.47a1.18,1.18,0,0,0-.53.67s0,.06-.06.1l-.09-.09a1.35,1.35,0,0,0-.61-.7c-.1-.06-.12-.15,0-.21a1.45,1.45,0,0,0,.62-.7s0-.08.07-.08.07.06.09.1a1.18,1.18,0,0,0,.5.64C109.39,68.74,109.43,68.83,109.28,68.93Zm2.45,0a1.19,1.19,0,0,0-.63.56c-.08.16-.16.11-.22,0a1.31,1.31,0,0,0-.47-.52c-.14-.09-.13-.18,0-.27a1.19,1.19,0,0,0,.47-.52c.06-.13.14-.14.21,0a1.19,1.19,0,0,0,.6.55.19.19,0,0,1,.12.09C111.83,68.85,111.78,68.88,111.73,68.9Zm0-2.22a1.32,1.32,0,0,0-.63.58.18.18,0,0,1-.07.08.14.14,0,0,1-.12-.1,1.37,1.37,0,0,0-.49-.55c-.13-.08-.11-.17,0-.24a1.45,1.45,0,0,0,.49-.55c.06-.12.13-.12.19,0a1.23,1.23,0,0,0,.63.58C111.88,66.54,111.85,66.63,111.71,66.68Z"/><path d="M114.33,66.68a1,1,0,1,0,1,1A1,1,0,0,0,114.33,66.68Z"/><path d="M114.35,68.9a1,1,0,0,0-1,1,1,1,0,0,0,2,0A1,1,0,0,0,114.35,68.9Z"/><path d="M105.31,66.69a1,1,0,1,0,1,1A1.07,1.07,0,0,0,105.31,66.69Z"/><path d="M105.3,68.92a1,1,0,1,0,0,2,1.08,1.08,0,0,0,1-1A1.06,1.06,0,0,0,105.3,68.92Z"/><path d="M116.6,68.64a1,1,0,1,0-.92-1A.91.91,0,0,0,116.6,68.64Z"/><path d="M116.68,69a1,1,0,1,0-.07,1.9,1,1,0,0,0,.07-1.9Z"/><path d="M118.88,66.76a.94.94,0,0,0-.94.89.93.93,0,1,0,1.86.06A.94.94,0,0,0,118.88,66.76Z"/><path d="M118.87,69a.94.94,0,0,0-.93.89.93.93,0,1,0,1.86,0A.94.94,0,0,0,118.87,69Z"/><path d="M121.09,66.83a.86.86,0,0,0,0,1.72.86.86,0,1,0,0-1.72Z"/><path d="M103.05,66.84a.85.85,0,0,0,0,1.7.85.85,0,1,0,0-1.7Z"/><path d="M103.07,69.06a.85.85,0,1,0,.84.86A.82.82,0,0,0,103.07,69.06Z"/><path d="M115.05,65.18h-1.43c-.21,0-.31.08-.32.3a1,1,0,0,0,2,0C115.32,65.29,115.25,65.18,115.05,65.18Z"/><path d="M105.29,66.46a1.06,1.06,0,0,0,1-.91c0-.23-.06-.35-.29-.37s-.45,0-.68,0-.47,0-.71,0-.33.13-.3.36A1.06,1.06,0,0,0,105.29,66.46Z"/><path d="M115.68,65.52a1,1,0,0,0,1.9,0c0-.21-.08-.32-.3-.32h-.64c-.21,0-.42,0-.64,0S115.68,65.27,115.68,65.52Z"/><path d="M120.77,69.1a.83.83,0,0,0-.53.81.79.79,0,0,0,.29.67c.22.19.33.19.54,0l.68-.67c.22-.23.22-.35,0-.58A.94.94,0,0,0,120.77,69.1Z"/><path d="M123.13,66.87a.88.88,0,0,0-.64.88.85.85,0,0,0,.38.64.35.35,0,0,0,.53,0c.19-.21.4-.41.61-.61a.33.33,0,0,0,0-.49A.88.88,0,0,0,123.13,66.87Z"/><path d="M119.49,65.18h-1.27c-.2,0-.28.12-.28.31a.93.93,0,0,0,1.86,0C119.8,65.29,119.71,65.18,119.49,65.18Z"/><path d="M100.79,66.93a.76.76,0,1,0,.79.74A.8.8,0,0,0,100.79,66.93Z"/><path d="M100.81,69.15a.81.81,0,0,0-.76.74.8.8,0,0,0,.76.78.76.76,0,1,0,0-1.52Z"/><path d="M121.67,65.18h-1.15c-.2,0-.27.11-.28.3a.82.82,0,0,0,.89.84.81.81,0,0,0,.84-.85A.27.27,0,0,0,121.67,65.18Z"/><path d="M103.63,65.18h-1.15c-.2,0-.28.11-.29.3a.85.85,0,0,0,.86.84.84.84,0,0,0,.86-.84C103.9,65.29,103.83,65.18,103.63,65.18Z"/><path d="M123.91,65.18H122.8c-.22,0-.31.11-.31.32a.85.85,0,0,0,1.7,0C124.19,65.3,124.11,65.18,123.91,65.18Z"/><path d="M101.29,65.18c-.15,0-.29,0-.44,0h0c-.16,0-.32,0-.47,0s-.36.14-.32.39a.8.8,0,0,0,.74.65.78.78,0,0,0,.77-.66C101.6,65.32,101.52,65.2,101.29,65.18Z"/><path d="M98.51,69.29a.62.62,0,1,0,.61.63A.59.59,0,0,0,98.51,69.29Z"/><path d="M98.51,67.07a.58.58,0,0,0-.63.6.62.62,0,1,0,1.24,0A.58.58,0,0,0,98.51,67.07Z"/><path d="M125.69,65.18h0c-.15,0-.29,0-.44,0-.33,0-.42.11-.37.44a.71.71,0,0,0,.4.55.3.3,0,0,0,.37,0c.24-.22.48-.45.7-.69s.06-.27-.15-.29S125.86,65.18,125.69,65.18Z"/><path d="M107.52,71.12a1.06,1.06,0,0,0-.9.49c-.11.15-.06.25.13.25s.51,0,.76,0,.53,0,.79,0,.23-.11.13-.26A1.06,1.06,0,0,0,107.52,71.12Z"/><path d="M111.2,71.62c-.12.16-.08.23.12.24h1.51c.18,0,.25-.08.14-.24A1.06,1.06,0,0,0,111.2,71.62Z"/><path d="M98.72,65.18h-.2c-.1,0-.21,0-.32,0-.27,0-.34.11-.32.38a.59.59,0,0,0,.52.52.62.62,0,0,0,.68-.36C99.22,65.38,99.09,65.19,98.72,65.18Z"/><path d="M114.34,71.21a1,1,0,0,0-.85.41c-.09.13-.07.24.11.24s.47,0,.71,0,.48,0,.72,0,.21-.1.12-.23A1,1,0,0,0,114.34,71.21Z"/><path d="M96.25,67.16a.53.53,0,0,0-.51.54.51.51,0,0,0,.53.51.52.52,0,0,0,.52-.53A.53.53,0,0,0,96.25,67.16Z"/><path d="M96.25,69.39a.51.51,0,0,0-.51.53.52.52,0,0,0,.53.52.53.53,0,0,0,.52-.54A.51.51,0,0,0,96.25,69.39Z"/><path d="M105.3,71.23a.93.93,0,0,0-.81.42c-.11.16,0,.22.13.22h.68c.24,0,.47,0,.71,0s.16-.08.09-.19A1,1,0,0,0,105.3,71.23Z"/><path d="M115.85,71.63c-.11.16-.08.22.13.23h1.31c.06,0,.14,0,.17-.07s0-.12,0-.17A1,1,0,0,0,115.85,71.63Z"/><path d="M96.27,66a.53.53,0,0,0,.52-.5c0-.25-.09-.31-.51-.31s-.54,0-.54.29A.53.53,0,0,0,96.27,66Z"/><path d="M118.87,71.29a.93.93,0,0,0-.75.38c-.07.11,0,.18.09.19s.43,0,.64,0,.45,0,.67,0,.17-.08.09-.19A.9.9,0,0,0,118.87,71.29Z"/><path d="M102.39,71.67c-.07.1,0,.18.08.19s.39,0,.59,0h0c.19,0,.37,0,.56,0s.17-.09.09-.21A.88.88,0,0,0,102.39,71.67Z"/><path d="M94.06,67.26a.43.43,0,1,0,.4.45A.5.5,0,0,0,94.06,67.26Z"/><path d="M94,69.49a.46.46,0,0,0-.41.46.48.48,0,0,0,.44.39.47.47,0,0,0,.41-.47A.48.48,0,0,0,94,69.49Z"/><path d="M94,65.89a.46.46,0,0,0,.44-.42c0-.2-.14-.29-.43-.29s-.42.09-.42.29A.49.49,0,0,0,94,65.89Z"/><path d="M101.14,71.54a1.41,1.41,0,0,0-.27-.09.84.84,0,0,0-.57.22s-.08.08-.07.14.08,0,.13,0q.36,0,.72,0c.11,0,.28.07.31-.06S101.25,71.6,101.14,71.54Z"/><path d="M91.72,65.76a.29.29,0,1,0,0-.58c-.19,0-.29.1-.28.29A.27.27,0,0,0,91.72,65.76Z"/><path d="M91.72,69.62a.26.26,0,0,0-.3.28c0,.19.09.29.3.31a.28.28,0,0,0,.29-.29A.27.27,0,0,0,91.72,69.62Z"/><path d="M91.7,67.4a.26.26,0,0,0-.28.3c0,.19.11.28.3.28s.28-.11.29-.32A.27.27,0,0,0,91.7,67.4Z"/><path d="M75.9,65.19a.28.28,0,0,0,0,.55c.17,0,.26-.11.29-.3A.28.28,0,0,0,75.9,65.19Z"/><path d="M98.56,71.6a1.18,1.18,0,0,0-.27,0c-.09,0-.21.07-.21.16s.14.07.22.08h.28c.12,0,.32.08.33-.09S98.71,71.61,98.56,71.6Z"/><path d="M78.23,65.27a.18.18,0,0,0-.21.18c0,.12.06.19.2.21a.19.19,0,0,0,.19-.18A.19.19,0,0,0,78.23,65.27Z"/><path d="M89.46,69.71a.19.19,0,0,0-.18.21.18.18,0,0,0,.21.19.18.18,0,0,0,.18-.21C89.66,69.78,89.59,69.72,89.46,69.71Z"/><path d="M89.48,67.49a.18.18,0,0,0-.2.2.17.17,0,0,0,.19.19.19.19,0,0,0,.21-.19C89.66,67.57,89.6,67.49,89.48,67.49Z"/><path d="M78.21,67.49a.18.18,0,0,0-.19.2c0,.12.07.18.19.19s.2-.07.2-.19A.19.19,0,0,0,78.21,67.49Z"/><path d="M89.49,65.27a.2.2,0,1,0,0,.39c.13,0,.2-.06.22-.2A.18.18,0,0,0,89.49,65.27Z"/><path d="M75.91,67.41c-.08,0-.13,0-.14.08s.24.33.31.32.11-.07.1-.14A.28.28,0,0,0,75.91,67.41Z"/><path d="M96.36,71.69h-.08c-.1,0-.26,0-.26.1s.16,0,.24.08h.08c.07,0,.18,0,.18-.08S96.43,71.7,96.36,71.69Z"/><path d="M87.22,65.56a.1.1,0,1,0-.07-.11A.08.08,0,0,0,87.22,65.56Z"/><path d="M87.26,67.78a.09.09,0,0,0,.07-.11c0-.06,0-.08-.11-.08a.1.1,0,0,0-.08.12A.1.1,0,0,0,87.26,67.78Z"/><path d="M80.43,67.6a.08.08,0,0,0-.07.11.09.09,0,0,0,.11.07.09.09,0,0,0,.07-.11A.08.08,0,0,0,80.43,67.6Z"/><path d="M80.43,69.82a.08.08,0,0,0-.07.11.08.08,0,0,0,.11.07.09.09,0,1,0,0-.18Z"/><path d="M87.22,69.82a.09.09,0,0,0-.08.11c0,.06.06.09.12.07a.09.09,0,1,0,0-.18Z"/><path d="M80.43,65.37a.08.08,0,0,0-.07.11.09.09,0,0,0,.11.08.09.09,0,0,0,.07-.11A.09.09,0,0,0,80.43,65.37Z"/><path d="M94.08,71.79a.12.12,0,0,0-.14,0s0,0,0,0h.16S94.1,71.8,94.08,71.79Z"/><path d="M107.53,136.29a1,1,0,0,0-1,1,1,1,0,0,0,2,0A1,1,0,0,0,107.53,136.29Z"/><path d="M107.52,136a1,1,0,0,0,1-1,1,1,0,0,0-1-1,1,1,0,0,0-1,.95A1,1,0,0,0,107.52,136Z"/><path d="M109.87,136.31a1,1,0,0,0-1,1,1,1,0,1,0,1-1Z"/><path d="M109.84,134a1,1,0,1,0,1,1A1,1,0,0,0,109.84,134Z"/><path d="M105.3,136.38a.89.89,0,1,0,.88.88A.88.88,0,0,0,105.3,136.38Z"/><path d="M105.27,134.08a.89.89,0,1,0,.91.89A.88.88,0,0,0,105.27,134.08Z"/><path d="M112.08,138.15a.91.91,0,0,0,.88-.89.89.89,0,0,0-1.77,0A.91.91,0,0,0,112.08,138.15Z"/><path d="M112.06,135.85a.88.88,0,1,0-.87-.87A.92.92,0,0,0,112.06,135.85Z"/><path d="M103.06,135.75a.75.75,0,0,0,.77-.79.78.78,0,1,0-1.56,0A.75.75,0,0,0,103.06,135.75Z"/><path d="M114.31,135.76a.79.79,0,1,0-.79-.8A.84.84,0,0,0,114.31,135.76Z"/><path d="M114.3,138.06a.79.79,0,0,0,.8-.78.79.79,0,0,0-1.57,0A.79.79,0,0,0,114.3,138.06Z"/><path d="M103,136.49a.78.78,0,1,0,0,1.56.78.78,0,1,0,0-1.56Z"/><path d="M116.64,135.62A.65.65,0,1,0,116,135,.63.63,0,0,0,116.64,135.62Z"/><path d="M116.65,136.62a.65.65,0,1,0,0,1.3.61.61,0,0,0,.66-.64A.63.63,0,0,0,116.65,136.62Z"/><path d="M100.8,134.32a.65.65,0,1,0,.67.64A.66.66,0,0,0,100.8,134.32Z"/><path d="M100.8,136.62a.65.65,0,1,0,.67.63A.64.64,0,0,0,100.8,136.62Z"/><path d="M107.53,138.52a1,1,0,0,0-.92.57c0,.13,0,.18.12.18h1.59c.11,0,.17,0,.12-.17A.94.94,0,0,0,107.53,138.52Z"/><path d="M109.83,138.53a1,1,0,0,0-.88.59c0,.09,0,.15.1.15h1.56c.12,0,.18-.05.11-.17A1,1,0,0,0,109.83,138.53Z"/><path d="M98.49,134.42a.55.55,0,1,0,.57.55A.59.59,0,0,0,98.49,134.42Z"/><path d="M98.51,136.72a.59.59,0,0,0-.57.55.56.56,0,1,0,.57-.55Z"/><path d="M118.88,136.74a.54.54,0,0,0-.55.51.54.54,0,1,0,.55-.51Z"/><path d="M118.86,135.51a.54.54,0,1,0-.53-.57A.57.57,0,0,0,118.86,135.51Z"/><path d="M105.28,138.61a.86.86,0,0,0-.8.5c0,.08,0,.16.09.16H106c.16,0,.2-.06.13-.18A.89.89,0,0,0,105.28,138.61Z"/><path d="M112.08,139.27h.64c.17,0,.19-.06.12-.19a.83.83,0,0,0-.74-.46.81.81,0,0,0-.78.46c-.08.13,0,.18.12.19Z"/><path d="M96.72,137.29a.46.46,0,0,0-.91,0,.49.49,0,0,0,.45.47A.5.5,0,0,0,96.72,137.29Z"/><path d="M96.24,135.42a.45.45,0,1,0-.43-.45A.5.5,0,0,0,96.24,135.42Z"/><path d="M103.65,139.27c.11,0,.13-.08.07-.16a.75.75,0,0,0-.65-.4.79.79,0,0,0-.69.4c0,.08,0,.15.08.16h1.19Z"/><path d="M114.29,139.27h.6c.14,0,.16-.07.09-.18a.78.78,0,0,0-1.33,0c-.07.11-.05.17.09.18Z"/><path d="M78.62,137.28a.41.41,0,0,0-.39-.41.41.41,0,1,0,0,.81A.42.42,0,0,0,78.62,137.28Z"/><path d="M94,135.31a.34.34,0,1,0,0-.68.31.31,0,0,0-.34.35A.3.3,0,0,0,94,135.31Z"/><path d="M121.09,135.3a.3.3,0,0,0,.35-.33.34.34,0,0,0-.67,0A.3.3,0,0,0,121.09,135.3Z"/><path d="M121.07,137.61a.31.31,0,0,0,.37-.31.3.3,0,0,0-.32-.36.3.3,0,0,0-.35.29A.31.31,0,0,0,121.07,137.61Z"/><path d="M94.36,137.27a.29.29,0,0,0-.34-.33.29.29,0,0,0-.33.31.34.34,0,1,0,.67,0Z"/><path d="M116.09,139.11c-.07.09-.06.15.06.16h1c.1,0,.1-.07.06-.14A.67.67,0,0,0,116.09,139.11Z"/><path d="M100.81,139.27h.24c.11,0,.28.07.3-.08s-.12-.2-.21-.25a.6.6,0,0,0-.68,0,1.09,1.09,0,0,0-.19.27l.27.05Z"/><path d="M80.47,135.26a.29.29,0,0,0,0-.58.34.34,0,0,0-.28.29A.33.33,0,0,0,80.47,135.26Z"/><path d="M80.74,137.28a.34.34,0,0,0-.31-.3.36.36,0,0,0-.27.3.33.33,0,0,0,.29.28A.35.35,0,0,0,80.74,137.28Z"/><path d="M98.69,139.27l.24-.06a1.07,1.07,0,0,0-.18-.19.41.41,0,0,0-.48,0,2.18,2.18,0,0,0-.21.22l.27,0h.36Z"/><path d="M92,137.27a.24.24,0,0,0-.26-.25.25.25,0,0,0-.24.26.24.24,0,0,0,.26.24A.24.24,0,0,0,92,137.27Z"/><path d="M91.81,135.22a.25.25,0,1,0-.27-.23A.25.25,0,0,0,91.81,135.22Z"/><path d="M91.78,133a.24.24,0,0,0,.26-.25.25.25,0,0,0-.5,0A.25.25,0,0,0,91.78,133Z"/><path d="M119.29,139.2c-.09-.07-.17-.18-.27-.2a1,1,0,0,0-.41,0c-.07,0-.11.12-.17.19l.23,0h.1a1,1,0,0,0-.43.26,1,1,0,0,0-.29.76.9.9,0,0,0,.31.71.78.78,0,0,0,.75.29.79.79,0,0,0,.72-.28,1,1,0,0,0,.32-.72,1,1,0,0,0-.29-.76,1,1,0,0,0-.7-.31Z"/><path d="M75.94,139.27H76c.11,0,.32.09.32-.09s-.2-.19-.35-.18a1.11,1.11,0,0,0-.3.08s-.06.07-.09.11a.44.44,0,0,0,.15.08Z"/><path d="M121,143.76a1,1,0,0,0-.74.61,1,1,0,0,0,.08,1,.84.84,0,0,0,.63.49.24.24,0,0,1,.08.06.27.27,0,0,1-.08.1.66.66,0,0,1-.15,0,1.12,1.12,0,0,0-.58,1.33,3.22,3.22,0,0,0,.29.48c.16.19.35.14.54.15h.68c.06,0,.14,0,.18,0s.38-.31.41-.58c0,0,.06-.06.09-.09s.06.06.06.08a.87.87,0,0,0,.28.49c.15.19.35.14.54.15H124c.06,0,.14,0,.18,0s.38-.31.4-.58c0,0,.06-.06.1-.09l.06.08a.87.87,0,0,0,.28.49c.15.19.34.14.54.15h.63c.27,0,.38-.11.38-.37s0-.72,0-1.08a.48.48,0,0,0-.37-.54h-.16a.14.14,0,0,1,0-.07s0-.06,0-.06a.77.77,0,0,0,.15,0,.48.48,0,0,0,.37-.54c0-.36,0-.72,0-1.07a.32.32,0,0,0-.17-.33,2.06,2.06,0,0,0-.26-.12,0,0,0,0,0,0,0,.43.43,0,0,1-.09-.1s0,0,.07-.06c.48-.15.49-.16.49-.64v-.35a4,4,0,0,1,0-.6.35.35,0,0,0-.21-.39,1.37,1.37,0,0,0-.52-.16,1.08,1.08,0,0,0-.86.33.73.73,0,0,0-.25.46l-.06.08s-.09-.06-.1-.09a.78.78,0,0,0-.29-.48,1.08,1.08,0,0,0-1.79.47s-.06.07-.09.1-.06-.05-.07-.08a1,1,0,0,0-1.39-.72,1.07,1.07,0,0,0-.76,1,1.05,1.05,0,0,0,.81,1.09s.06,0,.06.07S121.06,143.76,121,143.76Zm2.84-.15a.65.65,0,0,0,.46-.25c.13-.14.28-.27.27-.48,0,0,0,0,.08-.06s.06,0,.06,0a.92.92,0,0,0,.78.78s0,0,0,.09l-.11.06a.91.91,0,0,0-.7.71s0,.05-.06.08-.09-.05-.1-.08c0-.36-.32-.53-.59-.7,0,0-.11,0-.16,0a.11.11,0,0,1,0-.08S123.86,143.61,123.88,143.61Zm0,2.22a1,1,0,0,0,.71-.59s0-.1,0-.15a.13.13,0,0,1,.09-.05.23.23,0,0,1,.07.07.61.61,0,0,0,.25.45.65.65,0,0,0,.48.28s0,0,.06.07,0,.06,0,.07a.9.9,0,0,0-.78.77s0,0-.09.05a.39.39,0,0,1-.06-.11.91.91,0,0,0-.72-.7s0-.06-.08-.1S123.86,145.84,123.89,145.83Zm-2.24-2.22a.92.92,0,0,0,.72-.7s.06-.06.09-.1l.07.07a.89.89,0,0,0,.73.73.59.59,0,0,1,.14.11l-.13.05a.88.88,0,0,0-.74.71.24.24,0,0,1-.06.08s-.08-.05-.09-.09a1,1,0,0,0-.72-.71s-.06-.06-.09-.09S121.62,143.62,121.65,143.61Zm0,2.23a.94.94,0,0,0,.7-.72s0-.05.06-.08.09.05.1.08a.93.93,0,0,0,.71.72s.06,0,.09.08a.16.16,0,0,1-.07.07.89.89,0,0,0-.73.73s0,.05-.08.09-.07-.06-.08-.09a.87.87,0,0,0-.72-.73s-.05-.05-.08-.07S121.63,145.85,121.67,145.84Z"/><path d="M121.27,141.38a1.06,1.06,0,0,0,1.1-.8.23.23,0,0,1,.07-.07.15.15,0,0,1,.09.05c0,.24.14.37.29.52a1.08,1.08,0,0,0,1.79-.48s.06-.06.1-.09.05.05.06.08a1,1,0,0,0,.66.72,1.1,1.1,0,0,0,1-.1.34.34,0,0,0,.21-.38,3.49,3.49,0,0,1,0-.56,5.8,5.8,0,0,1,0-.59.31.31,0,0,0-.15-.3.51.51,0,0,0-.38-.14h-.52a.52.52,0,0,0-.44.17c-.17.16-.36.3-.36.57,0,0-.05.05-.08.05s-.06,0-.07-.07c-.25-.84-.88-.8-1.55-.65a.47.47,0,0,0-.19.11c-.16.16-.35.31-.34.57,0,0,0,0-.06,0l-.09,0c0-.27-.19-.41-.35-.58a.52.52,0,0,0-.41-.17c-.3,0-.63-.09-.91.11a1.11,1.11,0,0,0-.42,1.27A1.12,1.12,0,0,0,121.27,141.38Z"/><path d="M119.85,144.07a.9.9,0,0,0-.71-.31,1,1,0,0,0-.77.28,1,1,0,0,0-.32.75,1,1,0,0,0,.31.75.93.93,0,0,0,.72.3,1,1,0,0,0,.76-.3.82.82,0,0,0,.3-.72C120.14,144.36,120.13,144.37,119.85,144.07Z"/><path d="M119.85,141.85a1,1,0,0,0-.71-.32,1,1,0,0,0-.77.29,1,1,0,0,0,.71,1.8,1,1,0,0,0,.76-.3.82.82,0,0,0,.29-.76A.74.74,0,0,0,119.85,141.85Z"/><path d="M119.58,146.07a.5.5,0,0,0-.37-.08c-.19,0-.38-.05-.57.08a1.55,1.55,0,0,0-.52.53c-.11.19,0,.38-.06.57a.59.59,0,0,0,.19.48c.31.33.31.33.77.33h.48a.37.37,0,0,0,.15,0,1.09,1.09,0,0,0-.07-1.87Z"/><path d="M116.76,141.24a1,1,0,0,0,1-1,.94.94,0,0,0-.93-1,1,1,0,0,0-1,1A1,1,0,0,0,116.76,141.24Z"/><path d="M116.79,146.06a1,1,0,1,0,0,1.93,1,1,0,0,0,0-1.93Z"/><path d="M116.82,143.84a1,1,0,1,0-.07,1.92,1,1,0,1,0,.07-1.92Z"/><path d="M116.79,141.61a1,1,0,1,0,0,1.93,1,1,0,0,0,0-1.93Z"/><path d="M113.66,140.27a.81.81,0,0,0,.25.61.79.79,0,0,0,.61.27.85.85,0,0,0,.9-.87.66.66,0,0,0-.24-.62.81.81,0,0,0-.61-.27A.89.89,0,0,0,113.66,140.27Z"/><path d="M115.17,144.19a.76.76,0,0,0-.6-.27.83.83,0,0,0-.65.27.85.85,0,0,0,0,1.22.8.8,0,0,0,.6.27.83.83,0,0,0,.65-.27.63.63,0,0,0,.25-.58A.68.68,0,0,0,115.17,144.19Z"/><path d="M113.66,142.59a.83.83,0,0,0,.26.61.88.88,0,1,0-.26-.61Z"/><path d="M114.53,146.15c-.22-.06-.41.07-.6.25a.8.8,0,0,0-.27.6.88.88,0,0,0,.85.9.79.79,0,0,0,.65-.25.81.81,0,0,0,.27-.61A.88.88,0,0,0,114.53,146.15Z"/><path d="M112.29,139.48a.76.76,0,0,0-.77.82.75.75,0,0,0,.79.76.79.79,0,1,0,0-1.58Z"/><path d="M112.31,144a.79.79,0,0,0-.8.76.78.78,0,0,0,.77.82.79.79,0,1,0,0-1.58Z"/><path d="M113.11,142.58a.76.76,0,0,0-.77-.79.77.77,0,0,0-.83.76.8.8,0,0,0,.79.82A.79.79,0,0,0,113.11,142.58Z"/><path d="M112.3,146.23a.78.78,0,0,0-.79.78.79.79,0,0,0,.79.81.8.8,0,1,0,0-1.59Z"/><path d="M110,141a.74.74,0,0,0,.73-.72.72.72,0,0,0-.73-.71.74.74,0,0,0-.71.69A.75.75,0,0,0,110,141Z"/><path d="M110,144.08a.75.75,0,0,0-.74.71.72.72,0,1,0,.74-.71Z"/><path d="M110,146.31a.74.74,0,0,0-.73.72.75.75,0,0,0,.69.71.72.72,0,1,0,0-1.43Z"/><path d="M110,141.86a.72.72,0,1,0,.72.72A.74.74,0,0,0,110,141.86Z"/><path d="M108.23,139.85a.77.77,0,0,0-.47-.22.68.68,0,0,0-.44.19c-.11.07-.16.27-.2.42a.6.6,0,0,0,.19.47.78.78,0,0,0,.43.19c.18,0,.34-.1.47-.19s.14-.27.21-.43A1.22,1.22,0,0,0,108.23,139.85Z"/><path d="M108.21,144.36c-.13-.1-.29-.24-.48-.19a.85.85,0,0,0-.43.19c-.09.13-.22.29-.18.47s.09.36.2.43.26.2.44.18a.83.83,0,0,0,.47-.22,1.3,1.3,0,0,0,.19-.43C108.35,144.63,108.32,144.43,108.21,144.36Z"/><path d="M107.79,146.39a.61.61,0,0,0-.48.19c-.11.07-.15.27-.19.42s.1.34.19.47.28.14.44.21.34-.08.43-.19a.77.77,0,0,0,.22-.46.68.68,0,0,0-.19-.44C108.14,146.48,107.94,146.43,107.79,146.39Z"/><path d="M107.75,141.91a1.54,1.54,0,0,0-.46.24.68.68,0,0,0-.16.44.59.59,0,0,0,.18.43.61.61,0,0,0,.47.19,1,1,0,0,0,.43-.19,1,1,0,0,0,.18-.44c0-.17-.09-.32-.17-.44S107.92,142,107.75,141.91Z"/><path d="M106.08,140.27a.56.56,0,0,0-1.12,0,.63.63,0,0,0,.55.58A.62.62,0,0,0,106.08,140.27Z"/><path d="M105.5,144.24a.64.64,0,0,0-.54.59.63.63,0,0,0,.6.53.65.65,0,0,0,.52-.57A.63.63,0,0,0,105.5,144.24Z"/><path d="M105.53,146.47a.62.62,0,0,0-.57.55.64.64,0,0,0,.53.56.61.61,0,0,0,.59-.54A.62.62,0,0,0,105.53,146.47Z"/><path d="M105.49,142a.63.63,0,0,0-.53.59.64.64,0,0,0,.57.52.62.62,0,0,0,.55-.57A.61.61,0,0,0,105.49,142Z"/><path d="M75.75,140.66c.12.1.28.06.37.17.11-.1.26-.06.38-.16s.07-.3.2-.39c-.12-.12,0-.33-.21-.41s-.27-.17-.37-.14-.31,0-.39.19-.11.25-.16.37C75.7,140.38,75.62,140.56,75.75,140.66Z"/><path d="M76.49,144.4c-.13-.06-.28-.17-.37-.14s-.32,0-.4.19-.1.25-.15.38c.13.08.06.26.19.37s.27.05.37.16c.11-.12.32,0,.4-.2l.18-.39C76.55,144.7,76.65,144.47,76.49,144.4Z"/><path d="M76.16,146.47c-.13.05-.26.09-.38.15s-.15.26-.19.39.08.25.14.37.28.1.41.21c.08-.13.25-.06.36-.17s.08-.29.19-.4c-.11-.1-.07-.25-.16-.37S76.24,146.6,76.16,146.47Z"/><path d="M76.13,143.14c.12-.12.32,0,.4-.21s.17-.26.14-.36,0-.32-.19-.4-.25-.1-.37-.15c-.09.13-.27,0-.37.18s-.06.27-.17.37c.1.1.06.26.16.37S76,143,76.13,143.14Z"/><path d="M103.28,144.32a.49.49,0,0,0-.47.48.48.48,0,1,0,.47-.48Z"/><path d="M103.28,146.55a.48.48,0,1,0,.48.47A.49.49,0,0,0,103.28,146.55Z"/><path d="M103.28,142.1a.48.48,0,0,0-.47.48.48.48,0,0,0,.48.47.48.48,0,0,0,.47-.48A.48.48,0,0,0,103.28,142.1Z"/><path d="M103.29,139.79a.49.49,0,0,0-.48.48.48.48,0,0,0,.47.48.49.49,0,0,0,.48-.47A.49.49,0,0,0,103.29,139.79Z"/><path d="M78.47,139.87c-.3,0-.42.1-.42.37s.09.43.4.43.39-.11.4-.39S78.74,139.88,78.47,139.87Z"/><path d="M78.39,144.4c-.32,0-.42.11-.42.41s.11.39.4.39.4-.11.4-.39S78.66,144.41,78.39,144.4Z"/><path d="M78.35,146.63c-.28,0-.38.11-.38.4s.11.39.4.39.4-.1.4-.42S78.64,146.62,78.35,146.63Z"/><path d="M78.36,142.18c-.3,0-.4.11-.39.43s.11.37.42.36.38-.12.38-.41S78.65,142.18,78.36,142.18Z"/><path d="M101,139.87a.41.41,0,0,0-.42.37.4.4,0,0,0,.39.43.41.41,0,0,0,.41-.38A.42.42,0,0,0,101,139.87Z"/><path d="M100.57,144.78a.4.4,0,1,0,.41-.38A.41.41,0,0,0,100.57,144.78Z"/><path d="M101,143a.41.41,0,0,0,.41-.38.41.41,0,0,0-.38-.41.41.41,0,0,0-.42.36A.4.4,0,0,0,101,143Z"/><path d="M101,146.63a.4.4,0,0,0-.38.4.4.4,0,1,0,.8,0A.38.38,0,0,0,101,146.63Z"/><path d="M98.73,140a.32.32,0,0,0,0,.64.32.32,0,0,0,.33-.34A.33.33,0,0,0,98.73,140Z"/><path d="M98.75,142.26a.32.32,0,0,0-.34.33.33.33,0,0,0,.32.3.32.32,0,0,0,.32-.31A.31.31,0,0,0,98.75,142.26Z"/><path d="M98.76,144.48a.32.32,0,1,0,0,.64.32.32,0,0,0,0-.64Z"/><path d="M98.74,146.71a.34.34,0,0,0-.33.3.32.32,0,0,0,.34.33.32.32,0,0,0,0-.63Z"/><path d="M80.71,140.51c.15,0,.22-.09.21-.26s-.08-.22-.24-.22-.25.09-.24.28S80.54,140.52,80.71,140.51Z"/><path d="M96.5,140c-.16,0-.24.06-.24.22s.06.27.25.26.23-.07.23-.24S96.67,140,96.5,140Z"/><path d="M96.5,142.34c-.16,0-.24.06-.24.22s.06.26.25.25.23-.07.23-.24S96.67,142.34,96.5,142.34Z"/><path d="M96.52,144.56c-.2,0-.27.06-.26.25s.07.23.24.23.23-.07.24-.23S96.68,144.57,96.52,144.56Z"/><path d="M80.44,144.8c0,.17.07.24.24.24s.24-.06.24-.22-.06-.25-.21-.26S80.44,144.62,80.44,144.8Z"/><path d="M80.7,142.34c-.19,0-.26.06-.26.25s.08.22.24.22.24-.06.24-.23S80.86,142.34,80.7,142.34Z"/><path d="M80.66,146.79c-.16,0-.22.08-.22.24s.1.25.28.23.21-.1.2-.27S80.83,146.78,80.66,146.79Z"/><path d="M96.49,146.79c-.17,0-.23.07-.23.23s.08.26.27.24.21-.09.21-.26S96.66,146.78,96.49,146.79Z"/><path d="M94.2,144.56s-.29.19-.25.24.14.22.23.22.17-.12.28-.2A3.18,3.18,0,0,0,94.2,144.56Z"/><path d="M94.2,142.8c.06,0,.16-.14.26-.23-.11-.09-.19-.22-.28-.22s-.16.14-.24.21C94,142.65,94.1,142.77,94.2,142.8Z"/><path d="M94.2,140s-.29.18-.25.23.14.22.23.22.17-.12.28-.2A2,2,0,0,0,94.2,140Z"/><path d="M94,147s.2.27.25.24a2,2,0,0,0,.26-.25c-.11-.09-.2-.21-.28-.21S94,146.93,94,147Z"/><path d="M91.78,140.27c0,.11,0,.17.15.16s.17,0,.17-.17,0-.16-.14-.15S91.79,140.11,91.78,140.27Z"/><path d="M91.94,142.41c-.11,0-.17,0-.16.15s0,.17.17.18.18,0,.15-.14S92.11,142.42,91.94,142.41Z"/><path d="M92,144.64c-.17,0-.16,0-.17.18s0,.15.16.14.16,0,.17-.18S92.06,144.62,92,144.64Z"/><path d="M92,146.87c-.19,0-.18,0-.19.16s0,.16.15.16.17,0,.18-.17S92.1,146.84,92,146.87Z"/></svg>