<svg xmlns="http://www.w3.org/2000/svg" viewBox="0 0 200 200"><path d="M91.51,64.43c-.22,0-.41.19-.57.56a2.68,2.68,0,0,0-.23.9V98.1a3.94,3.94,0,0,0,.5,2.19,2.39,2.39,0,0,0,1.69.93c.76.13,1.3.24,1.63.33s.5.4.5.93Q95,104,93.77,104a21.22,21.22,0,0,1-2.26-.27,39.34,39.34,0,0,0-5.18-.26,39.34,39.34,0,0,0-5.18.26,21.52,21.52,0,0,1-2.26.27c-.84,0-1.26-.49-1.26-1.46,0-.49.14-.8.43-.93a7.16,7.16,0,0,1,1.5-.4,3.19,3.19,0,0,0,1.82-.86,3.87,3.87,0,0,0,.5-2.33V66a2.74,2.74,0,0,0-.23-1c-.16-.37-.35-.56-.57-.56h-.79a3.91,3.91,0,0,0-2.69,1A15.61,15.61,0,0,0,75.37,68a21,21,0,0,0-2.12,3.48c-.4.91-.89,1.37-1.46,1.37s-.93-.38-.93-1.13A15.67,15.67,0,0,1,71.32,69q.47-2,1.2-6c.26-1.1.47-2.08.63-2.92s.5-1.26,1-1.26a.67.67,0,0,1,.53.23,2.24,2.24,0,0,1,.33.57c.09.22.17.43.23.63a.63.63,0,0,0,.23.36,1.49,1.49,0,0,0,.54.93,1.74,1.74,0,0,0,.93.2l.89,0q.49,0,1.23,0H93.37c1.68,0,3-.05,4-.14s1.62-.33,1.79-.73a.64.64,0,0,0,.6-.36c.13-.25.27-.52.4-.83a4.36,4.36,0,0,1,.46-.83.92.92,0,0,1,.8-.37c.31,0,.55.2.73.6a2.5,2.5,0,0,1,.27.93,33.39,33.39,0,0,1-.3,4c-.2,1.62-.37,3.64-.5,6.08a10.58,10.58,0,0,1-.4,2.26,1,1,0,0,1-1,.79q-.87,0-1.2-1.26a30.1,30.1,0,0,0-1.39-3.72,9.17,9.17,0,0,0-1.76-2.62,3.82,3.82,0,0,0-2.83-1Z"/><path d="M117.11,74.22a12.61,12.61,0,0,1,4.62,3.29,14.85,14.85,0,0,1,2.85,5.11,20.59,20.59,0,0,1,1,6.58,19.67,19.67,0,0,1-1,6.51,14,14,0,0,1-3,5,13.07,13.07,0,0,1-4.78,3.22,17,17,0,0,1-6.34,1.13,13.83,13.83,0,0,1-5.75-1.16,12.86,12.86,0,0,1-4.41-3.29,14.66,14.66,0,0,1-2.86-5.08,20.27,20.27,0,0,1-1-6.47,19.17,19.17,0,0,1,1.07-6.54,14.83,14.83,0,0,1,3-5A13.12,13.12,0,0,1,105,74.22a14.8,14.8,0,0,1,5.88-1.16A16,16,0,0,1,117.11,74.22Zm-10.63,4.32q-1.56,3-1.56,8.8,0,7.36,1.86,11.32c1.24,2.64,2.79,4,4.65,4,1.68,0,3-1,4-3s1.53-5,1.53-8.83q0-7.24-1.83-11.23t-4.61-4C108.89,75.52,107.52,76.53,106.48,78.54Z"/><path d="M139.52,76.71c0,.45.07.67.2.67s.31-.13.53-.4l.6-.8c1.46-1.86,3.06-2.79,4.78-2.79a4.57,4.57,0,0,1,3.46,1.4,5.1,5.1,0,0,1,1.32,3.65,5.71,5.71,0,0,1-1.19,3.89,3.85,3.85,0,0,1-3,1.36,3.07,3.07,0,0,1-2-.6,6.89,6.89,0,0,1-1.29-1.3c-.36-.46-.68-.89-1-1.29a1.16,1.16,0,0,0-.89-.6c-.89,0-1.33,1.11-1.33,3.32V97.45a11.19,11.19,0,0,0,.16,2.22,1.9,1.9,0,0,0,.9,1.23,1.87,1.87,0,0,0,1,.36c.35,0,.67.06,1,.1a1.55,1.55,0,0,1,.73.3,1.17,1.17,0,0,1,.3,1c0,.79-.24,1.19-.73,1.19s-1.15-.08-2.39-.23a41.48,41.48,0,0,0-5.05-.24,39.87,39.87,0,0,0-5,.24c-1.2.15-1.95.23-2.26.23a.89.89,0,0,1-.73-.33,1.32,1.32,0,0,1-.26-.86,1.18,1.18,0,0,1,.26-.9,1.68,1.68,0,0,1,.67-.33,4.44,4.44,0,0,1,.86-.13,2.88,2.88,0,0,0,.93-.23,2.07,2.07,0,0,0,1.16-1.23,8.53,8.53,0,0,0,.23-2.35V84.06q0-.33,0-.66c0-.22,0-.49,0-.8a3.48,3.48,0,0,0-.27-1.49,1.71,1.71,0,0,0-1.06-.83A13,13,0,0,0,128.5,80c-.44,0-.67-.37-.67-1a1.22,1.22,0,0,1,.34-.93,2.3,2.3,0,0,1,.93-.53c.39-.13.87-.28,1.42-.43a12.24,12.24,0,0,0,1.83-.7A13.13,13.13,0,0,0,134.71,75a19.87,19.87,0,0,0,1.66-1.39c.46-.44.86-.81,1.19-1.09a1.52,1.52,0,0,1,1-.43c.48,0,.77.15.86.46a4.43,4.43,0,0,1,.13,1.2Z"/><path d="M162.63,76.71c0,.45.07.67.2.67s.31-.13.53-.4l.6-.8c1.46-1.86,3.06-2.79,4.78-2.79a4.57,4.57,0,0,1,3.46,1.4,5.1,5.1,0,0,1,1.32,3.65,5.76,5.76,0,0,1-1.19,3.89,3.85,3.85,0,0,1-3,1.36,3.07,3.07,0,0,1-2-.6,6.89,6.89,0,0,1-1.29-1.3c-.36-.46-.68-.89-1-1.29a1.16,1.16,0,0,0-.89-.6c-.89,0-1.33,1.11-1.33,3.32V97.45a11.19,11.19,0,0,0,.16,2.22,1.9,1.9,0,0,0,.9,1.23,1.87,1.87,0,0,0,1,.36c.35,0,.67.06,1,.1a1.55,1.55,0,0,1,.73.3,1.17,1.17,0,0,1,.3,1c0,.79-.25,1.19-.73,1.19s-1.15-.08-2.39-.23a41.48,41.48,0,0,0-5.05-.24,39.87,39.87,0,0,0-5,.24c-1.2.15-2,.23-2.26.23a.89.89,0,0,1-.73-.33,1.32,1.32,0,0,1-.26-.86,1.18,1.18,0,0,1,.26-.9,1.68,1.68,0,0,1,.67-.33,4.44,4.44,0,0,1,.86-.13,2.88,2.88,0,0,0,.93-.23,2.07,2.07,0,0,0,1.16-1.23,8.53,8.53,0,0,0,.23-2.35V84.06q0-.33,0-.66c0-.22,0-.49,0-.8a3.48,3.48,0,0,0-.27-1.49,1.71,1.71,0,0,0-1.06-.83,13,13,0,0,0-1.66-.33c-.44,0-.67-.37-.67-1a1.22,1.22,0,0,1,.34-.93,2.3,2.3,0,0,1,.93-.53c.39-.13.87-.28,1.42-.43a12.24,12.24,0,0,0,1.83-.7A13.13,13.13,0,0,0,157.82,75a19.87,19.87,0,0,0,1.66-1.39c.46-.44.86-.81,1.19-1.09a1.52,1.52,0,0,1,1-.43c.48,0,.77.15.86.46a4.43,4.43,0,0,1,.13,1.2Z"/><path d="M183.22,85.75c-.71,0-1.06.39-1.06,1.19v1.73a16.41,16.41,0,0,0,.66,4.81,11.23,11.23,0,0,0,1.86,3.69,8.4,8.4,0,0,0,2.86,2.36,7.92,7.92,0,0,0,3.58.83,6.05,6.05,0,0,0,2.69-.54,10,10,0,0,0,1.89-1.16A14.14,14.14,0,0,0,197,97.5a1.52,1.52,0,0,1,1-.53.89.89,0,0,1,.69.33,1.23,1.23,0,0,1,.3.86,3.46,3.46,0,0,1-.86,1.76,11.22,11.22,0,0,1-2.42,2.3,17.55,17.55,0,0,1-3.72,2,12.79,12.79,0,0,1-4.75.86,13.36,13.36,0,0,1-5.55-1.16,12.65,12.65,0,0,1-4.38-3.29,15.31,15.31,0,0,1-2.85-5.08,19.47,19.47,0,0,1-1-6.47,19.17,19.17,0,0,1,1.06-6.54,15,15,0,0,1,2.95-5A13.28,13.28,0,0,1,182,74.22a14.66,14.66,0,0,1,5.91-1.16,11.83,11.83,0,0,1,4.65.87,10.55,10.55,0,0,1,3.52,2.35,10.27,10.27,0,0,1,2.23,3.42,11.12,11.12,0,0,1,.76,4,1.85,1.85,0,0,1-.56,1.56,3,3,0,0,1-1.83.44Zm7.3-3.35a2.64,2.64,0,0,0,1.27-2.54,4.49,4.49,0,0,0-1.1-3.16,3.59,3.59,0,0,0-2.76-1.18A4.73,4.73,0,0,0,184.51,77a7.14,7.14,0,0,0-1.82,4.38l-.14,1.12v.13c0,.31.25.46.74.46h3.45A8.1,8.1,0,0,0,190.52,82.4Z"/><path d="M103.3,109.18a4.73,4.73,0,0,1,2,3.86,3.92,3.92,0,0,1-1,2.72,3.26,3.26,0,0,1-2.55,1.06,3.2,3.2,0,0,1-2.36-.83,10.68,10.68,0,0,1-1.76-2.62c-.36-.76-.63-1.41-.83-2a1.28,1.28,0,0,0-1.36-.83c-.49,0-1.16.46-2,1.39a17.39,17.39,0,0,0-2.52,3.75,30.86,30.86,0,0,0-2.16,5.52,23.71,23.71,0,0,0-.93,6.74,8.52,8.52,0,0,0,1.46,5.28A4.57,4.57,0,0,0,93,135.15a6.06,6.06,0,0,0,3.38-1.1,22.63,22.63,0,0,0,3.66-3.15c.48-.49.86-.87,1.13-1.16a1.09,1.09,0,0,1,.79-.43c.49,0,.73.28.73.86q0,1.2-2.19,3.85A17.4,17.4,0,0,1,95,138.57a13.79,13.79,0,0,1-6.28,1.56,8.87,8.87,0,0,1-7-3.09Q79,134,79,128.51a20.27,20.27,0,0,1,1.5-7.64,21.41,21.41,0,0,1,4.35-6.77,20.19,20.19,0,0,1,3-2.73,23.75,23.75,0,0,1,3.36-2,18.1,18.1,0,0,1,3.35-1.26,12.16,12.16,0,0,1,3.06-.43A9,9,0,0,1,103.3,109.18Z"/><path d="M114.29,127.45v.79a9.07,9.07,0,0,0,1.43,5.51,4.55,4.55,0,0,0,3.88,1.93,6.61,6.61,0,0,0,3.25-1,15,15,0,0,0,3.66-3.09c.57-.62,1-1.13,1.33-1.52a1.22,1.22,0,0,1,.92-.6c.49,0,.74.29.74.86,0,.8-.74,2.08-2.2,3.85a17.06,17.06,0,0,1-5.54,4.55,13.79,13.79,0,0,1-6.28,1.56,8.87,8.87,0,0,1-7-3.09c-1.82-2-2.72-4.9-2.72-8.53a20.56,20.56,0,0,1,1.89-8.6A21.41,21.41,0,0,1,119,109.12a16.18,16.18,0,0,1,6.14-1.26,8,8,0,0,1,5.78,2,7.06,7.06,0,0,1,2.06,5.31A8.25,8.25,0,0,1,128.4,123a22.38,22.38,0,0,1-5.81,2.12,78.87,78.87,0,0,1-8.24,1.43A6.82,6.82,0,0,0,114.29,127.45Zm.79-3.46a8.71,8.71,0,0,0,4-.93,10.56,10.56,0,0,0,3.19-2.49,11.45,11.45,0,0,0,2.09-3.48,10.93,10.93,0,0,0,.73-3.92,3.91,3.91,0,0,0-.5-2.13,1.47,1.47,0,0,0-1.29-.79c-1.42,0-2.93,1.15-4.55,3.45s-3,5.73-4,10.29Z"/><path d="M136.53,138.8c-.09,0-.2-.09-.33-.26a.93.93,0,0,1-.2-.54v-.33a2.17,2.17,0,0,1,.14-.66l4.31-19.86a17.53,17.53,0,0,0,.4-2.52q0-1.2-.6-1.2a1.81,1.81,0,0,0-1.33.87,18.87,18.87,0,0,0-1.26,1.86c-.4.66-.78,1.28-1.16,1.86s-.72.86-1,.86-.66-.29-.66-.86a7.63,7.63,0,0,1,.73-1.93,17.64,17.64,0,0,1,2.39-3.65,15.63,15.63,0,0,1,3.65-3.46,6.34,6.34,0,0,1,3.32-1.12,2.91,2.91,0,0,1,2.33,1,4.54,4.54,0,0,1,.86,3,19.59,19.59,0,0,1-.3,3.42c-.2,1.13-.41,2.22-.63,3.29l-.6,3a48.39,48.39,0,0,1,5.38-10.32q2.59-3.5,5.38-3.49a3.45,3.45,0,0,1,2.79,1.19,5.19,5.19,0,0,1,1,3.39,7.67,7.67,0,0,1-1.2,4.58,3.51,3.51,0,0,1-2.92,1.66c-1.42,0-2.3-.88-2.66-2.65-.09-.62-.15-1.11-.2-1.46s-.2-.54-.46-.54c-.62,0-1.62,1.16-3,3.46a55.45,55.45,0,0,0-4.32,10.16c-.75,2.21-1.32,4-1.69,5.51s-.69,2.61-.93,3.45a5.32,5.32,0,0,1-.76,1.76,1.43,1.43,0,0,1-1.2.5Z"/><path d="M182.82,108.78a10.32,10.32,0,0,1,3.65,2.69,12.74,12.74,0,0,1,2.39,4.29,17.21,17.21,0,0,1,.87,5.64,18.51,18.51,0,0,1-1.4,7.11,20.31,20.31,0,0,1-3.75,6,18.1,18.1,0,0,1-5.51,4.11,15,15,0,0,1-6.61,1.53,10.83,10.83,0,0,1-4.71-1,10.63,10.63,0,0,1-3.62-2.72,12.41,12.41,0,0,1-2.33-4.15,16.54,16.54,0,0,1-.83-5.35,19.12,19.12,0,0,1,1.5-7.57,19.78,19.78,0,0,1,3.91-6,18.68,18.68,0,0,1,5.52-4,14.45,14.45,0,0,1,6.27-1.46A11.66,11.66,0,0,1,182.82,108.78Zm-2,3.29a3.09,3.09,0,0,0-2.69-1.62q-3.12,0-5.91,6a37.2,37.2,0,0,0-2.46,7.24,34.27,34.27,0,0,0-.86,7.57q0,6.32,3.92,6.31a4.19,4.19,0,0,0,3.09-1.43,16,16,0,0,0,2.69-4.41,36.08,36.08,0,0,0,3.25-14.81A9.09,9.09,0,0,0,180.86,112.07Z"/><rect x="191.14" y="131.03" width="7.15" height="7.15" transform="translate(-38.15 177.11) rotate(-45)"/><rect x="72.34" y="108.04" width="7.15" height="7.15" transform="translate(-56.69 86.37) rotate(-45)"/><path d="M26.41,56.37h0A26.43,26.43,0,0,0,.23,83.05V117a26.43,26.43,0,0,0,26.18,26.68h0A26.43,26.43,0,0,0,52.58,117V83.05A26.43,26.43,0,0,0,26.41,56.37ZM41,126.18H11.86v-.42s0,0,0,.08.17.12.26.15.14,0,.2-.08.11-.17.16-.26,0-.16-.12-.24-.17,0-.24-.11-.13,0-.2.09a.33.33,0,0,0-.1.14v-1a.27.27,0,0,0,.12.14c.06,0,.15.09.2.07a.47.47,0,0,0,.25-.13c.05-.07,0-.15.09-.2s-.06-.18-.14-.25-.16,0-.21-.11-.21.06-.27.16a.3.3,0,0,1,0,.08v-1l0,.06a.39.39,0,0,0,.26.16.4.4,0,0,0,.2-.07.38.38,0,0,0,.16-.26c0-.06,0-.13-.08-.2s-.17-.1-.26-.16L12,123a.22.22,0,0,0-.11.14v-1l0,.06a.41.41,0,0,0,.26.15c.06,0,.14,0,.2-.07a.38.38,0,0,0,.16-.25.4.4,0,0,0-.08-.21c0-.1-.17-.1-.26-.16l-.2.09a.25.25,0,0,0-.11.14v-.4l0,0,.07,0h.27s0,0,0,0a.25.25,0,0,0-.2-.13l.95-.92v0a.26.26,0,0,0,.28.26.27.27,0,1,0,0-.54h0l1-1a.22.22,0,0,0,.23.21.22.22,0,0,0,.22-.22.24.24,0,0,0-.22-.22l1.06-1s0,0,0,0a.19.19,0,0,0,.18.16c.06,0,.15-.1.14-.17s-.07-.12-.13-.14H23a.18.18,0,0,0,.11.33.16.16,0,0,0,.19-.18.16.16,0,0,0-.07-.15h.94a.18.18,0,0,0-.08.16.28.28,0,0,0,.25.24.27.27,0,0,0,.24-.26.14.14,0,0,0-.07-.14h.83c-.09,0-.11.14-.05.27a.3.3,0,0,0,.29.18.32.32,0,0,0,.27-.22c0-.11,0-.19-.07-.23h.73a.13.13,0,0,0,0,.1.36.36,0,1,0,.71,0c0-.08,0-.13-.05-.15h.53a.11.11,0,0,0,0,.06.38.38,0,0,0,.15.42.39.39,0,0,0,.45,0,.44.44,0,0,0,.24-.38.16.16,0,0,0-.06-.15h.4a.08.08,0,0,0,0,.07.49.49,0,0,0,.41.56.49.49,0,0,0,.56-.47c0-.09,0-.14,0-.16h.3a.11.11,0,0,0,0,.08.51.51,0,0,0,.24.52.57.57,0,0,0,.59,0,.51.51,0,0,0,.24-.52.34.34,0,0,0,0-.08h.22a.1.1,0,0,0,0,.08.51.51,0,0,0,.25.51.47.47,0,0,0,.55,0,.53.53,0,0,0,.25-.51l0-.08h.29s-.05.07-.05.15a.49.49,0,0,0,1,0c0-.08,0-.13,0-.15h.41a.18.18,0,0,0-.06.16.44.44,0,0,0,.87,0,.17.17,0,0,0-.07-.16h.58a.12.12,0,0,0,0,.08.37.37,0,0,0,.16.38.35.35,0,0,0,.37,0,.33.33,0,0,0,.18-.36.12.12,0,0,0,0-.1h.68a.14.14,0,0,0-.07.14.31.31,0,0,0,.28.3.3.3,0,0,0,.31-.29.16.16,0,0,0-.07-.15h.18L41,121.44Zm-25.24-8.47ZM30.5,88.89a.69.69,0,0,0,.69-.67.65.65,0,0,0-.67-.67h5.56v27.27H34a.56.56,0,0,0-.62-.56.51.51,0,0,0-.49.56h-5c0-.27-.19-.4-.42-.38a.34.34,0,0,0-.33.38h-.84c-.05-.18-.15-.27-.31-.25a.24.24,0,0,0-.22.25h-5.5a.13.13,0,0,0,0-.06.17.17,0,0,0-.17-.17.18.18,0,0,0-.17.17s0,0,0,.06H16.73V87.55H30.36a.66.66,0,0,0-.53.65A.69.69,0,0,0,30.5,88.89ZM41,81l-3.74,3.63H15.6l-1-1h0s0,0,0-.07a.11.11,0,0,0-.13-.1s-.06,0,0,.06v0l-2.42-2.34.09.06c.07,0,.07-.06.09-.1A.17.17,0,0,0,12,81s-.11,0-.11.06,0,.05.06.09L11.86,81V73.82h5.82v4.07H23.5V73.82h5.81v4.07h1.58s0,0,.08,0a.13.13,0,0,0,.13,0H32s0,0,.07.06l.08,0c.08,0,.2,0,.2-.08h.82c0,.07.09.1.16.12a.26.26,0,0,0,.15,0c.06,0,.15,0,.15-.11h.75s0,.06,0,.08a.38.38,0,0,0,.48,0s.06,0,0-.09h.15V73.82h.53c-.12,0-.17.1-.17.24a.45.45,0,0,0,.41.41.44.44,0,0,0,.43-.4c0-.14,0-.22-.17-.25h.66c-.11,0-.15.09-.15.23a.47.47,0,0,0,.46.47.48.48,0,0,0,.46-.48c0-.13,0-.2-.14-.22H38a.16.16,0,0,0-.1.13.51.51,0,0,0,.22.53.5.5,0,0,0,.57,0A.52.52,0,0,0,38.9,74a.17.17,0,0,0-.1-.14h.35a.14.14,0,0,0-.09.12.56.56,0,0,0,.51.67.53.53,0,0,0,.55-.3c.06-.09.1-.1.14,0l0,.07c.06.12.24.16.24.27s-.18.16-.24.28-.11.16-.21,0l0,0a.56.56,0,0,0-.83-.06.56.56,0,1,0,.83.76c0-.05.06-.16.13-.16s.09.12.13.18.21.13.22.23-.15.15-.22.24,0,.18-.12.19-.1-.12-.15-.18a.57.57,0,0,0-.78-.08.58.58,0,0,0-.12.78.6.6,0,0,0,.78.15c.13-.08.16-.31.28-.27s.15.23.28.31l0,0,0,0v.05s0,0,0,0a.81.81,0,0,0-.19.18c0,.06-.08.17-.12.17s-.09-.11-.14-.17a.6.6,0,0,0-.7-.15.58.58,0,0,0-.3.66.56.56,0,0,0,.55.41.52.52,0,0,0,.51-.3c.06-.09.1-.1.14,0a.93.93,0,0,0,.05.1c0,.08.17.13.24.19v.17c-.07.06-.19.1-.24.19s-.12.17-.24,0v0a.56.56,0,0,0-.83-.06.56.56,0,1,0,.83.76s.06-.16.13-.16.09.12.13.18.21.13.22.23-.15.15-.22.24,0,.19-.12.19-.1-.12-.15-.18a.6.6,0,0,0-.69-.14.57.57,0,0,0-.29.66.57.57,0,0,0,1.06.1c0-.07.08-.11.12,0a.62.62,0,0,0,.22.26s.07,0,.08.08v0s0,0-.08.08-.09.07,0,.09l.11,0a.54.54,0,0,0,.18,0H41Z"/><path d="M38.41,75.78a.51.51,0,1,0,0-1,.51.51,0,1,0,0,1Z"/><path d="M38.39,79.47a.5.5,0,0,0,.52-.49.51.51,0,0,0-.5-.53.51.51,0,1,0,0,1Z"/><path d="M38.39,80.69a.51.51,0,0,0,.52-.5.51.51,0,0,0-.5-.52.51.51,0,1,0,0,1Z"/><path d="M38.41,78.21a.51.51,0,0,0,.5-.52.51.51,0,0,0-.52-.5.51.51,0,1,0,0,1Z"/><path d="M38.4,77a.51.51,0,0,0,.51-.51.52.52,0,1,0-.51.51Z"/><path d="M37.59,79a.46.46,0,0,0-.92,0,.46.46,0,0,0,.45.48A.47.47,0,0,0,37.59,79Z"/><path d="M37.13,75.73a.46.46,0,1,0-.46-.47A.46.46,0,0,0,37.13,75.73Z"/><path d="M37.13,80.64a.47.47,0,0,0,.46-.45.46.46,0,0,0-.92,0A.48.48,0,0,0,37.13,80.64Z"/><path d="M37.12,77.24a.48.48,0,0,0-.45.46.47.47,0,0,0,.47.46.46.46,0,0,0,.45-.45A.48.48,0,0,0,37.12,77.24Z"/><path d="M37.13,77a.47.47,0,0,0,.46-.45.46.46,0,1,0-.92,0A.47.47,0,0,0,37.13,77Z"/><path d="M35.91,75.69a.44.44,0,0,0,.42-.42.43.43,0,0,0-.41-.41.44.44,0,0,0-.43.41A.45.45,0,0,0,35.91,75.69Z"/><path d="M36.33,80.18a.44.44,0,0,0-.42-.42.46.46,0,0,0-.42.43.44.44,0,0,0,.44.4A.44.44,0,0,0,36.33,80.18Z"/><path d="M35.91,78.12a.45.45,0,0,0,.42-.42.44.44,0,0,0-.43-.41.44.44,0,0,0-.41.41A.45.45,0,0,0,35.91,78.12Z"/><path d="M35.91,78.55a.45.45,0,0,0-.42.39.42.42,0,1,0,.84,0A.44.44,0,0,0,35.91,78.55Z"/><path d="M35.91,76.9a.44.44,0,0,0,.42-.42.45.45,0,0,0-.43-.41.46.46,0,0,0-.41.41A.45.45,0,0,0,35.91,76.9Z"/><path d="M34.7,79.82a.36.36,0,0,0-.37.34.36.36,0,1,0,.72,0A.36.36,0,0,0,34.7,79.82Z"/><path d="M34.69,79.32a.36.36,0,0,0,.36-.35.36.36,0,1,0-.36.35Z"/><path d="M33.43,79.86a.32.32,0,0,0-.32.32.31.31,0,0,0,.32.31.31.31,0,0,0,.31-.32A.32.32,0,0,0,33.43,79.86Z"/><path d="M33.42,79.28a.32.32,0,0,0,.32-.31.31.31,0,0,0-.29-.32.32.32,0,1,0,0,.63Z"/><path d="M32.18,80.45a.28.28,0,0,0,.3-.25.27.27,0,0,0-.26-.29.26.26,0,0,0-.28.26A.27.27,0,0,0,32.18,80.45Z"/><path d="M32.2,79.23a.27.27,0,0,0,.28-.27.27.27,0,0,0-.54,0A.26.26,0,0,0,32.2,79.23Z"/><path d="M31,79.19a.23.23,0,0,0,.23-.23.26.26,0,0,0-.22-.23.23.23,0,1,0,0,.46Z"/><path d="M31,80.41a.25.25,0,0,0,.24-.23A.24.24,0,0,0,31,80a.24.24,0,0,0-.23.21A.25.25,0,0,0,31,80.41Z"/><path d="M29.76,79.16A.23.23,0,0,0,30,79a.22.22,0,0,0-.18-.21.21.21,0,0,0-.22.19A.23.23,0,0,0,29.76,79.16Z"/><path d="M29.77,80a.22.22,0,0,0-.2.19.21.21,0,0,0,.19.2.22.22,0,0,0,.21-.2A.23.23,0,0,0,29.77,80Z"/><path d="M12.54,75.46a.19.19,0,0,0,.17-.19.19.19,0,1,0-.38,0A.2.2,0,0,0,12.54,75.46Z"/><path d="M12.52,76.3a.19.19,0,0,0-.19.17.19.19,0,1,0,.38,0A.2.2,0,0,0,12.52,76.3Z"/><path d="M12.51,77.9a.22.22,0,0,0,.2-.2.2.2,0,0,0-.17-.19.21.21,0,0,0-.21.18A.22.22,0,0,0,12.51,77.9Z"/><path d="M12.51,80a.19.19,0,0,0-.18.18c0,.09.09.2.18.2a.21.21,0,0,0,.2-.19A.21.21,0,0,0,12.51,80Z"/><path d="M12.52,73.82a.19.19,0,0,0,0,.38.2.2,0,0,0,.2-.18A.21.21,0,0,0,12.52,73.82Z"/><path d="M12.51,78.77a.19.19,0,0,0-.18.18c0,.09.09.2.18.2a.19.19,0,1,0,0-.38Z"/><path d="M39.88,80.89a.61.61,0,0,0-.42,0c-.07,0-.16,0-.16.09s.1,0,.16,0h.39s.08,0,.08,0S39.9,80.9,39.88,80.89Z"/><path d="M13.74,77.55a.15.15,0,0,0-.16.14.17.17,0,0,0,.16.17.18.18,0,0,0,.16-.16C13.88,77.61,13.83,77.55,13.74,77.55Z"/><path d="M28.52,77.55c-.1,0-.15,0-.17.14a.17.17,0,0,0,.16.17.15.15,0,0,0,.15-.15C28.65,77.62,28.61,77.56,28.52,77.55Z"/><path d="M13.74,78.81a.15.15,0,0,0-.16.14.17.17,0,0,0,.17.17c.09,0,.13-.07.15-.16S13.83,78.81,13.74,78.81Z"/><path d="M28.5,78.81a.16.16,0,0,0-.15.17.15.15,0,0,0,.17.13.14.14,0,0,0,.14-.16A.15.15,0,0,0,28.5,78.81Z"/><path d="M28.52,75.12c-.1,0-.15,0-.17.14a.17.17,0,0,0,.16.17.16.16,0,0,0,.15-.15C28.65,75.19,28.61,75.13,28.52,75.12Z"/><path d="M28.52,80a.17.17,0,0,0-.17.15.15.15,0,0,0,.14.16.16.16,0,0,0,.17-.15A.16.16,0,0,0,28.52,80Z"/><path d="M13.75,75.42a.15.15,0,1,0,0-.3.16.16,0,0,0-.15.17A.15.15,0,0,0,13.75,75.42Z"/><path d="M28.49,74.17a.16.16,0,0,0,.17-.15.15.15,0,0,0-.14-.16.15.15,0,0,0-.17.14A.16.16,0,0,0,28.49,74.17Z"/><path d="M13.72,74.17a.17.17,0,0,0,.17-.15.15.15,0,0,0-.16-.16.15.15,0,0,0-.15.16A.17.17,0,0,0,13.72,74.17Z"/><path d="M28.52,76.64a.16.16,0,0,0,.14-.17c0-.09-.07-.13-.16-.14s-.15.07-.15.16A.15.15,0,0,0,28.52,76.64Z"/><path d="M13.76,80a.17.17,0,0,0-.18.15.16.16,0,0,0,.14.16.16.16,0,0,0,.17-.14A.15.15,0,0,0,13.76,80Z"/><path d="M13.75,76.64a.16.16,0,0,0,.15-.16.17.17,0,0,0-.16-.15.17.17,0,0,0-.16.17A.16.16,0,0,0,13.75,76.64Z"/><path d="M38.38,80.88c-.08,0-.21,0-.2.07s.13,0,.2,0,.22,0,.23,0S38.47,80.88,38.38,80.88Z"/><path d="M27.28,75.39a.11.11,0,0,0,.12-.12.1.1,0,0,0-.1-.11.1.1,0,0,0-.13.11A.11.11,0,0,0,27.28,75.39Z"/><path d="M27.28,76.37a.11.11,0,0,0-.11.12c0,.08,0,.11.13.11a.1.1,0,0,0,.1-.11A.11.11,0,0,0,27.28,76.37Z"/><path d="M27.4,77.7a.1.1,0,0,0-.11-.11.11.11,0,0,0-.12.12c0,.07,0,.1.11.11S27.4,77.78,27.4,77.7Z"/><path d="M27.28,74.13a.11.11,0,0,0,.12-.1c0-.08,0-.13-.12-.13a.1.1,0,0,0-.11.1C27.17,74.08,27.2,74.12,27.28,74.13Z"/><path d="M27.29,80.06a.12.12,0,0,0-.12.11.11.11,0,0,0,.12.12.1.1,0,0,0,.11-.1A.12.12,0,0,0,27.29,80.06Z"/><path d="M27.3,78.85a.1.1,0,0,0-.13.11.11.11,0,0,0,.11.12A.11.11,0,0,0,27.4,79,.1.1,0,0,0,27.3,78.85Z"/><path d="M15,75.38c.07,0,.1,0,.12-.11a.11.11,0,0,0-.22,0A.11.11,0,0,0,15,75.38Z"/><path d="M15,77.6a.11.11,0,0,0-.1.12.11.11,0,0,0,.11.09.12.12,0,0,0,.11-.11C15.05,77.64,15,77.59,15,77.6Z"/><path d="M15,79.07a.1.1,0,0,0,.11-.1c0-.07,0-.1-.1-.12s-.11.05-.11.12A.11.11,0,0,0,15,79.07Z"/><path d="M15,73.91a.09.09,0,0,0-.11.09.11.11,0,0,0,.1.12c.06,0,.1,0,.12-.1A.12.12,0,0,0,15,73.91Z"/><path d="M14.94,76.59c.07,0,.1,0,.13-.09a.12.12,0,0,0-.11-.12.11.11,0,0,0-.1.09A.09.09,0,0,0,14.94,76.59Z"/><path d="M15,80.07c-.06,0-.11.05-.1.12a.11.11,0,0,0,.13.09.09.09,0,0,0,.08-.11C15.06,80.11,15,80.08,15,80.07Z"/><path d="M26.07,79s.07,0,.06-.07a.07.07,0,0,0-.06-.07c-.05,0-.08,0-.07.08S26,79,26.07,79Z"/><path d="M26,77.69s0,.08.07.08a.06.06,0,0,0,.06-.07.07.07,0,0,0-.06-.07S26,77.65,26,77.69Z"/><path d="M26.07,80.11c-.05,0-.07,0-.07.06s0,.08.08.07.06,0,.06-.07A.07.07,0,0,0,26.07,80.11Z"/><path d="M26.07,74.08s.06,0,.07-.07a.08.08,0,0,0-.07-.07c-.05,0-.08,0-.07.08S26,74.08,26.07,74.08Z"/><path d="M26.08,75.2s-.07,0-.08,0a.07.07,0,0,0,.06.09.07.07,0,1,0,0-.14Z"/><path d="M26.07,76.42s-.07,0-.07.06a.05.05,0,0,0,.05.07c.05,0,.09,0,.08-.07A.05.05,0,0,0,26.07,76.42Z"/><path d="M37.13,80.93c-.05,0-.12,0-.11,0s.07,0,.1,0,.11,0,.12,0S37.17,80.93,37.13,80.93Z"/><path d="M24.86,75.27a.06.06,0,0,0-.05-.06.06.06,0,0,0-.06.05s0,.07.06.07S24.86,75.31,24.86,75.27Z"/><path d="M16.16,75.32s.05,0,.06,0,0,0,0,0,0,0,0,0A0,0,0,0,0,16.16,75.32Z"/><path d="M24.81,74a.06.06,0,0,0-.06,0,.05.05,0,0,0,.05.07.06.06,0,0,0,.06,0A.07.07,0,0,0,24.81,74Z"/><path d="M16.17,74a0,0,0,0,0,0,0,0,0,0,0,0,.05,0s0,0,.05,0S16.2,74,16.17,74Z"/><path d="M24.81,77.64a.06.06,0,0,0-.06,0s0,.07.06.07a0,0,0,0,0,.05-.05A.07.07,0,0,0,24.81,77.64Z"/><path d="M16.17,77.75s0,0,0,0,0,0,0,0-.05,0,0,.06S16.16,77.75,16.17,77.75Z"/><path d="M16.18,78.91s-.05,0-.05.06,0,0,.06,0,0,0,0,0S16.21,78.92,16.18,78.91Z"/><path d="M16.18,80.13s0,0,0,0,0,0,0,.06a0,0,0,0,0,.06,0A0,0,0,0,0,16.18,80.13Z"/><path d="M24.81,80.12s0,0-.06,0a.05.05,0,0,0,.05.07s.05,0,.06,0A.06.06,0,0,0,24.81,80.12Z"/><path d="M24.81,79s.05,0,.05-.06a.06.06,0,0,0-.05-.06.06.06,0,0,0-.06,0S24.76,79,24.81,79Z"/><path d="M24.79,76.54a.06.06,0,0,0,.07-.06s0,0-.06,0a.06.06,0,0,0-.06,0A.06.06,0,0,0,24.79,76.54Z"/><path d="M16.18,76.44a0,0,0,0,0-.05,0s0,.05.06.05a.05.05,0,0,0,0-.07A0,0,0,0,0,16.18,76.44Z"/><path d="M23.59,74a0,0,0,0,1,0,0s0,0,0,0,0,0,0,0Z"/><path d="M23.58,77.69s0,0,0,0h0a0,0,0,0,1,0,0S23.59,77.69,23.58,77.69Z"/><path d="M22.37,79h0v0s0,0,0,0Z"/><path d="M23.57,76.48s0,0,0,0a0,0,0,0,1,0,0v0Z"/><path d="M22.35,80.18h0v0S22.35,80.16,22.35,80.18Z"/><path d="M23.58,80.16s0,0,0,0,0,0,0,0a0,0,0,0,0,0,0Z"/><path d="M23.57,79s0,0,0,0h0v0S23.57,78.94,23.57,79Z"/><path d="M23.59,75.28h0s0,0,0,0Z"/><polygon points="35.92 80.98 35.9 80.97 35.9 80.98 35.92 80.98"/><path d="M30.5,111.18a.69.69,0,0,0,0,1.37.69.69,0,0,0,0-1.37Z"/><path d="M30.52,94.89a.68.68,0,1,0,.67.69A.68.68,0,0,0,30.52,94.89Z"/><path d="M30.5,105.26a.68.68,0,0,0,0,1.36.69.69,0,0,0,.68-.68A.7.7,0,0,0,30.5,105.26Z"/><path d="M30.5,90.49a.68.68,0,0,0,0,1.36.68.68,0,1,0,0-1.36Z"/><path d="M30.51,103.78a.68.68,0,0,0,0,1.36.68.68,0,1,0,0-1.36Z"/><path d="M30.5,109.7a.69.69,0,0,0,0,1.37.69.69,0,0,0,0-1.37Z"/><path d="M30.5,93.45a.68.68,0,1,0,.69.68A.7.7,0,0,0,30.5,93.45Z"/><path d="M30.52,108.22a.69.69,0,0,0-.69.68.67.67,0,0,0,.67.68.68.68,0,1,0,0-1.36Z"/><path d="M30.5,100.82a.68.68,0,0,0-.67.68.68.68,0,1,0,.67-.68Z"/><path d="M30.5,99.33a.69.69,0,0,0,0,1.37.69.69,0,1,0,0-1.37Z"/><path d="M30.5,90.37a.7.7,0,0,0,.69-.68.69.69,0,0,0-.68-.68.67.67,0,0,0-.68.67A.68.68,0,0,0,30.5,90.37Z"/><path d="M30.51,102.3a.67.67,0,0,0-.68.67.68.68,0,0,0,.67.69.7.7,0,0,0,.69-.68A.69.69,0,0,0,30.51,102.3Z"/><path d="M30.5,97.85a.68.68,0,0,0,0,1.36.68.68,0,0,0,.67-.68A.7.7,0,0,0,30.5,97.85Z"/><path d="M30.5,92a.68.68,0,0,0-.67.69.67.67,0,0,0,.68.67.69.69,0,0,0,.68-.68A.7.7,0,0,0,30.5,92Z"/><path d="M30.52,112.67a.68.68,0,0,0,0,1.36.7.7,0,0,0,.69-.68A.69.69,0,0,0,30.52,112.67Z"/><path d="M30.5,96.37a.68.68,0,1,0,.69.68A.7.7,0,0,0,30.5,96.37Z"/><path d="M30.51,106.74a.69.69,0,0,0-.68.68.67.67,0,0,0,.67.68.68.68,0,0,0,.69-.67A.7.7,0,0,0,30.51,106.74Z"/><path d="M32,88.87a.66.66,0,0,0,.65-.65.66.66,0,1,0-.65.65Z"/><path d="M32,105.12a.66.66,0,0,0,0-1.32.66.66,0,1,0,0,1.32Z"/><path d="M32,103.64a.67.67,0,0,0,.67-.66.66.66,0,0,0-1.32,0A.66.66,0,0,0,32,103.64Z"/><path d="M32,94.79a.66.66,0,0,0,.67-.65.64.64,0,0,0-.66-.66.66.66,0,1,0,0,1.31Z"/><path d="M31.94,114a.66.66,0,1,0-.65-.67A.65.65,0,0,0,31.94,114Z"/><path d="M32,90.35a.66.66,0,1,0-.65-.68A.66.66,0,0,0,32,90.35Z"/><path d="M32,99.19a.66.66,0,1,0-.66-.64A.65.65,0,0,0,32,99.19Z"/><path d="M32,102.15a.64.64,0,0,0,.66-.66.66.66,0,0,0-.65-.65.66.66,0,1,0,0,1.31Z"/><path d="M32,112.53a.66.66,0,0,0,0-1.32.63.63,0,0,0-.64.67A.65.65,0,0,0,32,112.53Z"/><path d="M32,100.67a.66.66,0,1,0-.65-.65A.64.64,0,0,0,32,100.67Z"/><path d="M32,108.08a.65.65,0,0,0,.66-.66.66.66,0,0,0-1.32,0A.65.65,0,0,0,32,108.08Z"/><path d="M32,96.23a.65.65,0,0,0,.66-.66.67.67,0,0,0-.67-.66.66.66,0,0,0-.65.67A.65.65,0,0,0,32,96.23Z"/><path d="M32,109.56a.64.64,0,0,0,.65-.66.66.66,0,1,0-1.31,0A.64.64,0,0,0,32,109.56Z"/><path d="M32,93.31a.65.65,0,0,0,.66-.66.66.66,0,1,0-1.32,0A.65.65,0,0,0,32,93.31Z"/><path d="M32,91.83a.66.66,0,1,0-.66-.66A.66.66,0,0,0,32,91.83Z"/><path d="M32,96.39a.66.66,0,0,0-.66.64.65.65,0,0,0,.64.68.66.66,0,0,0,.68-.65A.67.67,0,0,0,32,96.39Z"/><path d="M31.94,111a.66.66,0,1,0-.65-.67A.64.64,0,0,0,31.94,111Z"/><path d="M32,106.6a.66.66,0,1,0-.67-.66A.66.66,0,0,0,32,106.6Z"/><path d="M33.43,99.11a.58.58,0,1,0-.58-.58A.57.57,0,0,0,33.43,99.11Z"/><path d="M33.42,100.59A.56.56,0,0,0,34,100a.58.58,0,0,0-1.15,0A.56.56,0,0,0,33.42,100.59Z"/><path d="M33.43,102.07a.55.55,0,0,0,.57-.58.58.58,0,1,0-.57.58Z"/><path d="M33.42,103.55A.55.55,0,0,0,34,103a.57.57,0,0,0-.55-.58.57.57,0,0,0-.6.56A.56.56,0,0,0,33.42,103.55Z"/><path d="M33.45,103.88a.57.57,0,0,0-.6.56.56.56,0,0,0,.57.59.55.55,0,0,0,.58-.57A.57.57,0,0,0,33.45,103.88Z"/><path d="M33.41,106.52A.57.57,0,0,0,34,106a.58.58,0,0,0-1.15,0A.57.57,0,0,0,33.41,106.52Z"/><path d="M33.43,106.85a.56.56,0,0,0-.58.55.58.58,0,1,0,1.15,0A.55.55,0,0,0,33.43,106.85Z"/><path d="M32.85,108.9a.58.58,0,1,0,1.15,0,.55.55,0,0,0-.58-.57A.56.56,0,0,0,32.85,108.9Z"/><path d="M33.42,111a.58.58,0,1,0-.57-.59A.57.57,0,0,0,33.42,111Z"/><path d="M33.43,112.44a.58.58,0,1,0-.58-.58A.57.57,0,0,0,33.43,112.44Z"/><path d="M33.42,112.77a.58.58,0,0,0,0,1.15.55.55,0,0,0,.58-.57A.57.57,0,0,0,33.42,112.77Z"/><path d="M33.46,91.74a.57.57,0,1,0,0-1.14.56.56,0,0,0-.57.57A.56.56,0,0,0,33.46,91.74Z"/><path d="M33.47,88.78a.57.57,0,1,0,0-1.14.55.55,0,0,0-.56.56A.57.57,0,0,0,33.47,88.78Z"/><path d="M33.46,90.26a.56.56,0,0,0,.58-.57.57.57,0,0,0-1.14,0A.56.56,0,0,0,33.46,90.26Z"/><path d="M33.47,94.71a.57.57,0,0,0,.57-.58.57.57,0,1,0-1.14,0A.57.57,0,0,0,33.47,94.71Z"/><path d="M33.47,97.62a.55.55,0,0,0,.57-.57.57.57,0,0,0-.58-.57.57.57,0,0,0,0,1.14Z"/><path d="M33.46,96.19a.58.58,0,1,0,0-1.15.58.58,0,0,0,0,1.15Z"/><path d="M32.9,92.65a.57.57,0,0,0,1.14,0,.57.57,0,1,0-1.14,0Z"/><path d="M29,103.54a.59.59,0,0,0,.55-.57.58.58,0,0,0-.56-.55.56.56,0,0,0-.56.55A.58.58,0,0,0,29,103.54Z"/><path d="M29,109.83a.56.56,0,1,0,0,1.11.56.56,0,0,0,0-1.11Z"/><path d="M29,108.35a.56.56,0,0,0-.56.55.56.56,0,1,0,.56-.55Z"/><path d="M29,106.86a.58.58,0,0,0-.57.57A.57.57,0,0,0,29,108a.56.56,0,0,0,0-1.12Z"/><path d="M29,94.69a.58.58,0,0,0,.56-.56.57.57,0,0,0-.56-.55.56.56,0,0,0-.56.54A.57.57,0,0,0,29,94.69Z"/><path d="M29,90.25a.56.56,0,1,0-.54-.57A.57.57,0,0,0,29,90.25Z"/><path d="M29.59,97.06a.56.56,0,0,0-1.12,0,.57.57,0,0,0,.54.57A.58.58,0,0,0,29.59,97.06Z"/><path d="M29,100.57a.57.57,0,0,0,.55-.56.56.56,0,0,0-1.12,0A.56.56,0,0,0,29,100.57Z"/><path d="M29,112.79a.57.57,0,0,0-.56.55.58.58,0,0,0,.57.57.56.56,0,0,0,0-1.12Z"/><path d="M29,99.09a.58.58,0,0,0,.56-.55A.57.57,0,0,0,29,98a.56.56,0,0,0-.57.56A.57.57,0,0,0,29,99.09Z"/><path d="M28.47,91.15a.56.56,0,1,0,.57-.54A.57.57,0,0,0,28.47,91.15Z"/><path d="M29,88.77a.59.59,0,0,0,.56-.56.58.58,0,0,0-.55-.56.56.56,0,1,0,0,1.12Z"/><path d="M29,105.38a.58.58,0,0,0-.57.55.57.57,0,0,0,.54.57.56.56,0,1,0,0-1.12Z"/><path d="M29,95a.56.56,0,1,0,.56.56A.59.59,0,0,0,29,95Z"/><path d="M29,103.9A.56.56,0,1,0,29,105a.56.56,0,0,0,0-1.12Z"/><path d="M28.47,101.5a.56.56,0,0,0,.55.55.56.56,0,1,0-.55-.55Z"/><path d="M29,93.21a.56.56,0,1,0-.55-.56A.57.57,0,0,0,29,93.21Z"/><path d="M29,111.31a.56.56,0,1,0,.55.57A.58.58,0,0,0,29,111.31Z"/><path d="M30.5,114.15a.66.66,0,0,0-.66.67h1.34A.67.67,0,0,0,30.5,114.15Z"/><path d="M31.94,114.17a.62.62,0,0,0-.64.65h1.29A.63.63,0,0,0,31.94,114.17Z"/><path d="M34.9,88.64a.44.44,0,1,0-.43-.43A.44.44,0,0,0,34.9,88.64Z"/><path d="M34.89,99a.44.44,0,0,0,.45-.43.44.44,0,1,0-.45.43Z"/><path d="M34.91,112.3a.44.44,0,0,0,0-.87.44.44,0,0,0,0,.87Z"/><path d="M34.89,113.78a.43.43,0,0,0,.45-.42.44.44,0,0,0-.41-.45.45.45,0,0,0-.46.43A.45.45,0,0,0,34.89,113.78Z"/><path d="M34.89,94.57a.44.44,0,0,0,.45-.43.43.43,0,0,0-.41-.44.44.44,0,0,0-.46.42A.45.45,0,0,0,34.89,94.57Z"/><path d="M34.89,104.89a.43.43,0,1,0-.42-.44A.44.44,0,0,0,34.89,104.89Z"/><path d="M34.92,89.25a.46.46,0,0,0-.45.41.44.44,0,0,0,.42.46.44.44,0,0,0,.45-.4A.45.45,0,0,0,34.92,89.25Z"/><path d="M34.91,95.18a.44.44,0,1,0,.43.43A.44.44,0,0,0,34.91,95.18Z"/><path d="M35.34,97.06a.44.44,0,0,0-.44-.44.44.44,0,1,0,.44.44Z"/><path d="M34.91,92.22a.44.44,0,0,0-.44.44.45.45,0,0,0,.43.43.45.45,0,0,0,.44-.45A.43.43,0,0,0,34.91,92.22Z"/><path d="M34.89,101.93a.44.44,0,1,0,0-.87.44.44,0,1,0,0,.87Z"/><path d="M34.9,91.6a.43.43,0,1,0-.43-.43A.44.44,0,0,0,34.9,91.6Z"/><path d="M34.89,103.41a.43.43,0,0,0,.45-.42.44.44,0,0,0-.42-.45.44.44,0,0,0,0,.87Z"/><path d="M34.92,99.58a.44.44,0,0,0-.45.43.45.45,0,0,0,.42.44.44.44,0,0,0,.45-.43A.45.45,0,0,0,34.92,99.58Z"/><path d="M34.91,107a.44.44,0,0,0-.44.44.45.45,0,0,0,.43.43.44.44,0,0,0,.44-.44A.43.43,0,0,0,34.91,107Z"/><path d="M34.91,106.37a.43.43,0,0,0,.43-.42.44.44,0,1,0-.43.42Z"/><path d="M35.34,108.92a.43.43,0,0,0-.42-.45.44.44,0,0,0-.45.41.45.45,0,0,0,.43.46A.45.45,0,0,0,35.34,108.92Z"/><path d="M34.9,110.82a.44.44,0,0,0,0-.87.45.45,0,0,0-.45.41A.45.45,0,0,0,34.9,110.82Z"/><path d="M17.2,88.61a.41.41,0,1,0-.42-.4A.39.39,0,0,0,17.2,88.61Z"/><path d="M17.19,104.05a.41.41,0,1,0,.4.41A.4.4,0,0,0,17.19,104.05Z"/><path d="M17.19,100.42a.41.41,0,1,0-.41-.41A.39.39,0,0,0,17.19,100.42Z"/><path d="M17.19,89.28a.4.4,0,0,0-.41.42.41.41,0,0,0,.81,0A.41.41,0,0,0,17.19,89.28Z"/><path d="M17.19,107.83a.4.4,0,0,0,.4-.41.39.39,0,0,0-.42-.4.39.39,0,0,0-.39.4A.4.4,0,0,0,17.19,107.83Z"/><path d="M17.18,110.79a.41.41,0,1,0,0-.81.41.41,0,0,0,0,.81Z"/><path d="M17.16,106.35a.41.41,0,1,0,0-.82.4.4,0,0,0-.42.38A.4.4,0,0,0,17.16,106.35Z"/><path d="M17.19,90.76a.39.39,0,0,0-.41.41.4.4,0,0,0,.42.41.41.41,0,0,0,.39-.41A.4.4,0,0,0,17.19,90.76Z"/><path d="M16.78,108.89a.39.39,0,0,0,.4.42.4.4,0,0,0,.41-.39.39.39,0,0,0-.4-.42A.39.39,0,0,0,16.78,108.89Z"/><path d="M17.17,93.68a.4.4,0,0,0-.39.41.41.41,0,1,0,.39-.41Z"/><path d="M17.19,112.94a.4.4,0,0,0-.41.39.41.41,0,0,0,.81,0A.4.4,0,0,0,17.19,112.94Z"/><path d="M17.59,92.66a.41.41,0,1,0-.43.4A.4.4,0,0,0,17.59,92.66Z"/><path d="M17.2,111.46a.41.41,0,0,0,0,.81.41.41,0,1,0,0-.81Z"/><path d="M17.2,96a.4.4,0,0,0,.39-.42.41.41,0,0,0-.4-.4.41.41,0,1,0,0,.82Z"/><path d="M17.2,101.9a.4.4,0,0,0,.39-.41.41.41,0,0,0-.81,0A.39.39,0,0,0,17.2,101.9Z"/><path d="M16.78,103a.39.39,0,0,0,.38.41.41.41,0,1,0-.38-.41Z"/><path d="M17.2,98.94a.41.41,0,0,0,0-.81.39.39,0,0,0-.41.41A.39.39,0,0,0,17.2,98.94Z"/><path d="M17.2,96.65a.41.41,0,0,0,0,.81.4.4,0,0,0,.42-.4A.4.4,0,0,0,17.2,96.65Z"/><path d="M29,114.27a.56.56,0,0,0-.55.55h1.09A.55.55,0,0,0,29,114.27Z"/><path d="M27.55,88.6a.39.39,0,0,0,.39-.4.39.39,0,0,0-.4-.39.4.4,0,0,0-.39.39A.39.39,0,0,0,27.55,88.6Z"/><path d="M27.54,105.55a.39.39,0,1,0,0,.78.38.38,0,0,0,.4-.39A.39.39,0,0,0,27.54,105.55Z"/><path d="M27.55,90.08a.39.39,0,0,0,.39-.4.4.4,0,1,0-.79,0A.39.39,0,0,0,27.55,90.08Z"/><path d="M27.56,92.26a.39.39,0,0,0-.41.39.4.4,0,1,0,.79,0A.38.38,0,0,0,27.56,92.26Z"/><path d="M27.54,90.78a.39.39,0,1,0,0,.78.38.38,0,0,0,.4-.39A.39.39,0,0,0,27.54,90.78Z"/><path d="M27.57,99.62a.4.4,0,0,0-.42.38.41.41,0,0,0,.39.41.4.4,0,0,0,0-.79Z"/><path d="M27.56,96.66a.39.39,0,0,0-.41.39.4.4,0,1,0,.79,0A.38.38,0,0,0,27.56,96.66Z"/><path d="M27.55,108.51a.4.4,0,1,0,.39.4A.39.39,0,0,0,27.55,108.51Z"/><path d="M27.53,107a.38.38,0,0,0-.38.39.4.4,0,0,0,.4.4.39.39,0,0,0,.39-.41A.38.38,0,0,0,27.53,107Z"/><path d="M27.53,110a.4.4,0,0,0-.38.39.4.4,0,0,0,.4.4.4.4,0,1,0,0-.79Z"/><path d="M27.52,98.93a.4.4,0,1,0,0-.79.4.4,0,0,0,0,.79Z"/><path d="M27.54,102.58a.41.41,0,0,0-.39.41.4.4,0,0,0,.39.38.39.39,0,0,0,.4-.39A.39.39,0,0,0,27.54,102.58Z"/><path d="M27.55,95.18a.39.39,0,0,0-.4.39.4.4,0,1,0,.79,0A.39.39,0,0,0,27.55,95.18Z"/><path d="M27.55,111.47a.4.4,0,0,0,0,.79.4.4,0,1,0,0-.79Z"/><path d="M27.54,93.74a.4.4,0,1,0,.4.39A.39.39,0,0,0,27.54,93.74Z"/><path d="M27.54,104.06a.41.41,0,0,0-.39.39.39.39,0,0,0,.39.4.39.39,0,0,0,.4-.39A.39.39,0,0,0,27.54,104.06Z"/><path d="M27.55,113a.4.4,0,0,0-.4.38.39.39,0,0,0,.38.41.4.4,0,1,0,0-.79Z"/><path d="M27.55,101.1a.4.4,0,0,0-.4.38.4.4,0,1,0,.4-.38Z"/><path d="M34.91,114.39c-.23,0-.38.14-.43.43h.85C35.29,114.54,35.14,114.4,34.91,114.39Z"/><path d="M18.67,106.24a.3.3,0,0,0,0-.6.31.31,0,0,0-.3.29A.31.31,0,0,0,18.67,106.24Z"/><path d="M18.65,98.83a.31.31,0,0,0,.31-.3.3.3,0,0,0-.59,0A.31.31,0,0,0,18.65,98.83Z"/><path d="M18.67,108.61a.3.3,0,0,0-.3.28.3.3,0,0,0,.29.31.31.31,0,0,0,.3-.29A.3.3,0,0,0,18.67,108.61Z"/><path d="M19,92.65a.3.3,0,0,0-.29-.29.29.29,0,0,0-.3.28.31.31,0,0,0,.3.31A.32.32,0,0,0,19,92.65Z"/><path d="M19,103a.31.31,0,0,0-.28-.31.31.31,0,0,0-.31.3.3.3,0,0,0,.29.29A.3.3,0,0,0,19,103Z"/><path d="M18.67,100.31A.3.3,0,0,0,19,100a.31.31,0,0,0-.3-.29.3.3,0,1,0,0,.59Z"/><path d="M18.66,95.28a.3.3,0,0,0-.29.29.31.31,0,0,0,.29.3.32.32,0,0,0,.3-.31A.3.3,0,0,0,18.66,95.28Z"/><path d="M18.66,111.57a.3.3,0,0,0-.29.29.3.3,0,1,0,.59,0A.31.31,0,0,0,18.66,111.57Z"/><path d="M18.67,93.79a.31.31,0,0,0-.3.29.3.3,0,0,0,.3.31.3.3,0,0,0,0-.6Z"/><path d="M18.66,107.13a.3.3,0,0,0-.29.29.31.31,0,0,0,.31.3.32.32,0,0,0,.28-.31A.3.3,0,0,0,18.66,107.13Z"/><path d="M18.37,97.05a.31.31,0,0,0,.29.3.31.31,0,0,0,.3-.29.3.3,0,0,0-.59,0Z"/><path d="M18.64,90a.3.3,0,0,0,.32-.29.3.3,0,0,0-.59,0A.3.3,0,0,0,18.64,90Z"/><path d="M18.67,101.2a.3.3,0,1,0,0,.59.3.3,0,0,0,.3-.29A.31.31,0,0,0,18.67,101.2Z"/><path d="M18.67,113.05a.31.31,0,0,0-.3.28.3.3,0,0,0,.27.31.3.3,0,0,0,.32-.29A.31.31,0,0,0,18.67,113.05Z"/><path d="M18.66,90.87a.31.31,0,0,0-.29.3.32.32,0,0,0,.31.3.3.3,0,0,0,0-.6Z"/><path d="M18.67,110.09a.3.3,0,0,0,0,.59.31.31,0,0,0,.32-.29A.3.3,0,0,0,18.67,110.09Z"/><path d="M18.67,104.75a.3.3,0,0,0,.29-.29.31.31,0,0,0-.29-.3.31.31,0,0,0-.3.29A.29.29,0,0,0,18.67,104.75Z"/><path d="M18.67,87.91a.3.3,0,0,0,0,.59.3.3,0,0,0,.3-.29A.31.31,0,0,0,18.67,87.91Z"/><path d="M17.19,114.42a.37.37,0,0,0-.39.4h.77A.37.37,0,0,0,17.19,114.42Z"/><path d="M26.06,89.42a.25.25,0,0,0-.25.27.24.24,0,0,0,.25.26.26.26,0,0,0,.27-.27A.27.27,0,0,0,26.06,89.42Z"/><path d="M26.06,90.9a.25.25,0,0,0-.25.27.23.23,0,0,0,.25.26.25.25,0,0,0,.27-.27A.27.27,0,0,0,26.06,90.9Z"/><path d="M25.8,108.91a.27.27,0,0,0,.27.26.25.25,0,0,0,.26-.27.25.25,0,0,0-.26-.26A.26.26,0,0,0,25.8,108.91Z"/><path d="M26.06,111.61a.24.24,0,0,0-.26.25.27.27,0,1,0,.53,0A.24.24,0,0,0,26.06,111.61Z"/><path d="M26,92.91a.26.26,0,0,0,.3-.25.25.25,0,0,0-.25-.27.26.26,0,0,0-.28.26A.25.25,0,0,0,26,92.91Z"/><path d="M26.07,93.87a.26.26,0,1,0,0,.52.24.24,0,0,0,.25-.26C26.31,94,26.23,93.87,26.07,93.87Z"/><path d="M26.09,95.31a.25.25,0,0,0-.28.24.23.23,0,0,0,.23.28.26.26,0,1,0,.05-.52Z"/><path d="M26.07,104.2a.26.26,0,0,0-.27.27.25.25,0,0,0,.25.25.26.26,0,0,0,.28-.26A.25.25,0,0,0,26.07,104.2Z"/><path d="M26.07,102.72a.24.24,0,0,0-.27.25.26.26,0,0,0,.28.27.25.25,0,0,0,.25-.27C26.31,102.81,26.23,102.72,26.07,102.72Z"/><path d="M26.07,100.28a.26.26,0,0,0,.26-.26.25.25,0,0,0-.26-.27.24.24,0,0,0-.26.25A.26.26,0,0,0,26.07,100.28Z"/><path d="M26.08,113.09a.25.25,0,0,0-.28.24.27.27,0,0,0,.53,0A.25.25,0,0,0,26.08,113.09Z"/><path d="M26.33,107.43a.25.25,0,0,0-.25-.27.26.26,0,0,0-.28.26.27.27,0,0,0,.26.27C26.22,107.67,26.32,107.6,26.33,107.43Z"/><path d="M26.07,110.12a.24.24,0,0,0-.26.25.25.25,0,0,0,.24.28.27.27,0,1,0,0-.53Z"/><path d="M26.06,98.8a.26.26,0,0,0,.27-.27.25.25,0,0,0-.24-.26.27.27,0,0,0-.29.26A.27.27,0,0,0,26.06,98.8Z"/><path d="M26.33,97.05a.26.26,0,0,0-.26-.26c-.16,0-.26.09-.26.25a.23.23,0,0,0,.24.27A.25.25,0,0,0,26.33,97.05Z"/><path d="M26.33,101.51a.27.27,0,0,0-.24-.28c-.16,0-.27.08-.28.24a.25.25,0,0,0,.23.29A.26.26,0,0,0,26.33,101.51Z"/><path d="M26.06,88.47a.25.25,0,0,0,.27-.25.24.24,0,0,0-.25-.27.26.26,0,0,0-.28.26A.26.26,0,0,0,26.06,88.47Z"/><path d="M26.07,105.68a.25.25,0,0,0-.27.25.27.27,0,1,0,.53,0C26.31,105.78,26.23,105.68,26.07,105.68Z"/><path d="M18.67,114.54c-.17,0-.27.09-.3.28H19A.27.27,0,0,0,18.67,114.54Z"/><path d="M24.73,111.88c0-.06-.08-.11-.12-.17s-.15.09-.17.15.07.12.13.22C24.65,112,24.73,111.94,24.73,111.88Z"/><path d="M24.6,94.29c0-.06.13-.11.13-.17s-.07-.11-.15-.21c-.07.1-.15.17-.14.22S24.54,94.24,24.6,94.29Z"/><path d="M24.73,92.65c0-.06-.1-.1-.16-.15s-.13.11-.13.16.08.12.16.21C24.66,92.77,24.75,92.7,24.73,92.65Z"/><path d="M24.73,100c0-.06-.1-.11-.16-.16s-.13.11-.13.16.08.12.15.21C24.66,100.13,24.74,100.07,24.73,100Z"/><path d="M24.6,91.32s.11-.08.2-.16c-.1-.07-.17-.15-.21-.14s-.11.11-.16.17S24.54,91.32,24.6,91.32Z"/><path d="M24.44,89.68c0,.06.09.11.13.17s.15-.1.16-.17-.07-.11-.14-.21C24.51,89.57,24.44,89.63,24.44,89.68Z"/><path d="M24.44,110.38c0,.07.11.11.16.16s.13-.11.13-.17-.08-.11-.16-.2C24.51,110.27,24.43,110.34,24.44,110.38Z"/><path d="M24.58,88.35c.05,0,.12-.06.22-.13-.09-.08-.14-.16-.2-.16s-.11.08-.17.13S24.52,88.34,24.58,88.35Z"/><path d="M24.73,104.47c0-.06-.08-.11-.13-.17s-.14.1-.16.17.07.11.14.21C24.66,104.58,24.74,104.52,24.73,104.47Z"/><path d="M24.44,113.35c0,.06.11.1.16.15s.13-.11.13-.17-.08-.11-.16-.2C24.51,113.23,24.43,113.3,24.44,113.35Z"/><path d="M24.57,103.13c.06,0,.15-.1.16-.16s-.07-.11-.14-.21c-.08.1-.15.16-.15.21S24.53,103.08,24.57,103.13Z"/><path d="M24.44,108.89c0,.06.08.11.13.17s.15-.1.16-.16-.07-.12-.14-.22C24.52,108.78,24.44,108.84,24.44,108.89Z"/><path d="M24.43,105.93c.05,0,.1.14.16.16s.12-.08.22-.15c-.1-.07-.16-.15-.22-.15S24.48,105.88,24.43,105.93Z"/><path d="M24.44,107.41c0,.06.08.11.13.17s.14-.1.16-.16-.07-.12-.14-.22C24.52,107.3,24.44,107.36,24.44,107.41Z"/><path d="M24.6,98.39c-.06,0-.11.08-.17.13s.1.14.16.16.11-.07.21-.14C24.71,98.47,24.65,98.39,24.6,98.39Z"/><path d="M24.44,101.5c0,.06.11.1.16.15s.13-.11.13-.17-.08-.11-.16-.2C24.51,101.38,24.43,101.45,24.44,101.5Z"/><path d="M24.6,95.79c.06-.1.15-.17.13-.22s-.1-.1-.16-.16-.13.12-.13.17S24.52,95.7,24.6,95.79Z"/><path d="M24.59,97.2s.11-.07.21-.14c-.09-.08-.15-.16-.2-.15s-.12.08-.17.13S24.53,97.18,24.59,97.2Z"/><circle cx="20.15" cy="88.21" r="0.17"/><circle cx="20.15" cy="89.69" r="0.17"/><path d="M20.15,91a.17.17,0,1,0,0,.34.17.17,0,1,0,0-.34Z"/><path d="M20.15,92.48a.18.18,0,0,0-.17.17.17.17,0,0,0,.17.17.16.16,0,0,0,.17-.17A.17.17,0,0,0,20.15,92.48Z"/><path d="M20.15,93.92a.17.17,0,1,0,0,.34.17.17,0,0,0,0-.34Z"/><circle cx="20.15" cy="95.57" r="0.17"/><path d="M20.15,96.88a.18.18,0,0,0-.17.17.17.17,0,0,0,.17.17.16.16,0,0,0,.17-.17A.17.17,0,0,0,20.15,96.88Z"/><path d="M20.15,98.36a.18.18,0,0,0-.17.17.17.17,0,0,0,.17.17.16.16,0,0,0,.17-.17A.17.17,0,0,0,20.15,98.36Z"/><path d="M20.15,99.81A.17.17,0,0,0,20,100a.18.18,0,0,0,.17.17.17.17,0,0,0,.17-.17A.16.16,0,0,0,20.15,99.81Z"/><circle cx="20.15" cy="101.46" r="0.17"/><path d="M20.15,102.77a.17.17,0,1,0,0,.34.17.17,0,0,0,0-.34Z"/><path d="M20.15,104.25a.18.18,0,0,0-.17.17.17.17,0,0,0,.17.17.16.16,0,0,0,.17-.17A.17.17,0,0,0,20.15,104.25Z"/><path d="M20.15,105.69a.17.17,0,1,0,0,.34.17.17,0,1,0,0-.34Z"/><circle cx="20.15" cy="107.34" r="0.17"/><circle cx="20.15" cy="108.82" r="0.17"/><path d="M20.15,110.13a.18.18,0,0,0-.17.17.17.17,0,0,0,.17.17.16.16,0,0,0,.17-.17A.17.17,0,0,0,20.15,110.13Z"/><path d="M20.15,111.71a.18.18,0,0,0-.17.17.17.17,0,0,0,.17.17.16.16,0,0,0,.17-.17A.17.17,0,0,0,20.15,111.71Z"/><path d="M20.15,113.19a.18.18,0,0,0-.17.17.17.17,0,0,0,.17.17.16.16,0,0,0,.17-.17A.17.17,0,0,0,20.15,113.19Z"/><path d="M33.2,81.71a.59.59,0,0,0,.35-.37c.08-.25,0-.33-.24-.33H31.4c-.1,0-.2,0-.27,0a2.9,2.9,0,0,0-.57,0h-.43c-.2,0-.24,0-.21.25a.5.5,0,0,0,.11.26.74.74,0,0,0,.21.18c.08,0,.08.09,0,.14l-.11.08a.58.58,0,0,0,0,.92c.17.14.17.14,0,.29a.57.57,0,0,0-.19.62.55.55,0,0,0,.47.43.58.58,0,0,0,.6-.27s0-.1.08-.15l0-.05s0,0,.05.06a.68.68,0,0,0,.38.4c.07,0,.07.06,0,.1a.59.59,0,0,0-.31.25c0,.08,0,.13.06.13h.93c.09,0,.1-.05.07-.11a.64.64,0,0,0-.25-.24c-.15-.08-.15-.08,0-.16a.56.56,0,0,0,.24-.22c.11-.15.11-.15.22,0a.27.27,0,0,0,.07.08.58.58,0,0,0,1-.61.6.6,0,0,0-.32-.34s-.08,0-.08-.06,0-.06.08-.08a.2.2,0,0,0,.08,0,.58.58,0,0,0,0-1l-.1,0C33.1,81.79,33.11,81.75,33.2,81.71Zm-2.43,0a.7.7,0,0,0,.32-.36s0,0,0,0,0,0,.05,0a.63.63,0,0,0,.27.35s.07,0,.07.08a.18.18,0,0,1-.05.07.68.68,0,0,0-.29.36s0,0,0,0,0,0-.05,0a.77.77,0,0,0-.32-.37C30.69,81.79,30.71,81.74,30.77,81.7Zm.69,1.35a.65.65,0,0,0-.28.37l0,.06,0,0a.76.76,0,0,0-.34-.39c-.05,0-.06-.08,0-.11a.76.76,0,0,0,.33-.38s0,0,0,0,0,0,.05.06a.64.64,0,0,0,.28.35C31.53,83,31.55,83,31.46,83.05Zm1.34,0a.61.61,0,0,0-.34.31c-.05.08-.09.06-.12,0a.64.64,0,0,0-.26-.28c-.07,0-.07-.1,0-.15a.71.71,0,0,0,.25-.29q.06-.11.12,0a.61.61,0,0,0,.33.3s.05,0,.06,0S32.83,83,32.8,83Zm0-1.21a.68.68,0,0,0-.34.31l0,0a.07.07,0,0,1-.06-.06.89.89,0,0,0-.28-.3c-.06,0,0-.09,0-.13a.71.71,0,0,0,.27-.3c0-.06.07-.06.11,0a.63.63,0,0,0,.34.32C32.89,81.75,32.87,81.8,32.79,81.83Z"/><path d="M34.22,81.83a.53.53,0,0,0-.56.53.54.54,0,0,0,.55.57.55.55,0,0,0,.56-.55A.54.54,0,0,0,34.22,81.83Z"/><path d="M34.23,83a.55.55,0,1,0,0,1.1.55.55,0,0,0,0-1.1Z"/><path d="M29.3,81.84a.56.56,0,0,0-.55.53.57.57,0,0,0,.53.55.58.58,0,0,0,.56-.53A.57.57,0,0,0,29.3,81.84Z"/><path d="M29.3,83.05a.57.57,0,0,0-.55.53.56.56,0,0,0,.53.55.58.58,0,0,0,.56-.53A.57.57,0,0,0,29.3,83.05Z"/><path d="M35.46,82.89a.52.52,0,1,0-.5-.53A.48.48,0,0,0,35.46,82.89Z"/><path d="M35.5,83.07a.52.52,0,1,0,0,1,.52.52,0,1,0,0-1Z"/><path d="M36.7,81.87a.51.51,0,0,0,0,1,.5.5,0,0,0,.52-.49A.51.51,0,0,0,36.7,81.87Z"/><path d="M36.7,83.09a.51.51,0,0,0-.51.48.51.51,0,0,0,1,0A.5.5,0,0,0,36.7,83.09Z"/><path d="M37.91,81.91a.45.45,0,0,0-.47.46.46.46,0,0,0,.47.48.45.45,0,0,0,.48-.48A.44.44,0,0,0,37.91,81.91Z"/><path d="M28.07,81.91a.45.45,0,0,0-.47.46.47.47,0,1,0,.94,0A.45.45,0,0,0,28.07,81.91Z"/><path d="M28.08,83.12a.46.46,0,0,0-.48.46.47.47,0,0,0,.94,0A.45.45,0,0,0,28.08,83.12Z"/><path d="M34.61,81h-.78c-.11,0-.17,0-.17.16a.54.54,0,0,0,.55.54.55.55,0,0,0,.56-.54C34.76,81.07,34.72,81,34.61,81Z"/><path d="M29.29,81.71a.58.58,0,0,0,.54-.5c0-.13,0-.19-.16-.2s-.24,0-.37,0-.26,0-.39,0-.17.07-.16.2A.59.59,0,0,0,29.29,81.71Z"/><path d="M35,81.2a.49.49,0,0,0,.52.48.5.5,0,0,0,.52-.5c0-.11,0-.17-.17-.17h-.35c-.11,0-.23,0-.35,0S35,81.06,35,81.2Z"/><path d="M37.73,83.15a.48.48,0,0,0-.13.8c.12.11.18.11.3,0l.37-.37c.12-.12.12-.19,0-.31A.5.5,0,0,0,37.73,83.15Z"/><path d="M39,81.93a.49.49,0,0,0-.35.48.47.47,0,0,0,.21.35.2.2,0,0,0,.29,0,3.51,3.51,0,0,1,.33-.34.18.18,0,0,0,0-.27A.49.49,0,0,0,39,81.93Z"/><path d="M37,81h-.69c-.11,0-.15.06-.15.17a.51.51,0,0,0,.5.49.52.52,0,0,0,.51-.49A.15.15,0,0,0,37,81Z"/><path d="M26.83,82a.42.42,0,0,0,0,.83.43.43,0,0,0,.41-.42A.45.45,0,0,0,26.83,82Z"/><path d="M26.85,83.18a.41.41,0,1,0,0,.82.41.41,0,1,0,0-.82Z"/><path d="M38.23,81H37.6c-.11,0-.15.06-.16.16a.48.48,0,0,0,1,0C38.38,81.06,38.33,81,38.23,81Z"/><path d="M28.38,81h-.62c-.11,0-.15.06-.16.16a.47.47,0,0,0,.94,0C28.53,81.07,28.49,81,28.38,81Z"/><path d="M39.45,81h-.61c-.12,0-.17.06-.17.18a.47.47,0,0,0,.48.43.46.46,0,0,0,.45-.44C39.6,81.08,39.56,81,39.45,81Z"/><path d="M27.11,81a1.92,1.92,0,0,0-.24,0h0a2.26,2.26,0,0,0-.26,0c-.14,0-.19.08-.17.21a.45.45,0,0,0,.4.36.44.44,0,0,0,.42-.37A.15.15,0,0,0,27.11,81Z"/><path d="M25.59,83.25a.32.32,0,0,0-.34.33.34.34,0,1,0,.34-.33Z"/><path d="M25.59,82a.32.32,0,0,0-.34.33.31.31,0,0,0,.33.34.34.34,0,1,0,0-.67Z"/><path d="M40.41,81h-.23c-.19,0-.23.06-.21.24a.4.4,0,0,0,.22.3.15.15,0,0,0,.2,0,4.44,4.44,0,0,0,.38-.37c.08-.08,0-.15-.07-.16A2.81,2.81,0,0,0,40.41,81Z"/><path d="M30.51,84.25a.55.55,0,0,0-.49.27c-.06.08,0,.13.07.13h.84c.11,0,.13-.06.07-.14A.57.57,0,0,0,30.51,84.25Z"/><path d="M32.51,84.52c-.06.09,0,.13.07.13h.82c.1,0,.14,0,.08-.14A.58.58,0,0,0,32.51,84.52Z"/><path d="M25.71,81H25.6a1.08,1.08,0,0,0-.18,0c-.14,0-.18.06-.17.21a.32.32,0,0,0,.28.28.35.35,0,0,0,.38-.2C26,81.12,25.91,81,25.71,81Z"/><path d="M34.23,84.3a.52.52,0,0,0-.47.22c0,.07,0,.13.06.13h.78c.09,0,.12-.05.07-.12A.53.53,0,0,0,34.23,84.3Z"/><path d="M24.36,82.09a.28.28,0,0,0-.28.29.28.28,0,0,0,.29.28.29.29,0,0,0,.29-.29A.3.3,0,0,0,24.36,82.09Z"/><path d="M24.36,83.3a.29.29,0,0,0-.28.29.29.29,0,0,0,.29.29.29.29,0,1,0,0-.58Z"/><path d="M29.3,84.31a.55.55,0,0,0-.45.23c-.06.08,0,.12.08.12h.75c.08,0,.09,0,.05-.1A.51.51,0,0,0,29.3,84.31Z"/><path d="M35.05,84.53c-.06.09,0,.12.07.12h.71s.08,0,.1,0,0-.07,0-.09A.55.55,0,0,0,35.05,84.53Z"/><path d="M24.37,81.45a.3.3,0,0,0,.29-.27c0-.14-.06-.17-.29-.17s-.29,0-.29.16A.29.29,0,0,0,24.37,81.45Z"/><path d="M36.7,84.34a.51.51,0,0,0-.41.21c0,.06,0,.1.05.1h.71c.07,0,.09,0,.05-.1A.49.49,0,0,0,36.7,84.34Z"/><path d="M27.71,84.55s0,.1,0,.1h.63c.08,0,.09-.05.05-.11A.48.48,0,0,0,27.71,84.55Z"/><path d="M23.17,82.15a.25.25,0,0,0-.26.22.28.28,0,0,0,.22.24.27.27,0,0,0,.25-.22A.25.25,0,0,0,23.17,82.15Z"/><path d="M23.14,83.36a.24.24,0,0,0-.22.25.25.25,0,0,0,.24.21.26.26,0,0,0,.22-.25A.25.25,0,0,0,23.14,83.36Z"/><path d="M23.14,81.4a.27.27,0,0,0,.24-.23c0-.11-.08-.16-.23-.16s-.24,0-.23.16A.26.26,0,0,0,23.14,81.4Z"/><path d="M27,84.48a.65.65,0,0,0-.15,0,.46.46,0,0,0-.31.12s-.05,0,0,.07,0,0,.07,0H27c.06,0,.16,0,.17,0S27.09,84.51,27,84.48Z"/><path d="M21.89,81.32a.15.15,0,0,0,.16-.16.15.15,0,0,0-.17-.15.14.14,0,0,0-.16.16A.15.15,0,0,0,21.89,81.32Z"/><path d="M21.89,83.43a.15.15,0,0,0-.17.15c0,.11.06.16.17.17s.15,0,.16-.16A.15.15,0,0,0,21.89,83.43Z"/><path d="M21.88,82.22a.15.15,0,0,0-.16.16.15.15,0,0,0,.17.16c.1,0,.15-.07.16-.18A.15.15,0,0,0,21.88,82.22Z"/><path d="M13.26,81a.13.13,0,0,0-.15.14.14.14,0,0,0,.15.15c.09,0,.14,0,.15-.16A.13.13,0,0,0,13.26,81Z"/><path d="M25.62,84.51h-.15s-.11,0-.11.09.08,0,.12,0h.15c.06,0,.18,0,.18,0S25.7,84.51,25.62,84.51Z"/><path d="M14.53,81.06a.09.09,0,0,0-.11.1c0,.06,0,.1.11.11a.11.11,0,0,0,.1-.1C14.63,81.1,14.6,81.06,14.53,81.06Z"/><path d="M20.66,83.48c-.07,0-.11,0-.1.12a.1.1,0,0,0,.11.1c.07,0,.11,0,.1-.12A.1.1,0,0,0,20.66,83.48Z"/><path d="M20.67,82.27a.1.1,0,0,0-.11.11.09.09,0,0,0,.1.1.11.11,0,0,0,0-.21Z"/><path d="M14.52,82.27a.1.1,0,0,0-.1.11.09.09,0,0,0,.1.1.1.1,0,0,0,.11-.1A.1.1,0,0,0,14.52,82.27Z"/><path d="M20.67,81.06a.09.09,0,0,0-.11.1.09.09,0,0,0,.1.11c.07,0,.1,0,.12-.11A.11.11,0,0,0,20.67,81.06Z"/><path d="M13.27,82.22s-.08,0-.08,0,.13.18.17.18a.06.06,0,0,0,.05-.08A.16.16,0,0,0,13.27,82.22Z"/><path d="M24.42,84.56h0c-.06,0-.15,0-.15,0s.09,0,.14,0h0s.1,0,.1,0S24.46,84.57,24.42,84.56Z"/><path d="M19.43,81.21a.05.05,0,0,0,.07,0,.05.05,0,0,0,0-.06s-.06,0-.07,0S19.4,81.21,19.43,81.21Z"/><path d="M19.45,82.43s.05,0,.05-.06,0-.05-.06,0-.05,0-.05.06A.05.05,0,0,0,19.45,82.43Z"/><path d="M15.73,82.33a0,0,0,0,0,0,.06.05.05,0,0,0,.06,0s.05,0,0-.06A0,0,0,0,0,15.73,82.33Z"/><path d="M15.73,83.54s-.05,0,0,.06,0,.05.06,0,.05,0,0-.06S15.76,83.54,15.73,83.54Z"/><path d="M19.44,83.54s-.05,0-.05.06,0,.05.06,0,.05,0,.05-.06S19.47,83.53,19.44,83.54Z"/><path d="M15.73,81.11s-.05,0,0,.06,0,0,.06,0,.05,0,0-.06A.05.05,0,0,0,15.73,81.11Z"/><path d="M23.18,84.61a.06.06,0,0,0-.08,0s0,0,0,0h.09Z"/><path d="M30.51,119.79a.55.55,0,0,0-.54.55.53.53,0,0,0,.55.52.52.52,0,0,0,.53-.54A.56.56,0,0,0,30.51,119.79Z"/><path d="M30.51,119.61a.54.54,0,0,0,.54-.53.51.51,0,0,0-.53-.54.54.54,0,0,0-.55.52A.55.55,0,0,0,30.51,119.61Z"/><path d="M31.79,119.8a.55.55,0,0,0-.55.53.55.55,0,0,0,.53.52.53.53,0,0,0,.53-.51A.54.54,0,0,0,31.79,119.8Z"/><path d="M31.77,118.55a.53.53,0,1,0,.53.52A.53.53,0,0,0,31.77,118.55Z"/><path d="M29.29,119.84a.49.49,0,1,0,.49.48A.5.5,0,0,0,29.29,119.84Z"/><path d="M29.28,118.59a.47.47,0,0,0-.48.48.49.49,0,1,0,1,0A.48.48,0,0,0,29.28,118.59Z"/><path d="M33,120.81a.48.48,0,1,0,0-1,.5.5,0,0,0-.49.48A.5.5,0,0,0,33,120.81Z"/><path d="M33,119.55a.48.48,0,1,0,0-1,.5.5,0,0,0-.48.49A.49.49,0,0,0,33,119.55Z"/><path d="M28.08,119.5a.42.42,0,0,0,.42-.43.43.43,0,1,0-.86,0A.42.42,0,0,0,28.08,119.5Z"/><path d="M34.21,119.5a.45.45,0,0,0,.44-.42.44.44,0,0,0-.87,0A.45.45,0,0,0,34.21,119.5Z"/><path d="M34.21,120.76a.44.44,0,0,0,.43-.43.41.41,0,0,0-.42-.43.42.42,0,0,0-.44.42A.45.45,0,0,0,34.21,120.76Z"/><path d="M28.06,119.9a.43.43,0,1,0,.44.42A.43.43,0,0,0,28.06,119.9Z"/><path d="M35.48,119.43a.34.34,0,0,0,.35-.36.36.36,0,0,0-.71,0A.34.34,0,0,0,35.48,119.43Z"/><path d="M35.49,120a.36.36,0,1,0,0,.71.33.33,0,0,0,.36-.35A.34.34,0,0,0,35.49,120Z"/><path d="M26.84,118.72a.35.35,0,0,0-.35.36.36.36,0,1,0,.35-.36Z"/><path d="M26.84,120a.37.37,0,0,0-.35.37.36.36,0,0,0,.72,0A.37.37,0,0,0,26.84,120Z"/><path d="M30.51,121a.52.52,0,0,0-.5.31c0,.07,0,.1.06.1h.87c.06,0,.1,0,.07-.1A.52.52,0,0,0,30.51,121Z"/><path d="M31.77,121a.55.55,0,0,0-.48.31c0,.06,0,.09.05.09h.85c.07,0,.1,0,.06-.09A.5.5,0,0,0,31.77,121Z"/><path d="M25.58,118.77a.33.33,0,0,0-.3.29.35.35,0,0,0,.3.32.31.31,0,1,0,0-.61Z"/><path d="M25.59,120a.32.32,0,0,0-.31.3.33.33,0,0,0,.31.3.3.3,0,1,0,0-.6Z"/><path d="M36.7,120a.3.3,0,0,0-.3.27.31.31,0,0,0,.3.31.29.29,0,0,0,0-.58Z"/><path d="M36.69,119.37a.3.3,0,1,0-.29-.32A.32.32,0,0,0,36.69,119.37Z"/><path d="M29.28,121.06a.46.46,0,0,0-.43.27s0,.09,0,.09h.76c.08,0,.11,0,.06-.1A.45.45,0,0,0,29.28,121.06Z"/><path d="M33,121.42h.35c.09,0,.11,0,.07-.11a.47.47,0,0,0-.41-.25.45.45,0,0,0-.42.25c0,.08,0,.1.06.11Z"/><path d="M24.61,120.34a.27.27,0,0,0-.24-.26.28.28,0,0,0-.25.24.26.26,0,0,0,.25.25A.26.26,0,0,0,24.61,120.34Z"/><path d="M24.36,119.32a.26.26,0,0,0,.25-.25.26.26,0,0,0-.23-.24.27.27,0,0,0-.26.24A.28.28,0,0,0,24.36,119.32Z"/><path d="M28.39,121.42c.07,0,.07,0,.05-.09a.42.42,0,0,0-.36-.21.41.41,0,0,0-.38.21s0,.08.05.09h.64Z"/><path d="M34.2,121.42h.33c.07,0,.08,0,0-.1a.42.42,0,0,0-.72,0c0,.06,0,.09,0,.1Z"/><path d="M14.75,120.33a.23.23,0,1,0-.25.22A.24.24,0,0,0,14.75,120.33Z"/><path d="M23.14,119.26a.19.19,0,1,0,0-.37.17.17,0,0,0-.19.19A.18.18,0,0,0,23.14,119.26Z"/><path d="M37.91,119.26a.17.17,0,0,0,.19-.19.19.19,0,0,0-.37,0A.18.18,0,0,0,37.91,119.26Z"/><path d="M37.89,120.51a.17.17,0,0,0,.21-.17.16.16,0,0,0-.18-.19.16.16,0,0,0-.19.15A.17.17,0,0,0,37.89,120.51Z"/><path d="M23.33,120.33a.16.16,0,0,0-.19-.18.18.18,0,1,0,.19.18Z"/><path d="M35.18,121.33s0,.08,0,.09h.54s0,0,0-.08A.37.37,0,0,0,35.18,121.33Z"/><path d="M26.85,121.42a.57.57,0,0,0,.13,0c.06,0,.15,0,.16,0s-.06-.1-.11-.13a.3.3,0,0,0-.37,0c-.05,0-.07.09-.11.14l.15,0Z"/><path d="M15.76,119.23c.06,0,.15-.1.14-.17a.2.2,0,0,0-.16-.15.2.2,0,0,0-.16.16A.18.18,0,0,0,15.76,119.23Z"/><path d="M15.9,120.33c0-.07-.1-.17-.17-.16a.2.2,0,0,0-.15.17.22.22,0,0,0,.16.15A.19.19,0,0,0,15.9,120.33Z"/><path d="M25.69,121.42l.13,0-.09-.11a.24.24,0,0,0-.27,0,1.31,1.31,0,0,0-.11.12l.14,0h.2Z"/><path d="M22.06,120.33a.14.14,0,0,0-.14-.14.13.13,0,0,0-.13.14.12.12,0,0,0,.14.13A.12.12,0,0,0,22.06,120.33Z"/><path d="M21.94,119.21a.13.13,0,0,0,.12-.15.12.12,0,0,0-.14-.12.13.13,0,0,0-.13.14A.14.14,0,0,0,21.94,119.21Z"/><path d="M21.92,118a.14.14,0,0,0,.14-.14.13.13,0,0,0-.13-.14.14.14,0,0,0-.14.14A.13.13,0,0,0,21.92,118Z"/><path d="M36.93,121.38s-.1-.1-.15-.11a.6.6,0,0,0-.23,0s-.06.07-.09.11l.13,0h0a.62.62,0,0,0-.23.14.54.54,0,0,0-.16.42.52.52,0,0,0,.17.39.4.4,0,0,0,.41.15.42.42,0,0,0,.39-.15.48.48,0,0,0,.17-.39.56.56,0,0,0-.54-.58Z"/><path d="M13.29,121.42h0c.06,0,.17,0,.17,0s-.11-.1-.19-.1l-.16,0s0,0-.05.07l.08,0Z"/><path d="M37.88,123.87a.51.51,0,0,0-.4.33.6.6,0,0,0,.39.8l0,0,0,0-.08,0a.6.6,0,0,0-.31.72.87.87,0,0,0,.16.26c.08.11.19.09.29.09h.37a.17.17,0,0,0,.1,0c.09-.09.21-.17.22-.32l0,0,0,0c0,.12.09.18.16.26s.19.09.29.09h.37a.17.17,0,0,0,.1,0c.09-.09.21-.17.22-.32l.05,0,0,0c0,.12.09.18.16.26s.19.08.29.09h.35c.14,0,.2-.06.21-.21v-.58a.28.28,0,0,0-.21-.3h-.08l0,0s0,0,0,0h.08a.28.28,0,0,0,.21-.3c0-.19,0-.39,0-.58a.19.19,0,0,0-.09-.18l-.15-.07h0l0-.05,0,0c.26-.08.27-.08.27-.34v-.2a1.71,1.71,0,0,1,0-.32.2.2,0,0,0-.11-.21.62.62,0,0,0-.29-.09.6.6,0,0,0-.47.18.39.39,0,0,0-.14.25s0,0,0,0-.05,0-.05,0a.43.43,0,0,0-.16-.26.59.59,0,0,0-1,.26s0,0,0,0,0,0,0,0a.57.57,0,0,0-.76-.39.58.58,0,0,0-.42.53.59.59,0,0,0,.44.6,0,0,0,0,1,0,0S37.89,123.87,37.88,123.87Zm1.55-.08a.39.39,0,0,0,.25-.14.41.41,0,0,0,.15-.27l0,0,0,0a.49.49,0,0,0,.42.42s0,0,0,0l-.06,0a.5.5,0,0,0-.39.39s0,0,0,0-.05,0-.05,0c0-.2-.18-.29-.33-.38s0,0-.08,0a.09.09,0,0,1,0-.05Zm0,1.21a.58.58,0,0,0,.38-.32s0-.06,0-.09,0,0,.05,0a0,0,0,0,1,0,0,.35.35,0,0,0,.14.25.39.39,0,0,0,.27.15s0,0,0,0l0,0a.49.49,0,0,0-.42.42s0,0,0,0,0,0,0-.06a.5.5,0,0,0-.39-.39s0,0,0,0S39.42,125,39.44,125Zm-1.22-1.22a.49.49,0,0,0,.39-.38s0,0,0-.05,0,0,0,0a.49.49,0,0,0,.4.4s0,0,.08.06l-.07,0a.49.49,0,0,0-.41.39s0,0,0,0,0,0,0,0a.55.55,0,0,0-.39-.38l0-.05Zm0,1.22a.5.5,0,0,0,.39-.39s0,0,0,0,0,0,0,0a.52.52,0,0,0,.39.39s0,0,.05,0l0,0a.5.5,0,0,0-.4.4s0,0,0,0,0,0,0,0a.5.5,0,0,0-.4-.4l0,0S38.2,125,38.22,125Z"/><path d="M38,122.57a.58.58,0,0,0,.6-.44,0,0,0,0,1,0,0s0,0,0,0a.37.37,0,0,0,.16.28.59.59,0,0,0,1-.26s0,0,.05,0,0,0,0,0a.56.56,0,0,0,.36.39.64.64,0,0,0,.54,0,.19.19,0,0,0,.11-.21,1.6,1.6,0,0,1,0-.31c0-.1,0-.21,0-.32a.16.16,0,0,0-.08-.16.26.26,0,0,0-.21-.08h-.28a.32.32,0,0,0-.25.09c-.09.09-.19.17-.19.31s0,0,0,0a0,0,0,0,1,0,0c-.14-.45-.48-.43-.85-.35a.27.27,0,0,0-.1.06c-.09.09-.19.17-.19.31l0,0,0,0c0-.15-.1-.22-.19-.31a.27.27,0,0,0-.22-.1c-.17,0-.35-.05-.5.06a.61.61,0,0,0-.23.69A.63.63,0,0,0,38,122.57Z"/><path d="M37.23,124a.45.45,0,0,0-.39-.17.55.55,0,0,0-.59.56.56.56,0,0,0,.56.57.54.54,0,0,0,.42-.16.45.45,0,0,0,.16-.39C37.39,124.2,37.38,124.2,37.23,124Z"/><path d="M37.23,122.82a.51.51,0,0,0-.39-.17.57.57,0,0,0-.41.16.57.57,0,0,0,0,.82.55.55,0,0,0,.39.16.54.54,0,0,0,.42-.16.44.44,0,0,0,.15-.42A.4.4,0,0,0,37.23,122.82Z"/><path d="M37.08,125.13a.24.24,0,0,0-.2,0c-.1,0-.2,0-.31,0a.9.9,0,0,0-.28.3c-.06.1,0,.21,0,.31a.3.3,0,0,0,.1.26c.17.18.17.18.42.18H37a.11.11,0,0,0,.08,0,.58.58,0,0,0,0-1Z"/><path d="M35.54,122.49a.53.53,0,0,0,0-1A.53.53,0,0,0,35,122,.54.54,0,0,0,35.54,122.49Z"/><path d="M35.56,125.12a.55.55,0,0,0-.53.53.54.54,0,0,0,.54.52.51.51,0,0,0,.51-.53A.52.52,0,0,0,35.56,125.12Z"/><path d="M35.58,123.91a.53.53,0,0,0,0,1,.55.55,0,0,0,.55-.52A.54.54,0,0,0,35.58,123.91Z"/><path d="M35.56,122.69a.55.55,0,0,0-.53.54.54.54,0,0,0,.55.52.53.53,0,0,0,0-1.06Z"/><path d="M33.86,122a.43.43,0,0,0,.13.34.42.42,0,0,0,.33.14.47.47,0,0,0,.5-.47.37.37,0,0,0-.14-.34.45.45,0,0,0-.33-.15A.48.48,0,0,0,33.86,122Z"/><path d="M34.68,124.1a.45.45,0,0,0-.33-.15.45.45,0,0,0-.35.15.43.43,0,0,0-.14.33.48.48,0,0,0,.47.48.43.43,0,0,0,.35-.14.39.39,0,0,0,.14-.32A.38.38,0,0,0,34.68,124.1Z"/><path d="M33.86,123.23a.43.43,0,0,0,.14.33.47.47,0,0,0,.36.14.48.48,0,0,0,0-1A.46.46,0,0,0,33.86,123.23Z"/><path d="M34.33,125.17a.36.36,0,0,0-.33.14.4.4,0,0,0-.14.33.48.48,0,0,0,.46.49.46.46,0,0,0,.35-.14.43.43,0,0,0,.15-.33A.48.48,0,0,0,34.33,125.17Z"/><path d="M33.11,121.53a.44.44,0,0,0,0,.87.44.44,0,0,0,0-.87Z"/><path d="M33.12,124a.44.44,0,1,0,0,.87.42.42,0,0,0,.44-.43A.43.43,0,0,0,33.12,124Z"/><path d="M33.55,123.22a.41.41,0,0,0-.41-.43.43.43,0,1,0,.41.43Z"/><path d="M33.11,125.22a.4.4,0,0,0-.42.42.42.42,0,0,0,.42.44.43.43,0,0,0,.44-.43A.42.42,0,0,0,33.11,125.22Z"/><path d="M31.85,122.35a.4.4,0,0,0,.4-.39.41.41,0,0,0-.4-.39.42.42,0,0,0-.39.38A.4.4,0,0,0,31.85,122.35Z"/><path d="M31.87,124a.42.42,0,0,0-.41.39.4.4,0,0,0,.79,0A.41.41,0,0,0,31.87,124Z"/><path d="M31.86,125.26a.39.39,0,1,0,.39.4A.4.4,0,0,0,31.86,125.26Z"/><path d="M31.85,122.83a.39.39,0,1,0,.4.39A.41.41,0,0,0,31.85,122.83Z"/><path d="M30.89,121.73a.41.41,0,0,0-.25-.11.33.33,0,0,0-.24.1.38.38,0,0,0-.11.23c0,.1.05.18.1.25a.41.41,0,0,0,.23.11.34.34,0,0,0,.26-.1c.06,0,.08-.16.12-.24S31,121.78,30.89,121.73Z"/><path d="M30.88,124.19c-.07,0-.16-.13-.26-.1s-.19,0-.23.1-.13.16-.1.26a.38.38,0,0,0,.11.23c.07,0,.14.11.24.1a.42.42,0,0,0,.25-.12c.06,0,.07-.15.11-.23S30.94,124.23,30.88,124.19Z"/><path d="M30.65,125.3a.35.35,0,0,0-.26.1.44.44,0,0,0-.1.24c0,.1.05.18.1.25s.16.08.24.12.19-.05.24-.11a.42.42,0,0,0,.12-.25.47.47,0,0,0-.1-.24A.45.45,0,0,0,30.65,125.3Z"/><path d="M30.63,122.86a.66.66,0,0,0-.25.13.39.39,0,0,0-.09.24.35.35,0,0,0,.1.23c.07.05.16.13.26.1a.44.44,0,0,0,.23-.1.47.47,0,0,0,.1-.24c0-.09-.05-.17-.09-.23S30.73,122.9,30.63,122.86Z"/><path d="M29.72,122a.35.35,0,0,0-.29-.3.31.31,0,1,0,.29.3Z"/><path d="M29.41,124.13a.31.31,0,1,0,.31.3A.33.33,0,0,0,29.41,124.13Z"/><path d="M29.42,125.34a.31.31,0,0,0,0,.61.33.33,0,0,0,.32-.29A.34.34,0,0,0,29.42,125.34Z"/><path d="M29.4,122.92a.3.3,0,1,0,0,.6.32.32,0,0,0,.3-.31A.33.33,0,0,0,29.4,122.92Z"/><path d="M13.18,122.18c.06,0,.15,0,.2.09s.14,0,.21-.09,0-.16.11-.21,0-.18-.12-.22-.14-.1-.2-.08-.17,0-.21.1a1.89,1.89,0,0,0-.09.21C13.15,122,13.11,122.12,13.18,122.18Z"/><path d="M13.58,124.22c-.07,0-.15-.1-.2-.08s-.17,0-.22.11-.05.13-.08.2,0,.14.1.2.15,0,.21.09.17,0,.21-.11a1.36,1.36,0,0,0,.1-.21C13.62,124.38,13.67,124.26,13.58,124.22Z"/><path d="M13.4,125.34a1.21,1.21,0,0,0-.2.09c-.09,0-.09.14-.11.21s.05.14.08.2.15,0,.22.12.14,0,.2-.09,0-.16.1-.22,0-.14-.09-.21S13.45,125.42,13.4,125.34Z"/><path d="M13.38,123.53c.07-.06.18,0,.22-.11s.1-.15.08-.2,0-.18-.1-.22l-.21-.08c0,.07-.14,0-.2.09s0,.15-.09.21,0,.14.09.2S13.33,123.46,13.38,123.53Z"/><path d="M28.2,124.17a.27.27,0,0,0-.26.26.26.26,0,0,0,.52,0A.28.28,0,0,0,28.2,124.17Z"/><path d="M28.2,125.39a.26.26,0,0,0-.26.26.26.26,0,1,0,.26-.26Z"/><path d="M28.19,123a.26.26,0,0,0-.25.26.26.26,0,0,0,.26.26.26.26,0,1,0,0-.52Z"/><path d="M28.2,121.7a.26.26,0,0,0-.26.26.25.25,0,0,0,.25.26.26.26,0,0,0,.27-.25A.28.28,0,0,0,28.2,121.7Z"/><path d="M14.66,121.75c-.16,0-.23,0-.23.2s.05.23.22.23.22-.06.22-.21S14.81,121.75,14.66,121.75Z"/><path d="M14.62,124.22c-.17,0-.23,0-.23.22s.06.21.22.21.21-.06.21-.21S14.77,124.22,14.62,124.22Z"/><path d="M14.6,125.43c-.15,0-.21.06-.21.22s.06.21.22.21.22,0,.21-.23S14.76,125.43,14.6,125.43Z"/><path d="M14.6,123c-.16,0-.21.07-.21.24s.06.2.23.2.21-.07.2-.23S14.76,123,14.6,123Z"/><path d="M27,121.75a.21.21,0,0,0-.23.19.21.21,0,0,0,.21.24.22.22,0,0,0,0-.43Z"/><path d="M26.72,124.42a.22.22,0,1,0,.43,0,.22.22,0,0,0-.43,0Z"/><path d="M26.93,123.44a.21.21,0,0,0,.22-.21.22.22,0,0,0-.43,0A.21.21,0,0,0,26.93,123.44Z"/><path d="M26.92,125.43a.21.21,0,0,0-.2.22.21.21,0,0,0,.21.21.22.22,0,1,0,0-.43Z"/><path d="M25.71,121.79a.18.18,0,0,0-.17.17.19.19,0,0,0,.17.18.18.18,0,0,0,.18-.18A.19.19,0,0,0,25.71,121.79Z"/><path d="M25.72,123.05a.17.17,0,1,0,0,.34.18.18,0,0,0,.18-.16A.18.18,0,0,0,25.72,123.05Z"/><path d="M25.73,124.26a.18.18,0,1,0,0,.35.19.19,0,0,0,.18-.17A.18.18,0,0,0,25.73,124.26Z"/><path d="M25.72,125.47a.18.18,0,0,0-.18.17.18.18,0,0,0,.18.18.18.18,0,0,0,.17-.18A.18.18,0,0,0,25.72,125.47Z"/><path d="M15.88,122.09c.09,0,.12,0,.12-.14s0-.12-.13-.12-.14,0-.13.15A.11.11,0,0,0,15.88,122.09Z"/><path d="M24.5,121.83a.12.12,0,0,0-.14.12c0,.11,0,.15.14.14s.13,0,.13-.13S24.59,121.84,24.5,121.83Z"/><path d="M24.5,123.09c-.09,0-.13,0-.14.12s0,.14.14.14.13,0,.13-.13S24.59,123.09,24.5,123.09Z"/><path d="M24.51,124.3c-.11,0-.15,0-.15.14s0,.12.13.12.13,0,.14-.12A.12.12,0,0,0,24.51,124.3Z"/><path d="M15.74,124.44c0,.09,0,.12.13.12s.13,0,.13-.12,0-.13-.12-.14S15.74,124.34,15.74,124.44Z"/><path d="M15.88,123.09c-.1,0-.14,0-.14.14s0,.12.13.12.13,0,.13-.12S16,123.09,15.88,123.09Z"/><path d="M15.86,125.52c-.09,0-.12,0-.12.13s0,.14.15.13a.12.12,0,0,0,.11-.15A.11.11,0,0,0,15.86,125.52Z"/><path d="M24.49,125.52c-.09,0-.13,0-.13.13s.05.13.15.13a.12.12,0,0,0,.12-.14C24.62,125.55,24.58,125.52,24.49,125.52Z"/><path d="M23.24,124.31s-.15.1-.14.12.08.12.13.13.09-.07.15-.12A.83.83,0,0,0,23.24,124.31Z"/><path d="M23.24,123.34s.09-.07.14-.12-.1-.12-.15-.12-.09.07-.13.11S23.19,123.33,23.24,123.34Z"/><path d="M23.24,121.84s-.15.1-.14.12.08.12.13.13.09-.07.15-.12A.83.83,0,0,0,23.24,121.84Z"/><path d="M23.1,125.64s.11.15.14.14l.14-.14c-.06,0-.1-.12-.15-.11S23.14,125.6,23.1,125.64Z"/><path d="M21.92,122c0,.06,0,.1.08.09s.1,0,.1-.09,0-.09-.08-.08S21.93,121.88,21.92,122Z"/><path d="M22,123.13c-.06,0-.09,0-.09.08s0,.09.09.1.1,0,.09-.08S22.1,123.14,22,123.13Z"/><path d="M22,124.35c-.1,0-.09,0-.1.09s0,.08.09.08.09,0,.09-.1S22.07,124.34,22,124.35Z"/><path d="M22,125.56c-.1,0-.09,0-.1.09s0,.09.08.09.1,0,.1-.09S22.1,125.55,22,125.56Z"/></svg>