<svg xmlns="http://www.w3.org/2000/svg" viewBox="0 0 219.22 95.68"><defs><style>.a{fill:#0080ff;fill-rule:evenodd;}</style></defs><path class="a" d="M96.72,51.07h0V44H88.64v-14H80.17V44H63.46L66,51.07H80.17V84.16c0,6.13,2,10.75,10.23,10.75.93,0,3.24-.39,6.32-.58V87.6H93.83c-1.73,0-5.19,0-5.19-3.85V51.07Zm16.93,43.26h-8.46V44h8.46Zm44.22-33.45h0c-1-6.73-4.81-10.77-11.92-10.77-10.59,0-13.86,10-13.86,19,0,8.65,2.15,19.21,13.86,19.21,5.58,0,10.58-4.21,11.92-11.9h8.28c-1,8.08-5.77,19.21-20.59,19.21-14.24,0-22.51-10.58-22.51-25.18,0-15.58,7.53-27.87,24.24-27.87,13.09,0,18.09,9.6,18.86,18.25Zm47.31,16h0c0,6.74-7.7,11.9-15.59,11.9-6.35,0-9-3.24-9-8.82,0-6.35,6.54-7.53,10.77-8.08,10.39-1.35,12.51-2.12,13.86-3.27Zm11.35,11.71h0c-1.76,0-2.89-1-2.89-3V56.65c0-12.89-14.62-14-18.66-14-12.29,0-20.39,4.59-20.78,16.71v1.54h7.89V59.34c.6-3.84,1.92-9.81,11.54-9.81,7.89,0,11.74,2.89,11.74,8.27,0,5-2.31,5.78-4.43,6L187.09,65.5c-14,1.73-15.36,11.52-15.36,15.78,0,8.63,6.51,14.4,15.75,14.4,9.81,0,15-4.62,18.27-8.08.2,3.85,1.32,7.69,8.85,7.69a14.85,14.85,0,0,0,4.62-1V88.2A17.1,17.1,0,0,1,216.53,88.56Z"/><polygon class="a" points="44.25 21.85 37.98 32.72 38.29 33.56 48.42 61.65 23.15 61.65 33.28 33.56 33.59 32.72 27.32 21.85 26.53 23.96 0 94.33 11.35 94.33 19.68 71.27 51.9 71.27 60.22 94.33 71.57 94.33 44.25 21.85"/><polygon class="a" points="48.42 0 35.79 21.89 23.15 0 48.42 0"/></svg>