<svg xmlns="http://www.w3.org/2000/svg" viewBox="0 0 219.22 148.56"><defs><style>.a,.c{fill:#0080ff;}.a{fill-rule:evenodd;}.b{fill:#8fc7ff;}</style></defs><path class="a" d="M96.72,51.07h0V44H88.64v-14H80.17V44H63.46L66,51.07H80.17V84.16c0,6.13,2,10.75,10.23,10.75.93,0,3.24-.39,6.32-.58V87.6H93.83c-1.73,0-5.19,0-5.19-3.85V51.07Zm16.93,43.26h-8.46V44h8.46Zm44.22-33.45h0c-1-6.73-4.81-10.77-11.92-10.77-10.59,0-13.86,10-13.86,19,0,8.65,2.15,19.21,13.86,19.21,5.58,0,10.58-4.21,11.92-11.9h8.28c-1,8.08-5.77,19.21-20.59,19.21-14.24,0-22.51-10.58-22.51-25.18,0-15.58,7.53-27.87,24.24-27.87,13.09,0,18.09,9.6,18.86,18.25Zm47.31,16h0c0,6.74-7.7,11.9-15.59,11.9-6.35,0-9-3.24-9-8.82,0-6.35,6.54-7.53,10.77-8.08,10.39-1.35,12.51-2.12,13.86-3.27Zm11.35,11.71h0c-1.76,0-2.89-1-2.89-3V56.65c0-12.89-14.62-14-18.66-14-12.29,0-20.39,4.59-20.78,16.71v1.54h7.89V59.34c.6-3.84,1.92-9.81,11.54-9.81,7.89,0,11.74,2.89,11.74,8.27,0,5-2.31,5.78-4.43,6L187.09,65.5c-14,1.73-15.36,11.52-15.36,15.78,0,8.63,6.51,14.4,15.75,14.4,9.81,0,15-4.62,18.27-8.08.2,3.85,1.32,7.69,8.85,7.69a14.85,14.85,0,0,0,4.62-1V88.2A17.1,17.1,0,0,1,216.53,88.56Z"/><polygon class="a" points="44.25 21.85 37.98 32.72 38.29 33.56 48.42 61.65 23.15 61.65 33.28 33.56 33.59 32.72 27.32 21.85 26.53 23.96 0 94.33 11.35 94.33 19.68 71.27 51.9 71.27 60.22 94.33 71.57 94.33 44.25 21.85"/><polygon class="a" points="48.42 0 35.79 21.89 23.15 0 48.42 0"/><path class="b" d="M14.37,128.16H.24V109H14.18v2.29H2.82v5.87H13.3v2.29H2.82v6.4H14.37Z"/><path class="b" d="M25.37,118.19c0-.88-.34-2.35-3.3-2.35-.72,0-2.77.24-2.77,2,0,1.14.72,1.41,2.53,1.86l2.34.59c2.91.72,3.92,1.78,3.92,3.68,0,2.88-2.37,4.61-5.51,4.61-5.52,0-5.92-3.2-6-4.88h2.26c.08,1.09.4,2.85,3.71,2.85,1.68,0,3.2-.66,3.2-2.21,0-1.12-.78-1.49-2.78-2l-2.72-.67c-1.94-.48-3.22-1.46-3.22-3.38,0-3.07,2.53-4.45,5.28-4.45,5,0,5.33,3.68,5.33,4.37Z"/><path class="b" d="M39.5,118.91a3.1,3.1,0,0,0-3.31-3c-2.9,0-3.83,2.78-3.83,5.25s.58,5.36,3.81,5.36c1.57,0,2.93-1.17,3.33-3.3h2.26c-.23,2.21-1.59,5.33-5.67,5.33-3.92,0-6.24-3-6.24-7,0-4.31,2.08-7.75,6.69-7.75,3.65,0,5,2.66,5.22,5.09Z"/><path class="b" d="M53.2,128.16v-2l-.05,0a4.62,4.62,0,0,1-4.43,2.48c-2,0-4.53-1-4.53-4.32v-10h2.34v9.25c0,2.29,1.18,3.06,2.7,3.06,3,0,3.84-2.61,3.84-4.64v-7.67h2.34v13.94Z"/><path class="b" d="M70.76,123.79a5.8,5.8,0,0,1-6.26,4.77c-3.92,0-6.24-3-6.24-7,0-4.31,2.08-7.75,6.69-7.75,4,0,6,3.2,6,8.13H60.77c0,2.9,1.36,4.58,4,4.58a3.54,3.54,0,0,0,3.6-2.74Zm-2.24-3.71c-.13-2.16-1-4.16-3.89-4.16a4.09,4.09,0,0,0-3.86,4.16Z"/><path class="b" d="M76.15,128.16H73.8V109h2.35Z"/><path class="b" d="M79.58,118.45c.11-3.33,2.32-4.63,5.76-4.63,1.12,0,5.17.32,5.17,3.89v8c0,.59.3.83.78.83a4,4,0,0,0,.77-.11v1.71a4.6,4.6,0,0,1-1.28.26c-2.08,0-2.4-1.06-2.48-2.13a6.32,6.32,0,0,1-5,2.27c-2.56,0-4.37-1.63-4.37-4,0-1.17.35-3.89,4.24-4.37l3.87-.48c.56-.05,1.22-.27,1.22-1.65s-1.07-2.27-3.28-2.27c-2.66,0-3,1.63-3.2,2.69ZM88.17,121c-.38.29-1,.51-3.87.88-1.14.16-3,.51-3,2.27,0,1.52.77,2.42,2.53,2.42,2.19,0,4.32-1.41,4.32-3.28Z"/><path class="b" d="M113.46,148.16h-2.21v-1.92h0a4.22,4.22,0,0,1-4,2.32c-4.74,0-6.13-4.45-6.13-7.79,0-3.91,2.11-7,5.81-7a4.71,4.71,0,0,1,4.16,2.37l.06-.19v-7h2.34Zm-6.18-1.63c1.49,0,3.81-1,3.81-4.69,0-2.26-.37-5.92-3.76-5.92-3.62,0-3.81,3.44-3.81,5.23C103.52,144.21,104.72,146.53,107.28,146.53Z"/><path class="b" d="M128.55,143.79a5.81,5.81,0,0,1-6.27,4.77c-3.92,0-6.23-3-6.23-7,0-4.31,2.07-7.75,6.69-7.75,4,0,6,3.2,6,8.13H118.55c0,2.9,1.36,4.58,4,4.58a3.53,3.53,0,0,0,3.6-2.74Zm-2.24-3.71c-.13-2.16-1-4.16-3.89-4.16a4.1,4.1,0,0,0-3.87,4.16Z"/><path class="c" d="M139.37,129h7.75c5,0,8,3.78,8,9.3,0,4.29-1.86,9.84-8.15,9.84h-7.65ZM142,146h5c3.36,0,5.55-2.64,5.55-7.47s-2.21-7.25-5.73-7.25H142Z"/><path class="c" d="M158.24,131.68V129h2.34v2.66Zm2.34,16.48h-2.34V134.22h2.34Z"/><path class="c" d="M172,138.19c0-.88-.35-2.35-3.31-2.35-.72,0-2.77.24-2.77,2,0,1.14.72,1.41,2.53,1.86l2.35.59c2.9.72,3.92,1.78,3.92,3.68,0,2.88-2.37,4.61-5.52,4.61-5.52,0-5.92-3.2-6-4.88h2.27c.08,1.09.4,2.85,3.7,2.85,1.68,0,3.2-.66,3.2-2.21,0-1.12-.77-1.49-2.77-2l-2.72-.67c-2-.48-3.23-1.46-3.23-3.38,0-3.07,2.54-4.45,5.28-4.45,5,0,5.33,3.68,5.33,4.37Z"/><path class="c" d="M189.26,143.79a5.8,5.8,0,0,1-6.26,4.77c-3.92,0-6.24-3-6.24-7,0-4.31,2.08-7.75,6.69-7.75,4,0,6,3.2,6,8.13H179.27c0,2.9,1.36,4.58,4,4.58a3.54,3.54,0,0,0,3.6-2.74ZM187,140.08c-.13-2.16-1-4.16-3.89-4.16a4.09,4.09,0,0,0-3.86,4.16Z"/><path class="c" d="M203.6,148.16h-2.34v-8.58c0-2.43-.7-3.66-3-3.66-1.33,0-3.68.86-3.68,4.64v7.6h-2.34V134.22h2.21v2h0a5,5,0,0,1,4.21-2.37c2.16,0,4.88.88,4.88,4.85Zm-1.38-19.25c-.19,1.6-1.15,2.91-2.67,2.91a4.69,4.69,0,0,1-1.57-.35l-.69-.24a5.27,5.27,0,0,0-1.63-.4c-.72,0-1,.48-1.25,1.17h-1.28c.21-1.57,1-2.85,2.77-2.85a5,5,0,0,1,1.81.4l.59.24a4.07,4.07,0,0,0,1.25.35c1.07,0,1.23-.72,1.33-1.23Z"/><path class="c" d="M212.74,133.82c4.46,0,6.48,3.76,6.48,7.35s-2,7.36-6.48,7.36-6.47-3.76-6.47-7.36S208.29,133.82,212.74,133.82Zm0,12.69c3.36,0,4.06-3.47,4.06-5.34s-.7-5.33-4.06-5.33-4.05,3.47-4.05,5.33S209.38,146.51,212.74,146.51Z"/><path class="a" d="M96.72,51.07h0V44H88.64v-14H80.17V44H63.46L66,51.07H80.17V84.16c0,6.13,2,10.75,10.23,10.75.93,0,3.24-.39,6.32-.58V87.6H93.83c-1.73,0-5.19,0-5.19-3.85V51.07Zm16.93,43.26h-8.46V44h8.46Zm44.22-33.45h0c-1-6.73-4.81-10.77-11.92-10.77-10.59,0-13.86,10-13.86,19,0,8.65,2.15,19.21,13.86,19.21,5.58,0,10.58-4.21,11.92-11.9h8.28c-1,8.08-5.77,19.21-20.59,19.21-14.24,0-22.51-10.58-22.51-25.18,0-15.58,7.53-27.87,24.24-27.87,13.09,0,18.09,9.6,18.86,18.25Zm47.31,16h0c0,6.74-7.7,11.9-15.59,11.9-6.35,0-9-3.24-9-8.82,0-6.35,6.54-7.53,10.77-8.08,10.39-1.35,12.51-2.12,13.86-3.27Zm11.35,11.71h0c-1.76,0-2.89-1-2.89-3V56.65c0-12.89-14.62-14-18.66-14-12.29,0-20.39,4.59-20.78,16.71v1.54h7.89V59.34c.6-3.84,1.92-9.81,11.54-9.81,7.89,0,11.74,2.89,11.74,8.27,0,5-2.31,5.78-4.43,6L187.09,65.5c-14,1.73-15.36,11.52-15.36,15.78,0,8.63,6.51,14.4,15.75,14.4,9.81,0,15-4.62,18.27-8.08.2,3.85,1.32,7.69,8.85,7.69a14.85,14.85,0,0,0,4.62-1V88.2A17.1,17.1,0,0,1,216.53,88.56Z"/><polygon class="a" points="44.25 21.85 37.98 32.72 38.29 33.56 48.42 61.65 23.15 61.65 33.28 33.56 33.59 32.72 27.32 21.85 26.53 23.96 0 94.33 11.35 94.33 19.68 71.27 51.9 71.27 60.22 94.33 71.57 94.33 44.25 21.85"/><polygon class="a" points="48.42 0 35.79 21.89 23.15 0 48.42 0"/><path class="b" d="M14.37,128.16H.24V109H14.18v2.29H2.82v5.87H13.3v2.29H2.82v6.4H14.37Z"/><path class="b" d="M25.37,118.19c0-.88-.34-2.35-3.3-2.35-.72,0-2.77.24-2.77,2,0,1.14.72,1.41,2.53,1.86l2.34.59c2.91.72,3.92,1.78,3.92,3.68,0,2.88-2.37,4.61-5.51,4.61-5.52,0-5.92-3.2-6-4.88h2.26c.08,1.09.4,2.85,3.71,2.85,1.68,0,3.2-.66,3.2-2.21,0-1.12-.78-1.49-2.78-2l-2.72-.67c-1.94-.48-3.22-1.46-3.22-3.38,0-3.07,2.53-4.45,5.28-4.45,5,0,5.33,3.68,5.33,4.37Z"/><path class="b" d="M39.5,118.91a3.1,3.1,0,0,0-3.31-3c-2.9,0-3.83,2.78-3.83,5.25s.58,5.36,3.81,5.36c1.57,0,2.93-1.17,3.33-3.3h2.26c-.23,2.21-1.59,5.33-5.67,5.33-3.92,0-6.24-3-6.24-7,0-4.31,2.08-7.75,6.69-7.75,3.65,0,5,2.66,5.22,5.09Z"/><path class="b" d="M53.2,128.16v-2l-.05,0a4.62,4.62,0,0,1-4.43,2.48c-2,0-4.53-1-4.53-4.32v-10h2.34v9.25c0,2.29,1.18,3.06,2.7,3.06,3,0,3.84-2.61,3.84-4.64v-7.67h2.34v13.94Z"/><path class="b" d="M70.76,123.79a5.8,5.8,0,0,1-6.26,4.77c-3.92,0-6.24-3-6.24-7,0-4.31,2.08-7.75,6.69-7.75,4,0,6,3.2,6,8.13H60.77c0,2.9,1.36,4.58,4,4.58a3.54,3.54,0,0,0,3.6-2.74Zm-2.24-3.71c-.13-2.16-1-4.16-3.89-4.16a4.09,4.09,0,0,0-3.86,4.16Z"/><path class="b" d="M76.15,128.16H73.8V109h2.35Z"/><path class="b" d="M79.58,118.45c.11-3.33,2.32-4.63,5.76-4.63,1.12,0,5.17.32,5.17,3.89v8c0,.59.3.83.78.83a4,4,0,0,0,.77-.11v1.71a4.6,4.6,0,0,1-1.28.26c-2.08,0-2.4-1.06-2.48-2.13a6.32,6.32,0,0,1-5,2.27c-2.56,0-4.37-1.63-4.37-4,0-1.17.35-3.89,4.24-4.37l3.87-.48c.56-.05,1.22-.27,1.22-1.65s-1.07-2.27-3.28-2.27c-2.66,0-3,1.63-3.2,2.69ZM88.17,121c-.38.29-1,.51-3.87.88-1.14.16-3,.51-3,2.27,0,1.52.77,2.42,2.53,2.42,2.19,0,4.32-1.41,4.32-3.28Z"/><path class="b" d="M113.46,148.16h-2.21v-1.92h0a4.22,4.22,0,0,1-4,2.32c-4.74,0-6.13-4.45-6.13-7.79,0-3.91,2.11-7,5.81-7a4.71,4.71,0,0,1,4.16,2.37l.06-.19v-7h2.34Zm-6.18-1.63c1.49,0,3.81-1,3.81-4.69,0-2.26-.37-5.92-3.76-5.92-3.62,0-3.81,3.44-3.81,5.23C103.52,144.21,104.72,146.53,107.28,146.53Z"/><path class="b" d="M128.55,143.79a5.81,5.81,0,0,1-6.27,4.77c-3.92,0-6.23-3-6.23-7,0-4.31,2.07-7.75,6.69-7.75,4,0,6,3.2,6,8.13H118.55c0,2.9,1.36,4.58,4,4.58a3.53,3.53,0,0,0,3.6-2.74Zm-2.24-3.71c-.13-2.16-1-4.16-3.89-4.16a4.1,4.1,0,0,0-3.87,4.16Z"/><path class="c" d="M139.37,129h7.75c5,0,8,3.78,8,9.3,0,4.29-1.86,9.84-8.15,9.84h-7.65ZM142,146h5c3.36,0,5.55-2.64,5.55-7.47s-2.21-7.25-5.73-7.25H142Z"/><path class="c" d="M158.24,131.68V129h2.34v2.66Zm2.34,16.48h-2.34V134.22h2.34Z"/><path class="c" d="M172,138.19c0-.88-.35-2.35-3.31-2.35-.72,0-2.77.24-2.77,2,0,1.14.72,1.41,2.53,1.86l2.35.59c2.9.72,3.92,1.78,3.92,3.68,0,2.88-2.37,4.61-5.52,4.61-5.52,0-5.92-3.2-6-4.88h2.27c.08,1.09.4,2.85,3.7,2.85,1.68,0,3.2-.66,3.2-2.21,0-1.12-.77-1.49-2.77-2l-2.72-.67c-2-.48-3.23-1.46-3.23-3.38,0-3.07,2.54-4.45,5.28-4.45,5,0,5.33,3.68,5.33,4.37Z"/><path class="c" d="M189.26,143.79a5.8,5.8,0,0,1-6.26,4.77c-3.92,0-6.24-3-6.24-7,0-4.31,2.08-7.75,6.69-7.75,4,0,6,3.2,6,8.13H179.27c0,2.9,1.36,4.58,4,4.58a3.54,3.54,0,0,0,3.6-2.74ZM187,140.08c-.13-2.16-1-4.16-3.89-4.16a4.09,4.09,0,0,0-3.86,4.16Z"/><path class="c" d="M203.6,148.16h-2.34v-8.58c0-2.43-.7-3.66-3-3.66-1.33,0-3.68.86-3.68,4.64v7.6h-2.34V134.22h2.21v2h0a5,5,0,0,1,4.21-2.37c2.16,0,4.88.88,4.88,4.85Zm-1.38-19.25c-.19,1.6-1.15,2.91-2.67,2.91a4.69,4.69,0,0,1-1.57-.35l-.69-.24a5.27,5.27,0,0,0-1.63-.4c-.72,0-1,.48-1.25,1.17h-1.28c.21-1.57,1-2.85,2.77-2.85a5,5,0,0,1,1.81.4l.59.24a4.07,4.07,0,0,0,1.25.35c1.07,0,1.23-.72,1.33-1.23Z"/><path class="c" d="M212.74,133.82c4.46,0,6.48,3.76,6.48,7.35s-2,7.36-6.48,7.36-6.47-3.76-6.47-7.36S208.29,133.82,212.74,133.82Zm0,12.69c3.36,0,4.06-3.47,4.06-5.34s-.7-5.33-4.06-5.33-4.05,3.47-4.05,5.33S209.38,146.51,212.74,146.51Z"/></svg>