<svg xmlns="http://www.w3.org/2000/svg" viewBox="0 0 1190.55 85.04"><defs><style>.a,.d{fill:#8fc7ff;}.b,.c{fill:#0080ff;}.c,.d,.e{fill-rule:evenodd;}.e{fill:#fff;}</style></defs><rect class="a" x="42.52" width="42.52" height="42.52"/><rect class="a" x="127.56" width="42.52" height="42.52"/><rect class="b" x="255.12" width="42.52" height="42.52"/><rect class="a" width="42.52" height="42.52"/><polygon class="c" points="28.35 0 14.17 0 0 0 0 14.17 0 28.35 0 42.52 14.17 42.52 14.17 28.35 14.17 14.17 28.35 14.17 42.52 14.17 42.52 0 28.35 0"/><rect class="b" x="28.35" y="28.35" width="14.17" height="14.17"/><rect class="a" x="85.04" y="42.52" width="42.52" height="42.52"/><rect class="a" x="170.08" y="42.52" width="42.52" height="42.52"/><rect class="a" x="255.12" y="42.52" width="42.52" height="42.52"/><polyline class="d" points="212.6 0 212.6 42.52 170.08 42.52 170.08 0"/><polygon class="c" points="198.43 0 198.43 14.17 198.43 28.35 184.25 28.35 184.25 14.17 184.25 0 170.08 0 170.08 14.17 170.08 28.35 170.08 42.52 184.25 42.52 198.43 42.52 212.6 42.52 212.6 28.35 212.6 14.17 212.6 0 198.43 0"/><rect class="a" y="42.52" width="42.52" height="42.52"/><rect class="a" x="42.52" y="42.52" width="42.52" height="42.52"/><polygon class="c" points="70.87 70.87 70.87 56.69 56.69 56.69 56.69 42.52 42.52 42.52 42.52 56.69 42.52 70.87 56.69 70.87 56.69 85.04 70.87 85.04 85.04 85.04 85.04 70.87 70.87 70.87"/><rect class="a" x="212.6" y="42.52" width="42.52" height="42.52"/><rect class="b" x="212.6" y="42.52" width="14.17" height="14.17"/><rect class="b" x="212.6" y="70.87" width="14.17" height="14.17"/><polygon class="c" points="240.94 42.52 240.94 56.69 240.94 70.87 240.94 85.04 255.12 85.04 255.12 70.87 255.12 56.69 255.12 42.52 240.94 42.52"/><rect class="a" x="85.04" width="42.52" height="42.52"/><polygon class="c" points="113.39 0 99.21 0 99.21 14.17 113.39 14.17 113.39 28.35 99.21 28.35 85.04 28.35 85.04 42.52 99.21 42.52 113.39 42.52 127.56 42.52 127.56 28.35 127.56 14.17 127.56 0 113.39 0"/><rect class="a" x="127.56" y="42.52" width="42.52" height="42.52"/><polygon class="c" points="155.91 42.52 141.73 42.52 127.56 42.52 127.56 56.69 127.56 70.87 127.56 85.04 141.73 85.04 141.73 70.87 141.73 56.69 155.91 56.69 170.08 56.69 170.08 42.52 155.91 42.52"/><rect class="b" x="155.91" y="70.87" width="14.17" height="14.17"/><rect class="a" x="42.52" width="42.52" height="42.52"/><polygon class="e" points="70.87 28.35 70.87 14.17 56.69 14.17 56.69 0 42.52 0 42.52 14.17 42.52 28.35 56.69 28.35 56.69 42.52 70.87 42.52 85.04 42.52 85.04 28.35 70.87 28.35"/><rect class="a" x="170.08" y="42.52" width="42.52" height="42.52"/><polygon class="e" points="198.43 42.52 184.25 42.52 184.25 56.69 198.43 56.69 198.43 70.87 184.25 70.87 170.08 70.87 170.08 85.04 184.25 85.04 198.43 85.04 212.6 85.04 212.6 70.87 212.6 56.69 212.6 42.52 198.43 42.52"/><polyline class="e" points="255.12 0 255.12 42.52 212.6 42.52 212.6 0"/><polygon class="d" points="240.94 0 240.94 14.17 240.94 28.35 226.77 28.35 226.77 14.17 226.77 0 212.6 0 212.6 14.17 212.6 28.35 212.6 42.52 226.77 42.52 240.94 42.52 255.12 42.52 255.12 28.35 255.12 14.17 255.12 0 240.94 0"/><rect class="a" x="510.24" y="42.52" width="42.52" height="42.52" transform="translate(1062.99 127.56) rotate(180)"/><rect class="a" x="425.2" y="42.52" width="42.52" height="42.52" transform="translate(892.91 127.56) rotate(180)"/><rect class="b" x="297.64" y="42.52" width="42.52" height="42.52" transform="translate(637.8 127.56) rotate(180)"/><rect class="a" x="552.76" y="42.52" width="42.52" height="42.52" transform="translate(1148.03 127.56) rotate(180)"/><polygon class="c" points="566.93 85.04 581.1 85.04 595.28 85.04 595.28 70.87 595.28 56.69 595.28 42.52 581.1 42.52 581.1 56.69 581.1 70.87 566.93 70.87 552.76 70.87 552.76 85.04 566.93 85.04"/><rect class="b" x="552.76" y="42.52" width="14.17" height="14.17" transform="translate(1119.69 99.21) rotate(180)"/><rect class="a" x="467.72" width="42.52" height="42.52" transform="translate(977.95 42.52) rotate(180)"/><rect class="a" x="382.68" width="42.52" height="42.52" transform="translate(807.87 42.52) rotate(180)"/><rect class="a" x="297.64" width="42.52" height="42.52" transform="translate(637.8 42.52) rotate(180)"/><polyline class="d" points="382.68 85.04 382.68 42.52 425.2 42.52 425.2 85.04"/><polygon class="c" points="396.85 85.04 396.85 70.87 396.85 56.69 411.02 56.69 411.02 70.87 411.02 85.04 425.2 85.04 425.2 70.87 425.2 56.69 425.2 42.52 411.02 42.52 396.85 42.52 382.68 42.52 382.68 56.69 382.68 70.87 382.68 85.04 396.85 85.04"/><rect class="a" x="552.76" width="42.52" height="42.52" transform="translate(1148.03 42.52) rotate(180)"/><rect class="a" x="510.24" width="42.52" height="42.52" transform="translate(1062.99 42.52) rotate(180)"/><polygon class="c" points="524.41 14.17 524.41 28.35 538.58 28.35 538.58 42.52 552.76 42.52 552.76 28.35 552.76 14.17 538.58 14.17 538.58 0 524.41 0 510.24 0 510.24 14.17 524.41 14.17"/><rect class="a" x="340.16" width="42.52" height="42.52" transform="translate(722.83 42.52) rotate(180)"/><rect class="b" x="368.5" y="28.35" width="14.17" height="14.17" transform="translate(751.18 70.87) rotate(180)"/><rect class="b" x="368.5" width="14.17" height="14.17" transform="translate(751.18 14.17) rotate(180)"/><polygon class="c" points="354.33 42.52 354.33 28.35 354.33 14.17 354.33 0 340.16 0 340.16 14.17 340.16 28.35 340.16 42.52 354.33 42.52"/><rect class="a" x="467.72" y="42.52" width="42.52" height="42.52" transform="translate(977.95 127.56) rotate(180)"/><polygon class="c" points="481.89 85.04 496.06 85.04 496.06 70.87 481.89 70.87 481.89 56.69 496.06 56.69 510.24 56.69 510.24 42.52 496.06 42.52 481.89 42.52 467.72 42.52 467.72 56.69 467.72 70.87 467.72 85.04 481.89 85.04"/><rect class="a" x="425.2" width="42.52" height="42.52" transform="translate(892.91 42.52) rotate(180)"/><polygon class="c" points="439.37 42.52 453.54 42.52 467.72 42.52 467.72 28.35 467.72 14.17 467.72 0 453.54 0 453.54 14.17 453.54 28.35 439.37 28.35 425.2 28.35 425.2 42.52 439.37 42.52"/><rect class="b" x="425.2" width="14.17" height="14.17" transform="translate(864.57 14.17) rotate(180)"/><rect class="a" x="510.24" y="42.52" width="42.52" height="42.52" transform="translate(1062.99 127.56) rotate(180)"/><polygon class="e" points="524.41 56.69 524.41 70.87 538.58 70.87 538.58 85.04 552.76 85.04 552.76 70.87 552.76 56.69 538.58 56.69 538.58 42.52 524.41 42.52 510.24 42.52 510.24 56.69 524.41 56.69"/><rect class="a" x="382.68" width="42.52" height="42.52" transform="translate(807.87 42.52) rotate(180)"/><polygon class="e" points="396.85 42.52 411.02 42.52 411.02 28.35 396.85 28.35 396.85 14.17 411.02 14.17 425.2 14.17 425.2 0 411.02 0 396.85 0 382.68 0 382.68 14.17 382.68 28.35 382.68 42.52 396.85 42.52"/><polyline class="e" points="340.16 85.04 340.16 42.52 382.68 42.52 382.68 85.04"/><polygon class="d" points="354.33 85.04 354.33 70.87 354.33 56.69 368.5 56.69 368.5 70.87 368.5 85.04 382.68 85.04 382.68 70.87 382.68 56.69 382.68 42.52 368.5 42.52 354.33 42.52 340.16 42.52 340.16 56.69 340.16 70.87 340.16 85.04 354.33 85.04"/><rect class="a" x="637.8" width="42.52" height="42.52"/><rect class="a" x="722.83" width="42.52" height="42.52"/><rect class="b" x="850.39" width="42.52" height="42.52"/><rect class="a" x="595.28" width="42.52" height="42.52"/><polygon class="c" points="623.62 0 609.45 0 595.28 0 595.28 14.17 595.28 28.35 595.28 42.52 609.45 42.52 609.45 28.35 609.45 14.17 623.62 14.17 637.79 14.17 637.79 0 623.62 0"/><rect class="b" x="623.62" y="28.35" width="14.17" height="14.17"/><rect class="a" x="680.31" y="42.52" width="42.52" height="42.52"/><rect class="a" x="765.35" y="42.52" width="42.52" height="42.52"/><rect class="a" x="850.39" y="42.52" width="42.52" height="42.52"/><polyline class="d" points="807.87 0 807.87 42.52 765.35 42.52 765.35 0"/><polygon class="c" points="793.7 0 793.7 14.17 793.7 28.35 779.53 28.35 779.53 14.17 779.53 0 765.35 0 765.35 14.17 765.35 28.35 765.35 42.52 779.53 42.52 793.7 42.52 807.87 42.52 807.87 28.35 807.87 14.17 807.87 0 793.7 0"/><rect class="a" x="595.28" y="42.52" width="42.52" height="42.52"/><rect class="a" x="637.8" y="42.52" width="42.52" height="42.52"/><polygon class="c" points="666.14 70.87 666.14 56.69 651.97 56.69 651.97 42.52 637.79 42.52 637.79 56.69 637.79 70.87 651.97 70.87 651.97 85.04 666.14 85.04 680.32 85.04 680.32 70.87 666.14 70.87"/><rect class="a" x="807.87" y="42.52" width="42.52" height="42.52"/><rect class="b" x="807.87" y="42.52" width="14.17" height="14.17"/><rect class="b" x="807.87" y="70.87" width="14.17" height="14.17"/><polygon class="c" points="836.22 42.52 836.22 56.69 836.22 70.87 836.22 85.04 850.39 85.04 850.39 70.87 850.39 56.69 850.39 42.52 836.22 42.52"/><rect class="a" x="680.31" width="42.52" height="42.52"/><polygon class="c" points="708.66 0 694.49 0 694.49 14.17 708.66 14.17 708.66 28.35 694.49 28.35 680.32 28.35 680.32 42.52 694.49 42.52 708.66 42.52 722.84 42.52 722.84 28.35 722.84 14.17 722.84 0 708.66 0"/><rect class="a" x="722.83" y="42.52" width="42.52" height="42.52"/><polygon class="c" points="751.18 42.52 737.01 42.52 722.84 42.52 722.84 56.69 722.84 70.87 722.84 85.04 737.01 85.04 737.01 70.87 737.01 56.69 751.18 56.69 765.35 56.69 765.35 42.52 751.18 42.52"/><rect class="b" x="751.18" y="70.87" width="14.17" height="14.17"/><rect class="a" x="637.8" width="42.52" height="42.52"/><polygon class="e" points="666.14 28.35 666.14 14.17 651.97 14.17 651.97 0 637.79 0 637.79 14.17 637.79 28.35 651.97 28.35 651.97 42.52 666.14 42.52 680.32 42.52 680.32 28.35 666.14 28.35"/><rect class="a" x="765.35" y="42.52" width="42.52" height="42.52"/><polygon class="e" points="793.7 42.52 779.53 42.52 779.53 56.69 793.7 56.69 793.7 70.87 779.53 70.87 765.35 70.87 765.35 85.04 779.53 85.04 793.7 85.04 807.87 85.04 807.87 70.87 807.87 56.69 807.87 42.52 793.7 42.52"/><polyline class="e" points="850.39 0 850.39 42.52 807.87 42.52 807.87 0"/><polygon class="d" points="836.22 0 836.22 14.17 836.22 28.35 822.05 28.35 822.05 14.17 822.05 0 807.87 0 807.87 14.17 807.87 28.35 807.87 42.52 822.05 42.52 836.22 42.52 850.39 42.52 850.39 28.35 850.39 14.17 850.39 0 836.22 0"/><rect class="a" x="1105.51" y="42.52" width="42.52" height="42.52" transform="translate(2253.54 127.56) rotate(180)"/><rect class="a" x="1020.47" y="42.52" width="42.52" height="42.52" transform="translate(2083.46 127.56) rotate(180)"/><rect class="b" x="892.91" y="42.52" width="42.52" height="42.52" transform="translate(1828.35 127.56) rotate(180)"/><rect class="a" x="1148.03" y="42.52" width="42.52" height="42.52" transform="translate(2338.58 127.56) rotate(180)"/><polygon class="c" points="1162.2 85.04 1176.38 85.04 1190.55 85.04 1190.55 70.87 1190.55 56.69 1190.55 42.52 1176.38 42.52 1176.38 56.69 1176.38 70.87 1162.2 70.87 1148.03 70.87 1148.03 85.04 1162.2 85.04"/><rect class="b" x="1148.03" y="42.52" width="14.17" height="14.17" transform="translate(2310.24 99.21) rotate(180)"/><rect class="a" x="1062.99" width="42.52" height="42.52" transform="translate(2168.5 42.52) rotate(180)"/><rect class="a" x="977.95" width="42.52" height="42.52" transform="translate(1998.43 42.52) rotate(180)"/><rect class="a" x="892.91" width="42.52" height="42.52" transform="translate(1828.35 42.52) rotate(180)"/><polyline class="d" points="977.95 85.04 977.95 42.52 1020.47 42.52 1020.47 85.04"/><polygon class="c" points="992.13 85.04 992.13 70.87 992.13 56.69 1006.3 56.69 1006.3 70.87 1006.3 85.04 1020.47 85.04 1020.47 70.87 1020.47 56.69 1020.47 42.52 1006.3 42.52 992.13 42.52 977.95 42.52 977.95 56.69 977.95 70.87 977.95 85.04 992.13 85.04"/><rect class="a" x="1148.03" width="42.52" height="42.52" transform="translate(2338.58 42.52) rotate(180)"/><rect class="a" x="1105.51" width="42.52" height="42.52" transform="translate(2253.54 42.52) rotate(180)"/><polygon class="c" points="1119.68 14.17 1119.68 28.35 1133.86 28.35 1133.86 42.52 1148.03 42.52 1148.03 28.35 1148.03 14.17 1133.86 14.17 1133.86 0 1119.68 0 1105.51 0 1105.51 14.17 1119.68 14.17"/><rect class="a" x="935.43" width="42.52" height="42.52" transform="translate(1913.39 42.52) rotate(180)"/><rect class="b" x="963.78" y="28.35" width="14.17" height="14.17" transform="translate(1941.73 70.87) rotate(180)"/><rect class="b" x="963.78" width="14.17" height="14.17" transform="translate(1941.73 14.17) rotate(180)"/><polygon class="c" points="949.61 42.52 949.61 28.35 949.61 14.17 949.61 0 935.43 0 935.43 14.17 935.43 28.35 935.43 42.52 949.61 42.52"/><rect class="a" x="1062.99" y="42.52" width="42.52" height="42.52" transform="translate(2168.5 127.56) rotate(180)"/><polygon class="c" points="1077.16 85.04 1091.34 85.04 1091.34 70.87 1077.16 70.87 1077.16 56.69 1091.34 56.69 1105.51 56.69 1105.51 42.52 1091.34 42.52 1077.16 42.52 1062.99 42.52 1062.99 56.69 1062.99 70.87 1062.99 85.04 1077.16 85.04"/><rect class="a" x="1020.47" width="42.52" height="42.52" transform="translate(2083.46 42.52) rotate(180)"/><polygon class="c" points="1034.65 42.52 1048.82 42.52 1062.99 42.52 1062.99 28.35 1062.99 14.17 1062.99 0 1048.82 0 1048.82 14.17 1048.82 28.35 1034.65 28.35 1020.47 28.35 1020.47 42.52 1034.65 42.52"/><rect class="b" x="1020.47" width="14.17" height="14.17" transform="translate(2055.12 14.17) rotate(180)"/><rect class="a" x="1105.51" y="42.52" width="42.52" height="42.52" transform="translate(2253.54 127.56) rotate(180)"/><polygon class="e" points="1119.68 56.69 1119.68 70.87 1133.86 70.87 1133.86 85.04 1148.03 85.04 1148.03 70.87 1148.03 56.69 1133.86 56.69 1133.86 42.52 1119.68 42.52 1105.51 42.52 1105.51 56.69 1119.68 56.69"/><rect class="a" x="977.95" width="42.52" height="42.52" transform="translate(1998.43 42.52) rotate(180)"/><polygon class="e" points="992.13 42.52 1006.3 42.52 1006.3 28.35 992.13 28.35 992.13 14.17 1006.3 14.17 1020.47 14.17 1020.47 0 1006.3 0 992.13 0 977.95 0 977.95 14.17 977.95 28.35 977.95 42.52 992.13 42.52"/><polyline class="e" points="935.43 85.04 935.43 42.52 977.95 42.52 977.95 85.04"/><polygon class="d" points="949.61 85.04 949.61 70.87 949.61 56.69 963.78 56.69 963.78 70.87 963.78 85.04 977.95 85.04 977.95 70.87 977.95 56.69 977.95 42.52 963.78 42.52 949.61 42.52 935.43 42.52 935.43 56.69 935.43 70.87 935.43 85.04 949.61 85.04"/></svg>