<svg xmlns="http://www.w3.org/2000/svg" viewBox="0 0 723.34 281.06"><defs><style>.a{fill:#91b4ff;}.b{fill:#457fff;}.c{fill:#bdd1ff;}.d{fill:#fff;}.e{fill:#e90c00;}</style></defs><rect class="a" x="672.08" y="1.06" width="8.76" height="37.78" transform="translate(656.51 696.41) rotate(-90)"/><polyline class="b" points="559.47 69.49 519.95 1.04 598.99 1.04 559.47 69.49"/><polygon class="a" points="160.87 175.95 156.13 184.15 165.61 184.15 160.87 175.95"/><polygon class="c" points="11.47 0 11.47 6.46 11.47 31.3 33.4 69.27 55.32 31.3 55.32 6.46 55.32 0 11.47 0"/><rect class="b" x="11.48" width="8.81" height="31.3"/><rect class="b" x="46.51" width="8.81" height="31.3"/><rect class="b" x="28.99" width="8.81" height="31.3"/><path class="b" d="M41.4,67.27,35.59,78.15l8.75,26.07H21.42L30.93,78.1,25.28,67.32,0,134.54H10.58l7.71-21.48h29.6l7.29,21.48H65.76Z"/><polygon class="b" points="33.4 69.27 44.1 50.73 22.7 50.73 33.4 69.27"/><path class="b" d="M453,7.63A1.37,1.37,0,0,1,454.34,9V43.35A1.38,1.38,0,0,1,453,44.73H435.21l-1.73,3L428,57.26l-5.5-9.53-1.73-3H402a1.38,1.38,0,0,1-1.37-1.38V9A1.37,1.37,0,0,1,402,7.63h51m0-6H402A7.37,7.37,0,0,0,394.58,9V43.35A7.37,7.37,0,0,0,402,50.73h15.32L428,69.26l10.7-18.53H453a7.37,7.37,0,0,0,7.38-7.38V9A7.37,7.37,0,0,0,453,1.63Z"/><polygon class="b" points="435.98 67.5 430.17 78.38 438.92 104.45 416 104.45 425.51 78.33 419.86 67.55 394.58 134.77 405.16 134.77 412.87 113.29 442.46 113.29 449.76 134.77 460.34 134.77 435.98 67.5"/><polygon class="b" points="567.48 67.5 561.67 78.38 570.41 104.45 547.5 104.45 557.01 78.33 551.35 67.55 526.08 134.77 536.66 134.77 544.37 113.29 573.96 113.29 581.26 134.77 591.84 134.77 567.48 67.5"/><polygon class="b" points="559.47 69.49 570.17 50.96 548.77 50.96 559.47 69.49"/><rect class="d" x="554.68" y="5.66" width="9.59" height="27.85" rx="4.79"/><rect class="d" x="554.68" y="38.95" width="9.59" height="9.59" rx="4.79"/><polygon class="b" points="41.4 213.79 35.59 224.67 44.34 250.75 21.43 250.75 30.93 224.63 25.28 213.85 0 281.06 10.58 281.06 18.29 259.59 47.89 259.59 55.18 281.06 65.76 281.06 41.4 213.79"/><polyline class="a" points="33.4 215.79 54.8 178.72 61.65 178.72 41.4 213.79 35.59 224.67 30.93 224.63 15.13 197.26 22.7 197.26 33.4 215.79"/><polygon class="b" points="172.93 213.79 167.12 224.67 175.87 250.75 152.95 250.75 162.46 224.63 156.8 213.85 131.53 281.06 142.11 281.06 149.82 259.59 179.41 259.59 186.71 281.06 197.29 281.06 172.93 213.79"/><polygon class="a" points="164.92 215.79 183.19 184.15 146.66 184.15 164.92 215.79"/><polygon class="a" points="151.4 175.95 146.66 184.15 156.13 184.15 151.4 175.95"/><polygon class="e" points="178.45 175.95 173.71 184.15 183.19 184.15 178.45 175.95"/><polygon class="e" points="173.71 184.15 178.45 175.95 168.97 175.95 173.71 184.15"/><polygon class="a" points="156.13 184.15 160.87 175.95 151.4 175.95 156.13 184.15"/><polygon class="a" points="168.97 175.95 164.23 184.15 173.71 184.15 168.97 175.95"/><polygon class="b" points="172.93 67.5 167.12 78.38 175.87 104.45 152.95 104.45 162.46 78.33 156.8 67.55 131.53 134.77 142.11 134.77 149.82 113.29 179.41 113.29 186.71 134.77 197.29 134.77 172.93 67.5"/><polygon class="b" points="133.29 46.51 154.22 50.96 147.61 30.6 133.29 46.51"/><polygon class="b" points="182.24 30.6 175.62 50.96 196.56 46.51 182.24 30.6"/><polyline class="b" points="164.92 18.02 164.78 18.13 147.61 30.6 145.37 9.32"/><polyline class="b" points="184.47 9.32 182.24 30.6 165.06 18.13 164.92 18.02"/><polygon class="b" points="182.24 30.6 164.92 18.02 147.61 30.6 154.22 50.96 175.62 50.96 182.24 30.6"/><polygon class="b" points="164.92 69.49 175.62 50.96 154.22 50.96 164.92 69.49"/><polygon class="b" points="164.92 182.96 173.71 200.57 183.19 184.15 178.45 175.95 168.97 175.95 164.92 182.96"/><path class="b" d="M279.4,40l17.05,29.53L313.5,40h-.11a20.84,20.84,0,1,0-33.88,0Z"/><polygon class="b" points="304.46 67.5 298.64 78.38 307.39 104.45 284.48 104.45 293.99 78.33 288.33 67.55 263.05 134.77 273.64 134.77 281.34 113.29 310.94 113.29 318.23 134.77 328.81 134.77 304.46 67.5"/><circle class="d" cx="296.45" cy="27.88" r="7.31"/><path class="b" d="M699,67.27l-5.82,10.88,8.75,26.07H679l9.51-26.12-5.66-10.78-25.28,67.22h10.59l7.71-21.48h29.59l7.29,21.48h10.59Z"/><polygon class="b" points="690.97 69.16 701.67 50.62 680.27 50.62 690.97 69.16"/><rect class="b" x="686.59" y="15.57" width="8.76" height="35.06"/></svg>